<svg width="513" height="139" viewBox="0 0 513 139" fill="none" xmlns="http://www.w3.org/2000/svg">
<path d="M26.352 11.736V15.768H15.888V45H11.232V15.768H0.768V11.736H26.352ZM50.3876 32.52C50.3876 34.504 50.0996 36.296 49.5236 37.896C48.9476 39.496 48.1316 40.872 47.0756 42.024C46.0516 43.176 44.8196 44.072 43.3796 44.712C41.9396 45.32 40.3716 45.624 38.6756 45.624C36.9796 45.624 35.4116 45.32 33.9716 44.712C32.5316 44.072 31.2836 43.176 30.2276 42.024C29.2036 40.872 28.4036 39.496 27.8276 37.896C27.2516 36.296 26.9636 34.504 26.9636 32.52C26.9636 30.568 27.2516 28.792 27.8276 27.192C28.4036 25.56 29.2036 24.168 30.2276 23.016C31.2836 21.864 32.5316 20.984 33.9716 20.376C35.4116 19.736 36.9796 19.416 38.6756 19.416C40.3716 19.416 41.9396 19.736 43.3796 20.376C44.8196 20.984 46.0516 21.864 47.0756 23.016C48.1316 24.168 48.9476 25.56 49.5236 27.192C50.0996 28.792 50.3876 30.568 50.3876 32.52ZM45.7316 32.52C45.7316 29.704 45.0916 27.48 43.8116 25.848C42.5636 24.184 40.8516 23.352 38.6756 23.352C36.4996 23.352 34.7716 24.184 33.4916 25.848C32.2436 27.48 31.6196 29.704 31.6196 32.52C31.6196 35.336 32.2436 37.576 33.4916 39.24C34.7716 40.872 36.4996 41.688 38.6756 41.688C40.8516 41.688 42.5636 40.872 43.8116 39.24C45.0916 37.576 45.7316 35.336 45.7316 32.52ZM72.3161 42.504C71.9321 42.76 71.1801 43.096 70.0601 43.512C68.9721 43.896 67.6921 44.088 66.2201 44.088C64.7161 44.088 63.2921 43.848 61.9481 43.368C60.6361 42.888 59.4841 42.152 58.4921 41.16C57.5001 40.136 56.7161 38.872 56.1401 37.368C55.5641 35.864 55.2761 34.072 55.2761 31.992C55.2761 30.168 55.5481 28.504 56.0921 27C56.6361 25.464 57.4201 24.152 58.4441 23.064C59.5001 21.944 60.7801 21.08 62.2841 20.472C63.7881 19.832 65.4841 19.512 67.3721 19.512C69.4521 19.512 71.2601 19.672 72.7961 19.992C74.3641 20.28 75.6761 20.552 76.7321 20.808V43.08C76.7321 46.92 75.7401 49.704 73.7561 51.432C71.7721 53.16 68.7641 54.024 64.7321 54.024C63.1641 54.024 61.6761 53.896 60.2681 53.64C58.8921 53.384 57.6921 53.08 56.6681 52.728L57.4841 48.84C58.3801 49.192 59.4681 49.496 60.7481 49.752C62.0601 50.04 63.4201 50.184 64.8281 50.184C67.4841 50.184 69.3881 49.656 70.5401 48.6C71.7241 47.544 72.3161 45.864 72.3161 43.56V42.504ZM72.2681 23.976C71.8201 23.848 71.2121 23.736 70.4441 23.64C69.7081 23.512 68.7001 23.448 67.4201 23.448C65.0201 23.448 63.1641 24.232 61.8521 25.8C60.5721 27.368 59.9321 29.448 59.9321 32.04C59.9321 33.48 60.1081 34.712 60.4601 35.736C60.8441 36.76 61.3401 37.608 61.9481 38.28C62.5881 38.952 63.3081 39.448 64.1081 39.768C64.9401 40.088 65.7881 40.248 66.6521 40.248C67.8361 40.248 68.9241 40.088 69.9161 39.768C70.9081 39.416 71.6921 39.016 72.2681 38.568V23.976ZM83.0261 32.568C83.0261 30.36 83.3461 28.44 83.9861 26.808C84.6261 25.144 85.4741 23.768 86.5301 22.68C87.5861 21.592 88.8021 20.776 90.1781 20.232C91.5541 19.688 92.9621 19.416 94.4021 19.416C97.7621 19.416 100.338 20.472 102.13 22.584C103.922 24.664 104.818 27.848 104.818 32.136C104.818 32.328 104.818 32.584 104.818 32.904C104.818 33.192 104.802 33.464 104.77 33.72H87.6821C87.8741 36.312 88.6261 38.28 89.9381 39.624C91.2501 40.968 93.2981 41.64 96.0821 41.64C97.6501 41.64 98.9621 41.512 100.018 41.256C101.106 40.968 101.922 40.696 102.466 40.44L103.09 44.184C102.546 44.472 101.586 44.776 100.21 45.096C98.8661 45.416 97.3301 45.576 95.6021 45.576C93.4261 45.576 91.5381 45.256 89.9381 44.616C88.3701 43.944 87.0741 43.032 86.0501 41.88C85.0261 40.728 84.2581 39.368 83.7461 37.8C83.2661 36.2 83.0261 34.456 83.0261 32.568ZM100.162 30.12C100.194 28.104 99.6821 26.456 98.6261 25.176C97.6021 23.864 96.1781 23.208 94.3541 23.208C93.3301 23.208 92.4181 23.416 91.6181 23.832C90.8501 24.216 90.1941 24.728 89.6501 25.368C89.1061 26.008 88.6741 26.744 88.3541 27.576C88.0661 28.408 87.8741 29.256 87.7781 30.12H100.162ZM115.407 20.04H124.863V23.784H115.407V35.304C115.407 36.552 115.503 37.592 115.695 38.424C115.887 39.224 116.175 39.864 116.559 40.344C116.943 40.792 117.423 41.112 117.999 41.304C118.575 41.496 119.247 41.592 120.015 41.592C121.359 41.592 122.431 41.448 123.231 41.16C124.063 40.84 124.639 40.616 124.959 40.488L125.823 44.184C125.375 44.408 124.591 44.68 123.471 45C122.351 45.352 121.071 45.528 119.631 45.528C117.935 45.528 116.527 45.32 115.407 44.904C114.319 44.456 113.439 43.8 112.767 42.936C112.095 42.072 111.615 41.016 111.327 39.768C111.071 38.488 110.943 37.016 110.943 35.352V13.08L115.407 12.312V20.04ZM130.543 45V8.52L135.007 7.752V20.52C135.839 20.2 136.719 19.96 137.647 19.8C138.607 19.608 139.551 19.512 140.479 19.512C142.463 19.512 144.111 19.8 145.423 20.376C146.735 20.92 147.775 21.704 148.543 22.728C149.343 23.72 149.903 24.92 150.223 26.328C150.543 27.736 150.703 29.288 150.703 30.984V45H146.239V31.944C146.239 30.408 146.127 29.096 145.903 28.008C145.711 26.92 145.375 26.04 144.895 25.368C144.415 24.696 143.775 24.216 142.975 23.928C142.175 23.608 141.183 23.448 139.999 23.448C139.519 23.448 139.023 23.48 138.511 23.544C137.999 23.608 137.503 23.688 137.023 23.784C136.575 23.848 136.159 23.928 135.775 24.024C135.423 24.12 135.167 24.2 135.007 24.264V45H130.543ZM156.573 32.568C156.573 30.36 156.893 28.44 157.533 26.808C158.173 25.144 159.021 23.768 160.077 22.68C161.133 21.592 162.349 20.776 163.725 20.232C165.101 19.688 166.509 19.416 167.949 19.416C171.309 19.416 173.885 20.472 175.677 22.584C177.469 24.664 178.365 27.848 178.365 32.136C178.365 32.328 178.365 32.584 178.365 32.904C178.365 33.192 178.349 33.464 178.317 33.72H161.229C161.421 36.312 162.173 38.28 163.485 39.624C164.797 40.968 166.845 41.64 169.629 41.64C171.197 41.64 172.509 41.512 173.565 41.256C174.653 40.968 175.469 40.696 176.013 40.44L176.637 44.184C176.093 44.472 175.133 44.776 173.757 45.096C172.413 45.416 170.877 45.576 169.149 45.576C166.973 45.576 165.085 45.256 163.485 44.616C161.917 43.944 160.621 43.032 159.597 41.88C158.573 40.728 157.805 39.368 157.293 37.8C156.813 36.2 156.573 34.456 156.573 32.568ZM173.709 30.12C173.741 28.104 173.229 26.456 172.173 25.176C171.149 23.864 169.725 23.208 167.901 23.208C166.877 23.208 165.965 23.416 165.165 23.832C164.397 24.216 163.741 24.728 163.197 25.368C162.653 26.008 162.221 26.744 161.901 27.576C161.613 28.408 161.421 29.256 161.325 30.12H173.709ZM193.994 19.512C194.378 19.512 194.81 19.544 195.29 19.608C195.802 19.64 196.298 19.704 196.778 19.8C197.258 19.864 197.69 19.944 198.074 20.04C198.49 20.104 198.794 20.168 198.986 20.232L198.218 24.12C197.866 23.992 197.274 23.848 196.442 23.688C195.642 23.496 194.602 23.4 193.322 23.4C192.49 23.4 191.658 23.496 190.826 23.688C190.026 23.848 189.498 23.96 189.242 24.024V45H184.778V21.096C185.834 20.712 187.146 20.36 188.714 20.04C190.282 19.688 192.042 19.512 193.994 19.512ZM337.077 25.32C336.533 24.872 335.749 24.44 334.725 24.024C333.701 23.608 332.581 23.4 331.365 23.4C330.085 23.4 328.981 23.64 328.053 24.12C327.157 24.568 326.421 25.208 325.845 26.04C325.269 26.84 324.853 27.8 324.597 28.92C324.341 30.04 324.213 31.24 324.213 32.52C324.213 35.432 324.933 37.688 326.373 39.288C327.813 40.856 329.733 41.64 332.133 41.64C333.349 41.64 334.357 41.592 335.157 41.496C335.989 41.368 336.629 41.24 337.077 41.112V25.32ZM337.077 8.52L341.541 7.752V44.28C340.517 44.568 339.205 44.856 337.605 45.144C336.005 45.432 334.165 45.576 332.085 45.576C330.165 45.576 328.437 45.272 326.901 44.664C325.365 44.056 324.053 43.192 322.965 42.072C321.877 40.952 321.029 39.592 320.421 37.992C319.845 36.36 319.557 34.536 319.557 32.52C319.557 30.6 319.797 28.84 320.277 27.24C320.789 25.64 321.525 24.264 322.485 23.112C323.445 21.96 324.613 21.064 325.989 20.424C327.397 19.784 328.997 19.464 330.789 19.464C332.229 19.464 333.493 19.656 334.581 20.04C335.701 20.424 336.533 20.792 337.077 21.144V8.52ZM353.679 45H349.215V20.04H353.679V45ZM351.423 15.528C350.623 15.528 349.935 15.272 349.359 14.76C348.815 14.216 348.543 13.496 348.543 12.6C348.543 11.704 348.815 11 349.359 10.488C349.935 9.944 350.623 9.672 351.423 9.672C352.223 9.672 352.895 9.944 353.439 10.488C354.015 11 354.303 11.704 354.303 12.6C354.303 13.496 354.015 14.216 353.439 14.76C352.895 15.272 352.223 15.528 351.423 15.528ZM377.004 42.504C376.62 42.76 375.868 43.096 374.748 43.512C373.66 43.896 372.38 44.088 370.908 44.088C369.404 44.088 367.98 43.848 366.636 43.368C365.324 42.888 364.172 42.152 363.18 41.16C362.188 40.136 361.404 38.872 360.828 37.368C360.252 35.864 359.964 34.072 359.964 31.992C359.964 30.168 360.236 28.504 360.78 27C361.324 25.464 362.108 24.152 363.132 23.064C364.188 21.944 365.468 21.08 366.972 20.472C368.476 19.832 370.172 19.512 372.06 19.512C374.14 19.512 375.948 19.672 377.484 19.992C379.052 20.28 380.364 20.552 381.42 20.808V43.08C381.42 46.92 380.428 49.704 378.444 51.432C376.46 53.16 373.452 54.024 369.42 54.024C367.852 54.024 366.364 53.896 364.956 53.64C363.58 53.384 362.38 53.08 361.356 52.728L362.172 48.84C363.068 49.192 364.156 49.496 365.436 49.752C366.748 50.04 368.108 50.184 369.516 50.184C372.172 50.184 374.076 49.656 375.228 48.6C376.412 47.544 377.004 45.864 377.004 43.56V42.504ZM376.956 23.976C376.508 23.848 375.9 23.736 375.132 23.64C374.396 23.512 373.388 23.448 372.108 23.448C369.708 23.448 367.852 24.232 366.54 25.8C365.26 27.368 364.62 29.448 364.62 32.04C364.62 33.48 364.796 34.712 365.148 35.736C365.532 36.76 366.028 37.608 366.636 38.28C367.276 38.952 367.996 39.448 368.796 39.768C369.628 40.088 370.476 40.248 371.34 40.248C372.524 40.248 373.612 40.088 374.604 39.768C375.596 39.416 376.38 39.016 376.956 38.568V23.976ZM393.57 45H389.106V20.04H393.57V45ZM391.314 15.528C390.514 15.528 389.826 15.272 389.25 14.76C388.706 14.216 388.434 13.496 388.434 12.6C388.434 11.704 388.706 11 389.25 10.488C389.826 9.944 390.514 9.672 391.314 9.672C392.114 9.672 392.786 9.944 393.33 10.488C393.906 11 394.194 11.704 394.194 12.6C394.194 13.496 393.906 14.216 393.33 14.76C392.786 15.272 392.114 15.528 391.314 15.528ZM405.422 20.04H414.878V23.784H405.422V35.304C405.422 36.552 405.518 37.592 405.71 38.424C405.902 39.224 406.19 39.864 406.574 40.344C406.958 40.792 407.438 41.112 408.014 41.304C408.59 41.496 409.262 41.592 410.03 41.592C411.374 41.592 412.446 41.448 413.246 41.16C414.078 40.84 414.654 40.616 414.974 40.488L415.838 44.184C415.39 44.408 414.606 44.68 413.486 45C412.366 45.352 411.086 45.528 409.646 45.528C407.95 45.528 406.542 45.32 405.422 44.904C404.334 44.456 403.454 43.8 402.782 42.936C402.11 42.072 401.63 41.016 401.342 39.768C401.086 38.488 400.958 37.016 400.958 35.352V13.08L405.422 12.312V20.04ZM429.007 41.784C430.063 41.784 430.991 41.768 431.791 41.736C432.623 41.672 433.311 41.576 433.855 41.448V34.008C433.535 33.848 433.007 33.72 432.271 33.624C431.567 33.496 430.703 33.432 429.679 33.432C429.007 33.432 428.287 33.48 427.519 33.576C426.783 33.672 426.095 33.88 425.455 34.2C424.847 34.488 424.335 34.904 423.919 35.448C423.503 35.96 423.295 36.648 423.295 37.512C423.295 39.112 423.807 40.232 424.831 40.872C425.855 41.48 427.247 41.784 429.007 41.784ZM428.623 19.416C430.415 19.416 431.919 19.656 433.135 20.136C434.383 20.584 435.375 21.24 436.111 22.104C436.879 22.936 437.423 23.944 437.743 25.128C438.063 26.28 438.223 27.56 438.223 28.968V44.568C437.839 44.632 437.295 44.728 436.591 44.856C435.919 44.952 435.151 45.048 434.287 45.144C433.423 45.24 432.479 45.32 431.455 45.384C430.463 45.48 429.471 45.528 428.479 45.528C427.071 45.528 425.775 45.384 424.591 45.096C423.407 44.808 422.383 44.36 421.519 43.752C420.655 43.112 419.983 42.28 419.503 41.256C419.023 40.232 418.783 39 418.783 37.56C418.783 36.184 419.055 35 419.599 34.008C420.175 33.016 420.943 32.216 421.903 31.608C422.863 31 423.983 30.552 425.263 30.264C426.543 29.976 427.887 29.832 429.295 29.832C429.743 29.832 430.207 29.864 430.687 29.928C431.167 29.96 431.615 30.024 432.031 30.12C432.479 30.184 432.863 30.248 433.183 30.312C433.503 30.376 433.727 30.424 433.855 30.456V29.208C433.855 28.472 433.775 27.752 433.615 27.048C433.455 26.312 433.167 25.672 432.751 25.128C432.335 24.552 431.759 24.104 431.023 23.784C430.319 23.432 429.391 23.256 428.239 23.256C426.767 23.256 425.471 23.368 424.351 23.592C423.263 23.784 422.447 23.992 421.903 24.216L421.375 20.52C421.951 20.264 422.911 20.024 424.255 19.8C425.599 19.544 427.055 19.416 428.623 19.416ZM453.125 45.48C450.373 45.416 448.421 44.824 447.269 43.704C446.117 42.584 445.541 40.84 445.541 38.472V8.52L450.005 7.752V37.752C450.005 38.488 450.069 39.096 450.197 39.576C450.325 40.056 450.533 40.44 450.821 40.728C451.109 41.016 451.493 41.24 451.973 41.4C452.453 41.528 453.045 41.64 453.749 41.736L453.125 45.48ZM463.226 45H458.762V20.04H463.226V45ZM460.97 15.528C460.17 15.528 459.482 15.272 458.906 14.76C458.362 14.216 458.09 13.496 458.09 12.6C458.09 11.704 458.362 11 458.906 10.488C459.482 9.944 460.17 9.672 460.97 9.672C461.77 9.672 462.442 9.944 462.986 10.488C463.562 11 463.85 11.704 463.85 12.6C463.85 13.496 463.562 14.216 462.986 14.76C462.442 15.272 461.77 15.528 460.97 15.528ZM487.463 23.4C486.791 24.136 485.895 25.176 484.775 26.52C483.687 27.864 482.503 29.352 481.223 30.984C479.975 32.616 478.711 34.328 477.431 36.12C476.183 37.912 475.079 39.624 474.118 41.256H487.847V45H468.791V42.024C469.559 40.616 470.503 39.064 471.623 37.368C472.743 35.672 473.911 33.992 475.127 32.328C476.375 30.632 477.575 29.048 478.727 27.576C479.911 26.072 480.935 24.808 481.799 23.784H469.463V20.04H487.463V23.4ZM491.214 32.568C491.214 30.36 491.534 28.44 492.174 26.808C492.814 25.144 493.662 23.768 494.718 22.68C495.774 21.592 496.99 20.776 498.366 20.232C499.742 19.688 501.15 19.416 502.59 19.416C505.95 19.416 508.526 20.472 510.318 22.584C512.11 24.664 513.006 27.848 513.006 32.136C513.006 32.328 513.006 32.584 513.006 32.904C513.006 33.192 512.99 33.464 512.958 33.72H495.87C496.062 36.312 496.814 38.28 498.126 39.624C499.438 40.968 501.486 41.64 504.27 41.64C505.838 41.64 507.15 41.512 508.206 41.256C509.294 40.968 510.11 40.696 510.654 40.44L511.278 44.184C510.734 44.472 509.774 44.776 508.398 45.096C507.054 45.416 505.518 45.576 503.79 45.576C501.614 45.576 499.726 45.256 498.126 44.616C496.558 43.944 495.262 43.032 494.238 41.88C493.214 40.728 492.446 39.368 491.934 37.8C491.454 36.2 491.214 34.456 491.214 32.568ZM508.35 30.12C508.382 28.104 507.87 26.456 506.814 25.176C505.79 23.864 504.366 23.208 502.542 23.208C501.518 23.208 500.606 23.416 499.806 23.832C499.038 24.216 498.382 24.728 497.838 25.368C497.294 26.008 496.862 26.744 496.542 27.576C496.254 28.408 496.062 29.256 495.966 30.12H508.35ZM0.912 133.656C1.264 133.816 1.712 133.96 2.256 134.088C2.832 134.248 3.392 134.328 3.936 134.328C5.696 134.328 7.072 133.928 8.064 133.128C9.056 132.36 9.952 131.096 10.752 129.336C8.736 125.496 6.848 121.432 5.088 117.144C3.36 112.824 1.92 108.456 0.768 104.04H5.568C5.92 105.48 6.336 107.032 6.816 108.696C7.328 110.36 7.888 112.072 8.496 113.832C9.104 115.592 9.76 117.352 10.464 119.112C11.168 120.872 11.904 122.568 12.672 124.2C13.888 120.84 14.944 117.512 15.84 114.216C16.736 110.92 17.584 107.528 18.384 104.04H22.992C21.84 108.744 20.56 113.272 19.152 117.624C17.744 121.944 16.224 125.992 14.592 129.768C13.952 131.208 13.28 132.44 12.576 133.464C11.904 134.52 11.152 135.384 10.32 136.056C9.488 136.728 8.544 137.224 7.488 137.544C6.464 137.864 5.296 138.024 3.984 138.024C3.632 138.024 3.264 137.992 2.88 137.928C2.496 137.896 2.112 137.832 1.728 137.736C1.376 137.672 1.04 137.592 0.72 137.496C0.432 137.4 0.224 137.32 0.096 137.256L0.912 133.656ZM49.7314 116.52C49.7314 118.504 49.4434 120.296 48.8674 121.896C48.2914 123.496 47.4754 124.872 46.4194 126.024C45.3954 127.176 44.1634 128.072 42.7234 128.712C41.2834 129.32 39.7154 129.624 38.0194 129.624C36.3234 129.624 34.7554 129.32 33.3154 128.712C31.8754 128.072 30.6274 127.176 29.5714 126.024C28.5474 124.872 27.7474 123.496 27.1714 121.896C26.5954 120.296 26.3074 118.504 26.3074 116.52C26.3074 114.568 26.5954 112.792 27.1714 111.192C27.7474 109.56 28.5474 108.168 29.5714 107.016C30.6274 105.864 31.8754 104.984 33.3154 104.376C34.7554 103.736 36.3234 103.416 38.0194 103.416C39.7154 103.416 41.2834 103.736 42.7234 104.376C44.1634 104.984 45.3954 105.864 46.4194 107.016C47.4754 108.168 48.2914 109.56 48.8674 111.192C49.4434 112.792 49.7314 114.568 49.7314 116.52ZM45.0754 116.52C45.0754 113.704 44.4354 111.48 43.1554 109.848C41.9074 108.184 40.1954 107.352 38.0194 107.352C35.8434 107.352 34.1154 108.184 32.8354 109.848C31.5874 111.48 30.9634 113.704 30.9634 116.52C30.9634 119.336 31.5874 121.576 32.8354 123.24C34.1154 124.872 35.8434 125.688 38.0194 125.688C40.1954 125.688 41.9074 124.872 43.1554 123.24C44.4354 121.576 45.0754 119.336 45.0754 116.52ZM75.8839 128.28C74.8599 128.536 73.4999 128.808 71.8039 129.096C70.1399 129.384 68.2039 129.528 65.9959 129.528C64.0759 129.528 62.4599 129.256 61.1479 128.712C59.8359 128.136 58.7799 127.336 57.9799 126.312C57.1799 125.288 56.6039 124.088 56.2519 122.712C55.8999 121.304 55.7239 119.752 55.7239 118.056V104.04H60.1879V117.096C60.1879 120.136 60.6679 122.312 61.6279 123.624C62.5879 124.936 64.2039 125.592 66.4759 125.592C66.9559 125.592 67.4519 125.576 67.9639 125.544C68.4759 125.512 68.9559 125.48 69.4039 125.448C69.8519 125.384 70.2519 125.336 70.6039 125.304C70.9879 125.24 71.2599 125.176 71.4199 125.112V104.04H75.8839V128.28ZM92.7904 103.512C93.1744 103.512 93.6064 103.544 94.0864 103.608C94.5984 103.64 95.0944 103.704 95.5744 103.8C96.0544 103.864 96.4864 103.944 96.8704 104.04C97.2864 104.104 97.5904 104.168 97.7824 104.232L97.0144 108.12C96.6624 107.992 96.0704 107.848 95.2384 107.688C94.4384 107.496 93.3984 107.4 92.1184 107.4C91.2864 107.4 90.4544 107.496 89.6224 107.688C88.8224 107.848 88.2944 107.96 88.0384 108.024V129H83.5744V105.096C84.6304 104.712 85.9424 104.36 87.5104 104.04C89.0784 103.688 90.8384 103.512 92.7904 103.512ZM338.321 104.76C338.321 107.448 338.225 109.896 338.033 112.104C337.841 114.28 337.601 116.456 337.313 118.632H334.529C334.241 116.456 334.001 114.28 333.809 112.104C333.617 109.896 333.521 107.448 333.521 104.76V95.736H338.321V104.76ZM339.137 126.408C339.137 127.272 338.849 128.024 338.273 128.664C337.697 129.304 336.913 129.624 335.921 129.624C334.929 129.624 334.145 129.304 333.569 128.664C332.993 128.024 332.705 127.272 332.705 126.408C332.705 125.544 332.993 124.792 333.569 124.152C334.145 123.512 334.929 123.192 335.921 123.192C336.913 123.192 337.697 123.512 338.273 124.152C338.849 124.792 339.137 125.544 339.137 126.408Z" fill="black"/>
<path d="M244.291 5.64C244.973 7.944 245.699 10.3547 246.467 12.872C247.235 15.3467 248.024 17.8427 248.835 20.36C249.688 22.8347 250.52 25.288 251.331 27.72C252.184 30.1093 252.995 32.3707 253.763 34.504C254.403 32.2 255.021 29.704 255.619 27.016C256.216 24.2853 256.813 21.4693 257.411 18.568C258.008 15.624 258.584 12.6373 259.139 9.608C259.736 6.57867 260.291 3.592 260.803 0.647999H269.123C267.629 8.66933 265.965 16.392 264.131 23.816C262.296 31.1973 260.248 38.2587 257.987 45H250.307C246.979 36.3813 243.757 26.9733 240.643 16.776C239.064 21.9387 237.464 26.8453 235.843 31.496C234.221 36.1467 232.6 40.648 230.979 45H223.299C220.995 38.2587 218.925 31.1973 217.091 23.816C215.299 16.392 213.656 8.66933 212.163 0.647999H220.803C221.315 3.54933 221.848 6.51467 222.403 9.544C223 12.5733 223.597 15.56 224.195 18.504C224.835 21.4053 225.475 24.2213 226.115 26.952C226.755 29.6827 227.395 32.2 228.035 34.504C228.845 32.328 229.656 30.0453 230.467 27.656C231.32 25.224 232.152 22.7707 232.963 20.296C233.773 17.7787 234.541 15.2827 235.267 12.808C236.035 10.3333 236.739 7.944 237.379 5.64H244.291ZM272.51 28.424C272.51 25.48 272.936 22.8987 273.79 20.68C274.686 18.4613 275.859 16.6267 277.31 15.176C278.76 13.6827 280.424 12.5733 282.302 11.848C284.179 11.08 286.099 10.696 288.062 10.696C292.67 10.696 296.254 12.1253 298.814 14.984C301.416 17.8427 302.718 22.1093 302.718 27.784C302.718 28.2107 302.696 28.7013 302.654 29.256C302.654 29.768 302.632 30.2373 302.59 30.664H280.51C280.723 33.352 281.662 35.4427 283.326 36.936C285.032 38.3867 287.486 39.112 290.686 39.112C292.563 39.112 294.27 38.9413 295.806 38.6C297.384 38.2587 298.622 37.896 299.518 37.512L300.542 43.848C300.115 44.0613 299.518 44.296 298.75 44.552C298.024 44.7653 297.171 44.9573 296.19 45.128C295.251 45.3413 294.227 45.512 293.118 45.64C292.008 45.768 290.878 45.832 289.726 45.832C286.782 45.832 284.222 45.4053 282.046 44.552C279.87 43.656 278.078 42.44 276.67 40.904C275.262 39.3253 274.216 37.4907 273.534 35.4C272.851 33.2667 272.51 30.9413 272.51 28.424ZM294.974 24.968C294.974 23.9013 294.824 22.8987 294.526 21.96C294.227 20.9787 293.779 20.1467 293.182 19.464C292.627 18.7387 291.923 18.184 291.07 17.8C290.259 17.3733 289.278 17.16 288.126 17.16C286.931 17.16 285.886 17.3947 284.99 17.864C284.094 18.2907 283.326 18.8667 282.686 19.592C282.088 20.3173 281.619 21.1493 281.278 22.088C280.936 23.0267 280.702 23.9867 280.574 24.968H294.974Z" fill="#516A91"/>
<path d="M113.871 129V95.4H129.615C133.647 95.4 136.719 96.2 138.831 97.8C140.943 99.368 141.999 101.48 141.999 104.136C141.999 105.928 141.583 107.464 140.751 108.744C139.919 109.992 138.799 110.968 137.391 111.672C136.015 112.344 134.511 112.68 132.879 112.68L133.743 110.952C135.631 110.952 137.327 111.304 138.831 112.008C140.335 112.68 141.519 113.672 142.383 114.984C143.279 116.296 143.727 117.928 143.727 119.88C143.727 122.76 142.623 125 140.415 126.6C138.207 128.2 134.927 129 130.575 129H113.871ZM120.111 124.104H130.191C132.527 124.104 134.319 123.72 135.567 122.952C136.815 122.184 137.439 120.952 137.439 119.256C137.439 117.592 136.815 116.376 135.567 115.608C134.319 114.808 132.527 114.408 130.191 114.408H119.631V109.56H128.943C131.119 109.56 132.783 109.176 133.935 108.408C135.119 107.64 135.711 106.488 135.711 104.952C135.711 103.384 135.119 102.216 133.935 101.448C132.783 100.68 131.119 100.296 128.943 100.296H120.111V124.104ZM160.659 129.336C158.483 129.336 156.563 128.936 154.899 128.136C153.235 127.304 151.939 126.056 151.011 124.392C150.083 122.696 149.619 120.568 149.619 118.008V103.368H155.619V117.192C155.619 119.496 156.131 121.224 157.155 122.376C158.211 123.496 159.699 124.056 161.619 124.056C163.027 124.056 164.243 123.768 165.267 123.192C166.323 122.616 167.139 121.752 167.715 120.6C168.323 119.448 168.627 118.024 168.627 116.328V103.368H174.627V129H168.915V122.088L169.923 124.2C169.059 125.864 167.795 127.144 166.131 128.04C164.467 128.904 162.643 129.336 160.659 129.336ZM190.403 129.336C188.259 129.336 186.195 129.064 184.211 128.52C182.259 127.944 180.707 127.256 179.555 126.456L181.859 121.896C183.011 122.632 184.387 123.24 185.987 123.72C187.587 124.2 189.187 124.44 190.787 124.44C192.675 124.44 194.035 124.184 194.867 123.672C195.731 123.16 196.163 122.472 196.163 121.608C196.163 120.904 195.875 120.376 195.299 120.024C194.723 119.64 193.971 119.352 193.043 119.16C192.115 118.968 191.075 118.792 189.923 118.632C188.803 118.472 187.667 118.264 186.515 118.008C185.395 117.72 184.371 117.32 183.443 116.808C182.515 116.264 181.763 115.544 181.187 114.648C180.611 113.752 180.323 112.568 180.323 111.096C180.323 109.464 180.787 108.056 181.715 106.872C182.643 105.656 183.939 104.728 185.603 104.088C187.299 103.416 189.299 103.08 191.603 103.08C193.331 103.08 195.075 103.272 196.835 103.656C198.595 104.04 200.051 104.584 201.203 105.288L198.899 109.848C197.683 109.112 196.451 108.616 195.203 108.36C193.987 108.072 192.771 107.928 191.555 107.928C189.731 107.928 188.371 108.2 187.475 108.744C186.611 109.288 186.179 109.976 186.179 110.808C186.179 111.576 186.467 112.152 187.043 112.536C187.619 112.92 188.371 113.224 189.299 113.448C190.227 113.672 191.251 113.864 192.371 114.024C193.523 114.152 194.659 114.36 195.779 114.648C196.899 114.936 197.923 115.336 198.851 115.848C199.811 116.328 200.579 117.016 201.155 117.912C201.731 118.808 202.019 119.976 202.019 121.416C202.019 123.016 201.539 124.408 200.579 125.592C199.651 126.776 198.323 127.704 196.595 128.376C194.867 129.016 192.803 129.336 190.403 129.336ZM207.186 129V103.368H213.186V129H207.186ZM210.21 99.144C209.09 99.144 208.162 98.792 207.426 98.088C206.722 97.384 206.37 96.536 206.37 95.544C206.37 94.52 206.722 93.672 207.426 93C208.162 92.296 209.09 91.944 210.21 91.944C211.33 91.944 212.242 92.28 212.946 92.952C213.682 93.592 214.05 94.408 214.05 95.4C214.05 96.456 213.698 97.352 212.994 98.088C212.29 98.792 211.362 99.144 210.21 99.144ZM235.605 103.08C237.653 103.08 239.477 103.48 241.077 104.28C242.709 105.08 243.989 106.312 244.917 107.976C245.845 109.608 246.309 111.72 246.309 114.312V129H240.309V115.08C240.309 112.808 239.765 111.112 238.677 109.992C237.621 108.872 236.133 108.312 234.213 108.312C232.805 108.312 231.557 108.6 230.469 109.176C229.381 109.752 228.533 110.616 227.925 111.768C227.349 112.888 227.061 114.312 227.061 116.04V129H221.061V103.368H226.773V110.28L225.765 108.168C226.661 106.536 227.957 105.288 229.653 104.424C231.381 103.528 233.365 103.08 235.605 103.08ZM266.015 129.336C263.167 129.336 260.671 128.776 258.527 127.656C256.415 126.504 254.767 124.936 253.583 122.952C252.431 120.968 251.855 118.712 251.855 116.184C251.855 113.624 252.415 111.368 253.535 109.416C254.687 107.432 256.255 105.88 258.239 104.76C260.255 103.64 262.543 103.08 265.103 103.08C267.599 103.08 269.823 103.624 271.775 104.712C273.727 105.8 275.263 107.336 276.383 109.32C277.503 111.304 278.063 113.64 278.063 116.328C278.063 116.584 278.047 116.872 278.015 117.192C278.015 117.512 277.999 117.816 277.967 118.104H256.607V114.12H274.799L272.447 115.368C272.479 113.896 272.175 112.6 271.535 111.48C270.895 110.36 270.015 109.48 268.895 108.84C267.807 108.2 266.543 107.88 265.103 107.88C263.631 107.88 262.335 108.2 261.215 108.84C260.127 109.48 259.263 110.376 258.623 111.528C258.015 112.648 257.711 113.976 257.711 115.512V116.472C257.711 118.008 258.063 119.368 258.767 120.552C259.471 121.736 260.463 122.648 261.743 123.288C263.023 123.928 264.495 124.248 266.159 124.248C267.599 124.248 268.895 124.024 270.047 123.576C271.199 123.128 272.223 122.424 273.119 121.464L276.335 125.16C275.183 126.504 273.727 127.544 271.967 128.28C270.239 128.984 268.255 129.336 266.015 129.336ZM291.747 129.336C289.603 129.336 287.539 129.064 285.555 128.52C283.603 127.944 282.051 127.256 280.899 126.456L283.203 121.896C284.355 122.632 285.731 123.24 287.331 123.72C288.931 124.2 290.531 124.44 292.131 124.44C294.019 124.44 295.379 124.184 296.211 123.672C297.075 123.16 297.507 122.472 297.507 121.608C297.507 120.904 297.219 120.376 296.643 120.024C296.067 119.64 295.315 119.352 294.387 119.16C293.459 118.968 292.419 118.792 291.267 118.632C290.147 118.472 289.011 118.264 287.859 118.008C286.739 117.72 285.715 117.32 284.787 116.808C283.859 116.264 283.107 115.544 282.531 114.648C281.955 113.752 281.667 112.568 281.667 111.096C281.667 109.464 282.131 108.056 283.059 106.872C283.987 105.656 285.283 104.728 286.947 104.088C288.643 103.416 290.643 103.08 292.947 103.08C294.675 103.08 296.419 103.272 298.179 103.656C299.939 104.04 301.395 104.584 302.547 105.288L300.243 109.848C299.027 109.112 297.795 108.616 296.547 108.36C295.331 108.072 294.115 107.928 292.899 107.928C291.075 107.928 289.715 108.2 288.819 108.744C287.955 109.288 287.523 109.976 287.523 110.808C287.523 111.576 287.811 112.152 288.387 112.536C288.963 112.92 289.715 113.224 290.643 113.448C291.571 113.672 292.595 113.864 293.715 114.024C294.867 114.152 296.003 114.36 297.123 114.648C298.243 114.936 299.267 115.336 300.195 115.848C301.155 116.328 301.923 117.016 302.499 117.912C303.075 118.808 303.363 119.976 303.363 121.416C303.363 123.016 302.883 124.408 301.923 125.592C300.995 126.776 299.667 127.704 297.939 128.376C296.211 129.016 294.147 129.336 291.747 129.336ZM316.45 129.336C314.306 129.336 312.242 129.064 310.258 128.52C308.306 127.944 306.754 127.256 305.602 126.456L307.906 121.896C309.058 122.632 310.434 123.24 312.034 123.72C313.634 124.2 315.234 124.44 316.834 124.44C318.722 124.44 320.082 124.184 320.914 123.672C321.778 123.16 322.21 122.472 322.21 121.608C322.21 120.904 321.922 120.376 321.346 120.024C320.77 119.64 320.018 119.352 319.09 119.16C318.162 118.968 317.122 118.792 315.97 118.632C314.85 118.472 313.714 118.264 312.562 118.008C311.442 117.72 310.418 117.32 309.49 116.808C308.562 116.264 307.81 115.544 307.234 114.648C306.658 113.752 306.37 112.568 306.37 111.096C306.37 109.464 306.834 108.056 307.762 106.872C308.69 105.656 309.986 104.728 311.65 104.088C313.346 103.416 315.346 103.08 317.65 103.08C319.378 103.08 321.122 103.272 322.882 103.656C324.642 104.04 326.098 104.584 327.25 105.288L324.946 109.848C323.73 109.112 322.498 108.616 321.25 108.36C320.034 108.072 318.818 107.928 317.602 107.928C315.778 107.928 314.418 108.2 313.522 108.744C312.658 109.288 312.226 109.976 312.226 110.808C312.226 111.576 312.514 112.152 313.09 112.536C313.666 112.92 314.418 113.224 315.346 113.448C316.274 113.672 317.298 113.864 318.418 114.024C319.57 114.152 320.706 114.36 321.826 114.648C322.946 114.936 323.97 115.336 324.898 115.848C325.858 116.328 326.626 117.016 327.202 117.912C327.778 118.808 328.066 119.976 328.066 121.416C328.066 123.016 327.586 124.408 326.626 125.592C325.698 126.776 324.37 127.704 322.642 128.376C320.914 129.016 318.85 129.336 316.45 129.336Z" fill="#21295C"/>
</svg>
