<svg width="412" height="204" viewBox="0 0 412 204" fill="none" xmlns="http://www.w3.org/2000/svg">
<path d="M26.352 11.736V15.768H15.888V45H11.232V15.768H0.768V11.736H26.352ZM50.3876 32.52C50.3876 34.504 50.0996 36.296 49.5236 37.896C48.9476 39.496 48.1316 40.872 47.0756 42.024C46.0516 43.176 44.8196 44.072 43.3796 44.712C41.9396 45.32 40.3716 45.624 38.6756 45.624C36.9796 45.624 35.4116 45.32 33.9716 44.712C32.5316 44.072 31.2836 43.176 30.2276 42.024C29.2036 40.872 28.4036 39.496 27.8276 37.896C27.2516 36.296 26.9636 34.504 26.9636 32.52C26.9636 30.568 27.2516 28.792 27.8276 27.192C28.4036 25.56 29.2036 24.168 30.2276 23.016C31.2836 21.864 32.5316 20.984 33.9716 20.376C35.4116 19.736 36.9796 19.416 38.6756 19.416C40.3716 19.416 41.9396 19.736 43.3796 20.376C44.8196 20.984 46.0516 21.864 47.0756 23.016C48.1316 24.168 48.9476 25.56 49.5236 27.192C50.0996 28.792 50.3876 30.568 50.3876 32.52ZM45.7316 32.52C45.7316 29.704 45.0916 27.48 43.8116 25.848C42.5636 24.184 40.8516 23.352 38.6756 23.352C36.4996 23.352 34.7716 24.184 33.4916 25.848C32.2436 27.48 31.6196 29.704 31.6196 32.52C31.6196 35.336 32.2436 37.576 33.4916 39.24C34.7716 40.872 36.4996 41.688 38.6756 41.688C40.8516 41.688 42.5636 40.872 43.8116 39.24C45.0916 37.576 45.7316 35.336 45.7316 32.52ZM72.3161 42.504C71.9321 42.76 71.1801 43.096 70.0601 43.512C68.9721 43.896 67.6921 44.088 66.2201 44.088C64.7161 44.088 63.2921 43.848 61.9481 43.368C60.6361 42.888 59.4841 42.152 58.4921 41.16C57.5001 40.136 56.7161 38.872 56.1401 37.368C55.5641 35.864 55.2761 34.072 55.2761 31.992C55.2761 30.168 55.5481 28.504 56.0921 27C56.6361 25.464 57.4201 24.152 58.4441 23.064C59.5001 21.944 60.7801 21.08 62.2841 20.472C63.7881 19.832 65.4841 19.512 67.3721 19.512C69.4521 19.512 71.2601 19.672 72.7961 19.992C74.3641 20.28 75.6761 20.552 76.7321 20.808V43.08C76.7321 46.92 75.7401 49.704 73.7561 51.432C71.7721 53.16 68.7641 54.024 64.7321 54.024C63.1641 54.024 61.6761 53.896 60.2681 53.64C58.8921 53.384 57.6921 53.08 56.6681 52.728L57.4841 48.84C58.3801 49.192 59.4681 49.496 60.7481 49.752C62.0601 50.04 63.4201 50.184 64.8281 50.184C67.4841 50.184 69.3881 49.656 70.5401 48.6C71.7241 47.544 72.3161 45.864 72.3161 43.56V42.504ZM72.2681 23.976C71.8201 23.848 71.2121 23.736 70.4441 23.64C69.7081 23.512 68.7001 23.448 67.4201 23.448C65.0201 23.448 63.1641 24.232 61.8521 25.8C60.5721 27.368 59.9321 29.448 59.9321 32.04C59.9321 33.48 60.1081 34.712 60.4601 35.736C60.8441 36.76 61.3401 37.608 61.9481 38.28C62.5881 38.952 63.3081 39.448 64.1081 39.768C64.9401 40.088 65.7881 40.248 66.6521 40.248C67.8361 40.248 68.9241 40.088 69.9161 39.768C70.9081 39.416 71.6921 39.016 72.2681 38.568V23.976ZM83.0261 32.568C83.0261 30.36 83.3461 28.44 83.9861 26.808C84.6261 25.144 85.4741 23.768 86.5301 22.68C87.5861 21.592 88.8021 20.776 90.1781 20.232C91.5541 19.688 92.9621 19.416 94.4021 19.416C97.7621 19.416 100.338 20.472 102.13 22.584C103.922 24.664 104.818 27.848 104.818 32.136C104.818 32.328 104.818 32.584 104.818 32.904C104.818 33.192 104.802 33.464 104.77 33.72H87.6821C87.8741 36.312 88.6261 38.28 89.9381 39.624C91.2501 40.968 93.2981 41.64 96.0821 41.64C97.6501 41.64 98.9621 41.512 100.018 41.256C101.106 40.968 101.922 40.696 102.466 40.44L103.09 44.184C102.546 44.472 101.586 44.776 100.21 45.096C98.8661 45.416 97.3301 45.576 95.6021 45.576C93.4261 45.576 91.5381 45.256 89.9381 44.616C88.3701 43.944 87.0741 43.032 86.0501 41.88C85.0261 40.728 84.2581 39.368 83.7461 37.8C83.2661 36.2 83.0261 34.456 83.0261 32.568ZM100.162 30.12C100.194 28.104 99.6821 26.456 98.6261 25.176C97.6021 23.864 96.1781 23.208 94.3541 23.208C93.3301 23.208 92.4181 23.416 91.6181 23.832C90.8501 24.216 90.1941 24.728 89.6501 25.368C89.1061 26.008 88.6741 26.744 88.3541 27.576C88.0661 28.408 87.8741 29.256 87.7781 30.12H100.162ZM115.407 20.04H124.863V23.784H115.407V35.304C115.407 36.552 115.503 37.592 115.695 38.424C115.887 39.224 116.175 39.864 116.559 40.344C116.943 40.792 117.423 41.112 117.999 41.304C118.575 41.496 119.247 41.592 120.015 41.592C121.359 41.592 122.431 41.448 123.231 41.16C124.063 40.84 124.639 40.616 124.959 40.488L125.823 44.184C125.375 44.408 124.591 44.68 123.471 45C122.351 45.352 121.071 45.528 119.631 45.528C117.935 45.528 116.527 45.32 115.407 44.904C114.319 44.456 113.439 43.8 112.767 42.936C112.095 42.072 111.615 41.016 111.327 39.768C111.071 38.488 110.943 37.016 110.943 35.352V13.08L115.407 12.312V20.04ZM130.543 45V8.52L135.007 7.752V20.52C135.839 20.2 136.719 19.96 137.647 19.8C138.607 19.608 139.551 19.512 140.479 19.512C142.463 19.512 144.111 19.8 145.423 20.376C146.735 20.92 147.775 21.704 148.543 22.728C149.343 23.72 149.903 24.92 150.223 26.328C150.543 27.736 150.703 29.288 150.703 30.984V45H146.239V31.944C146.239 30.408 146.127 29.096 145.903 28.008C145.711 26.92 145.375 26.04 144.895 25.368C144.415 24.696 143.775 24.216 142.975 23.928C142.175 23.608 141.183 23.448 139.999 23.448C139.519 23.448 139.023 23.48 138.511 23.544C137.999 23.608 137.503 23.688 137.023 23.784C136.575 23.848 136.159 23.928 135.775 24.024C135.423 24.12 135.167 24.2 135.007 24.264V45H130.543ZM156.573 32.568C156.573 30.36 156.893 28.44 157.533 26.808C158.173 25.144 159.021 23.768 160.077 22.68C161.133 21.592 162.349 20.776 163.725 20.232C165.101 19.688 166.509 19.416 167.949 19.416C171.309 19.416 173.885 20.472 175.677 22.584C177.469 24.664 178.365 27.848 178.365 32.136C178.365 32.328 178.365 32.584 178.365 32.904C178.365 33.192 178.349 33.464 178.317 33.72H161.229C161.421 36.312 162.173 38.28 163.485 39.624C164.797 40.968 166.845 41.64 169.629 41.64C171.197 41.64 172.509 41.512 173.565 41.256C174.653 40.968 175.469 40.696 176.013 40.44L176.637 44.184C176.093 44.472 175.133 44.776 173.757 45.096C172.413 45.416 170.877 45.576 169.149 45.576C166.973 45.576 165.085 45.256 163.485 44.616C161.917 43.944 160.621 43.032 159.597 41.88C158.573 40.728 157.805 39.368 157.293 37.8C156.813 36.2 156.573 34.456 156.573 32.568ZM173.709 30.12C173.741 28.104 173.229 26.456 172.173 25.176C171.149 23.864 169.725 23.208 167.901 23.208C166.877 23.208 165.965 23.416 165.165 23.832C164.397 24.216 163.741 24.728 163.197 25.368C162.653 26.008 162.221 26.744 161.901 27.576C161.613 28.408 161.421 29.256 161.325 30.12H173.709ZM193.994 19.512C194.378 19.512 194.81 19.544 195.29 19.608C195.802 19.64 196.298 19.704 196.778 19.8C197.258 19.864 197.69 19.944 198.074 20.04C198.49 20.104 198.794 20.168 198.986 20.232L198.218 24.12C197.866 23.992 197.274 23.848 196.442 23.688C195.642 23.496 194.602 23.4 193.322 23.4C192.49 23.4 191.658 23.496 190.826 23.688C190.026 23.848 189.498 23.96 189.242 24.024V45H184.778V21.096C185.834 20.712 187.146 20.36 188.714 20.04C190.282 19.688 192.042 19.512 193.994 19.512ZM232.883 22.44C231.539 26.728 230.179 30.696 228.803 34.344C227.427 37.992 226.051 41.544 224.674 45H220.019C218.323 40.104 216.819 34.936 215.507 29.496C214.227 24.056 213.027 18.136 211.907 11.736H216.803C217.251 14.232 217.715 16.728 218.195 19.224C218.675 21.72 219.171 24.152 219.683 26.52C220.195 28.856 220.707 31.096 221.219 33.24C221.731 35.384 222.259 37.368 222.803 39.192C224.083 35.832 225.443 32.152 226.883 28.152C228.323 24.12 229.667 19.96 230.915 15.672H234.947C236.195 19.96 237.555 24.12 239.027 28.152C240.499 32.152 241.875 35.832 243.155 39.192C243.667 37.4 244.179 35.432 244.691 33.288C245.203 31.144 245.699 28.904 246.179 26.568C246.691 24.2 247.187 21.768 247.667 19.272C248.147 16.744 248.611 14.232 249.059 11.736H253.811C252.659 18.136 251.427 24.056 250.115 29.496C248.835 34.936 247.363 40.104 245.699 45H241.043C239.635 41.544 238.259 37.992 236.915 34.344C235.571 30.696 234.227 26.728 232.883 22.44ZM256.511 32.568C256.511 30.36 256.831 28.44 257.471 26.808C258.111 25.144 258.959 23.768 260.015 22.68C261.071 21.592 262.287 20.776 263.663 20.232C265.039 19.688 266.447 19.416 267.887 19.416C271.247 19.416 273.823 20.472 275.615 22.584C277.407 24.664 278.302 27.848 278.302 32.136C278.302 32.328 278.302 32.584 278.302 32.904C278.302 33.192 278.286 33.464 278.255 33.72H261.167C261.359 36.312 262.111 38.28 263.423 39.624C264.735 40.968 266.783 41.64 269.567 41.64C271.135 41.64 272.447 41.512 273.503 41.256C274.591 40.968 275.407 40.696 275.951 40.44L276.575 44.184C276.031 44.472 275.071 44.776 273.695 45.096C272.351 45.416 270.815 45.576 269.087 45.576C266.911 45.576 265.023 45.256 263.423 44.616C261.855 43.944 260.559 43.032 259.535 41.88C258.511 40.728 257.743 39.368 257.23 37.8C256.751 36.2 256.511 34.456 256.511 32.568ZM273.647 30.12C273.679 28.104 273.167 26.456 272.111 25.176C271.087 23.864 269.663 23.208 267.839 23.208C266.815 23.208 265.903 23.416 265.103 23.832C264.335 24.216 263.679 24.728 263.135 25.368C262.591 26.008 262.159 26.744 261.839 27.576C261.551 28.408 261.359 29.256 261.263 30.12H273.647ZM4.128 66.736H8.784V100H4.128V66.736ZM16.7306 75.76C17.7546 75.504 19.1146 75.232 20.8106 74.944C22.5066 74.656 24.4586 74.512 26.6666 74.512C28.6506 74.512 30.2986 74.8 31.6106 75.376C32.9226 75.92 33.9626 76.704 34.7306 77.728C35.5306 78.72 36.0906 79.92 36.4106 81.328C36.7306 82.736 36.8906 84.288 36.8906 85.984V100H32.4266V86.944C32.4266 85.408 32.3146 84.096 32.0906 83.008C31.8986 81.92 31.5626 81.04 31.0826 80.368C30.6026 79.696 29.9626 79.216 29.1626 78.928C28.3626 78.608 27.3706 78.448 26.1866 78.448C25.7066 78.448 25.2106 78.464 24.6986 78.496C24.1866 78.528 23.6906 78.576 23.2106 78.64C22.7626 78.672 22.3466 78.72 21.9626 78.784C21.6106 78.848 21.3546 78.896 21.1946 78.928V100H16.7306V75.76ZM44.2931 75.76C45.3171 75.504 46.6771 75.232 48.3731 74.944C50.0691 74.656 52.0211 74.512 54.2291 74.512C56.2131 74.512 57.8611 74.8 59.1731 75.376C60.4851 75.92 61.5251 76.704 62.2931 77.728C63.0931 78.72 63.6531 79.92 63.9731 81.328C64.2931 82.736 64.4531 84.288 64.4531 85.984V100H59.9891V86.944C59.9891 85.408 59.8771 84.096 59.6531 83.008C59.4611 81.92 59.1251 81.04 58.6451 80.368C58.1651 79.696 57.5251 79.216 56.7251 78.928C55.9251 78.608 54.9331 78.448 53.7491 78.448C53.2691 78.448 52.7731 78.464 52.2611 78.496C51.7491 78.528 51.2531 78.576 50.7731 78.64C50.3251 78.672 49.9091 78.72 49.5251 78.784C49.1731 78.848 48.9171 78.896 48.7571 78.928V100H44.2931V75.76ZM93.8876 87.52C93.8876 89.504 93.5996 91.296 93.0236 92.896C92.4476 94.496 91.6316 95.872 90.5756 97.024C89.5516 98.176 88.3196 99.072 86.8796 99.712C85.4396 100.32 83.8716 100.624 82.1756 100.624C80.4796 100.624 78.9116 100.32 77.4716 99.712C76.0316 99.072 74.7836 98.176 73.7276 97.024C72.7036 95.872 71.9036 94.496 71.3276 92.896C70.7516 91.296 70.4636 89.504 70.4636 87.52C70.4636 85.568 70.7516 83.792 71.3276 82.192C71.9036 80.56 72.7036 79.168 73.7276 78.016C74.7836 76.864 76.0316 75.984 77.4716 75.376C78.9116 74.736 80.4796 74.416 82.1756 74.416C83.8716 74.416 85.4396 74.736 86.8796 75.376C88.3196 75.984 89.5516 76.864 90.5756 78.016C91.6316 79.168 92.4476 80.56 93.0236 82.192C93.5996 83.792 93.8876 85.568 93.8876 87.52ZM89.2316 87.52C89.2316 84.704 88.5916 82.48 87.3116 80.848C86.0636 79.184 84.3516 78.352 82.1756 78.352C79.9996 78.352 78.2716 79.184 76.9916 80.848C75.7436 82.48 75.1196 84.704 75.1196 87.52C75.1196 90.336 75.7436 92.576 76.9916 94.24C78.2716 95.872 79.9996 96.688 82.1756 96.688C84.3516 96.688 86.0636 95.872 87.3116 94.24C88.5916 92.576 89.2316 90.336 89.2316 87.52ZM119 75.04C117.752 79.712 116.28 84.192 114.584 88.48C112.92 92.768 111.304 96.608 109.736 100H105.704C104.136 96.608 102.504 92.768 100.808 88.48C99.1439 84.192 97.6879 79.712 96.4399 75.04H101.24C101.624 76.608 102.072 78.288 102.584 80.08C103.128 81.84 103.688 83.6 104.264 85.36C104.872 87.088 105.48 88.768 106.088 90.4C106.696 92.032 107.272 93.488 107.816 94.768C108.36 93.488 108.936 92.032 109.544 90.4C110.152 88.768 110.744 87.088 111.32 85.36C111.928 83.6 112.488 81.84 113 80.08C113.544 78.288 114.008 76.608 114.392 75.04H119ZM132.054 96.784C133.11 96.784 134.038 96.768 134.838 96.736C135.67 96.672 136.358 96.576 136.902 96.448V89.008C136.582 88.848 136.054 88.72 135.318 88.624C134.614 88.496 133.75 88.432 132.726 88.432C132.054 88.432 131.334 88.48 130.566 88.576C129.83 88.672 129.142 88.88 128.502 89.2C127.894 89.488 127.382 89.904 126.966 90.448C126.55 90.96 126.342 91.648 126.342 92.512C126.342 94.112 126.854 95.232 127.878 95.872C128.902 96.48 130.294 96.784 132.054 96.784ZM131.67 74.416C133.462 74.416 134.966 74.656 136.182 75.136C137.43 75.584 138.422 76.24 139.158 77.104C139.926 77.936 140.47 78.944 140.79 80.128C141.11 81.28 141.27 82.56 141.27 83.968V99.568C140.886 99.632 140.342 99.728 139.638 99.856C138.966 99.952 138.198 100.048 137.334 100.144C136.47 100.24 135.526 100.32 134.502 100.384C133.51 100.48 132.518 100.528 131.526 100.528C130.118 100.528 128.822 100.384 127.638 100.096C126.454 99.808 125.43 99.36 124.566 98.752C123.702 98.112 123.03 97.28 122.55 96.256C122.07 95.232 121.83 94 121.83 92.56C121.83 91.184 122.102 90 122.646 89.008C123.222 88.016 123.99 87.216 124.95 86.608C125.91 86 127.03 85.552 128.31 85.264C129.59 84.976 130.934 84.832 132.342 84.832C132.79 84.832 133.254 84.864 133.734 84.928C134.214 84.96 134.662 85.024 135.078 85.12C135.526 85.184 135.91 85.248 136.23 85.312C136.55 85.376 136.774 85.424 136.902 85.456V84.208C136.902 83.472 136.822 82.752 136.662 82.048C136.502 81.312 136.214 80.672 135.798 80.128C135.382 79.552 134.806 79.104 134.07 78.784C133.366 78.432 132.438 78.256 131.286 78.256C129.814 78.256 128.518 78.368 127.398 78.592C126.31 78.784 125.494 78.992 124.95 79.216L124.422 75.52C124.998 75.264 125.958 75.024 127.302 74.8C128.646 74.544 130.102 74.416 131.67 74.416ZM152.86 75.04H162.316V78.784H152.86V90.304C152.86 91.552 152.956 92.592 153.148 93.424C153.34 94.224 153.628 94.864 154.012 95.344C154.396 95.792 154.876 96.112 155.452 96.304C156.028 96.496 156.7 96.592 157.468 96.592C158.812 96.592 159.884 96.448 160.684 96.16C161.516 95.84 162.092 95.616 162.412 95.488L163.276 99.184C162.828 99.408 162.044 99.68 160.924 100C159.804 100.352 158.524 100.528 157.084 100.528C155.388 100.528 153.98 100.32 152.86 99.904C151.772 99.456 150.892 98.8 150.22 97.936C149.548 97.072 149.068 96.016 148.78 94.768C148.524 93.488 148.396 92.016 148.396 90.352V68.08L152.86 67.312V75.04ZM166.136 87.568C166.136 85.36 166.456 83.44 167.096 81.808C167.736 80.144 168.584 78.768 169.64 77.68C170.696 76.592 171.912 75.776 173.288 75.232C174.664 74.688 176.072 74.416 177.512 74.416C180.872 74.416 183.448 75.472 185.24 77.584C187.032 79.664 187.927 82.848 187.927 87.136C187.927 87.328 187.927 87.584 187.927 87.904C187.927 88.192 187.911 88.464 187.88 88.72H170.792C170.984 91.312 171.736 93.28 173.048 94.624C174.36 95.968 176.408 96.64 179.192 96.64C180.76 96.64 182.072 96.512 183.128 96.256C184.216 95.968 185.032 95.696 185.576 95.44L186.2 99.184C185.656 99.472 184.696 99.776 183.32 100.096C181.976 100.416 180.44 100.576 178.712 100.576C176.536 100.576 174.648 100.256 173.048 99.616C171.48 98.944 170.184 98.032 169.16 96.88C168.136 95.728 167.368 94.368 166.855 92.8C166.376 91.2 166.136 89.456 166.136 87.568ZM183.272 85.12C183.304 83.104 182.792 81.456 181.736 80.176C180.712 78.864 179.288 78.208 177.464 78.208C176.44 78.208 175.528 78.416 174.728 78.832C173.96 79.216 173.304 79.728 172.76 80.368C172.216 81.008 171.784 81.744 171.464 82.576C171.176 83.408 170.984 84.256 170.888 85.12H183.272ZM199.524 75.76C199.524 78.448 199.428 80.896 199.236 83.104C199.044 85.28 198.804 87.456 198.516 89.632H195.732C195.444 87.456 195.204 85.28 195.012 83.104C194.82 80.896 194.724 78.448 194.724 75.76V66.736H199.524V75.76ZM200.34 97.408C200.34 98.272 200.052 99.024 199.476 99.664C198.9 100.304 198.116 100.624 197.124 100.624C196.132 100.624 195.348 100.304 194.772 99.664C194.196 99.024 193.908 98.272 193.908 97.408C193.908 96.544 194.196 95.792 194.772 95.152C195.348 94.512 196.132 94.192 197.124 94.192C198.116 94.192 198.9 94.512 199.476 95.152C200.052 95.792 200.34 96.544 200.34 97.408Z" fill="black"/>
<path d="M10.08 152.38L9.7 154H1.62L4.94 140.14H6.88L3.94 152.38H10.08ZM13.3769 148.54C14.1502 148.513 14.8569 148.467 15.4969 148.4C16.1369 148.32 16.6902 148.193 17.1569 148.02C17.6235 147.833 17.9835 147.587 18.2369 147.28C18.5035 146.973 18.6369 146.573 18.6369 146.08C18.6369 145.96 18.6102 145.833 18.5569 145.7C18.5169 145.567 18.4369 145.447 18.3169 145.34C18.2102 145.22 18.0569 145.127 17.8569 145.06C17.6569 144.98 17.4102 144.94 17.1169 144.94C16.6502 144.94 16.2102 145.04 15.7969 145.24C15.3969 145.44 15.0369 145.707 14.7169 146.04C14.3969 146.36 14.1235 146.74 13.8969 147.18C13.6702 147.607 13.4969 148.06 13.3769 148.54ZM15.2769 154.26C14.5969 154.26 14.0102 154.167 13.5169 153.98C13.0235 153.78 12.6102 153.513 12.2769 153.18C11.9435 152.833 11.6969 152.433 11.5369 151.98C11.3769 151.527 11.2969 151.047 11.2969 150.54C11.2969 149.607 11.4369 148.707 11.7169 147.84C11.9969 146.973 12.3969 146.207 12.9169 145.54C13.4369 144.873 14.0702 144.347 14.8169 143.96C15.5635 143.56 16.4102 143.36 17.3569 143.36C17.9035 143.36 18.3702 143.433 18.7569 143.58C19.1569 143.713 19.4769 143.9 19.7169 144.14C19.9702 144.38 20.1569 144.66 20.2769 144.98C20.3969 145.287 20.4569 145.607 20.4569 145.94C20.4569 146.567 20.3435 147.1 20.1169 147.54C19.8902 147.967 19.5902 148.327 19.2169 148.62C18.8435 148.913 18.4035 149.14 17.8969 149.3C17.4035 149.46 16.8835 149.587 16.3369 149.68C15.8035 149.773 15.2569 149.84 14.6969 149.88C14.1502 149.907 13.6302 149.933 13.1369 149.96C13.1235 150.067 13.1169 150.153 13.1169 150.22C13.1169 150.287 13.1169 150.34 13.1169 150.38C13.1169 150.687 13.1502 150.98 13.2169 151.26C13.2969 151.527 13.4369 151.767 13.6369 151.98C13.8369 152.18 14.1102 152.34 14.4569 152.46C14.8169 152.58 15.2835 152.64 15.8569 152.64C16.1102 152.64 16.3702 152.62 16.6369 152.58C16.9169 152.527 17.1769 152.467 17.4169 152.4C17.6702 152.32 17.8902 152.247 18.0769 152.18C18.2769 152.1 18.4169 152.027 18.4969 151.96L18.6569 153.54C18.3902 153.687 17.9569 153.84 17.3569 154C16.7702 154.173 16.0769 154.26 15.2769 154.26ZM24.7284 154.28C23.7284 154.28 22.9951 154.06 22.5284 153.62C22.0618 153.18 21.8284 152.54 21.8284 151.7C21.8284 151.153 21.9218 150.453 22.1084 149.6L24.2484 140.7L26.1884 140.38L25.4084 143.6H28.9484L28.5684 145.16H25.0284L23.9284 149.76C23.7684 150.387 23.6884 150.933 23.6884 151.4C23.6884 151.84 23.8084 152.16 24.0484 152.36C24.2884 152.547 24.6884 152.64 25.2484 152.64C25.6351 152.64 26.0151 152.58 26.3884 152.46C26.7618 152.327 27.0484 152.207 27.2484 152.1L27.3884 153.68C27.1884 153.8 26.8484 153.927 26.3684 154.06C25.8884 154.207 25.3418 154.28 24.7284 154.28ZM31.8153 152.7C32.0953 152.7 32.3753 152.673 32.6553 152.62C32.9486 152.567 33.202 152.48 33.4153 152.36C33.642 152.24 33.822 152.08 33.9553 151.88C34.102 151.667 34.1753 151.407 34.1753 151.1C34.1753 150.9 34.142 150.727 34.0753 150.58C34.0086 150.42 33.902 150.273 33.7553 150.14C33.6086 150.007 33.422 149.88 33.1953 149.76C32.982 149.627 32.722 149.48 32.4153 149.32C32.1086 149.173 31.8286 149.027 31.5753 148.88C31.322 148.733 31.0953 148.56 30.8953 148.36C30.7086 148.16 30.562 147.927 30.4553 147.66C30.3486 147.38 30.2953 147.047 30.2953 146.66C30.2953 145.66 30.6553 144.86 31.3753 144.26C32.0953 143.647 33.142 143.34 34.5153 143.34C35.1553 143.34 35.7153 143.407 36.1953 143.54C36.6886 143.66 37.0286 143.773 37.2153 143.88L36.5153 145.4C36.3286 145.293 36.0286 145.18 35.6153 145.06C35.202 144.94 34.742 144.88 34.2353 144.88C33.982 144.88 33.7286 144.907 33.4753 144.96C33.222 145.013 32.9886 145.107 32.7753 145.24C32.5753 145.36 32.4086 145.527 32.2753 145.74C32.1553 145.94 32.0953 146.187 32.0953 146.48C32.0953 146.84 32.2353 147.14 32.5153 147.38C32.7953 147.607 33.2153 147.847 33.7753 148.1C34.122 148.26 34.4286 148.427 34.6953 148.6C34.9753 148.76 35.2086 148.947 35.3953 149.16C35.5953 149.36 35.742 149.6 35.8353 149.88C35.942 150.16 35.9953 150.493 35.9953 150.88C35.9953 151.44 35.8886 151.933 35.6753 152.36C35.462 152.787 35.162 153.14 34.7753 153.42C34.402 153.7 33.9553 153.907 33.4353 154.04C32.9153 154.187 32.3486 154.26 31.7353 154.26C31.282 154.26 30.8686 154.227 30.4953 154.16C30.1353 154.107 29.8153 154.04 29.5353 153.96C29.2686 153.88 29.042 153.8 28.8553 153.72C28.682 153.627 28.5486 153.553 28.4553 153.5L29.1753 151.98C29.2686 152.033 29.3953 152.1 29.5553 152.18C29.7286 152.26 29.9286 152.34 30.1553 152.42C30.3953 152.5 30.6553 152.567 30.9353 152.62C31.2153 152.673 31.5086 152.7 31.8153 152.7ZM44.6864 152.7C44.9664 152.7 45.2464 152.673 45.5264 152.62C45.8197 152.567 46.0731 152.48 46.2864 152.36C46.5131 152.24 46.6931 152.08 46.8264 151.88C46.9731 151.667 47.0464 151.407 47.0464 151.1C47.0464 150.9 47.0131 150.727 46.9464 150.58C46.8797 150.42 46.7731 150.273 46.6264 150.14C46.4797 150.007 46.2931 149.88 46.0664 149.76C45.8531 149.627 45.5931 149.48 45.2864 149.32C44.9797 149.173 44.6997 149.027 44.4464 148.88C44.1931 148.733 43.9664 148.56 43.7664 148.36C43.5797 148.16 43.4331 147.927 43.3264 147.66C43.2197 147.38 43.1664 147.047 43.1664 146.66C43.1664 145.66 43.5264 144.86 44.2464 144.26C44.9664 143.647 46.0131 143.34 47.3864 143.34C48.0264 143.34 48.5864 143.407 49.0664 143.54C49.5597 143.66 49.8997 143.773 50.0864 143.88L49.3864 145.4C49.1997 145.293 48.8997 145.18 48.4864 145.06C48.0731 144.94 47.6131 144.88 47.1064 144.88C46.8531 144.88 46.5997 144.907 46.3464 144.96C46.0931 145.013 45.8597 145.107 45.6464 145.24C45.4464 145.36 45.2797 145.527 45.1464 145.74C45.0264 145.94 44.9664 146.187 44.9664 146.48C44.9664 146.84 45.1064 147.14 45.3864 147.38C45.6664 147.607 46.0864 147.847 46.6464 148.1C46.9931 148.26 47.2997 148.427 47.5664 148.6C47.8464 148.76 48.0797 148.947 48.2664 149.16C48.4664 149.36 48.6131 149.6 48.7064 149.88C48.8131 150.16 48.8664 150.493 48.8664 150.88C48.8664 151.44 48.7597 151.933 48.5464 152.36C48.3331 152.787 48.0331 153.14 47.6464 153.42C47.2731 153.7 46.8264 153.907 46.3064 154.04C45.7864 154.187 45.2197 154.26 44.6064 154.26C44.1531 154.26 43.7397 154.227 43.3664 154.16C43.0064 154.107 42.6864 154.04 42.4064 153.96C42.1397 153.88 41.9131 153.8 41.7264 153.72C41.5531 153.627 41.4197 153.553 41.3264 153.5L42.0464 151.98C42.1397 152.033 42.2664 152.1 42.4264 152.18C42.5997 152.26 42.7997 152.34 43.0264 152.42C43.2664 152.5 43.5264 152.567 43.8064 152.62C44.0864 152.673 44.3797 152.7 44.6864 152.7ZM53.8886 154.28C52.8886 154.28 52.1553 154.06 51.6886 153.62C51.2219 153.18 50.9886 152.54 50.9886 151.7C50.9886 151.153 51.0819 150.453 51.2686 149.6L53.4086 140.7L55.3486 140.38L54.5686 143.6H58.1086L57.7286 145.16H54.1886L53.0886 149.76C52.9286 150.387 52.8486 150.933 52.8486 151.4C52.8486 151.84 52.9686 152.16 53.2086 152.36C53.4486 152.547 53.8486 152.64 54.4086 152.64C54.7953 152.64 55.1753 152.58 55.5486 152.46C55.9219 152.327 56.2086 152.207 56.4086 152.1L56.5486 153.68C56.3486 153.8 56.0086 153.927 55.5286 154.06C55.0486 154.207 54.5019 154.28 53.8886 154.28ZM65.1244 154.12C65.0577 153.973 64.991 153.813 64.9244 153.64C64.8577 153.453 64.8044 153.26 64.7644 153.06C64.471 153.327 64.0777 153.593 63.5844 153.86C63.091 154.127 62.4844 154.26 61.7644 154.26C61.1777 154.26 60.671 154.167 60.2444 153.98C59.831 153.793 59.491 153.533 59.2244 153.2C58.9577 152.867 58.7577 152.473 58.6244 152.02C58.5044 151.567 58.4444 151.067 58.4444 150.52C58.4444 149.627 58.591 148.753 58.8844 147.9C59.191 147.047 59.6444 146.287 60.2444 145.62C60.8444 144.953 61.5977 144.413 62.5044 144C63.411 143.587 64.471 143.38 65.6844 143.38C66.0444 143.38 66.4644 143.42 66.9444 143.5C67.4244 143.58 67.8377 143.713 68.1844 143.9L66.6444 150.18C66.5777 150.487 66.5177 150.78 66.4644 151.06C66.4244 151.34 66.4044 151.633 66.4044 151.94C66.4044 152.247 66.431 152.56 66.4844 152.88C66.5377 153.187 66.631 153.52 66.7644 153.88L65.1244 154.12ZM62.1444 152.68C62.7044 152.68 63.1844 152.56 63.5844 152.32C63.9844 152.08 64.331 151.8 64.6244 151.48C64.6377 151.253 64.6577 151.02 64.6844 150.78C64.7244 150.527 64.771 150.273 64.8244 150.02L66.0244 145.06C65.9577 145.033 65.8444 145.013 65.6844 145C65.5377 144.987 65.4044 144.98 65.2844 144.98C64.5244 144.98 63.8377 145.127 63.2244 145.42C62.611 145.713 62.0844 146.107 61.6444 146.6C61.2177 147.08 60.8844 147.647 60.6444 148.3C60.4177 148.94 60.3044 149.613 60.3044 150.32C60.3044 150.6 60.331 150.887 60.3844 151.18C60.4377 151.46 60.531 151.713 60.6644 151.94C60.811 152.153 60.9977 152.333 61.2244 152.48C61.4644 152.613 61.771 152.68 62.1444 152.68ZM74.8433 143.38C75.0033 143.38 75.1833 143.387 75.3833 143.4C75.5833 143.413 75.7766 143.44 75.9633 143.48C76.1633 143.507 76.3433 143.54 76.5033 143.58C76.6633 143.607 76.7833 143.64 76.8633 143.68L76.3233 145.3C76.0566 145.193 75.7499 145.113 75.4033 145.06C75.0566 145.007 74.7233 144.98 74.4033 144.98C74.1233 144.98 73.8433 145 73.5633 145.04C73.2966 145.08 73.0633 145.133 72.8633 145.2L70.7433 154H68.8833L71.2833 144C71.8166 143.813 72.3899 143.667 73.0033 143.56C73.6166 143.44 74.2299 143.38 74.8433 143.38ZM79.8847 154.28C78.8847 154.28 78.1514 154.06 77.6847 153.62C77.218 153.18 76.9847 152.54 76.9847 151.7C76.9847 151.153 77.078 150.453 77.2647 149.6L79.4047 140.7L81.3447 140.38L80.5647 143.6H84.1047L83.7247 145.16H80.1847L79.0847 149.76C78.9247 150.387 78.8447 150.933 78.8447 151.4C78.8447 151.84 78.9647 152.16 79.2047 152.36C79.4447 152.547 79.8447 152.64 80.4047 152.64C80.7914 152.64 81.1714 152.58 81.5447 152.46C81.918 152.327 82.2047 152.207 82.4047 152.1L82.5447 153.68C82.3447 153.8 82.0047 153.927 81.5247 154.06C81.0447 154.207 80.498 154.28 79.8847 154.28ZM92.287 154.28C91.287 154.28 90.5537 154.06 90.087 153.62C89.6204 153.18 89.387 152.54 89.387 151.7C89.387 151.153 89.4804 150.453 89.667 149.6L91.807 140.7L93.747 140.38L92.967 143.6H96.507L96.127 145.16H92.587L91.487 149.76C91.327 150.387 91.247 150.933 91.247 151.4C91.247 151.84 91.367 152.16 91.607 152.36C91.847 152.547 92.247 152.64 92.807 152.64C93.1937 152.64 93.5737 152.58 93.947 152.46C94.3204 152.327 94.607 152.207 94.807 152.1L94.947 153.68C94.747 153.8 94.407 153.927 93.927 154.06C93.447 154.207 92.9004 154.28 92.287 154.28ZM96.5005 154L100.16 138.8L102.1 138.48L100.82 143.74C101.127 143.633 101.447 143.547 101.78 143.48C102.127 143.413 102.474 143.38 102.82 143.38C103.42 143.38 103.934 143.467 104.36 143.64C104.8 143.8 105.154 144.027 105.42 144.32C105.687 144.6 105.88 144.947 106 145.36C106.134 145.76 106.2 146.2 106.2 146.68C106.2 147.267 106.107 147.933 105.92 148.68L104.64 154H102.78L103.96 149.08C104.054 148.707 104.14 148.327 104.22 147.94C104.314 147.553 104.36 147.187 104.36 146.84C104.36 146.307 104.214 145.867 103.92 145.52C103.627 145.16 103.08 144.98 102.28 144.98C101.96 144.98 101.627 145.013 101.28 145.08C100.947 145.133 100.667 145.213 100.44 145.32L98.3605 154H96.5005ZM109.396 154H107.536L110.036 143.6H111.896L109.396 154ZM111.556 141.72C111.249 141.72 110.989 141.627 110.776 141.44C110.576 141.253 110.476 140.993 110.476 140.66C110.476 140.233 110.609 139.9 110.876 139.66C111.142 139.407 111.442 139.28 111.776 139.28C112.082 139.28 112.342 139.38 112.556 139.58C112.769 139.767 112.876 140.033 112.876 140.38C112.876 140.78 112.736 141.107 112.456 141.36C112.176 141.6 111.876 141.72 111.556 141.72ZM115.116 152.7C115.396 152.7 115.676 152.673 115.956 152.62C116.249 152.567 116.503 152.48 116.716 152.36C116.943 152.24 117.123 152.08 117.256 151.88C117.403 151.667 117.476 151.407 117.476 151.1C117.476 150.9 117.443 150.727 117.376 150.58C117.309 150.42 117.203 150.273 117.056 150.14C116.909 150.007 116.723 149.88 116.496 149.76C116.283 149.627 116.023 149.48 115.716 149.32C115.409 149.173 115.129 149.027 114.876 148.88C114.623 148.733 114.396 148.56 114.196 148.36C114.009 148.16 113.863 147.927 113.756 147.66C113.649 147.38 113.596 147.047 113.596 146.66C113.596 145.66 113.956 144.86 114.676 144.26C115.396 143.647 116.443 143.34 117.816 143.34C118.456 143.34 119.016 143.407 119.496 143.54C119.989 143.66 120.329 143.773 120.516 143.88L119.816 145.4C119.629 145.293 119.329 145.18 118.916 145.06C118.503 144.94 118.043 144.88 117.536 144.88C117.283 144.88 117.029 144.907 116.776 144.96C116.523 145.013 116.289 145.107 116.076 145.24C115.876 145.36 115.709 145.527 115.576 145.74C115.456 145.94 115.396 146.187 115.396 146.48C115.396 146.84 115.536 147.14 115.816 147.38C116.096 147.607 116.516 147.847 117.076 148.1C117.423 148.26 117.729 148.427 117.996 148.6C118.276 148.76 118.509 148.947 118.696 149.16C118.896 149.36 119.043 149.6 119.136 149.88C119.243 150.16 119.296 150.493 119.296 150.88C119.296 151.44 119.189 151.933 118.976 152.36C118.763 152.787 118.463 153.14 118.076 153.42C117.703 153.7 117.256 153.907 116.736 154.04C116.216 154.187 115.649 154.26 115.036 154.26C114.583 154.26 114.169 154.227 113.796 154.16C113.436 154.107 113.116 154.04 112.836 153.96C112.569 153.88 112.343 153.8 112.156 153.72C111.983 153.627 111.849 153.553 111.756 153.5L112.476 151.98C112.569 152.033 112.696 152.1 112.856 152.18C113.029 152.26 113.229 152.34 113.456 152.42C113.696 152.5 113.956 152.567 114.236 152.62C114.516 152.673 114.809 152.7 115.116 152.7ZM127.347 153.6C127.161 154.347 126.954 154.98 126.727 155.5C126.514 156.033 126.241 156.467 125.907 156.8C125.587 157.133 125.201 157.373 124.747 157.52C124.294 157.68 123.741 157.76 123.087 157.76C122.861 157.76 122.607 157.727 122.327 157.66C122.034 157.593 121.807 157.507 121.647 157.4L122.067 155.86C122.214 155.953 122.401 156.027 122.627 156.08C122.854 156.133 123.101 156.16 123.367 156.16C123.967 156.16 124.421 155.927 124.727 155.46C125.047 154.993 125.301 154.38 125.487 153.62L127.887 143.6H129.747L127.347 153.6ZM129.427 141.72C129.121 141.72 128.861 141.627 128.647 141.44C128.447 141.253 128.347 140.993 128.347 140.66C128.347 140.233 128.481 139.9 128.747 139.66C129.014 139.407 129.314 139.28 129.647 139.28C129.954 139.28 130.214 139.38 130.427 139.58C130.641 139.767 130.747 140.033 130.747 140.38C130.747 140.78 130.607 141.107 130.327 141.36C130.047 141.6 129.747 141.72 129.427 141.72ZM134.348 154.26C133.254 154.26 132.394 153.94 131.768 153.3C131.154 152.647 130.848 151.753 130.848 150.62C130.848 149.847 130.954 149.033 131.168 148.18C131.394 147.327 131.748 146.54 132.228 145.82C132.708 145.1 133.328 144.507 134.088 144.04C134.848 143.573 135.768 143.34 136.848 143.34C137.941 143.34 138.794 143.667 139.408 144.32C140.034 144.96 140.348 145.847 140.348 146.98C140.348 147.753 140.234 148.567 140.008 149.42C139.794 150.273 139.448 151.06 138.968 151.78C138.488 152.5 137.868 153.093 137.108 153.56C136.348 154.027 135.428 154.26 134.348 154.26ZM134.668 152.68C135.268 152.68 135.801 152.507 136.268 152.16C136.748 151.813 137.148 151.373 137.468 150.84C137.801 150.293 138.054 149.693 138.228 149.04C138.401 148.387 138.488 147.753 138.488 147.14C138.488 146.46 138.341 145.92 138.048 145.52C137.754 145.12 137.248 144.92 136.528 144.92C135.928 144.92 135.388 145.093 134.908 145.44C134.441 145.787 134.041 146.233 133.708 146.78C133.388 147.313 133.141 147.907 132.968 148.56C132.794 149.213 132.708 149.847 132.708 150.46C132.708 151.14 132.854 151.68 133.148 152.08C133.441 152.48 133.948 152.68 134.668 152.68ZM145.261 154.26C144.675 154.26 144.181 154.173 143.781 154C143.395 153.827 143.075 153.593 142.821 153.3C142.581 153.007 142.408 152.66 142.301 152.26C142.195 151.86 142.141 151.433 142.141 150.98C142.141 150.633 142.168 150.293 142.221 149.96C142.288 149.613 142.361 149.267 142.441 148.92L143.721 143.6H145.581L144.401 148.52C144.335 148.827 144.248 149.187 144.141 149.6C144.035 150.013 143.981 150.427 143.981 150.84C143.981 151.08 144.001 151.313 144.041 151.54C144.095 151.753 144.181 151.947 144.301 152.12C144.435 152.28 144.608 152.413 144.821 152.52C145.035 152.613 145.301 152.66 145.621 152.66C146.195 152.66 146.695 152.54 147.121 152.3C147.561 152.047 147.928 151.753 148.221 151.42C148.235 151.207 148.255 150.987 148.281 150.76C148.308 150.533 148.355 150.287 148.421 150.02L149.961 143.6H151.821L150.241 150.18C150.175 150.487 150.115 150.787 150.061 151.08C150.021 151.36 150.001 151.653 150.001 151.96C150.001 152.267 150.028 152.573 150.081 152.88C150.135 153.187 150.228 153.52 150.361 153.88L148.721 154.12C148.655 153.973 148.588 153.807 148.521 153.62C148.455 153.433 148.401 153.233 148.361 153.02C148.215 153.153 148.041 153.293 147.841 153.44C147.641 153.587 147.408 153.72 147.141 153.84C146.888 153.96 146.601 154.06 146.281 154.14C145.975 154.22 145.635 154.26 145.261 154.26ZM158.418 143.38C158.578 143.38 158.758 143.387 158.958 143.4C159.158 143.413 159.351 143.44 159.538 143.48C159.738 143.507 159.918 143.54 160.078 143.58C160.238 143.607 160.358 143.64 160.438 143.68L159.898 145.3C159.631 145.193 159.324 145.113 158.978 145.06C158.631 145.007 158.298 144.98 157.978 144.98C157.698 144.98 157.418 145 157.138 145.04C156.871 145.08 156.638 145.133 156.438 145.2L154.318 154H152.458L154.858 144C155.391 143.813 155.964 143.667 156.578 143.56C157.191 143.44 157.804 143.38 158.418 143.38ZM161.759 154H159.899L162.299 144C162.912 143.813 163.572 143.667 164.279 143.56C164.999 143.44 165.639 143.38 166.199 143.38C166.799 143.38 167.312 143.467 167.739 143.64C168.179 143.8 168.532 144.027 168.799 144.32C169.066 144.6 169.259 144.947 169.379 145.36C169.512 145.76 169.579 146.2 169.579 146.68C169.579 146.987 169.552 147.313 169.499 147.66C169.446 147.993 169.379 148.333 169.299 148.68L168.019 154H166.159L167.339 149.08C167.432 148.707 167.519 148.327 167.599 147.94C167.692 147.553 167.739 147.187 167.739 146.84C167.739 146.307 167.592 145.867 167.299 145.52C167.006 145.16 166.459 144.98 165.659 144.98C165.326 144.98 164.999 145 164.679 145.04C164.359 145.08 164.092 145.133 163.879 145.2L161.759 154ZM173.475 148.54C174.248 148.513 174.955 148.467 175.595 148.4C176.235 148.32 176.788 148.193 177.255 148.02C177.721 147.833 178.081 147.587 178.335 147.28C178.601 146.973 178.735 146.573 178.735 146.08C178.735 145.96 178.708 145.833 178.655 145.7C178.615 145.567 178.535 145.447 178.415 145.34C178.308 145.22 178.155 145.127 177.955 145.06C177.755 144.98 177.508 144.94 177.215 144.94C176.748 144.94 176.308 145.04 175.895 145.24C175.495 145.44 175.135 145.707 174.815 146.04C174.495 146.36 174.221 146.74 173.995 147.18C173.768 147.607 173.595 148.06 173.475 148.54ZM175.375 154.26C174.695 154.26 174.108 154.167 173.615 153.98C173.121 153.78 172.708 153.513 172.375 153.18C172.041 152.833 171.795 152.433 171.635 151.98C171.475 151.527 171.395 151.047 171.395 150.54C171.395 149.607 171.535 148.707 171.815 147.84C172.095 146.973 172.495 146.207 173.015 145.54C173.535 144.873 174.168 144.347 174.915 143.96C175.661 143.56 176.508 143.36 177.455 143.36C178.001 143.36 178.468 143.433 178.855 143.58C179.255 143.713 179.575 143.9 179.815 144.14C180.068 144.38 180.255 144.66 180.375 144.98C180.495 145.287 180.555 145.607 180.555 145.94C180.555 146.567 180.441 147.1 180.215 147.54C179.988 147.967 179.688 148.327 179.315 148.62C178.941 148.913 178.501 149.14 177.995 149.3C177.501 149.46 176.981 149.587 176.435 149.68C175.901 149.773 175.355 149.84 174.795 149.88C174.248 149.907 173.728 149.933 173.235 149.96C173.221 150.067 173.215 150.153 173.215 150.22C173.215 150.287 173.215 150.34 173.215 150.38C173.215 150.687 173.248 150.98 173.315 151.26C173.395 151.527 173.535 151.767 173.735 151.98C173.935 152.18 174.208 152.34 174.555 152.46C174.915 152.58 175.381 152.64 175.955 152.64C176.208 152.64 176.468 152.62 176.735 152.58C177.015 152.527 177.275 152.467 177.515 152.4C177.768 152.32 177.988 152.247 178.175 152.18C178.375 152.1 178.515 152.027 178.595 151.96L178.755 153.54C178.488 153.687 178.055 153.84 177.455 154C176.868 154.173 176.175 154.26 175.375 154.26ZM185.366 152.32C185.873 151.52 186.333 150.693 186.746 149.84C187.159 148.973 187.519 148.147 187.826 147.36C188.146 146.573 188.413 145.853 188.626 145.2C188.839 144.533 188.993 144 189.086 143.6H191.026C190.879 144.107 190.673 144.74 190.406 145.5C190.139 146.247 189.813 147.06 189.426 147.94C189.053 148.807 188.626 149.7 188.146 150.62C187.679 151.527 187.166 152.4 186.606 153.24C186.179 153.867 185.753 154.453 185.326 155C184.899 155.56 184.439 156.04 183.946 156.44C183.466 156.853 182.933 157.173 182.346 157.4C181.759 157.64 181.099 157.76 180.366 157.76C179.993 157.76 179.646 157.713 179.326 157.62C179.006 157.527 178.773 157.427 178.626 157.32L179.266 155.8C179.399 155.907 179.579 155.993 179.806 156.06C180.033 156.14 180.286 156.18 180.566 156.18C181.339 156.18 181.993 155.993 182.526 155.62C183.073 155.247 183.586 154.753 184.066 154.14C183.573 152.527 183.166 150.827 182.846 149.04C182.539 147.253 182.353 145.44 182.286 143.6H184.186C184.199 144.2 184.233 144.86 184.286 145.58C184.339 146.287 184.413 147.027 184.506 147.8C184.613 148.56 184.733 149.327 184.866 150.1C185.013 150.873 185.179 151.613 185.366 152.32ZM199.006 154.28C198.006 154.28 197.272 154.06 196.806 153.62C196.339 153.18 196.106 152.54 196.106 151.7C196.106 151.153 196.199 150.453 196.386 149.6L198.526 140.7L200.466 140.38L199.686 143.6H203.226L202.846 145.16H199.306L198.206 149.76C198.046 150.387 197.966 150.933 197.966 151.4C197.966 151.84 198.086 152.16 198.326 152.36C198.566 152.547 198.966 152.64 199.526 152.64C199.912 152.64 200.292 152.58 200.666 152.46C201.039 152.327 201.326 152.207 201.526 152.1L201.666 153.68C201.466 153.8 201.126 153.927 200.646 154.06C200.166 154.207 199.619 154.28 199.006 154.28ZM207.102 154.26C206.008 154.26 205.148 153.94 204.522 153.3C203.908 152.647 203.602 151.753 203.602 150.62C203.602 149.847 203.708 149.033 203.922 148.18C204.148 147.327 204.502 146.54 204.982 145.82C205.462 145.1 206.082 144.507 206.842 144.04C207.602 143.573 208.522 143.34 209.602 143.34C210.695 143.34 211.548 143.667 212.162 144.32C212.788 144.96 213.102 145.847 213.102 146.98C213.102 147.753 212.988 148.567 212.762 149.42C212.548 150.273 212.202 151.06 211.722 151.78C211.242 152.5 210.622 153.093 209.862 153.56C209.102 154.027 208.182 154.26 207.102 154.26ZM207.422 152.68C208.022 152.68 208.555 152.507 209.022 152.16C209.502 151.813 209.902 151.373 210.222 150.84C210.555 150.293 210.808 149.693 210.982 149.04C211.155 148.387 211.242 147.753 211.242 147.14C211.242 146.46 211.095 145.92 210.802 145.52C210.508 145.12 210.002 144.92 209.282 144.92C208.682 144.92 208.142 145.093 207.662 145.44C207.195 145.787 206.795 146.233 206.462 146.78C206.142 147.313 205.895 147.907 205.722 148.56C205.548 149.213 205.462 149.847 205.462 150.46C205.462 151.14 205.608 151.68 205.902 152.08C206.195 152.48 206.702 152.68 207.422 152.68ZM216.735 156.16C217.282 156.16 217.762 156.093 218.175 155.96C218.589 155.827 218.942 155.633 219.235 155.38C219.542 155.127 219.789 154.827 219.975 154.48C220.162 154.133 220.309 153.74 220.415 153.3L220.495 152.92C220.229 153.067 219.869 153.213 219.415 153.36C218.962 153.507 218.495 153.58 218.015 153.58C216.935 153.58 216.102 153.313 215.515 152.78C214.942 152.233 214.655 151.473 214.655 150.5C214.655 149.607 214.802 148.733 215.095 147.88C215.389 147.027 215.835 146.267 216.435 145.6C217.035 144.933 217.782 144.4 218.675 144C219.569 143.587 220.615 143.38 221.815 143.38C222.002 143.38 222.209 143.393 222.435 143.42C222.675 143.447 222.915 143.487 223.155 143.54C223.409 143.58 223.649 143.64 223.875 143.72C224.115 143.8 224.322 143.893 224.495 144L222.315 153.1C222.142 153.82 221.929 154.467 221.675 155.04C221.422 155.613 221.075 156.1 220.635 156.5C220.195 156.9 219.629 157.207 218.935 157.42C218.242 157.647 217.375 157.76 216.335 157.76C215.762 157.76 215.195 157.68 214.635 157.52C214.075 157.373 213.602 157.187 213.215 156.96L213.915 155.4C214.222 155.627 214.629 155.807 215.135 155.94C215.642 156.087 216.175 156.16 216.735 156.16ZM218.415 152.02C218.949 152.02 219.435 151.927 219.875 151.74C220.329 151.54 220.675 151.353 220.915 151.18L222.375 145.1C222.242 145.073 222.089 145.047 221.915 145.02C221.742 144.993 221.575 144.98 221.415 144.98C220.695 144.98 220.035 145.12 219.435 145.4C218.835 145.667 218.315 146.033 217.875 146.5C217.449 146.953 217.115 147.487 216.875 148.1C216.635 148.7 216.515 149.327 216.515 149.98C216.515 150.7 216.669 151.22 216.975 151.54C217.295 151.86 217.775 152.02 218.415 152.02ZM227.771 148.54C228.545 148.513 229.251 148.467 229.891 148.4C230.531 148.32 231.085 148.193 231.551 148.02C232.018 147.833 232.378 147.587 232.631 147.28C232.898 146.973 233.031 146.573 233.031 146.08C233.031 145.96 233.005 145.833 232.951 145.7C232.911 145.567 232.831 145.447 232.711 145.34C232.605 145.22 232.451 145.127 232.251 145.06C232.051 144.98 231.805 144.94 231.511 144.94C231.045 144.94 230.605 145.04 230.191 145.24C229.791 145.44 229.431 145.707 229.111 146.04C228.791 146.36 228.518 146.74 228.291 147.18C228.065 147.607 227.891 148.06 227.771 148.54ZM229.671 154.26C228.991 154.26 228.405 154.167 227.911 153.98C227.418 153.78 227.005 153.513 226.671 153.18C226.338 152.833 226.091 152.433 225.931 151.98C225.771 151.527 225.691 151.047 225.691 150.54C225.691 149.607 225.831 148.707 226.111 147.84C226.391 146.973 226.791 146.207 227.311 145.54C227.831 144.873 228.465 144.347 229.211 143.96C229.958 143.56 230.805 143.36 231.751 143.36C232.298 143.36 232.765 143.433 233.151 143.58C233.551 143.713 233.871 143.9 234.111 144.14C234.365 144.38 234.551 144.66 234.671 144.98C234.791 145.287 234.851 145.607 234.851 145.94C234.851 146.567 234.738 147.1 234.511 147.54C234.285 147.967 233.985 148.327 233.611 148.62C233.238 148.913 232.798 149.14 232.291 149.3C231.798 149.46 231.278 149.587 230.731 149.68C230.198 149.773 229.651 149.84 229.091 149.88C228.545 149.907 228.025 149.933 227.531 149.96C227.518 150.067 227.511 150.153 227.511 150.22C227.511 150.287 227.511 150.34 227.511 150.38C227.511 150.687 227.545 150.98 227.611 151.26C227.691 151.527 227.831 151.767 228.031 151.98C228.231 152.18 228.505 152.34 228.851 152.46C229.211 152.58 229.678 152.64 230.251 152.64C230.505 152.64 230.765 152.62 231.031 152.58C231.311 152.527 231.571 152.467 231.811 152.4C232.065 152.32 232.285 152.247 232.471 152.18C232.671 152.1 232.811 152.027 232.891 151.96L233.051 153.54C232.785 153.687 232.351 153.84 231.751 154C231.165 154.173 230.471 154.26 229.671 154.26ZM239.123 154.28C238.123 154.28 237.39 154.06 236.923 153.62C236.456 153.18 236.223 152.54 236.223 151.7C236.223 151.153 236.316 150.453 236.503 149.6L238.643 140.7L240.583 140.38L239.803 143.6H243.343L242.963 145.16H239.423L238.323 149.76C238.163 150.387 238.083 150.933 238.083 151.4C238.083 151.84 238.203 152.16 238.443 152.36C238.683 152.547 239.083 152.64 239.643 152.64C240.03 152.64 240.41 152.58 240.783 152.46C241.156 152.327 241.443 152.207 241.643 152.1L241.783 153.68C241.583 153.8 241.243 153.927 240.763 154.06C240.283 154.207 239.736 154.28 239.123 154.28ZM243.336 154L246.996 138.8L248.936 138.48L247.656 143.74C247.963 143.633 248.283 143.547 248.616 143.48C248.963 143.413 249.31 143.38 249.656 143.38C250.256 143.38 250.77 143.467 251.196 143.64C251.636 143.8 251.99 144.027 252.256 144.32C252.523 144.6 252.716 144.947 252.836 145.36C252.97 145.76 253.036 146.2 253.036 146.68C253.036 147.267 252.943 147.933 252.756 148.68L251.476 154H249.616L250.796 149.08C250.89 148.707 250.976 148.327 251.056 147.94C251.15 147.553 251.196 147.187 251.196 146.84C251.196 146.307 251.05 145.867 250.756 145.52C250.463 145.16 249.916 144.98 249.116 144.98C248.796 144.98 248.463 145.013 248.116 145.08C247.783 145.133 247.503 145.213 247.276 145.32L245.196 154H243.336ZM256.932 148.54C257.705 148.513 258.412 148.467 259.052 148.4C259.692 148.32 260.245 148.193 260.712 148.02C261.178 147.833 261.538 147.587 261.792 147.28C262.058 146.973 262.192 146.573 262.192 146.08C262.192 145.96 262.165 145.833 262.112 145.7C262.072 145.567 261.992 145.447 261.872 145.34C261.765 145.22 261.612 145.127 261.412 145.06C261.212 144.98 260.965 144.94 260.672 144.94C260.205 144.94 259.765 145.04 259.352 145.24C258.952 145.44 258.592 145.707 258.272 146.04C257.952 146.36 257.678 146.74 257.452 147.18C257.225 147.607 257.052 148.06 256.932 148.54ZM258.832 154.26C258.152 154.26 257.565 154.167 257.072 153.98C256.578 153.78 256.165 153.513 255.832 153.18C255.498 152.833 255.252 152.433 255.092 151.98C254.932 151.527 254.852 151.047 254.852 150.54C254.852 149.607 254.992 148.707 255.272 147.84C255.552 146.973 255.952 146.207 256.472 145.54C256.992 144.873 257.625 144.347 258.372 143.96C259.118 143.56 259.965 143.36 260.912 143.36C261.458 143.36 261.925 143.433 262.312 143.58C262.712 143.713 263.032 143.9 263.272 144.14C263.525 144.38 263.712 144.66 263.832 144.98C263.952 145.287 264.012 145.607 264.012 145.94C264.012 146.567 263.898 147.1 263.672 147.54C263.445 147.967 263.145 148.327 262.772 148.62C262.398 148.913 261.958 149.14 261.452 149.3C260.958 149.46 260.438 149.587 259.892 149.68C259.358 149.773 258.812 149.84 258.252 149.88C257.705 149.907 257.185 149.933 256.692 149.96C256.678 150.067 256.672 150.153 256.672 150.22C256.672 150.287 256.672 150.34 256.672 150.38C256.672 150.687 256.705 150.98 256.772 151.26C256.852 151.527 256.992 151.767 257.192 151.98C257.392 152.18 257.665 152.34 258.012 152.46C258.372 152.58 258.838 152.64 259.412 152.64C259.665 152.64 259.925 152.62 260.192 152.58C260.472 152.527 260.732 152.467 260.972 152.4C261.225 152.32 261.445 152.247 261.632 152.18C261.832 152.1 261.972 152.027 262.052 151.96L262.212 153.54C261.945 153.687 261.512 153.84 260.912 154C260.325 154.173 259.632 154.26 258.832 154.26ZM270.683 143.38C270.843 143.38 271.023 143.387 271.223 143.4C271.423 143.413 271.616 143.44 271.803 143.48C272.003 143.507 272.183 143.54 272.343 143.58C272.503 143.607 272.623 143.64 272.703 143.68L272.163 145.3C271.896 145.193 271.59 145.113 271.243 145.06C270.896 145.007 270.563 144.98 270.243 144.98C269.963 144.98 269.683 145 269.403 145.04C269.136 145.08 268.903 145.133 268.703 145.2L266.583 154H264.723L267.123 144C267.656 143.813 268.23 143.667 268.843 143.56C269.456 143.44 270.07 143.38 270.683 143.38ZM283.913 154.12C283.847 153.973 283.78 153.813 283.713 153.64C283.647 153.453 283.593 153.26 283.553 153.06C283.26 153.327 282.867 153.593 282.373 153.86C281.88 154.127 281.273 154.26 280.553 154.26C279.967 154.26 279.46 154.167 279.033 153.98C278.62 153.793 278.28 153.533 278.013 153.2C277.747 152.867 277.547 152.473 277.413 152.02C277.293 151.567 277.233 151.067 277.233 150.52C277.233 149.627 277.38 148.753 277.673 147.9C277.98 147.047 278.433 146.287 279.033 145.62C279.633 144.953 280.387 144.413 281.293 144C282.2 143.587 283.26 143.38 284.473 143.38C284.833 143.38 285.253 143.42 285.733 143.5C286.213 143.58 286.627 143.713 286.973 143.9L285.433 150.18C285.367 150.487 285.307 150.78 285.253 151.06C285.213 151.34 285.193 151.633 285.193 151.94C285.193 152.247 285.22 152.56 285.273 152.88C285.327 153.187 285.42 153.52 285.553 153.88L283.913 154.12ZM280.933 152.68C281.493 152.68 281.973 152.56 282.373 152.32C282.773 152.08 283.12 151.8 283.413 151.48C283.427 151.253 283.447 151.02 283.473 150.78C283.513 150.527 283.56 150.273 283.613 150.02L284.813 145.06C284.747 145.033 284.633 145.013 284.473 145C284.327 144.987 284.193 144.98 284.073 144.98C283.313 144.98 282.627 145.127 282.013 145.42C281.4 145.713 280.873 146.107 280.433 146.6C280.007 147.08 279.673 147.647 279.433 148.3C279.207 148.94 279.093 149.613 279.093 150.32C279.093 150.6 279.12 150.887 279.173 151.18C279.227 151.46 279.32 151.713 279.453 151.94C279.6 152.153 279.787 152.333 280.013 152.48C280.253 152.613 280.56 152.68 280.933 152.68ZM289.532 154H287.672L290.072 144C290.686 143.813 291.346 143.667 292.052 143.56C292.772 143.44 293.412 143.38 293.972 143.38C294.572 143.38 295.086 143.467 295.512 143.64C295.952 143.8 296.306 144.027 296.572 144.32C296.839 144.6 297.032 144.947 297.152 145.36C297.286 145.76 297.352 146.2 297.352 146.68C297.352 146.987 297.326 147.313 297.272 147.66C297.219 147.993 297.152 148.333 297.072 148.68L295.792 154H293.932L295.112 149.08C295.206 148.707 295.292 148.327 295.372 147.94C295.466 147.553 295.512 147.187 295.512 146.84C295.512 146.307 295.366 145.867 295.072 145.52C294.779 145.16 294.232 144.98 293.432 144.98C293.099 144.98 292.772 145 292.452 145.04C292.132 145.08 291.866 145.133 291.652 145.2L289.532 154ZM307.148 151.94C307.148 152.247 307.175 152.56 307.228 152.88C307.281 153.187 307.375 153.52 307.508 153.88L305.868 154.12C305.721 153.827 305.608 153.473 305.528 153.06C305.235 153.327 304.841 153.593 304.348 153.86C303.855 154.127 303.248 154.26 302.528 154.26C301.941 154.26 301.435 154.173 301.008 154C300.581 153.813 300.228 153.553 299.948 153.22C299.668 152.887 299.461 152.493 299.328 152.04C299.195 151.573 299.128 151.067 299.128 150.52C299.128 149.627 299.275 148.753 299.568 147.9C299.875 147.047 300.321 146.287 300.908 145.62C301.508 144.953 302.255 144.42 303.148 144.02C304.041 143.607 305.081 143.4 306.268 143.4C306.415 143.4 306.561 143.407 306.708 143.42C306.855 143.433 307.008 143.453 307.168 143.48L308.288 138.8L310.228 138.48L307.408 150.18C307.341 150.487 307.281 150.78 307.228 151.06C307.175 151.34 307.148 151.633 307.148 151.94ZM302.908 152.68C303.468 152.68 303.941 152.567 304.328 152.34C304.728 152.1 305.075 151.827 305.368 151.52C305.381 151.307 305.401 151.08 305.428 150.84C305.468 150.587 305.521 150.313 305.588 150.02L306.788 145.02C306.668 144.993 306.535 144.98 306.388 144.98C306.241 144.967 306.101 144.96 305.968 144.96C305.208 144.96 304.521 145.107 303.908 145.4C303.295 145.693 302.768 146.087 302.328 146.58C301.901 147.073 301.568 147.647 301.328 148.3C301.101 148.94 300.988 149.613 300.988 150.32C300.988 150.627 301.021 150.92 301.088 151.2C301.155 151.48 301.261 151.733 301.408 151.96C301.555 152.173 301.748 152.347 301.988 152.48C302.241 152.613 302.548 152.68 302.908 152.68ZM9.98 174.94C9.98 175.247 10.0067 175.56 10.06 175.88C10.1133 176.187 10.2067 176.52 10.34 176.88L8.7 177.12C8.55333 176.827 8.44 176.473 8.36 176.06C8.06667 176.327 7.67333 176.593 7.18 176.86C6.68667 177.127 6.08 177.26 5.36 177.26C4.77333 177.26 4.26667 177.173 3.84 177C3.41333 176.813 3.06 176.553 2.78 176.22C2.5 175.887 2.29333 175.493 2.16 175.04C2.02667 174.573 1.96 174.067 1.96 173.52C1.96 172.627 2.10667 171.753 2.4 170.9C2.70667 170.047 3.15333 169.287 3.74 168.62C4.34 167.953 5.08667 167.42 5.98 167.02C6.87333 166.607 7.91333 166.4 9.1 166.4C9.24667 166.4 9.39333 166.407 9.54 166.42C9.68667 166.433 9.84 166.453 10 166.48L11.12 161.8L13.06 161.48L10.24 173.18C10.1733 173.487 10.1133 173.78 10.06 174.06C10.0067 174.34 9.98 174.633 9.98 174.94ZM5.74 175.68C6.3 175.68 6.77333 175.567 7.16 175.34C7.56 175.1 7.90667 174.827 8.2 174.52C8.21333 174.307 8.23333 174.08 8.26 173.84C8.3 173.587 8.35333 173.313 8.42 173.02L9.62 168.02C9.5 167.993 9.36667 167.98 9.22 167.98C9.07333 167.967 8.93333 167.96 8.8 167.96C8.04 167.96 7.35333 168.107 6.74 168.4C6.12667 168.693 5.6 169.087 5.16 169.58C4.73333 170.073 4.4 170.647 4.16 171.3C3.93333 171.94 3.82 172.613 3.82 173.32C3.82 173.627 3.85333 173.92 3.92 174.2C3.98667 174.48 4.09333 174.733 4.24 174.96C4.38667 175.173 4.58 175.347 4.82 175.48C5.07333 175.613 5.38 175.68 5.74 175.68ZM15.0175 171.54C15.7908 171.513 16.4975 171.467 17.1375 171.4C17.7775 171.32 18.3308 171.193 18.7975 171.02C19.2642 170.833 19.6242 170.587 19.8775 170.28C20.1442 169.973 20.2775 169.573 20.2775 169.08C20.2775 168.96 20.2508 168.833 20.1975 168.7C20.1575 168.567 20.0775 168.447 19.9575 168.34C19.8508 168.22 19.6975 168.127 19.4975 168.06C19.2975 167.98 19.0508 167.94 18.7575 167.94C18.2908 167.94 17.8508 168.04 17.4375 168.24C17.0375 168.44 16.6775 168.707 16.3575 169.04C16.0375 169.36 15.7642 169.74 15.5375 170.18C15.3108 170.607 15.1375 171.06 15.0175 171.54ZM16.9175 177.26C16.2375 177.26 15.6508 177.167 15.1575 176.98C14.6642 176.78 14.2508 176.513 13.9175 176.18C13.5842 175.833 13.3375 175.433 13.1775 174.98C13.0175 174.527 12.9375 174.047 12.9375 173.54C12.9375 172.607 13.0775 171.707 13.3575 170.84C13.6375 169.973 14.0375 169.207 14.5575 168.54C15.0775 167.873 15.7108 167.347 16.4575 166.96C17.2042 166.56 18.0508 166.36 18.9975 166.36C19.5442 166.36 20.0108 166.433 20.3975 166.58C20.7975 166.713 21.1175 166.9 21.3575 167.14C21.6108 167.38 21.7975 167.66 21.9175 167.98C22.0375 168.287 22.0975 168.607 22.0975 168.94C22.0975 169.567 21.9842 170.1 21.7575 170.54C21.5308 170.967 21.2308 171.327 20.8575 171.62C20.4842 171.913 20.0442 172.14 19.5375 172.3C19.0442 172.46 18.5242 172.587 17.9775 172.68C17.4442 172.773 16.8975 172.84 16.3375 172.88C15.7908 172.907 15.2708 172.933 14.7775 172.96C14.7642 173.067 14.7575 173.153 14.7575 173.22C14.7575 173.287 14.7575 173.34 14.7575 173.38C14.7575 173.687 14.7908 173.98 14.8575 174.26C14.9375 174.527 15.0775 174.767 15.2775 174.98C15.4775 175.18 15.7508 175.34 16.0975 175.46C16.4575 175.58 16.9242 175.64 17.4975 175.64C17.7508 175.64 18.0108 175.62 18.2775 175.58C18.5575 175.527 18.8175 175.467 19.0575 175.4C19.3108 175.32 19.5308 175.247 19.7175 175.18C19.9175 175.1 20.0575 175.027 20.1375 174.96L20.2975 176.54C20.0308 176.687 19.5975 176.84 18.9975 177C18.4108 177.173 17.7175 177.26 16.9175 177.26ZM25.1491 177C24.9891 176.32 24.8357 175.573 24.6891 174.76C24.5424 173.947 24.4091 173.1 24.2891 172.22C24.1691 171.327 24.0691 170.407 23.9891 169.46C23.9091 168.513 23.8557 167.56 23.8291 166.6H25.7091C25.7224 167.253 25.7491 167.953 25.7891 168.7C25.8424 169.433 25.9024 170.173 25.9691 170.92C26.0357 171.653 26.1157 172.367 26.2091 173.06C26.3024 173.74 26.4024 174.36 26.5091 174.92C26.9091 174.413 27.3224 173.82 27.7491 173.14C28.1891 172.447 28.6091 171.727 29.0091 170.98C29.4091 170.22 29.7757 169.46 30.1091 168.7C30.4424 167.94 30.7091 167.24 30.9091 166.6H32.7891C32.4957 167.48 32.1224 168.393 31.6691 169.34C31.2157 170.287 30.7224 171.22 30.1891 172.14C29.6691 173.047 29.1157 173.92 28.5291 174.76C27.9557 175.6 27.3957 176.347 26.8491 177H25.1491ZM34.998 171.54C35.7713 171.513 36.478 171.467 37.118 171.4C37.758 171.32 38.3113 171.193 38.778 171.02C39.2446 170.833 39.6046 170.587 39.858 170.28C40.1246 169.973 40.258 169.573 40.258 169.08C40.258 168.96 40.2313 168.833 40.178 168.7C40.138 168.567 40.058 168.447 39.938 168.34C39.8313 168.22 39.678 168.127 39.478 168.06C39.278 167.98 39.0313 167.94 38.738 167.94C38.2713 167.94 37.8313 168.04 37.418 168.24C37.018 168.44 36.658 168.707 36.338 169.04C36.018 169.36 35.7446 169.74 35.518 170.18C35.2913 170.607 35.118 171.06 34.998 171.54ZM36.898 177.26C36.218 177.26 35.6313 177.167 35.138 176.98C34.6446 176.78 34.2313 176.513 33.898 176.18C33.5646 175.833 33.318 175.433 33.158 174.98C32.998 174.527 32.918 174.047 32.918 173.54C32.918 172.607 33.058 171.707 33.338 170.84C33.618 169.973 34.018 169.207 34.538 168.54C35.058 167.873 35.6913 167.347 36.438 166.96C37.1846 166.56 38.0313 166.36 38.978 166.36C39.5246 166.36 39.9913 166.433 40.378 166.58C40.778 166.713 41.098 166.9 41.338 167.14C41.5913 167.38 41.778 167.66 41.898 167.98C42.018 168.287 42.078 168.607 42.078 168.94C42.078 169.567 41.9646 170.1 41.738 170.54C41.5113 170.967 41.2113 171.327 40.838 171.62C40.4646 171.913 40.0246 172.14 39.518 172.3C39.0246 172.46 38.5046 172.587 37.958 172.68C37.4246 172.773 36.878 172.84 36.318 172.88C35.7713 172.907 35.2513 172.933 34.758 172.96C34.7446 173.067 34.738 173.153 34.738 173.22C34.738 173.287 34.738 173.34 34.738 173.38C34.738 173.687 34.7713 173.98 34.838 174.26C34.918 174.527 35.058 174.767 35.258 174.98C35.458 175.18 35.7313 175.34 36.078 175.46C36.438 175.58 36.9046 175.64 37.478 175.64C37.7313 175.64 37.9913 175.62 38.258 175.58C38.538 175.527 38.798 175.467 39.038 175.4C39.2913 175.32 39.5113 175.247 39.698 175.18C39.898 175.1 40.038 175.027 40.118 174.96L40.278 176.54C40.0113 176.687 39.578 176.84 38.978 177C38.3913 177.173 37.698 177.26 36.898 177.26ZM45.5695 172.42C45.5029 172.713 45.4362 173 45.3695 173.28C45.3029 173.56 45.2695 173.827 45.2695 174.08C45.2695 174.533 45.3762 174.893 45.5895 175.16C45.8162 175.427 46.2295 175.593 46.8295 175.66L46.4095 177.18C45.8629 177.167 45.3962 177.087 45.0095 176.94C44.6362 176.78 44.3295 176.573 44.0895 176.32C43.8629 176.067 43.6962 175.767 43.5895 175.42C43.4829 175.073 43.4295 174.693 43.4295 174.28C43.4295 173.973 43.4562 173.653 43.5095 173.32C43.5629 172.987 43.6362 172.64 43.7295 172.28L46.2495 161.8L48.1895 161.48L45.5695 172.42ZM52.1211 177.26C51.0278 177.26 50.1678 176.94 49.5411 176.3C48.9278 175.647 48.6211 174.753 48.6211 173.62C48.6211 172.847 48.7278 172.033 48.9411 171.18C49.1678 170.327 49.5211 169.54 50.0011 168.82C50.4811 168.1 51.1011 167.507 51.8611 167.04C52.6211 166.573 53.5411 166.34 54.6211 166.34C55.7144 166.34 56.5678 166.667 57.1811 167.32C57.8078 167.96 58.1211 168.847 58.1211 169.98C58.1211 170.753 58.0078 171.567 57.7811 172.42C57.5678 173.273 57.2211 174.06 56.7411 174.78C56.2611 175.5 55.6411 176.093 54.8811 176.56C54.1211 177.027 53.2011 177.26 52.1211 177.26ZM52.4411 175.68C53.0411 175.68 53.5744 175.507 54.0411 175.16C54.5211 174.813 54.9211 174.373 55.2411 173.84C55.5744 173.293 55.8278 172.693 56.0011 172.04C56.1744 171.387 56.2611 170.753 56.2611 170.14C56.2611 169.46 56.1144 168.92 55.8211 168.52C55.5278 168.12 55.0211 167.92 54.3011 167.92C53.7011 167.92 53.1611 168.093 52.6811 168.44C52.2144 168.787 51.8144 169.233 51.4811 169.78C51.1611 170.313 50.9144 170.907 50.7411 171.56C50.5678 172.213 50.4811 172.847 50.4811 173.46C50.4811 174.14 50.6278 174.68 50.9211 175.08C51.2144 175.48 51.7211 175.68 52.4411 175.68ZM65.2948 166.34C65.9482 166.34 66.5082 166.433 66.9748 166.62C67.4548 166.807 67.8482 167.067 68.1548 167.4C68.4615 167.72 68.6882 168.107 68.8348 168.56C68.9948 169 69.0748 169.487 69.0748 170.02C69.0748 170.94 68.9348 171.833 68.6548 172.7C68.3748 173.553 67.9415 174.313 67.3548 174.98C66.7815 175.647 66.0482 176.18 65.1548 176.58C64.2748 176.98 63.2282 177.18 62.0148 177.18C61.8682 177.18 61.7082 177.173 61.5348 177.16C61.3615 177.147 61.2082 177.127 61.0748 177.1L60.2148 180.7H58.3548L61.6348 167.04C62.1948 166.813 62.8015 166.64 63.4548 166.52C64.1215 166.4 64.7348 166.34 65.2948 166.34ZM61.4548 175.54C61.5882 175.567 61.7282 175.587 61.8748 175.6C62.0348 175.6 62.1882 175.6 62.3348 175.6C63.0948 175.6 63.7748 175.453 64.3748 175.16C64.9748 174.867 65.4815 174.473 65.8948 173.98C66.3215 173.473 66.6482 172.9 66.8748 172.26C67.1015 171.607 67.2148 170.927 67.2148 170.22C67.2148 169.927 67.1815 169.64 67.1148 169.36C67.0482 169.08 66.9215 168.833 66.7348 168.62C66.5615 168.407 66.3215 168.24 66.0148 168.12C65.7082 167.987 65.3148 167.92 64.8348 167.92C64.5015 167.92 64.1948 167.953 63.9148 168.02C63.6348 168.073 63.4015 168.127 63.2148 168.18L61.4548 175.54ZM78.8817 175.32C79.3884 174.52 79.8484 173.693 80.2617 172.84C80.6751 171.973 81.0351 171.147 81.3417 170.36C81.6617 169.573 81.9284 168.853 82.1417 168.2C82.3551 167.533 82.5084 167 82.6017 166.6H84.5417C84.3951 167.107 84.1884 167.74 83.9217 168.5C83.6551 169.247 83.3284 170.06 82.9417 170.94C82.5684 171.807 82.1417 172.7 81.6617 173.62C81.1951 174.527 80.6817 175.4 80.1217 176.24C79.6951 176.867 79.2684 177.453 78.8417 178C78.4151 178.56 77.9551 179.04 77.4617 179.44C76.9817 179.853 76.4484 180.173 75.8617 180.4C75.2751 180.64 74.6151 180.76 73.8817 180.76C73.5084 180.76 73.1617 180.713 72.8417 180.62C72.5217 180.527 72.2884 180.427 72.1417 180.32L72.7817 178.8C72.9151 178.907 73.0951 178.993 73.3217 179.06C73.5484 179.14 73.8017 179.18 74.0817 179.18C74.8551 179.18 75.5084 178.993 76.0417 178.62C76.5884 178.247 77.1017 177.753 77.5817 177.14C77.0884 175.527 76.6817 173.827 76.3617 172.04C76.0551 170.253 75.8684 168.44 75.8017 166.6H77.7017C77.7151 167.2 77.7484 167.86 77.8017 168.58C77.8551 169.287 77.9284 170.027 78.0217 170.8C78.1284 171.56 78.2484 172.327 78.3817 173.1C78.5284 173.873 78.6951 174.613 78.8817 175.32ZM88.3125 177.26C87.2192 177.26 86.3592 176.94 85.7325 176.3C85.1192 175.647 84.8125 174.753 84.8125 173.62C84.8125 172.847 84.9192 172.033 85.1325 171.18C85.3592 170.327 85.7125 169.54 86.1925 168.82C86.6725 168.1 87.2925 167.507 88.0525 167.04C88.8125 166.573 89.7325 166.34 90.8125 166.34C91.9058 166.34 92.7592 166.667 93.3725 167.32C93.9992 167.96 94.3125 168.847 94.3125 169.98C94.3125 170.753 94.1992 171.567 93.9725 172.42C93.7592 173.273 93.4125 174.06 92.9325 174.78C92.4525 175.5 91.8325 176.093 91.0725 176.56C90.3125 177.027 89.3925 177.26 88.3125 177.26ZM88.6325 175.68C89.2325 175.68 89.7658 175.507 90.2325 175.16C90.7125 174.813 91.1125 174.373 91.4325 173.84C91.7658 173.293 92.0192 172.693 92.1925 172.04C92.3658 171.387 92.4525 170.753 92.4525 170.14C92.4525 169.46 92.3058 168.92 92.0125 168.52C91.7192 168.12 91.2125 167.92 90.4925 167.92C89.8925 167.92 89.3525 168.093 88.8725 168.44C88.4058 168.787 88.0058 169.233 87.6725 169.78C87.3525 170.313 87.1058 170.907 86.9325 171.56C86.7592 172.213 86.6725 172.847 86.6725 173.46C86.6725 174.14 86.8192 174.68 87.1125 175.08C87.4058 175.48 87.9125 175.68 88.6325 175.68ZM99.2263 177.26C98.6396 177.26 98.1463 177.173 97.7463 177C97.3596 176.827 97.0396 176.593 96.7863 176.3C96.5463 176.007 96.3729 175.66 96.2663 175.26C96.1596 174.86 96.1063 174.433 96.1063 173.98C96.1063 173.633 96.1329 173.293 96.1863 172.96C96.2529 172.613 96.3263 172.267 96.4062 171.92L97.6863 166.6H99.5463L98.3663 171.52C98.2996 171.827 98.2129 172.187 98.1063 172.6C97.9996 173.013 97.9463 173.427 97.9463 173.84C97.9463 174.08 97.9663 174.313 98.0063 174.54C98.0596 174.753 98.1463 174.947 98.2663 175.12C98.3996 175.28 98.5729 175.413 98.7863 175.52C98.9996 175.613 99.2663 175.66 99.5863 175.66C100.16 175.66 100.66 175.54 101.086 175.3C101.526 175.047 101.893 174.753 102.186 174.42C102.2 174.207 102.22 173.987 102.246 173.76C102.273 173.533 102.32 173.287 102.386 173.02L103.926 166.6H105.786L104.206 173.18C104.14 173.487 104.08 173.787 104.026 174.08C103.986 174.36 103.966 174.653 103.966 174.96C103.966 175.267 103.993 175.573 104.046 175.88C104.1 176.187 104.193 176.52 104.326 176.88L102.686 177.12C102.62 176.973 102.553 176.807 102.486 176.62C102.42 176.433 102.366 176.233 102.326 176.02C102.18 176.153 102.006 176.293 101.806 176.44C101.606 176.587 101.373 176.72 101.106 176.84C100.853 176.96 100.566 177.06 100.246 177.14C99.9396 177.22 99.5996 177.26 99.2263 177.26ZM112.382 166.38C112.542 166.38 112.722 166.387 112.922 166.4C113.122 166.413 113.316 166.44 113.502 166.48C113.702 166.507 113.882 166.54 114.042 166.58C114.202 166.607 114.322 166.64 114.402 166.68L113.862 168.3C113.596 168.193 113.289 168.113 112.942 168.06C112.596 168.007 112.262 167.98 111.942 167.98C111.662 167.98 111.382 168 111.102 168.04C110.836 168.08 110.602 168.133 110.402 168.2L108.282 177H106.422L108.822 167C109.356 166.813 109.929 166.667 110.542 166.56C111.156 166.44 111.769 166.38 112.382 166.38ZM122.753 167.02C123.059 166.833 123.413 166.673 123.813 166.54C124.213 166.407 124.639 166.34 125.093 166.34C125.666 166.34 126.166 166.433 126.593 166.62C127.033 166.807 127.393 167.067 127.673 167.4C127.953 167.72 128.159 168.107 128.293 168.56C128.439 169.013 128.513 169.5 128.513 170.02C128.513 170.94 128.366 171.833 128.073 172.7C127.779 173.553 127.333 174.32 126.733 175C126.133 175.667 125.379 176.207 124.473 176.62C123.579 177.02 122.526 177.22 121.313 177.22C121.113 177.22 120.893 177.207 120.653 177.18C120.413 177.167 120.166 177.133 119.913 177.08C119.673 177.027 119.433 176.96 119.193 176.88C118.966 176.8 118.766 176.707 118.593 176.6L122.133 161.8L124.073 161.48L122.753 167.02ZM124.633 167.92C124.233 167.92 123.833 167.993 123.433 168.14C123.046 168.273 122.679 168.467 122.333 168.72L120.713 175.5C120.846 175.527 120.999 175.553 121.173 175.58C121.346 175.607 121.519 175.62 121.693 175.62C122.453 175.62 123.139 175.473 123.753 175.18C124.366 174.873 124.886 174.473 125.313 173.98C125.739 173.473 126.066 172.9 126.293 172.26C126.533 171.607 126.653 170.927 126.653 170.22C126.653 169.927 126.619 169.64 126.553 169.36C126.499 169.08 126.393 168.833 126.233 168.62C126.086 168.407 125.879 168.24 125.613 168.12C125.359 167.987 125.033 167.92 124.633 167.92ZM133.386 177.26C132.8 177.26 132.306 177.173 131.906 177C131.52 176.827 131.2 176.593 130.946 176.3C130.706 176.007 130.533 175.66 130.426 175.26C130.32 174.86 130.266 174.433 130.266 173.98C130.266 173.633 130.293 173.293 130.346 172.96C130.413 172.613 130.486 172.267 130.566 171.92L131.846 166.6H133.706L132.526 171.52C132.46 171.827 132.373 172.187 132.266 172.6C132.16 173.013 132.106 173.427 132.106 173.84C132.106 174.08 132.126 174.313 132.166 174.54C132.22 174.753 132.306 174.947 132.426 175.12C132.56 175.28 132.733 175.413 132.946 175.52C133.16 175.613 133.426 175.66 133.746 175.66C134.32 175.66 134.82 175.54 135.246 175.3C135.686 175.047 136.053 174.753 136.346 174.42C136.36 174.207 136.38 173.987 136.406 173.76C136.433 173.533 136.48 173.287 136.546 173.02L138.086 166.6H139.946L138.366 173.18C138.3 173.487 138.24 173.787 138.186 174.08C138.146 174.36 138.126 174.653 138.126 174.96C138.126 175.267 138.153 175.573 138.206 175.88C138.26 176.187 138.353 176.52 138.486 176.88L136.846 177.12C136.78 176.973 136.713 176.807 136.646 176.62C136.58 176.433 136.526 176.233 136.486 176.02C136.34 176.153 136.166 176.293 135.966 176.44C135.766 176.587 135.533 176.72 135.266 176.84C135.013 176.96 134.726 177.06 134.406 177.14C134.1 177.22 133.76 177.26 133.386 177.26ZM143.183 175.7C143.463 175.7 143.743 175.673 144.023 175.62C144.316 175.567 144.569 175.48 144.783 175.36C145.009 175.24 145.189 175.08 145.323 174.88C145.469 174.667 145.543 174.407 145.543 174.1C145.543 173.9 145.509 173.727 145.443 173.58C145.376 173.42 145.269 173.273 145.123 173.14C144.976 173.007 144.789 172.88 144.563 172.76C144.349 172.627 144.089 172.48 143.783 172.32C143.476 172.173 143.196 172.027 142.943 171.88C142.689 171.733 142.463 171.56 142.263 171.36C142.076 171.16 141.929 170.927 141.823 170.66C141.716 170.38 141.663 170.047 141.663 169.66C141.663 168.66 142.023 167.86 142.743 167.26C143.463 166.647 144.509 166.34 145.883 166.34C146.523 166.34 147.083 166.407 147.563 166.54C148.056 166.66 148.396 166.773 148.583 166.88L147.883 168.4C147.696 168.293 147.396 168.18 146.983 168.06C146.569 167.94 146.109 167.88 145.603 167.88C145.349 167.88 145.096 167.907 144.843 167.96C144.589 168.013 144.356 168.107 144.143 168.24C143.943 168.36 143.776 168.527 143.643 168.74C143.523 168.94 143.463 169.187 143.463 169.48C143.463 169.84 143.603 170.14 143.883 170.38C144.163 170.607 144.583 170.847 145.143 171.1C145.489 171.26 145.796 171.427 146.063 171.6C146.343 171.76 146.576 171.947 146.763 172.16C146.963 172.36 147.109 172.6 147.203 172.88C147.309 173.16 147.363 173.493 147.363 173.88C147.363 174.44 147.256 174.933 147.043 175.36C146.829 175.787 146.529 176.14 146.143 176.42C145.769 176.7 145.323 176.907 144.803 177.04C144.283 177.187 143.716 177.26 143.103 177.26C142.649 177.26 142.236 177.227 141.863 177.16C141.503 177.107 141.183 177.04 140.903 176.96C140.636 176.88 140.409 176.8 140.223 176.72C140.049 176.627 139.916 176.553 139.823 176.5L140.543 174.98C140.636 175.033 140.763 175.1 140.923 175.18C141.096 175.26 141.296 175.34 141.523 175.42C141.763 175.5 142.023 175.567 142.303 175.62C142.583 175.673 142.876 175.7 143.183 175.7ZM150.685 177H148.825L151.325 166.6H153.185L150.685 177ZM152.845 164.72C152.538 164.72 152.278 164.627 152.065 164.44C151.865 164.253 151.765 163.993 151.765 163.66C151.765 163.233 151.898 162.9 152.165 162.66C152.431 162.407 152.731 162.28 153.065 162.28C153.371 162.28 153.631 162.38 153.845 162.58C154.058 162.767 154.165 163.033 154.165 163.38C154.165 163.78 154.025 164.107 153.745 164.36C153.465 164.6 153.165 164.72 152.845 164.72ZM155.665 177H153.805L156.205 167C156.818 166.813 157.478 166.667 158.185 166.56C158.905 166.44 159.545 166.38 160.105 166.38C160.705 166.38 161.218 166.467 161.645 166.64C162.085 166.8 162.438 167.027 162.705 167.32C162.972 167.6 163.165 167.947 163.285 168.36C163.418 168.76 163.485 169.2 163.485 169.68C163.485 169.987 163.458 170.313 163.405 170.66C163.352 170.993 163.285 171.333 163.205 171.68L161.925 177H160.065L161.245 172.08C161.338 171.707 161.425 171.327 161.505 170.94C161.598 170.553 161.645 170.187 161.645 169.84C161.645 169.307 161.498 168.867 161.205 168.52C160.912 168.16 160.365 167.98 159.565 167.98C159.232 167.98 158.905 168 158.585 168.04C158.265 168.08 157.998 168.133 157.785 168.2L155.665 177ZM167.381 171.54C168.154 171.513 168.861 171.467 169.501 171.4C170.141 171.32 170.694 171.193 171.161 171.02C171.627 170.833 171.987 170.587 172.241 170.28C172.507 169.973 172.641 169.573 172.641 169.08C172.641 168.96 172.614 168.833 172.561 168.7C172.521 168.567 172.441 168.447 172.321 168.34C172.214 168.22 172.061 168.127 171.861 168.06C171.661 167.98 171.414 167.94 171.121 167.94C170.654 167.94 170.214 168.04 169.801 168.24C169.401 168.44 169.041 168.707 168.721 169.04C168.401 169.36 168.127 169.74 167.901 170.18C167.674 170.607 167.501 171.06 167.381 171.54ZM169.281 177.26C168.601 177.26 168.014 177.167 167.521 176.98C167.027 176.78 166.614 176.513 166.281 176.18C165.947 175.833 165.701 175.433 165.541 174.98C165.381 174.527 165.301 174.047 165.301 173.54C165.301 172.607 165.441 171.707 165.721 170.84C166.001 169.973 166.401 169.207 166.921 168.54C167.441 167.873 168.074 167.347 168.821 166.96C169.567 166.56 170.414 166.36 171.361 166.36C171.907 166.36 172.374 166.433 172.761 166.58C173.161 166.713 173.481 166.9 173.721 167.14C173.974 167.38 174.161 167.66 174.281 167.98C174.401 168.287 174.461 168.607 174.461 168.94C174.461 169.567 174.347 170.1 174.121 170.54C173.894 170.967 173.594 171.327 173.221 171.62C172.847 171.913 172.407 172.14 171.901 172.3C171.407 172.46 170.887 172.587 170.341 172.68C169.807 172.773 169.261 172.84 168.701 172.88C168.154 172.907 167.634 172.933 167.141 172.96C167.127 173.067 167.121 173.153 167.121 173.22C167.121 173.287 167.121 173.34 167.121 173.38C167.121 173.687 167.154 173.98 167.221 174.26C167.301 174.527 167.441 174.767 167.641 174.98C167.841 175.18 168.114 175.34 168.461 175.46C168.821 175.58 169.287 175.64 169.861 175.64C170.114 175.64 170.374 175.62 170.641 175.58C170.921 175.527 171.181 175.467 171.421 175.4C171.674 175.32 171.894 175.247 172.081 175.18C172.281 175.1 172.421 175.027 172.501 174.96L172.661 176.54C172.394 176.687 171.961 176.84 171.361 177C170.774 177.173 170.081 177.26 169.281 177.26ZM177.772 175.7C178.052 175.7 178.332 175.673 178.612 175.62C178.906 175.567 179.159 175.48 179.372 175.36C179.599 175.24 179.779 175.08 179.912 174.88C180.059 174.667 180.132 174.407 180.132 174.1C180.132 173.9 180.099 173.727 180.032 173.58C179.966 173.42 179.859 173.273 179.712 173.14C179.566 173.007 179.379 172.88 179.152 172.76C178.939 172.627 178.679 172.48 178.372 172.32C178.066 172.173 177.786 172.027 177.532 171.88C177.279 171.733 177.052 171.56 176.852 171.36C176.666 171.16 176.519 170.927 176.412 170.66C176.306 170.38 176.252 170.047 176.252 169.66C176.252 168.66 176.612 167.86 177.332 167.26C178.052 166.647 179.099 166.34 180.472 166.34C181.112 166.34 181.672 166.407 182.152 166.54C182.646 166.66 182.986 166.773 183.172 166.88L182.472 168.4C182.286 168.293 181.986 168.18 181.572 168.06C181.159 167.94 180.699 167.88 180.192 167.88C179.939 167.88 179.686 167.907 179.432 167.96C179.179 168.013 178.946 168.107 178.732 168.24C178.532 168.36 178.366 168.527 178.232 168.74C178.112 168.94 178.052 169.187 178.052 169.48C178.052 169.84 178.192 170.14 178.472 170.38C178.752 170.607 179.172 170.847 179.732 171.1C180.079 171.26 180.386 171.427 180.652 171.6C180.932 171.76 181.166 171.947 181.352 172.16C181.552 172.36 181.699 172.6 181.792 172.88C181.899 173.16 181.952 173.493 181.952 173.88C181.952 174.44 181.846 174.933 181.632 175.36C181.419 175.787 181.119 176.14 180.732 176.42C180.359 176.7 179.912 176.907 179.392 177.04C178.872 177.187 178.306 177.26 177.692 177.26C177.239 177.26 176.826 177.227 176.452 177.16C176.092 177.107 175.772 177.04 175.492 176.96C175.226 176.88 174.999 176.8 174.812 176.72C174.639 176.627 174.506 176.553 174.412 176.5L175.132 174.98C175.226 175.033 175.352 175.1 175.512 175.18C175.686 175.26 175.886 175.34 176.112 175.42C176.352 175.5 176.612 175.567 176.892 175.62C177.172 175.673 177.466 175.7 177.772 175.7ZM186.015 175.7C186.295 175.7 186.575 175.673 186.855 175.62C187.148 175.567 187.401 175.48 187.615 175.36C187.841 175.24 188.021 175.08 188.155 174.88C188.301 174.667 188.375 174.407 188.375 174.1C188.375 173.9 188.341 173.727 188.275 173.58C188.208 173.42 188.101 173.273 187.955 173.14C187.808 173.007 187.621 172.88 187.395 172.76C187.181 172.627 186.921 172.48 186.615 172.32C186.308 172.173 186.028 172.027 185.775 171.88C185.521 171.733 185.295 171.56 185.095 171.36C184.908 171.16 184.761 170.927 184.655 170.66C184.548 170.38 184.495 170.047 184.495 169.66C184.495 168.66 184.855 167.86 185.575 167.26C186.295 166.647 187.341 166.34 188.715 166.34C189.355 166.34 189.915 166.407 190.395 166.54C190.888 166.66 191.228 166.773 191.415 166.88L190.715 168.4C190.528 168.293 190.228 168.18 189.815 168.06C189.401 167.94 188.941 167.88 188.435 167.88C188.181 167.88 187.928 167.907 187.675 167.96C187.421 168.013 187.188 168.107 186.975 168.24C186.775 168.36 186.608 168.527 186.475 168.74C186.355 168.94 186.295 169.187 186.295 169.48C186.295 169.84 186.435 170.14 186.715 170.38C186.995 170.607 187.415 170.847 187.975 171.1C188.321 171.26 188.628 171.427 188.895 171.6C189.175 171.76 189.408 171.947 189.595 172.16C189.795 172.36 189.941 172.6 190.035 172.88C190.141 173.16 190.195 173.493 190.195 173.88C190.195 174.44 190.088 174.933 189.875 175.36C189.661 175.787 189.361 176.14 188.975 176.42C188.601 176.7 188.155 176.907 187.635 177.04C187.115 177.187 186.548 177.26 185.935 177.26C185.481 177.26 185.068 177.227 184.695 177.16C184.335 177.107 184.015 177.04 183.735 176.96C183.468 176.88 183.241 176.8 183.055 176.72C182.881 176.627 182.748 176.553 182.655 176.5L183.375 174.98C183.468 175.033 183.595 175.1 183.755 175.18C183.928 175.26 184.128 175.34 184.355 175.42C184.595 175.5 184.855 175.567 185.135 175.62C185.415 175.673 185.708 175.7 186.015 175.7ZM200.266 177.26C199.172 177.26 198.312 176.94 197.686 176.3C197.072 175.647 196.766 174.753 196.766 173.62C196.766 172.847 196.872 172.033 197.086 171.18C197.312 170.327 197.666 169.54 198.146 168.82C198.626 168.1 199.246 167.507 200.006 167.04C200.766 166.573 201.686 166.34 202.766 166.34C203.859 166.34 204.712 166.667 205.326 167.32C205.952 167.96 206.266 168.847 206.266 169.98C206.266 170.753 206.152 171.567 205.926 172.42C205.712 173.273 205.366 174.06 204.886 174.78C204.406 175.5 203.786 176.093 203.026 176.56C202.266 177.027 201.346 177.26 200.266 177.26ZM200.586 175.68C201.186 175.68 201.719 175.507 202.186 175.16C202.666 174.813 203.066 174.373 203.386 173.84C203.719 173.293 203.972 172.693 204.146 172.04C204.319 171.387 204.406 170.753 204.406 170.14C204.406 169.46 204.259 168.92 203.966 168.52C203.672 168.12 203.166 167.92 202.446 167.92C201.846 167.92 201.306 168.093 200.826 168.44C200.359 168.787 199.959 169.233 199.626 169.78C199.306 170.313 199.059 170.907 198.886 171.56C198.712 172.213 198.626 172.847 198.626 173.46C198.626 174.14 198.772 174.68 199.066 175.08C199.359 175.48 199.866 175.68 200.586 175.68ZM209.239 177H207.379L209.779 167C210.393 166.813 211.053 166.667 211.759 166.56C212.479 166.44 213.119 166.38 213.679 166.38C214.279 166.38 214.793 166.467 215.219 166.64C215.659 166.8 216.013 167.027 216.279 167.32C216.546 167.6 216.739 167.947 216.859 168.36C216.993 168.76 217.059 169.2 217.059 169.68C217.059 169.987 217.033 170.313 216.979 170.66C216.926 170.993 216.859 171.333 216.779 171.68L215.499 177H213.639L214.819 172.08C214.913 171.707 214.999 171.327 215.079 170.94C215.173 170.553 215.219 170.187 215.219 169.84C215.219 169.307 215.073 168.867 214.779 168.52C214.486 168.16 213.939 167.98 213.139 167.98C212.806 167.98 212.479 168 212.159 168.04C211.839 168.08 211.573 168.133 211.359 168.2L209.239 177ZM230.144 177.12C230.077 176.973 230.011 176.813 229.944 176.64C229.877 176.453 229.824 176.26 229.784 176.06C229.491 176.327 229.097 176.593 228.604 176.86C228.111 177.127 227.504 177.26 226.784 177.26C226.197 177.26 225.691 177.167 225.264 176.98C224.851 176.793 224.511 176.533 224.244 176.2C223.977 175.867 223.777 175.473 223.644 175.02C223.524 174.567 223.464 174.067 223.464 173.52C223.464 172.627 223.611 171.753 223.904 170.9C224.211 170.047 224.664 169.287 225.264 168.62C225.864 167.953 226.617 167.413 227.524 167C228.431 166.587 229.491 166.38 230.704 166.38C231.064 166.38 231.484 166.42 231.964 166.5C232.444 166.58 232.857 166.713 233.204 166.9L231.664 173.18C231.597 173.487 231.537 173.78 231.484 174.06C231.444 174.34 231.424 174.633 231.424 174.94C231.424 175.247 231.451 175.56 231.504 175.88C231.557 176.187 231.651 176.52 231.784 176.88L230.144 177.12ZM227.164 175.68C227.724 175.68 228.204 175.56 228.604 175.32C229.004 175.08 229.351 174.8 229.644 174.48C229.657 174.253 229.677 174.02 229.704 173.78C229.744 173.527 229.791 173.273 229.844 173.02L231.044 168.06C230.977 168.033 230.864 168.013 230.704 168C230.557 167.987 230.424 167.98 230.304 167.98C229.544 167.98 228.857 168.127 228.244 168.42C227.631 168.713 227.104 169.107 226.664 169.6C226.237 170.08 225.904 170.647 225.664 171.3C225.437 171.94 225.324 172.613 225.324 173.32C225.324 173.6 225.351 173.887 225.404 174.18C225.457 174.46 225.551 174.713 225.684 174.94C225.831 175.153 226.017 175.333 226.244 175.48C226.484 175.613 226.791 175.68 227.164 175.68ZM235.763 177H233.903L236.303 167C236.916 166.813 237.576 166.667 238.283 166.56C239.003 166.44 239.643 166.38 240.203 166.38C240.803 166.38 241.316 166.467 241.743 166.64C242.183 166.8 242.536 167.027 242.803 167.32C243.069 167.6 243.263 167.947 243.383 168.36C243.516 168.76 243.583 169.2 243.583 169.68C243.583 169.987 243.556 170.313 243.503 170.66C243.449 170.993 243.383 171.333 243.303 171.68L242.023 177H240.163L241.343 172.08C241.436 171.707 241.523 171.327 241.603 170.94C241.696 170.553 241.743 170.187 241.743 169.84C241.743 169.307 241.596 168.867 241.303 168.52C241.009 168.16 240.463 167.98 239.663 167.98C239.329 167.98 239.003 168 238.683 168.04C238.363 168.08 238.096 168.133 237.883 168.2L235.763 177ZM248.898 177.26C247.805 177.26 246.945 176.94 246.318 176.3C245.705 175.647 245.398 174.753 245.398 173.62C245.398 172.847 245.505 172.033 245.718 171.18C245.945 170.327 246.298 169.54 246.778 168.82C247.258 168.1 247.878 167.507 248.638 167.04C249.398 166.573 250.318 166.34 251.398 166.34C252.492 166.34 253.345 166.667 253.958 167.32C254.585 167.96 254.898 168.847 254.898 169.98C254.898 170.753 254.785 171.567 254.558 172.42C254.345 173.273 253.998 174.06 253.518 174.78C253.038 175.5 252.418 176.093 251.658 176.56C250.898 177.027 249.978 177.26 248.898 177.26ZM249.218 175.68C249.818 175.68 250.352 175.507 250.818 175.16C251.298 174.813 251.698 174.373 252.018 173.84C252.352 173.293 252.605 172.693 252.778 172.04C252.952 171.387 253.038 170.753 253.038 170.14C253.038 169.46 252.892 168.92 252.598 168.52C252.305 168.12 251.798 167.92 251.078 167.92C250.478 167.92 249.938 168.093 249.458 168.44C248.992 168.787 248.592 169.233 248.258 169.78C247.938 170.313 247.692 170.907 247.518 171.56C247.345 172.213 247.258 172.847 247.258 173.46C247.258 174.14 247.405 174.68 247.698 175.08C247.992 175.48 248.498 175.68 249.218 175.68ZM259.572 177.28C258.572 177.28 257.839 177.06 257.372 176.62C256.906 176.18 256.672 175.54 256.672 174.7C256.672 174.153 256.766 173.453 256.952 172.6L259.092 163.7L261.032 163.38L260.252 166.6H263.792L263.412 168.16H259.872L258.772 172.76C258.612 173.387 258.532 173.933 258.532 174.4C258.532 174.84 258.652 175.16 258.892 175.36C259.132 175.547 259.532 175.64 260.092 175.64C260.479 175.64 260.859 175.58 261.232 175.46C261.606 175.327 261.892 175.207 262.092 175.1L262.232 176.68C262.032 176.8 261.692 176.927 261.212 177.06C260.732 177.207 260.186 177.28 259.572 177.28ZM263.786 177L267.446 161.8L269.386 161.48L268.106 166.74C268.412 166.633 268.732 166.547 269.066 166.48C269.412 166.413 269.759 166.38 270.106 166.38C270.706 166.38 271.219 166.467 271.646 166.64C272.086 166.8 272.439 167.027 272.706 167.32C272.972 167.6 273.166 167.947 273.286 168.36C273.419 168.76 273.486 169.2 273.486 169.68C273.486 170.267 273.392 170.933 273.206 171.68L271.926 177H270.066L271.246 172.08C271.339 171.707 271.426 171.327 271.506 170.94C271.599 170.553 271.646 170.187 271.646 169.84C271.646 169.307 271.499 168.867 271.206 168.52C270.912 168.16 270.366 167.98 269.566 167.98C269.246 167.98 268.912 168.013 268.566 168.08C268.232 168.133 267.952 168.213 267.726 168.32L265.646 177H263.786ZM277.381 171.54C278.154 171.513 278.861 171.467 279.501 171.4C280.141 171.32 280.694 171.193 281.161 171.02C281.627 170.833 281.987 170.587 282.241 170.28C282.507 169.973 282.641 169.573 282.641 169.08C282.641 168.96 282.614 168.833 282.561 168.7C282.521 168.567 282.441 168.447 282.321 168.34C282.214 168.22 282.061 168.127 281.861 168.06C281.661 167.98 281.414 167.94 281.121 167.94C280.654 167.94 280.214 168.04 279.801 168.24C279.401 168.44 279.041 168.707 278.721 169.04C278.401 169.36 278.127 169.74 277.901 170.18C277.674 170.607 277.501 171.06 277.381 171.54ZM279.281 177.26C278.601 177.26 278.014 177.167 277.521 176.98C277.027 176.78 276.614 176.513 276.281 176.18C275.947 175.833 275.701 175.433 275.541 174.98C275.381 174.527 275.301 174.047 275.301 173.54C275.301 172.607 275.441 171.707 275.721 170.84C276.001 169.973 276.401 169.207 276.921 168.54C277.441 167.873 278.074 167.347 278.821 166.96C279.567 166.56 280.414 166.36 281.361 166.36C281.907 166.36 282.374 166.433 282.761 166.58C283.161 166.713 283.481 166.9 283.721 167.14C283.974 167.38 284.161 167.66 284.281 167.98C284.401 168.287 284.461 168.607 284.461 168.94C284.461 169.567 284.347 170.1 284.121 170.54C283.894 170.967 283.594 171.327 283.221 171.62C282.847 171.913 282.407 172.14 281.901 172.3C281.407 172.46 280.887 172.587 280.341 172.68C279.807 172.773 279.261 172.84 278.701 172.88C278.154 172.907 277.634 172.933 277.141 172.96C277.127 173.067 277.121 173.153 277.121 173.22C277.121 173.287 277.121 173.34 277.121 173.38C277.121 173.687 277.154 173.98 277.221 174.26C277.301 174.527 277.441 174.767 277.641 174.98C277.841 175.18 278.114 175.34 278.461 175.46C278.821 175.58 279.287 175.64 279.861 175.64C280.114 175.64 280.374 175.62 280.641 175.58C280.921 175.527 281.181 175.467 281.421 175.4C281.674 175.32 281.894 175.247 282.081 175.18C282.281 175.1 282.421 175.027 282.501 174.96L282.661 176.54C282.394 176.687 281.961 176.84 281.361 177C280.774 177.173 280.081 177.26 279.281 177.26ZM291.132 166.38C291.292 166.38 291.472 166.387 291.672 166.4C291.872 166.413 292.066 166.44 292.252 166.48C292.452 166.507 292.632 166.54 292.792 166.58C292.952 166.607 293.072 166.64 293.152 166.68L292.612 168.3C292.346 168.193 292.039 168.113 291.692 168.06C291.346 168.007 291.012 167.98 290.692 167.98C290.412 167.98 290.132 168 289.852 168.04C289.586 168.08 289.352 168.133 289.152 168.2L287.032 177H285.172L287.572 167C288.106 166.813 288.679 166.667 289.292 166.56C289.906 166.44 290.519 166.38 291.132 166.38ZM1.52 200L5.18 184.8L7.12 184.48L5.84 189.74C6.14667 189.633 6.46667 189.547 6.8 189.48C7.14667 189.413 7.49333 189.38 7.84 189.38C8.44 189.38 8.95333 189.467 9.38 189.64C9.82 189.8 10.1733 190.027 10.44 190.32C10.7067 190.6 10.9 190.947 11.02 191.36C11.1533 191.76 11.22 192.2 11.22 192.68C11.22 193.267 11.1267 193.933 10.94 194.68L9.66 200H7.8L8.98 195.08C9.07333 194.707 9.16 194.327 9.24 193.94C9.33333 193.553 9.38 193.187 9.38 192.84C9.38 192.307 9.23333 191.867 8.94 191.52C8.64667 191.16 8.1 190.98 7.3 190.98C6.98 190.98 6.64667 191.013 6.3 191.08C5.96667 191.133 5.68667 191.213 5.46 191.32L3.38 200H1.52ZM14.4152 200H12.5552L15.0552 189.6H16.9152L14.4152 200ZM16.5752 187.72C16.2685 187.72 16.0085 187.627 15.7952 187.44C15.5952 187.253 15.4952 186.993 15.4952 186.66C15.4952 186.233 15.6285 185.9 15.8952 185.66C16.1618 185.407 16.4618 185.28 16.7952 185.28C17.1018 185.28 17.3618 185.38 17.5752 185.58C17.7885 185.767 17.8952 186.033 17.8952 186.38C17.8952 186.78 17.7552 187.107 17.4752 187.36C17.1952 187.6 16.8952 187.72 16.5752 187.72ZM20.0556 202.16C20.6023 202.16 21.0823 202.093 21.4956 201.96C21.909 201.827 22.2623 201.633 22.5556 201.38C22.8623 201.127 23.109 200.827 23.2956 200.48C23.4823 200.133 23.629 199.74 23.7356 199.3L23.8156 198.92C23.549 199.067 23.189 199.213 22.7356 199.36C22.2823 199.507 21.8156 199.58 21.3356 199.58C20.2556 199.58 19.4223 199.313 18.8356 198.78C18.2623 198.233 17.9756 197.473 17.9756 196.5C17.9756 195.607 18.1223 194.733 18.4156 193.88C18.709 193.027 19.1556 192.267 19.7556 191.6C20.3556 190.933 21.1023 190.4 21.9956 190C22.889 189.587 23.9356 189.38 25.1356 189.38C25.3223 189.38 25.529 189.393 25.7556 189.42C25.9956 189.447 26.2356 189.487 26.4756 189.54C26.729 189.58 26.969 189.64 27.1956 189.72C27.4356 189.8 27.6423 189.893 27.8156 190L25.6356 199.1C25.4623 199.82 25.249 200.467 24.9956 201.04C24.7423 201.613 24.3956 202.1 23.9556 202.5C23.5156 202.9 22.949 203.207 22.2556 203.42C21.5623 203.647 20.6956 203.76 19.6556 203.76C19.0823 203.76 18.5156 203.68 17.9556 203.52C17.3956 203.373 16.9223 203.187 16.5356 202.96L17.2356 201.4C17.5423 201.627 17.949 201.807 18.4556 201.94C18.9623 202.087 19.4956 202.16 20.0556 202.16ZM21.7356 198.02C22.269 198.02 22.7556 197.927 23.1956 197.74C23.649 197.54 23.9956 197.353 24.2356 197.18L25.6956 191.1C25.5623 191.073 25.409 191.047 25.2356 191.02C25.0623 190.993 24.8956 190.98 24.7356 190.98C24.0156 190.98 23.3556 191.12 22.7556 191.4C22.1556 191.667 21.6356 192.033 21.1956 192.5C20.769 192.953 20.4356 193.487 20.1956 194.1C19.9556 194.7 19.8356 195.327 19.8356 195.98C19.8356 196.7 19.989 197.22 20.2956 197.54C20.6156 197.86 21.0956 198.02 21.7356 198.02ZM28.5317 200L32.1917 184.8L34.1317 184.48L32.8517 189.74C33.1584 189.633 33.4784 189.547 33.8117 189.48C34.1584 189.413 34.5051 189.38 34.8517 189.38C35.4517 189.38 35.9651 189.467 36.3917 189.64C36.8317 189.8 37.1851 190.027 37.4517 190.32C37.7184 190.6 37.9117 190.947 38.0317 191.36C38.1651 191.76 38.2317 192.2 38.2317 192.68C38.2317 193.267 38.1384 193.933 37.9517 194.68L36.6717 200H34.8117L35.9917 195.08C36.0851 194.707 36.1717 194.327 36.2517 193.94C36.3451 193.553 36.3917 193.187 36.3917 192.84C36.3917 192.307 36.2451 191.867 35.9517 191.52C35.6584 191.16 35.1117 190.98 34.3117 190.98C33.9917 190.98 33.6584 191.013 33.3117 191.08C32.9784 191.133 32.6984 191.213 32.4717 191.32L30.3917 200H28.5317ZM42.1269 194.54C42.9002 194.513 43.6069 194.467 44.2469 194.4C44.8869 194.32 45.4402 194.193 45.9069 194.02C46.3735 193.833 46.7335 193.587 46.9869 193.28C47.2535 192.973 47.3869 192.573 47.3869 192.08C47.3869 191.96 47.3602 191.833 47.3069 191.7C47.2669 191.567 47.1869 191.447 47.0669 191.34C46.9602 191.22 46.8069 191.127 46.6069 191.06C46.4069 190.98 46.1602 190.94 45.8669 190.94C45.4002 190.94 44.9602 191.04 44.5469 191.24C44.1469 191.44 43.7869 191.707 43.4669 192.04C43.1469 192.36 42.8735 192.74 42.6469 193.18C42.4202 193.607 42.2469 194.06 42.1269 194.54ZM44.0269 200.26C43.3469 200.26 42.7602 200.167 42.2669 199.98C41.7735 199.78 41.3602 199.513 41.0269 199.18C40.6935 198.833 40.4469 198.433 40.2869 197.98C40.1269 197.527 40.0469 197.047 40.0469 196.54C40.0469 195.607 40.1869 194.707 40.4669 193.84C40.7469 192.973 41.1469 192.207 41.6669 191.54C42.1869 190.873 42.8202 190.347 43.5669 189.96C44.3135 189.56 45.1602 189.36 46.1069 189.36C46.6535 189.36 47.1202 189.433 47.5069 189.58C47.9069 189.713 48.2269 189.9 48.4669 190.14C48.7202 190.38 48.9069 190.66 49.0269 190.98C49.1469 191.287 49.2069 191.607 49.2069 191.94C49.2069 192.567 49.0935 193.1 48.8669 193.54C48.6402 193.967 48.3402 194.327 47.9669 194.62C47.5935 194.913 47.1535 195.14 46.6469 195.3C46.1535 195.46 45.6335 195.587 45.0869 195.68C44.5535 195.773 44.0069 195.84 43.4469 195.88C42.9002 195.907 42.3802 195.933 41.8869 195.96C41.8735 196.067 41.8669 196.153 41.8669 196.22C41.8669 196.287 41.8669 196.34 41.8669 196.38C41.8669 196.687 41.9002 196.98 41.9669 197.26C42.0469 197.527 42.1869 197.767 42.3869 197.98C42.5869 198.18 42.8602 198.34 43.2069 198.46C43.5669 198.58 44.0335 198.64 44.6069 198.64C44.8602 198.64 45.1202 198.62 45.3869 198.58C45.6669 198.527 45.9269 198.467 46.1669 198.4C46.4202 198.32 46.6402 198.247 46.8269 198.18C47.0269 198.1 47.1669 198.027 47.2469 197.96L47.4069 199.54C47.1402 199.687 46.7069 199.84 46.1069 200C45.5202 200.173 44.8269 200.26 44.0269 200.26ZM55.8784 189.38C56.0384 189.38 56.2184 189.387 56.4184 189.4C56.6184 189.413 56.8118 189.44 56.9984 189.48C57.1984 189.507 57.3784 189.54 57.5384 189.58C57.6984 189.607 57.8184 189.64 57.8984 189.68L57.3584 191.3C57.0918 191.193 56.7851 191.113 56.4384 191.06C56.0918 191.007 55.7584 190.98 55.4384 190.98C55.1584 190.98 54.8784 191 54.5984 191.04C54.3318 191.08 54.0984 191.133 53.8984 191.2L51.7784 200H49.9184L52.3184 190C52.8518 189.813 53.4251 189.667 54.0384 189.56C54.6518 189.44 55.2651 189.38 55.8784 189.38ZM64.7688 195.42C64.7021 195.713 64.6354 196 64.5688 196.28C64.5021 196.56 64.4688 196.827 64.4688 197.08C64.4688 197.533 64.5754 197.893 64.7888 198.16C65.0154 198.427 65.4288 198.593 66.0288 198.66L65.6087 200.18C65.0621 200.167 64.5954 200.087 64.2088 199.94C63.8354 199.78 63.5288 199.573 63.2888 199.32C63.0621 199.067 62.8954 198.767 62.7888 198.42C62.6821 198.073 62.6288 197.693 62.6288 197.28C62.6288 196.973 62.6554 196.653 62.7088 196.32C62.7621 195.987 62.8354 195.64 62.9288 195.28L65.4488 184.8L67.3888 184.48L64.7688 195.42ZM69.9003 194.54C70.6736 194.513 71.3803 194.467 72.0203 194.4C72.6603 194.32 73.2136 194.193 73.6803 194.02C74.147 193.833 74.507 193.587 74.7603 193.28C75.027 192.973 75.1603 192.573 75.1603 192.08C75.1603 191.96 75.1336 191.833 75.0803 191.7C75.0403 191.567 74.9603 191.447 74.8403 191.34C74.7336 191.22 74.5803 191.127 74.3803 191.06C74.1803 190.98 73.9336 190.94 73.6403 190.94C73.1736 190.94 72.7336 191.04 72.3203 191.24C71.9203 191.44 71.5603 191.707 71.2403 192.04C70.9203 192.36 70.647 192.74 70.4203 193.18C70.1936 193.607 70.0203 194.06 69.9003 194.54ZM71.8003 200.26C71.1203 200.26 70.5336 200.167 70.0403 199.98C69.547 199.78 69.1336 199.513 68.8003 199.18C68.467 198.833 68.2203 198.433 68.0603 197.98C67.9003 197.527 67.8203 197.047 67.8203 196.54C67.8203 195.607 67.9603 194.707 68.2403 193.84C68.5203 192.973 68.9203 192.207 69.4403 191.54C69.9603 190.873 70.5936 190.347 71.3403 189.96C72.087 189.56 72.9336 189.36 73.8803 189.36C74.427 189.36 74.8936 189.433 75.2803 189.58C75.6803 189.713 76.0003 189.9 76.2403 190.14C76.4936 190.38 76.6803 190.66 76.8003 190.98C76.9203 191.287 76.9803 191.607 76.9803 191.94C76.9803 192.567 76.867 193.1 76.6403 193.54C76.4136 193.967 76.1136 194.327 75.7403 194.62C75.367 194.913 74.927 195.14 74.4203 195.3C73.927 195.46 73.407 195.587 72.8603 195.68C72.327 195.773 71.7803 195.84 71.2203 195.88C70.6736 195.907 70.1536 195.933 69.6603 195.96C69.647 196.067 69.6403 196.153 69.6403 196.22C69.6403 196.287 69.6403 196.34 69.6403 196.38C69.6403 196.687 69.6736 196.98 69.7403 197.26C69.8203 197.527 69.9603 197.767 70.1603 197.98C70.3603 198.18 70.6336 198.34 70.9803 198.46C71.3403 198.58 71.807 198.64 72.3803 198.64C72.6336 198.64 72.8936 198.62 73.1603 198.58C73.4403 198.527 73.7003 198.467 73.9403 198.4C74.1936 198.32 74.4136 198.247 74.6003 198.18C74.8003 198.1 74.9403 198.027 75.0203 197.96L75.1803 199.54C74.9136 199.687 74.4803 199.84 73.8803 200C73.2936 200.173 72.6003 200.26 71.8003 200.26ZM80.0319 200C79.8719 199.32 79.7185 198.573 79.5719 197.76C79.4252 196.947 79.2919 196.1 79.1719 195.22C79.0519 194.327 78.9519 193.407 78.8719 192.46C78.7919 191.513 78.7385 190.56 78.7119 189.6H80.5919C80.6052 190.253 80.6319 190.953 80.6719 191.7C80.7252 192.433 80.7852 193.173 80.8519 193.92C80.9185 194.653 80.9985 195.367 81.0919 196.06C81.1852 196.74 81.2852 197.36 81.3919 197.92C81.7919 197.413 82.2052 196.82 82.6319 196.14C83.0719 195.447 83.4919 194.727 83.8919 193.98C84.2919 193.22 84.6585 192.46 84.9919 191.7C85.3252 190.94 85.5919 190.24 85.7919 189.6H87.6719C87.3785 190.48 87.0052 191.393 86.5519 192.34C86.0985 193.287 85.6052 194.22 85.0719 195.14C84.5519 196.047 83.9985 196.92 83.4119 197.76C82.8385 198.6 82.2785 199.347 81.7319 200H80.0319ZM89.8808 194.54C90.6541 194.513 91.3608 194.467 92.0008 194.4C92.6408 194.32 93.1941 194.193 93.6608 194.02C94.1274 193.833 94.4874 193.587 94.7408 193.28C95.0074 192.973 95.1408 192.573 95.1408 192.08C95.1408 191.96 95.1141 191.833 95.0608 191.7C95.0208 191.567 94.9408 191.447 94.8208 191.34C94.7141 191.22 94.5608 191.127 94.3608 191.06C94.1608 190.98 93.9141 190.94 93.6208 190.94C93.1541 190.94 92.7141 191.04 92.3008 191.24C91.9008 191.44 91.5408 191.707 91.2208 192.04C90.9008 192.36 90.6274 192.74 90.4008 193.18C90.1741 193.607 90.0008 194.06 89.8808 194.54ZM91.7808 200.26C91.1008 200.26 90.5141 200.167 90.0208 199.98C89.5274 199.78 89.1141 199.513 88.7808 199.18C88.4474 198.833 88.2008 198.433 88.0408 197.98C87.8808 197.527 87.8008 197.047 87.8008 196.54C87.8008 195.607 87.9408 194.707 88.2208 193.84C88.5008 192.973 88.9008 192.207 89.4208 191.54C89.9408 190.873 90.5741 190.347 91.3208 189.96C92.0674 189.56 92.9141 189.36 93.8608 189.36C94.4074 189.36 94.8741 189.433 95.2608 189.58C95.6608 189.713 95.9808 189.9 96.2208 190.14C96.4741 190.38 96.6608 190.66 96.7808 190.98C96.9008 191.287 96.9608 191.607 96.9608 191.94C96.9608 192.567 96.8474 193.1 96.6208 193.54C96.3941 193.967 96.0941 194.327 95.7208 194.62C95.3474 194.913 94.9074 195.14 94.4008 195.3C93.9074 195.46 93.3874 195.587 92.8408 195.68C92.3074 195.773 91.7608 195.84 91.2008 195.88C90.6541 195.907 90.1341 195.933 89.6408 195.96C89.6274 196.067 89.6208 196.153 89.6208 196.22C89.6208 196.287 89.6208 196.34 89.6208 196.38C89.6208 196.687 89.6541 196.98 89.7208 197.26C89.8008 197.527 89.9408 197.767 90.1408 197.98C90.3408 198.18 90.6141 198.34 90.9608 198.46C91.3208 198.58 91.7874 198.64 92.3608 198.64C92.6141 198.64 92.8741 198.62 93.1408 198.58C93.4208 198.527 93.6808 198.467 93.9208 198.4C94.1741 198.32 94.3941 198.247 94.5808 198.18C94.7808 198.1 94.9208 198.027 95.0008 197.96L95.1608 199.54C94.8941 199.687 94.4608 199.84 93.8608 200C93.2741 200.173 92.5808 200.26 91.7808 200.26ZM100.452 195.42C100.386 195.713 100.319 196 100.252 196.28C100.186 196.56 100.152 196.827 100.152 197.08C100.152 197.533 100.259 197.893 100.472 198.16C100.699 198.427 101.112 198.593 101.712 198.66L101.292 200.18C100.746 200.167 100.279 200.087 99.8923 199.94C99.519 199.78 99.2123 199.573 98.9723 199.32C98.7457 199.067 98.579 198.767 98.4723 198.42C98.3657 198.073 98.3123 197.693 98.3123 197.28C98.3123 196.973 98.339 196.653 98.3923 196.32C98.4457 195.987 98.519 195.64 98.6123 195.28L101.132 184.8L103.072 184.48L100.452 195.42ZM104.337 200.26C103.964 200.26 103.671 200.16 103.457 199.96C103.244 199.76 103.137 199.467 103.137 199.08C103.137 198.6 103.277 198.233 103.557 197.98C103.851 197.713 104.184 197.58 104.557 197.58C104.931 197.58 105.224 197.687 105.437 197.9C105.664 198.1 105.777 198.4 105.777 198.8C105.777 199.027 105.731 199.233 105.637 199.42C105.557 199.593 105.451 199.747 105.317 199.88C105.184 200 105.031 200.093 104.857 200.16C104.684 200.227 104.511 200.26 104.337 200.26Z" fill="black"/>
</svg>
