<svg width="128" height="13" viewBox="0 0 128 13" fill="none" xmlns="http://www.w3.org/2000/svg">
<path d="M0.848 6.576H3.872V3.28H5.152V6.576H8.176V7.84H5.152V11.152H3.872V7.84H0.848V6.576ZM12.6473 10.912C13.5966 10.912 14.2739 10.7253 14.6793 10.352C15.0953 9.97867 15.3033 9.47733 15.3033 8.848C15.3033 8.44267 15.2179 8.10133 15.0473 7.824C14.8766 7.54667 14.6526 7.328 14.3753 7.168C14.0979 6.99733 13.7726 6.88 13.3993 6.816C13.0366 6.74133 12.6633 6.704 12.2793 6.704H11.8953V5.488H12.4233C12.6899 5.488 12.9619 5.46133 13.2393 5.408C13.5273 5.35467 13.7886 5.25867 14.0233 5.12C14.2579 4.98133 14.4499 4.79467 14.5993 4.56C14.7486 4.31467 14.8233 4.01067 14.8233 3.648C14.8233 3.34933 14.7699 3.09333 14.6633 2.88C14.5566 2.66667 14.4126 2.49067 14.2313 2.352C14.0606 2.21333 13.8579 2.11733 13.6233 2.064C13.3993 2 13.1593 1.968 12.9033 1.968C12.3913 1.968 11.9539 2.04267 11.5913 2.192C11.2393 2.34133 10.9406 2.496 10.6953 2.656L10.1193 1.52C10.2473 1.43467 10.4073 1.344 10.5993 1.248C10.8019 1.14133 11.0259 1.04533 11.2713 0.959999C11.5166 0.874666 11.7779 0.805333 12.0553 0.752C12.3433 0.687999 12.6419 0.655999 12.9513 0.655999C13.5379 0.655999 14.0446 0.730666 14.4713 0.879999C14.8979 1.01867 15.2499 1.22133 15.5273 1.488C15.8046 1.744 16.0126 2.05333 16.1513 2.416C16.2899 2.768 16.3593 3.152 16.3593 3.568C16.3593 4.144 16.1939 4.64 15.8633 5.056C15.5326 5.46133 15.1326 5.77067 14.6633 5.984C14.9513 6.06933 15.2286 6.192 15.4953 6.352C15.7619 6.512 15.9913 6.71467 16.1833 6.96C16.3859 7.20533 16.5459 7.488 16.6633 7.808C16.7913 8.128 16.8553 8.48533 16.8553 8.88C16.8553 9.36 16.7699 9.808 16.5993 10.224C16.4393 10.6293 16.1833 10.9813 15.8313 11.28C15.4899 11.5787 15.0579 11.8133 14.5353 11.984C14.0126 12.1547 13.3939 12.24 12.6793 12.24C12.4019 12.24 12.1139 12.2187 11.8153 12.176C11.5273 12.1333 11.2553 12.08 10.9993 12.016C10.7433 11.952 10.5193 11.888 10.3273 11.824C10.1353 11.76 9.99658 11.7067 9.91125 11.664L10.1993 10.368C10.3806 10.4533 10.6793 10.5653 11.0953 10.704C11.5219 10.8427 12.0393 10.912 12.6473 10.912ZM21.2465 5.184C22.8572 5.248 24.0358 5.6 24.7825 6.24C25.5398 6.88 25.9185 7.74933 25.9185 8.848C25.9185 9.33867 25.8332 9.792 25.6625 10.208C25.5025 10.624 25.2518 10.9813 24.9105 11.28C24.5798 11.5787 24.1585 11.8133 23.6465 11.984C23.1345 12.1547 22.5265 12.24 21.8225 12.24C21.5452 12.24 21.2625 12.2187 20.9745 12.176C20.6865 12.1333 20.4198 12.08 20.1745 12.016C19.9292 11.952 19.7105 11.888 19.5185 11.824C19.3265 11.76 19.1878 11.7067 19.1025 11.664L19.3905 10.368C19.5718 10.4533 19.8652 10.5653 20.2705 10.704C20.6865 10.8427 21.1932 10.912 21.7905 10.912C22.2705 10.912 22.6705 10.8587 22.9905 10.752C23.3212 10.6453 23.5878 10.5013 23.7905 10.32C23.9932 10.1387 24.1372 9.93067 24.2225 9.696C24.3185 9.45067 24.3665 9.19467 24.3665 8.928C24.3665 8.52267 24.2972 8.16533 24.1585 7.856C24.0198 7.536 23.7745 7.26933 23.4225 7.056C23.0705 6.84267 22.6012 6.68267 22.0145 6.576C21.4278 6.45867 20.6865 6.4 19.7905 6.4C19.8545 5.87733 19.9025 5.38667 19.9345 4.928C19.9772 4.46933 20.0145 4.02133 20.0465 3.584C20.0785 3.14667 20.1052 2.71467 20.1265 2.288C20.1478 1.85067 20.1692 1.392 20.1905 0.912H25.5345V2.176H21.4865C21.4758 2.336 21.4598 2.55467 21.4385 2.832C21.4172 3.09867 21.3958 3.38133 21.3745 3.68C21.3532 3.968 21.3318 4.25067 21.3105 4.528C21.2892 4.80533 21.2678 5.024 21.2465 5.184ZM35.1098 5.344C35.1098 7.54133 34.5604 9.20533 33.4618 10.336C32.3738 11.456 30.7524 12.0213 28.5978 12.032L28.5498 10.784C29.2218 10.784 29.8244 10.72 30.3578 10.592C30.9018 10.464 31.3764 10.2613 31.7818 9.984C32.1871 9.696 32.5231 9.328 32.7898 8.88C33.0671 8.432 33.2698 7.88267 33.3978 7.232C33.1204 7.36 32.8058 7.46667 32.4538 7.552C32.1018 7.62667 31.7391 7.664 31.3658 7.664C30.7364 7.664 30.2031 7.57333 29.7658 7.392C29.3284 7.2 28.9711 6.94933 28.6938 6.64C28.4164 6.32 28.2138 5.95733 28.0858 5.552C27.9684 5.136 27.9098 4.704 27.9098 4.256C27.9098 3.86133 27.9791 3.45067 28.1178 3.024C28.2564 2.59733 28.4644 2.208 28.7418 1.856C29.0298 1.504 29.3924 1.216 29.8298 0.992C30.2671 0.767999 30.7844 0.655999 31.3818 0.655999C31.9898 0.655999 32.5231 0.762666 32.9818 0.976C33.4511 1.18933 33.8404 1.49867 34.1498 1.904C34.4698 2.30933 34.7098 2.80533 34.8698 3.392C35.0298 3.968 35.1098 4.61867 35.1098 5.344ZM31.5258 6.448C31.8991 6.448 32.2511 6.416 32.5818 6.352C32.9124 6.27733 33.2324 6.17067 33.5418 6.032C33.5524 5.91467 33.5578 5.80267 33.5578 5.696C33.5578 5.57867 33.5578 5.46133 33.5578 5.344C33.5578 4.88533 33.5258 4.448 33.4618 4.032C33.3978 3.60533 33.2804 3.23733 33.1098 2.928C32.9498 2.608 32.7311 2.35733 32.4538 2.176C32.1764 1.984 31.8244 1.888 31.3978 1.888C31.0458 1.888 30.7471 1.96267 30.5018 2.112C30.2564 2.26133 30.0538 2.45333 29.8938 2.688C29.7338 2.912 29.6164 3.16267 29.5418 3.44C29.4778 3.70667 29.4457 3.968 29.4457 4.224C29.4457 4.94933 29.6164 5.504 29.9578 5.888C30.3098 6.26133 30.8324 6.448 31.5258 6.448ZM47.9721 9.12C47.9721 9.568 47.8921 9.984 47.7321 10.368C47.5828 10.7413 47.3535 11.072 47.0441 11.36C46.7455 11.6373 46.3668 11.8507 45.9081 12C45.4495 12.16 44.9215 12.24 44.3241 12.24C43.6308 12.24 43.0495 12.144 42.5801 11.952C42.1215 11.7493 41.7535 11.4987 41.4761 11.2C41.1988 10.9013 41.0015 10.576 40.8841 10.224C40.7668 9.86133 40.7081 9.52 40.7081 9.2C40.7081 8.89067 40.7561 8.59733 40.8521 8.32C40.9588 8.032 41.0921 7.76533 41.2521 7.52C41.4228 7.27467 41.6148 7.056 41.8281 6.864C42.0521 6.66133 42.2868 6.48533 42.5321 6.336C41.4868 5.73867 40.9641 4.85867 40.9641 3.696C40.9641 3.29067 41.0441 2.90667 41.2041 2.544C41.3641 2.17067 41.5881 1.84533 41.8761 1.568C42.1748 1.29067 42.5321 1.072 42.9481 0.912C43.3641 0.741333 43.8281 0.655999 44.3401 0.655999C44.9375 0.655999 45.4495 0.746666 45.8761 0.927999C46.3028 1.10933 46.6495 1.344 46.9161 1.632C47.1935 1.90933 47.3908 2.21867 47.5081 2.56C47.6361 2.90133 47.7001 3.232 47.7001 3.552C47.7001 3.86133 47.6521 4.15467 47.5561 4.432C47.4708 4.69867 47.3481 4.94933 47.1881 5.184C47.0388 5.41867 46.8628 5.62667 46.6601 5.808C46.4681 5.98933 46.2655 6.14933 46.0521 6.288C47.3108 6.88533 47.9508 7.82933 47.9721 9.12ZM42.2121 9.216C42.2121 9.408 42.2441 9.61067 42.3081 9.824C42.3828 10.0267 42.5055 10.2187 42.6761 10.4C42.8468 10.5707 43.0655 10.7147 43.3321 10.832C43.5988 10.9493 43.9348 11.008 44.3401 11.008C44.7028 11.008 45.0175 10.9547 45.2841 10.848C45.5615 10.7413 45.7855 10.608 45.9561 10.448C46.1268 10.2773 46.2548 10.0853 46.3401 9.872C46.4255 9.65867 46.4681 9.44 46.4681 9.216C46.4681 8.87467 46.4041 8.576 46.2761 8.32C46.1481 8.064 45.9615 7.84 45.7161 7.648C45.4815 7.456 45.1935 7.296 44.8521 7.168C44.5215 7.02933 44.1428 6.912 43.7161 6.816C43.2361 7.08267 42.8628 7.41333 42.5961 7.808C42.3401 8.20267 42.2121 8.672 42.2121 9.216ZM46.2121 3.536C46.2121 3.376 46.1748 3.2 46.1001 3.008C46.0361 2.816 45.9295 2.64 45.7801 2.48C45.6308 2.30933 45.4388 2.17067 45.2041 2.064C44.9695 1.94667 44.6815 1.888 44.3401 1.888C43.9988 1.888 43.7055 1.94133 43.4601 2.048C43.2255 2.15467 43.0335 2.29333 42.8841 2.464C42.7348 2.624 42.6228 2.80533 42.5481 3.008C42.4841 3.2 42.4521 3.392 42.4521 3.584C42.4521 3.81867 42.4948 4.05333 42.5801 4.288C42.6655 4.52267 42.7988 4.74133 42.9801 4.944C43.1615 5.14667 43.3961 5.328 43.6841 5.488C43.9828 5.648 44.3348 5.776 44.7401 5.872C45.1881 5.60533 45.5455 5.296 45.8121 4.944C46.0788 4.58133 46.2121 4.112 46.2121 3.536ZM57.0034 9.12C57.0034 9.568 56.9234 9.984 56.7634 10.368C56.614 10.7413 56.3847 11.072 56.0754 11.36C55.7767 11.6373 55.398 11.8507 54.9394 12C54.4807 12.16 53.9527 12.24 53.3554 12.24C52.662 12.24 52.0807 12.144 51.6114 11.952C51.1527 11.7493 50.7847 11.4987 50.5074 11.2C50.23 10.9013 50.0327 10.576 49.9154 10.224C49.798 9.86133 49.7394 9.52 49.7394 9.2C49.7394 8.89067 49.7874 8.59733 49.8834 8.32C49.99 8.032 50.1234 7.76533 50.2834 7.52C50.454 7.27467 50.646 7.056 50.8594 6.864C51.0834 6.66133 51.318 6.48533 51.5634 6.336C50.518 5.73867 49.9954 4.85867 49.9954 3.696C49.9954 3.29067 50.0754 2.90667 50.2354 2.544C50.3954 2.17067 50.6194 1.84533 50.9074 1.568C51.206 1.29067 51.5634 1.072 51.9794 0.912C52.3954 0.741333 52.8594 0.655999 53.3714 0.655999C53.9687 0.655999 54.4807 0.746666 54.9074 0.927999C55.334 1.10933 55.6807 1.344 55.9474 1.632C56.2247 1.90933 56.422 2.21867 56.5394 2.56C56.6674 2.90133 56.7314 3.232 56.7314 3.552C56.7314 3.86133 56.6834 4.15467 56.5874 4.432C56.502 4.69867 56.3794 4.94933 56.2194 5.184C56.07 5.41867 55.894 5.62667 55.6914 5.808C55.4994 5.98933 55.2967 6.14933 55.0834 6.288C56.342 6.88533 56.982 7.82933 57.0034 9.12ZM51.2434 9.216C51.2434 9.408 51.2754 9.61067 51.3394 9.824C51.414 10.0267 51.5367 10.2187 51.7074 10.4C51.878 10.5707 52.0967 10.7147 52.3634 10.832C52.63 10.9493 52.966 11.008 53.3714 11.008C53.734 11.008 54.0487 10.9547 54.3154 10.848C54.5927 10.7413 54.8167 10.608 54.9874 10.448C55.158 10.2773 55.286 10.0853 55.3714 9.872C55.4567 9.65867 55.4994 9.44 55.4994 9.216C55.4994 8.87467 55.4354 8.576 55.3074 8.32C55.1794 8.064 54.9927 7.84 54.7474 7.648C54.5127 7.456 54.2247 7.296 53.8834 7.168C53.5527 7.02933 53.174 6.912 52.7474 6.816C52.2674 7.08267 51.894 7.41333 51.6274 7.808C51.3714 8.20267 51.2434 8.672 51.2434 9.216ZM55.2434 3.536C55.2434 3.376 55.206 3.2 55.1314 3.008C55.0674 2.816 54.9607 2.64 54.8114 2.48C54.662 2.30933 54.47 2.17067 54.2354 2.064C54.0007 1.94667 53.7127 1.888 53.3714 1.888C53.03 1.888 52.7367 1.94133 52.4914 2.048C52.2567 2.15467 52.0647 2.29333 51.9154 2.464C51.766 2.624 51.654 2.80533 51.5794 3.008C51.5154 3.2 51.4834 3.392 51.4834 3.584C51.4834 3.81867 51.526 4.05333 51.6114 4.288C51.6967 4.52267 51.83 4.74133 52.0114 4.944C52.1927 5.14667 52.4274 5.328 52.7154 5.488C53.014 5.648 53.366 5.776 53.7714 5.872C54.2194 5.60533 54.5767 5.296 54.8434 4.944C55.11 4.58133 55.2434 4.112 55.2434 3.536ZM61.0746 5.184C62.6853 5.248 63.864 5.6 64.6106 6.24C65.368 6.88 65.7466 7.74933 65.7466 8.848C65.7466 9.33867 65.6613 9.792 65.4906 10.208C65.3306 10.624 65.08 10.9813 64.7386 11.28C64.408 11.5787 63.9866 11.8133 63.4746 11.984C62.9626 12.1547 62.3546 12.24 61.6506 12.24C61.3733 12.24 61.0906 12.2187 60.8026 12.176C60.5146 12.1333 60.248 12.08 60.0026 12.016C59.7573 11.952 59.5386 11.888 59.3466 11.824C59.1546 11.76 59.016 11.7067 58.9306 11.664L59.2186 10.368C59.4 10.4533 59.6933 10.5653 60.0986 10.704C60.5146 10.8427 61.0213 10.912 61.6186 10.912C62.0986 10.912 62.4986 10.8587 62.8186 10.752C63.1493 10.6453 63.416 10.5013 63.6186 10.32C63.8213 10.1387 63.9653 9.93067 64.0506 9.696C64.1466 9.45067 64.1946 9.19467 64.1946 8.928C64.1946 8.52267 64.1253 8.16533 63.9866 7.856C63.848 7.536 63.6026 7.26933 63.2506 7.056C62.8986 6.84267 62.4293 6.68267 61.8426 6.576C61.256 6.45867 60.5146 6.4 59.6186 6.4C59.6826 5.87733 59.7306 5.38667 59.7626 4.928C59.8053 4.46933 59.8426 4.02133 59.8746 3.584C59.9066 3.14667 59.9333 2.71467 59.9546 2.288C59.976 1.85067 59.9973 1.392 60.0186 0.912H65.3626V2.176H61.3146C61.304 2.336 61.288 2.55467 61.2666 2.832C61.2453 3.09867 61.224 3.38133 61.2026 3.68C61.1813 3.968 61.16 4.25067 61.1386 4.528C61.1173 4.80533 61.096 5.024 61.0746 5.184ZM71.265 8.16C71.4677 7.69067 71.745 7.14667 72.097 6.528C72.449 5.89867 72.8437 5.25333 73.281 4.592C73.729 3.93067 74.2037 3.28 74.705 2.64C75.217 2 75.729 1.424 76.241 0.912H77.665V7.952H78.977V9.168H77.665V12H76.225V9.168H71.265V8.16ZM76.225 2.672C75.905 3.01333 75.5797 3.39733 75.249 3.824C74.929 4.24 74.6143 4.67733 74.305 5.136C73.9957 5.59467 73.7023 6.064 73.425 6.544C73.1583 7.024 72.9183 7.49333 72.705 7.952H76.225V2.672ZM83.2723 10.912C84.2216 10.912 84.8989 10.7253 85.3043 10.352C85.7203 9.97867 85.9283 9.47733 85.9283 8.848C85.9283 8.44267 85.8429 8.10133 85.6723 7.824C85.5016 7.54667 85.2776 7.328 85.0003 7.168C84.7229 6.99733 84.3976 6.88 84.0243 6.816C83.6616 6.74133 83.2883 6.704 82.9043 6.704H82.5203V5.488H83.0483C83.3149 5.488 83.5869 5.46133 83.8643 5.408C84.1523 5.35467 84.4136 5.25867 84.6483 5.12C84.8829 4.98133 85.0749 4.79467 85.2243 4.56C85.3736 4.31467 85.4483 4.01067 85.4483 3.648C85.4483 3.34933 85.3949 3.09333 85.2883 2.88C85.1816 2.66667 85.0376 2.49067 84.8563 2.352C84.6856 2.21333 84.4829 2.11733 84.2483 2.064C84.0243 2 83.7843 1.968 83.5283 1.968C83.0163 1.968 82.5789 2.04267 82.2163 2.192C81.8643 2.34133 81.5656 2.496 81.3203 2.656L80.7443 1.52C80.8723 1.43467 81.0323 1.344 81.2243 1.248C81.4269 1.14133 81.6509 1.04533 81.8963 0.959999C82.1416 0.874666 82.4029 0.805333 82.6803 0.752C82.9683 0.687999 83.2669 0.655999 83.5763 0.655999C84.1629 0.655999 84.6696 0.730666 85.0963 0.879999C85.5229 1.01867 85.8749 1.22133 86.1523 1.488C86.4296 1.744 86.6376 2.05333 86.7763 2.416C86.9149 2.768 86.9843 3.152 86.9843 3.568C86.9843 4.144 86.8189 4.64 86.4883 5.056C86.1576 5.46133 85.7576 5.77067 85.2883 5.984C85.5763 6.06933 85.8536 6.192 86.1203 6.352C86.3869 6.512 86.6163 6.71467 86.8083 6.96C87.0109 7.20533 87.1709 7.488 87.2883 7.808C87.4163 8.128 87.4803 8.48533 87.4803 8.88C87.4803 9.36 87.3949 9.808 87.2243 10.224C87.0643 10.6293 86.8083 10.9813 86.4563 11.28C86.1149 11.5787 85.6829 11.8133 85.1603 11.984C84.6376 12.1547 84.0189 12.24 83.3043 12.24C83.0269 12.24 82.7389 12.2187 82.4403 12.176C82.1523 12.1333 81.8803 12.08 81.6243 12.016C81.3683 11.952 81.1443 11.888 80.9523 11.824C80.7603 11.76 80.6216 11.7067 80.5363 11.664L80.8243 10.368C81.0056 10.4533 81.3043 10.5653 81.7203 10.704C82.1469 10.8427 82.6643 10.912 83.2723 10.912ZM92.3035 10.912C93.2528 10.912 93.9302 10.7253 94.3355 10.352C94.7515 9.97867 94.9595 9.47733 94.9595 8.848C94.9595 8.44267 94.8742 8.10133 94.7035 7.824C94.5328 7.54667 94.3088 7.328 94.0315 7.168C93.7542 6.99733 93.4288 6.88 93.0555 6.816C92.6928 6.74133 92.3195 6.704 91.9355 6.704H91.5515V5.488H92.0795C92.3462 5.488 92.6182 5.46133 92.8955 5.408C93.1835 5.35467 93.4448 5.25867 93.6795 5.12C93.9142 4.98133 94.1062 4.79467 94.2555 4.56C94.4048 4.31467 94.4795 4.01067 94.4795 3.648C94.4795 3.34933 94.4262 3.09333 94.3195 2.88C94.2128 2.66667 94.0688 2.49067 93.8875 2.352C93.7168 2.21333 93.5142 2.11733 93.2795 2.064C93.0555 2 92.8155 1.968 92.5595 1.968C92.0475 1.968 91.6102 2.04267 91.2475 2.192C90.8955 2.34133 90.5968 2.496 90.3515 2.656L89.7755 1.52C89.9035 1.43467 90.0635 1.344 90.2555 1.248C90.4582 1.14133 90.6822 1.04533 90.9275 0.959999C91.1728 0.874666 91.4342 0.805333 91.7115 0.752C91.9995 0.687999 92.2982 0.655999 92.6075 0.655999C93.1942 0.655999 93.7008 0.730666 94.1275 0.879999C94.5542 1.01867 94.9062 1.22133 95.1835 1.488C95.4608 1.744 95.6688 2.05333 95.8075 2.416C95.9462 2.768 96.0155 3.152 96.0155 3.568C96.0155 4.144 95.8502 4.64 95.5195 5.056C95.1888 5.46133 94.7888 5.77067 94.3195 5.984C94.6075 6.06933 94.8848 6.192 95.1515 6.352C95.4182 6.512 95.6475 6.71467 95.8395 6.96C96.0422 7.20533 96.2022 7.488 96.3195 7.808C96.4475 8.128 96.5115 8.48533 96.5115 8.88C96.5115 9.36 96.4262 9.808 96.2555 10.224C96.0955 10.6293 95.8395 10.9813 95.4875 11.28C95.1462 11.5787 94.7142 11.8133 94.1915 11.984C93.6688 12.1547 93.0502 12.24 92.3355 12.24C92.0582 12.24 91.7702 12.2187 91.4715 12.176C91.1835 12.1333 90.9115 12.08 90.6555 12.016C90.3995 11.952 90.1755 11.888 89.9835 11.824C89.7915 11.76 89.6528 11.7067 89.5675 11.664L89.8555 10.368C90.0368 10.4533 90.3355 10.5653 90.7515 10.704C91.1782 10.8427 91.6955 10.912 92.3035 10.912ZM102.062 8.16C102.265 7.69067 102.542 7.14667 102.894 6.528C103.246 5.89867 103.641 5.25333 104.078 4.592C104.526 3.93067 105.001 3.28 105.502 2.64C106.014 2 106.526 1.424 107.038 0.912H108.462V7.952H109.774V9.168H108.462V12H107.022V9.168H102.062V8.16ZM107.022 2.672C106.702 3.01333 106.377 3.39733 106.046 3.824C105.726 4.24 105.411 4.67733 105.102 5.136C104.793 5.59467 104.499 6.064 104.222 6.544C103.955 7.024 103.715 7.49333 103.502 7.952H107.022V2.672ZM111.093 8.16C111.296 7.69067 111.573 7.14667 111.925 6.528C112.277 5.89867 112.672 5.25333 113.109 4.592C113.557 3.93067 114.032 3.28 114.533 2.64C115.045 2 115.557 1.424 116.069 0.912H117.493V7.952H118.805V9.168H117.493V12H116.053V9.168H111.093V8.16ZM116.053 2.672C115.733 3.01333 115.408 3.39733 115.077 3.824C114.757 4.24 114.442 4.67733 114.133 5.136C113.824 5.59467 113.53 6.064 113.253 6.544C112.986 7.024 112.746 7.49333 112.533 7.952H116.053V2.672ZM120.124 8.16C120.327 7.69067 120.604 7.14667 120.956 6.528C121.308 5.89867 121.703 5.25333 122.14 4.592C122.588 3.93067 123.063 3.28 123.564 2.64C124.076 2 124.588 1.424 125.1 0.912H126.524V7.952H127.836V9.168H126.524V12H125.084V9.168H120.124V8.16ZM125.084 2.672C124.764 3.01333 124.439 3.39733 124.108 3.824C123.788 4.24 123.474 4.67733 123.164 5.136C122.855 5.59467 122.562 6.064 122.284 6.544C122.018 7.024 121.778 7.49333 121.564 7.952H125.084V2.672Z" fill="black"/>
</svg>
