<svg width="148" height="20" viewBox="0 0 148 20" fill="none" xmlns="http://www.w3.org/2000/svg">
<path d="M10.86 16C10.6733 15.4533 10.48 14.9133 10.28 14.38C10.08 13.8467 9.88667 13.3 9.7 12.74H3.86C3.67333 13.3 3.48 13.8533 3.28 14.4C3.09333 14.9333 2.90667 15.4667 2.72 16H0.1C0.62 14.52 1.11333 13.1533 1.58 11.9C2.04667 10.6467 2.5 9.46 2.94 8.34C3.39333 7.22 3.84 6.15333 4.28 5.14C4.72 4.12667 5.17333 3.12667 5.64 2.14H8.02C8.48667 3.12667 8.94 4.12667 9.38 5.14C9.82 6.15333 10.26 7.22 10.7 8.34C11.1533 9.46 11.6133 10.6467 12.08 11.9C12.56 13.1533 13.06 14.52 13.58 16H10.86ZM6.78 4.82C6.47333 5.52667 6.12 6.38667 5.72 7.4C5.33333 8.41333 4.92667 9.51333 4.5 10.7H9.06C8.63333 9.51333 8.22 8.40667 7.82 7.38C7.42 6.35333 7.07333 5.5 6.78 4.82ZM15.2119 5.88C15.6785 5.74667 16.2852 5.62 17.0319 5.5C17.7785 5.38 18.6052 5.32 19.5119 5.32C20.3652 5.32 21.0785 5.44 21.6519 5.68C22.2252 5.90667 22.6785 6.23333 23.0119 6.66C23.3585 7.07333 23.5985 7.58 23.7319 8.18C23.8785 8.76667 23.9519 9.41333 23.9519 10.12V16H21.5319V10.5C21.5319 9.94 21.4919 9.46667 21.4119 9.08C21.3452 8.68 21.2252 8.36 21.0519 8.12C20.8919 7.86667 20.6652 7.68667 20.3719 7.58C20.0919 7.46 19.7452 7.4 19.3319 7.4C19.0252 7.4 18.7052 7.42 18.3719 7.46C18.0385 7.5 17.7919 7.53333 17.6319 7.56V16H15.2119V5.88ZM28.8111 10.5C28.8111 11.5267 29.0311 12.28 29.4711 12.76C29.9244 13.2267 30.5044 13.46 31.2111 13.46C31.5978 13.46 31.9578 13.4067 32.2911 13.3C32.6378 13.1933 32.9178 13.0667 33.1311 12.92V7.5C32.9578 7.46 32.7444 7.42667 32.4911 7.4C32.2378 7.36 31.9178 7.34 31.5311 7.34C30.6511 7.34 29.9778 7.63333 29.5111 8.22C29.0444 8.79333 28.8111 9.55333 28.8111 10.5ZM35.5511 14.94C35.5511 16.6067 35.1244 17.8267 34.2711 18.6C33.4311 19.3733 32.1378 19.76 30.3911 19.76C29.7511 19.76 29.1244 19.7067 28.5111 19.6C27.9111 19.4933 27.3644 19.3533 26.8711 19.18L27.3111 17.12C27.7244 17.2933 28.1911 17.4333 28.7111 17.54C29.2444 17.6467 29.8178 17.7 30.4311 17.7C31.4044 17.7 32.0978 17.5 32.5111 17.1C32.9244 16.7 33.1311 16.1067 33.1311 15.32V14.92C32.8911 15.04 32.5711 15.16 32.1711 15.28C31.7844 15.4 31.3378 15.46 30.8311 15.46C30.1644 15.46 29.5511 15.3533 28.9911 15.14C28.4444 14.9267 27.9711 14.6133 27.5711 14.2C27.1844 13.7867 26.8778 13.2733 26.6511 12.66C26.4378 12.0333 26.3311 11.3133 26.3311 10.5C26.3311 9.74 26.4444 9.04 26.6711 8.4C26.9111 7.76 27.2511 7.21333 27.6911 6.76C28.1444 6.30667 28.6911 5.95333 29.3311 5.7C29.9711 5.44667 30.6978 5.32 31.5111 5.32C32.2978 5.32 33.0444 5.38 33.7511 5.5C34.4578 5.62 35.0578 5.74667 35.5511 5.88V14.94ZM38.0498 10.82C38.0498 9.9 38.1832 9.09333 38.4498 8.4C38.7298 7.70667 39.0965 7.13333 39.5498 6.68C40.0032 6.21333 40.5232 5.86667 41.1098 5.64C41.6965 5.4 42.2965 5.28 42.9098 5.28C44.3498 5.28 45.4698 5.72667 46.2698 6.62C47.0832 7.51333 47.4898 8.84667 47.4898 10.62C47.4898 10.7533 47.4832 10.9067 47.4698 11.08C47.4698 11.24 47.4632 11.3867 47.4498 11.52H40.5498C40.6165 12.36 40.9098 13.0133 41.4298 13.48C41.9632 13.9333 42.7298 14.16 43.7298 14.16C44.3165 14.16 44.8498 14.1067 45.3298 14C45.8232 13.8933 46.2098 13.78 46.4898 13.66L46.8098 15.64C46.6765 15.7067 46.4898 15.78 46.2498 15.86C46.0232 15.9267 45.7565 15.9867 45.4498 16.04C45.1565 16.1067 44.8365 16.16 44.4898 16.2C44.1432 16.24 43.7898 16.26 43.4298 16.26C42.5098 16.26 41.7098 16.1267 41.0298 15.86C40.3498 15.58 39.7898 15.2 39.3498 14.72C38.9098 14.2267 38.5832 13.6533 38.3698 13C38.1565 12.3333 38.0498 11.6067 38.0498 10.82ZM45.0698 9.74C45.0698 9.40667 45.0232 9.09333 44.9298 8.8C44.8365 8.49333 44.6965 8.23333 44.5098 8.02C44.3365 7.79333 44.1165 7.62 43.8498 7.5C43.5965 7.36667 43.2898 7.3 42.9298 7.3C42.5565 7.3 42.2298 7.37333 41.9498 7.52C41.6698 7.65333 41.4298 7.83333 41.2298 8.06C41.0432 8.28667 40.8965 8.54667 40.7898 8.84C40.6832 9.13333 40.6098 9.43333 40.5698 9.74H45.0698ZM53.6956 16.2C52.9756 16.1867 52.3756 16.1067 51.8956 15.96C51.429 15.8133 51.0556 15.6067 50.7756 15.34C50.4956 15.06 50.2956 14.72 50.1756 14.32C50.069 13.9067 50.0156 13.44 50.0156 12.92V0.879999L52.4356 0.48V12.46C52.4356 12.7533 52.4556 13 52.4956 13.2C52.549 13.4 52.6356 13.5733 52.7556 13.72C52.8756 13.8533 53.0356 13.96 53.2356 14.04C53.449 14.1067 53.7156 14.16 54.0356 14.2L53.6956 16.2ZM66.9411 16.3C65.9011 16.3 64.9678 16.14 64.1411 15.82C63.3144 15.5 62.6144 15.0333 62.0411 14.42C61.4678 13.7933 61.0278 13.0333 60.7211 12.14C60.4144 11.2467 60.2611 10.22 60.2611 9.06C60.2611 7.9 60.4344 6.87333 60.7811 5.98C61.1411 5.08667 61.6278 4.33333 62.2411 3.72C62.8544 3.09333 63.5744 2.62 64.4011 2.3C65.2278 1.98 66.1144 1.82 67.0611 1.82C67.6344 1.82 68.1544 1.86667 68.6211 1.96C69.0878 2.04 69.4944 2.13333 69.8411 2.24C70.1878 2.34667 70.4744 2.46 70.7011 2.58C70.9278 2.7 71.0878 2.78667 71.1811 2.84L70.4411 4.9C70.1211 4.7 69.6611 4.51333 69.0611 4.34C68.4744 4.15333 67.8344 4.06 67.1411 4.06C66.5411 4.06 65.9811 4.16667 65.4611 4.38C64.9411 4.58 64.4878 4.88667 64.1011 5.3C63.7278 5.71333 63.4344 6.23333 63.2211 6.86C63.0078 7.48667 62.9011 8.21333 62.9011 9.04C62.9011 9.77333 62.9811 10.4467 63.1411 11.06C63.3144 11.6733 63.5744 12.2067 63.9211 12.66C64.2678 13.1 64.7078 13.4467 65.2411 13.7C65.7744 13.94 66.4144 14.06 67.1611 14.06C68.0544 14.06 68.7811 13.9733 69.3411 13.8C69.9011 13.6133 70.3344 13.44 70.6411 13.28L71.3211 15.34C71.1611 15.4467 70.9411 15.5533 70.6611 15.66C70.3944 15.7667 70.0744 15.8733 69.7011 15.98C69.3278 16.0733 68.9078 16.1467 68.4411 16.2C67.9744 16.2667 67.4744 16.3 66.9411 16.3ZM73.415 16V0.879999L75.835 0.48V5.66C76.1017 5.56667 76.4083 5.48667 76.755 5.42C77.115 5.35333 77.4683 5.32 77.815 5.32C78.655 5.32 79.3483 5.44 79.895 5.68C80.455 5.90667 80.9017 6.23333 81.235 6.66C81.5683 7.07333 81.8017 7.57333 81.935 8.16C82.0817 8.74667 82.155 9.4 82.155 10.12V16H79.735V10.5C79.735 9.94 79.695 9.46667 79.615 9.08C79.5483 8.68 79.4283 8.36 79.255 8.12C79.095 7.86667 78.875 7.68667 78.595 7.58C78.315 7.46 77.9683 7.4 77.555 7.4C77.235 7.4 76.9083 7.43333 76.575 7.5C76.2417 7.56667 75.995 7.62667 75.835 7.68V16H73.415ZM84.4756 10.82C84.4756 9.9 84.609 9.09333 84.8756 8.4C85.1556 7.70667 85.5223 7.13333 85.9756 6.68C86.429 6.21333 86.949 5.86667 87.5356 5.64C88.1223 5.4 88.7223 5.28 89.3356 5.28C90.7756 5.28 91.8956 5.72667 92.6956 6.62C93.509 7.51333 93.9156 8.84667 93.9156 10.62C93.9156 10.7533 93.909 10.9067 93.8956 11.08C93.8956 11.24 93.889 11.3867 93.8756 11.52H86.9756C87.0423 12.36 87.3356 13.0133 87.8556 13.48C88.389 13.9333 89.1556 14.16 90.1556 14.16C90.7423 14.16 91.2756 14.1067 91.7556 14C92.249 13.8933 92.6356 13.78 92.9156 13.66L93.2356 15.64C93.1023 15.7067 92.9156 15.78 92.6756 15.86C92.449 15.9267 92.1823 15.9867 91.8756 16.04C91.5823 16.1067 91.2623 16.16 90.9156 16.2C90.569 16.24 90.2156 16.26 89.8556 16.26C88.9356 16.26 88.1356 16.1267 87.4556 15.86C86.7756 15.58 86.2156 15.2 85.7756 14.72C85.3356 14.2267 85.009 13.6533 84.7956 13C84.5823 12.3333 84.4756 11.6067 84.4756 10.82ZM91.4956 9.74C91.4956 9.40667 91.449 9.09333 91.3556 8.8C91.2623 8.49333 91.1223 8.23333 90.9356 8.02C90.7623 7.79333 90.5423 7.62 90.2756 7.5C90.0223 7.36667 89.7156 7.3 89.3556 7.3C88.9823 7.3 88.6556 7.37333 88.3756 7.52C88.0956 7.65333 87.8556 7.83333 87.6556 8.06C87.469 8.28667 87.3223 8.54667 87.2156 8.84C87.109 9.13333 87.0356 9.43333 86.9956 9.74H91.4956ZM102.441 7.72C102.241 7.65333 101.961 7.58667 101.601 7.52C101.255 7.44 100.848 7.4 100.381 7.4C100.115 7.4 99.8281 7.42667 99.5214 7.48C99.2281 7.53333 99.0214 7.58 98.9014 7.62V16H96.4814V6.04C96.9481 5.86667 97.5281 5.70667 98.2214 5.56C98.9281 5.4 99.7081 5.32 100.561 5.32C100.721 5.32 100.908 5.33333 101.121 5.36C101.335 5.37333 101.548 5.4 101.761 5.44C101.975 5.46667 102.181 5.50667 102.381 5.56C102.581 5.6 102.741 5.64 102.861 5.68L102.441 7.72ZM104.548 5.88C105.014 5.74667 105.621 5.62 106.368 5.5C107.114 5.38 107.941 5.32 108.848 5.32C109.701 5.32 110.414 5.44 110.988 5.68C111.561 5.90667 112.014 6.23333 112.348 6.66C112.694 7.07333 112.934 7.58 113.068 8.18C113.214 8.76667 113.288 9.41333 113.288 10.12V16H110.868V10.5C110.868 9.94 110.828 9.46667 110.748 9.08C110.681 8.68 110.561 8.36 110.388 8.12C110.228 7.86667 110.001 7.68667 109.708 7.58C109.428 7.46 109.081 7.4 108.668 7.4C108.361 7.4 108.041 7.42 107.708 7.46C107.374 7.5 107.128 7.53333 106.968 7.56V16H104.548V5.88ZM119.927 14.3C120.674 14.3 121.24 14.26 121.627 14.18V11.5C121.494 11.46 121.3 11.42 121.047 11.38C120.794 11.34 120.514 11.32 120.207 11.32C119.94 11.32 119.667 11.34 119.387 11.38C119.12 11.42 118.874 11.4933 118.647 11.6C118.434 11.7067 118.26 11.86 118.127 12.06C117.994 12.2467 117.927 12.4867 117.927 12.78C117.927 13.3533 118.107 13.7533 118.467 13.98C118.827 14.1933 119.314 14.3 119.927 14.3ZM119.727 5.28C120.527 5.28 121.2 5.38 121.747 5.58C122.294 5.78 122.727 6.06 123.047 6.42C123.38 6.78 123.614 7.22 123.747 7.74C123.894 8.24667 123.967 8.80667 123.967 9.42V15.76C123.594 15.84 123.027 15.9333 122.267 16.04C121.52 16.16 120.674 16.22 119.727 16.22C119.1 16.22 118.527 16.16 118.007 16.04C117.487 15.92 117.04 15.7267 116.667 15.46C116.307 15.1933 116.02 14.8467 115.807 14.42C115.607 13.9933 115.507 13.4667 115.507 12.84C115.507 12.24 115.62 11.7333 115.847 11.32C116.087 10.9067 116.407 10.5733 116.807 10.32C117.207 10.0533 117.667 9.86667 118.187 9.76C118.72 9.64 119.274 9.58 119.847 9.58C120.114 9.58 120.394 9.6 120.687 9.64C120.98 9.66667 121.294 9.72 121.627 9.8V9.4C121.627 9.12 121.594 8.85333 121.527 8.6C121.46 8.34667 121.34 8.12667 121.167 7.94C121.007 7.74 120.787 7.58667 120.507 7.48C120.24 7.37333 119.9 7.32 119.487 7.32C118.927 7.32 118.414 7.36 117.947 7.44C117.48 7.52 117.1 7.61333 116.807 7.72L116.507 5.76C116.814 5.65333 117.26 5.54667 117.847 5.44C118.434 5.33333 119.06 5.28 119.727 5.28ZM126.351 10.82C126.351 9.9 126.484 9.09333 126.751 8.4C127.031 7.70667 127.397 7.13333 127.851 6.68C128.304 6.21333 128.824 5.86667 129.411 5.64C129.997 5.4 130.597 5.28 131.211 5.28C132.651 5.28 133.771 5.72667 134.571 6.62C135.384 7.51333 135.791 8.84667 135.791 10.62C135.791 10.7533 135.784 10.9067 135.771 11.08C135.771 11.24 135.764 11.3867 135.751 11.52H128.851C128.917 12.36 129.211 13.0133 129.731 13.48C130.264 13.9333 131.031 14.16 132.031 14.16C132.617 14.16 133.151 14.1067 133.631 14C134.124 13.8933 134.511 13.78 134.791 13.66L135.111 15.64C134.977 15.7067 134.791 15.78 134.551 15.86C134.324 15.9267 134.057 15.9867 133.751 16.04C133.457 16.1067 133.137 16.16 132.791 16.2C132.444 16.24 132.091 16.26 131.731 16.26C130.811 16.26 130.011 16.1267 129.331 15.86C128.651 15.58 128.091 15.2 127.651 14.72C127.211 14.2267 126.884 13.6533 126.671 13C126.457 12.3333 126.351 11.6067 126.351 10.82ZM133.371 9.74C133.371 9.40667 133.324 9.09333 133.231 8.8C133.137 8.49333 132.997 8.23333 132.811 8.02C132.637 7.79333 132.417 7.62 132.151 7.5C131.897 7.36667 131.591 7.3 131.231 7.3C130.857 7.3 130.531 7.37333 130.251 7.52C129.971 7.65333 129.731 7.83333 129.531 8.06C129.344 8.28667 129.197 8.54667 129.091 8.84C128.984 9.13333 128.911 9.43333 128.871 9.74H133.371ZM141.036 16C140.37 14.6267 139.683 13.0533 138.976 11.28C138.283 9.49333 137.65 7.58 137.076 5.54H139.656C139.803 6.12667 139.97 6.76 140.156 7.44C140.356 8.10667 140.563 8.78 140.776 9.46C141.003 10.1267 141.23 10.78 141.456 11.42C141.696 12.0467 141.916 12.6133 142.116 13.12C142.316 12.6133 142.53 12.0467 142.756 11.42C142.983 10.78 143.203 10.1267 143.416 9.46C143.643 8.78 143.856 8.10667 144.056 7.44C144.256 6.76 144.43 6.12667 144.576 5.54H147.076C146.503 7.58 145.863 9.49333 145.156 11.28C144.463 13.0533 143.783 14.6267 143.116 16H141.036Z" fill="black"/>
</svg>
