<svg width="115" height="16" viewBox="0 0 115 16" fill="none" xmlns="http://www.w3.org/2000/svg">
<path d="M8.784 13C8.60267 12.52 8.432 12.0507 8.272 11.592C8.112 11.1227 7.94667 10.648 7.776 10.168H2.752L1.744 13H0.128C0.554667 11.8267 0.954667 10.744 1.328 9.752C1.70133 8.74933 2.064 7.8 2.416 6.904C2.77867 6.008 3.136 5.15467 3.488 4.344C3.84 3.52267 4.208 2.712 4.592 1.912H6.016C6.4 2.712 6.768 3.52267 7.12 4.344C7.472 5.15467 7.824 6.008 8.176 6.904C8.53867 7.8 8.90667 8.74933 9.28 9.752C9.65333 10.744 10.0533 11.8267 10.48 13H8.784ZM7.328 8.888C6.98667 7.96 6.64533 7.064 6.304 6.2C5.97333 5.32533 5.62667 4.488 5.264 3.688C4.89067 4.488 4.53333 5.32533 4.192 6.2C3.86133 7.064 3.53067 7.96 3.2 8.888H7.328ZM11.8894 4.92C12.2307 4.83467 12.684 4.744 13.2494 4.648C13.8147 4.552 14.4654 4.504 15.2014 4.504C15.8627 4.504 16.412 4.6 16.8494 4.792C17.2867 4.97333 17.6334 5.23467 17.8894 5.576C18.156 5.90667 18.3427 6.30667 18.4494 6.776C18.556 7.24533 18.6094 7.76267 18.6094 8.328V13H17.1214V8.648C17.1214 8.136 17.084 7.69867 17.0094 7.336C16.9454 6.97333 16.8334 6.68 16.6734 6.456C16.5134 6.232 16.3 6.072 16.0334 5.976C15.7667 5.86933 15.436 5.816 15.0414 5.816C14.8814 5.816 14.716 5.82133 14.5454 5.832C14.3747 5.84267 14.2094 5.85867 14.0494 5.88C13.9 5.89067 13.7614 5.90667 13.6334 5.928C13.516 5.94933 13.4307 5.96533 13.3774 5.976V13H11.8894V4.92ZM26.2929 12.168C26.1649 12.2533 25.9142 12.3653 25.5409 12.504C25.1782 12.632 24.7515 12.696 24.2609 12.696C23.7595 12.696 23.2849 12.616 22.8369 12.456C22.3995 12.296 22.0155 12.0507 21.6849 11.72C21.3542 11.3787 21.0929 10.9573 20.9009 10.456C20.7089 9.95467 20.6129 9.35733 20.6129 8.664C20.6129 8.056 20.7035 7.50133 20.8849 7C21.0662 6.488 21.3275 6.05067 21.6689 5.688C22.0209 5.31467 22.4475 5.02667 22.9489 4.824C23.4502 4.61067 24.0155 4.504 24.6449 4.504C25.3382 4.504 25.9409 4.55733 26.4529 4.664C26.9755 4.76 27.4129 4.85067 27.7649 4.936V12.36C27.7649 13.64 27.4342 14.568 26.7729 15.144C26.1115 15.72 25.1089 16.008 23.7649 16.008C23.2422 16.008 22.7462 15.9653 22.2769 15.88C21.8182 15.7947 21.4182 15.6933 21.0769 15.576L21.3489 14.28C21.6475 14.3973 22.0102 14.4987 22.4369 14.584C22.8742 14.68 23.3275 14.728 23.7969 14.728C24.6822 14.728 25.3169 14.552 25.7009 14.2C26.0955 13.848 26.2929 13.288 26.2929 12.52V12.168ZM26.2769 5.992C26.1275 5.94933 25.9249 5.912 25.6689 5.88C25.4235 5.83733 25.0875 5.816 24.6609 5.816C23.8609 5.816 23.2422 6.07733 22.8049 6.6C22.3782 7.12267 22.1649 7.816 22.1649 8.68C22.1649 9.16 22.2235 9.57067 22.3409 9.912C22.4689 10.2533 22.6342 10.536 22.8369 10.76C23.0502 10.984 23.2902 11.1493 23.5569 11.256C23.8342 11.3627 24.1169 11.416 24.4049 11.416C24.7995 11.416 25.1622 11.3627 25.4929 11.256C25.8235 11.1387 26.0849 11.0053 26.2769 10.856V5.992ZM29.8629 8.856C29.8629 8.12 29.9695 7.48 30.1829 6.936C30.3962 6.38133 30.6789 5.92267 31.0309 5.56C31.3829 5.19733 31.7882 4.92533 32.2469 4.744C32.7055 4.56267 33.1749 4.472 33.6549 4.472C34.7749 4.472 35.6335 4.824 36.2309 5.528C36.8282 6.22133 37.1269 7.28267 37.1269 8.712C37.1269 8.776 37.1269 8.86133 37.1269 8.968C37.1269 9.064 37.1215 9.15467 37.1109 9.24H31.4149C31.4789 10.104 31.7295 10.76 32.1669 11.208C32.6042 11.656 33.2869 11.88 34.2149 11.88C34.7375 11.88 35.1749 11.8373 35.5269 11.752C35.8895 11.656 36.1615 11.5653 36.3429 11.48L36.5509 12.728C36.3695 12.824 36.0495 12.9253 35.5909 13.032C35.1429 13.1387 34.6309 13.192 34.0549 13.192C33.3295 13.192 32.7002 13.0853 32.1669 12.872C31.6442 12.648 31.2122 12.344 30.8709 11.96C30.5295 11.576 30.2735 11.1227 30.1029 10.6C29.9429 10.0667 29.8629 9.48533 29.8629 8.856ZM35.5749 8.04C35.5855 7.368 35.4149 6.81867 35.0629 6.392C34.7215 5.95467 34.2469 5.736 33.6389 5.736C33.2975 5.736 32.9935 5.80533 32.7269 5.944C32.4709 6.072 32.2522 6.24267 32.0709 6.456C31.8895 6.66933 31.7455 6.91467 31.6389 7.192C31.5429 7.46933 31.4789 7.752 31.4469 8.04H35.5749ZM41.7604 13.16C40.843 13.1387 40.1924 12.9413 39.8084 12.568C39.4244 12.1947 39.2324 11.6133 39.2324 10.824V0.839999L40.7204 0.584V10.584C40.7204 10.8293 40.7417 11.032 40.7844 11.192C40.827 11.352 40.8964 11.48 40.9924 11.576C41.0884 11.672 41.2164 11.7467 41.3764 11.8C41.5364 11.8427 41.7337 11.88 41.9684 11.912L41.7604 13.16ZM52.2065 13.24C51.4278 13.24 50.7185 13.112 50.0785 12.856C49.4385 12.6 48.8892 12.2267 48.4305 11.736C47.9718 11.2453 47.6145 10.6427 47.3585 9.928C47.1132 9.20267 46.9905 8.376 46.9905 7.448C46.9905 6.52 47.1292 5.69867 47.4065 4.984C47.6945 4.25867 48.0785 3.65067 48.5585 3.16C49.0385 2.66933 49.5985 2.296 50.2385 2.04C50.8785 1.784 51.5612 1.656 52.2865 1.656C52.7452 1.656 53.1558 1.688 53.5185 1.752C53.8918 1.816 54.2118 1.89067 54.4785 1.976C54.7558 2.06133 54.9798 2.14667 55.1505 2.232C55.3212 2.31733 55.4385 2.38133 55.5025 2.424L55.0545 3.704C54.9585 3.64 54.8198 3.57067 54.6385 3.496C54.4572 3.42133 54.2492 3.34667 54.0145 3.272C53.7905 3.19733 53.5398 3.13867 53.2625 3.096C52.9958 3.04267 52.7238 3.016 52.4465 3.016C51.8598 3.016 51.3318 3.11733 50.8625 3.32C50.3932 3.52267 49.9932 3.816 49.6625 4.2C49.3318 4.584 49.0758 5.05333 48.8945 5.608C48.7238 6.152 48.6385 6.76533 48.6385 7.448C48.6385 8.10933 48.7132 8.712 48.8625 9.256C49.0225 9.8 49.2572 10.2693 49.5665 10.664C49.8758 11.048 50.2598 11.3467 50.7185 11.56C51.1878 11.7733 51.7318 11.88 52.3505 11.88C53.0652 11.88 53.6572 11.8053 54.1265 11.656C54.5958 11.5067 54.9478 11.3733 55.1825 11.256L55.5825 12.536C55.5078 12.5893 55.3745 12.6587 55.1825 12.744C54.9905 12.8187 54.7505 12.8933 54.4625 12.968C54.1745 13.0427 53.8385 13.1067 53.4545 13.16C53.0705 13.2133 52.6545 13.24 52.2065 13.24ZM57.2644 13V0.839999L58.7524 0.584V4.84C59.0297 4.73333 59.323 4.65333 59.6324 4.6C59.9524 4.536 60.267 4.504 60.5764 4.504C61.2377 4.504 61.787 4.6 62.2244 4.792C62.6617 4.97333 63.0084 5.23467 63.2644 5.576C63.531 5.90667 63.7177 6.30667 63.8244 6.776C63.931 7.24533 63.9844 7.76267 63.9844 8.328V13H62.4964V8.648C62.4964 8.136 62.459 7.69867 62.3844 7.336C62.3204 6.97333 62.2084 6.68 62.0484 6.456C61.8884 6.232 61.675 6.072 61.4084 5.976C61.1417 5.86933 60.811 5.816 60.4164 5.816C60.2564 5.816 60.091 5.82667 59.9204 5.848C59.7497 5.86933 59.5844 5.896 59.4244 5.928C59.275 5.94933 59.1364 5.976 59.0084 6.008C58.891 6.04 58.8057 6.06667 58.7524 6.088V13H57.2644ZM65.941 8.856C65.941 8.12 66.0477 7.48 66.261 6.936C66.4743 6.38133 66.757 5.92267 67.109 5.56C67.461 5.19733 67.8663 4.92533 68.325 4.744C68.7837 4.56267 69.253 4.472 69.733 4.472C70.853 4.472 71.7117 4.824 72.309 5.528C72.9063 6.22133 73.205 7.28267 73.205 8.712C73.205 8.776 73.205 8.86133 73.205 8.968C73.205 9.064 73.1997 9.15467 73.189 9.24H67.493C67.557 10.104 67.8077 10.76 68.245 11.208C68.6823 11.656 69.365 11.88 70.293 11.88C70.8157 11.88 71.253 11.8373 71.605 11.752C71.9677 11.656 72.2397 11.5653 72.421 11.48L72.629 12.728C72.4477 12.824 72.1277 12.9253 71.669 13.032C71.221 13.1387 70.709 13.192 70.133 13.192C69.4077 13.192 68.7783 13.0853 68.245 12.872C67.7223 12.648 67.2903 12.344 66.949 11.96C66.6077 11.576 66.3517 11.1227 66.181 10.6C66.021 10.0667 65.941 9.48533 65.941 8.856ZM71.653 8.04C71.6637 7.368 71.493 6.81867 71.141 6.392C70.7997 5.95467 70.325 5.736 69.717 5.736C69.3757 5.736 69.0717 5.80533 68.805 5.944C68.549 6.072 68.3303 6.24267 68.149 6.456C67.9677 6.66933 67.8237 6.91467 67.717 7.192C67.621 7.46933 67.557 7.752 67.525 8.04H71.653ZM78.4145 4.504C78.5425 4.504 78.6865 4.51467 78.8465 4.536C79.0172 4.54667 79.1825 4.568 79.3425 4.6C79.5025 4.62133 79.6465 4.648 79.7745 4.68C79.9132 4.70133 80.0145 4.72267 80.0785 4.744L79.8225 6.04C79.7052 5.99733 79.5078 5.94933 79.2305 5.896C78.9638 5.832 78.6172 5.8 78.1905 5.8C77.9132 5.8 77.6358 5.832 77.3585 5.896C77.0918 5.94933 76.9158 5.98667 76.8305 6.008V13H75.3425V5.032C75.6945 4.904 76.1318 4.78667 76.6545 4.68C77.1772 4.56267 77.7638 4.504 78.4145 4.504ZM81.5144 4.92C81.8557 4.83467 82.309 4.744 82.8744 4.648C83.4397 4.552 84.0904 4.504 84.8264 4.504C85.4877 4.504 86.037 4.6 86.4744 4.792C86.9117 4.97333 87.2584 5.23467 87.5144 5.576C87.781 5.90667 87.9677 6.30667 88.0744 6.776C88.181 7.24533 88.2344 7.76267 88.2344 8.328V13H86.7464V8.648C86.7464 8.136 86.709 7.69867 86.6344 7.336C86.5704 6.97333 86.4584 6.68 86.2984 6.456C86.1384 6.232 85.925 6.072 85.6584 5.976C85.3917 5.86933 85.061 5.816 84.6664 5.816C84.5064 5.816 84.341 5.82133 84.1704 5.832C83.9997 5.84267 83.8344 5.85867 83.6744 5.88C83.525 5.89067 83.3864 5.90667 83.2584 5.928C83.141 5.94933 83.0557 5.96533 83.0024 5.976V13H81.5144V4.92ZM93.5179 11.928C93.8699 11.928 94.1792 11.9227 94.4459 11.912C94.7232 11.8907 94.9525 11.8587 95.1339 11.816V9.336C95.0272 9.28267 94.8512 9.24 94.6059 9.208C94.3712 9.16533 94.0832 9.144 93.7419 9.144C93.5179 9.144 93.2779 9.16 93.0219 9.192C92.7765 9.224 92.5472 9.29333 92.3339 9.4C92.1312 9.496 91.9605 9.63467 91.8219 9.816C91.6832 9.98667 91.6139 10.216 91.6139 10.504C91.6139 11.0373 91.7845 11.4107 92.1259 11.624C92.4672 11.8267 92.9312 11.928 93.5179 11.928ZM93.3899 4.472C93.9872 4.472 94.4885 4.552 94.8939 4.712C95.3099 4.86133 95.6405 5.08 95.8859 5.368C96.1419 5.64533 96.3232 5.98133 96.4299 6.376C96.5365 6.76 96.5899 7.18667 96.5899 7.656V12.856C96.4619 12.8773 96.2805 12.9093 96.0459 12.952C95.8219 12.984 95.5659 13.016 95.2779 13.048C94.9899 13.08 94.6752 13.1067 94.3339 13.128C94.0032 13.16 93.6725 13.176 93.3419 13.176C92.8725 13.176 92.4405 13.128 92.0459 13.032C91.6512 12.936 91.3099 12.7867 91.0219 12.584C90.7339 12.3707 90.5099 12.0933 90.3499 11.752C90.1899 11.4107 90.1099 11 90.1099 10.52C90.1099 10.0613 90.2005 9.66667 90.3819 9.336C90.5739 9.00533 90.8299 8.73867 91.1499 8.536C91.4699 8.33333 91.8432 8.184 92.2699 8.088C92.6965 7.992 93.1445 7.944 93.6139 7.944C93.7632 7.944 93.9179 7.95467 94.0779 7.976C94.2379 7.98667 94.3872 8.008 94.5259 8.04C94.6752 8.06133 94.8032 8.08267 94.9099 8.104C95.0165 8.12533 95.0912 8.14133 95.1339 8.152V7.736C95.1339 7.49067 95.1072 7.25067 95.0539 7.016C95.0005 6.77067 94.9045 6.55733 94.7659 6.376C94.6272 6.184 94.4352 6.03467 94.1899 5.928C93.9552 5.81067 93.6459 5.752 93.2619 5.752C92.7712 5.752 92.3392 5.78933 91.9659 5.864C91.6032 5.928 91.3312 5.99733 91.1499 6.072L90.9739 4.84C91.1659 4.75467 91.4859 4.67467 91.9339 4.6C92.3819 4.51467 92.8672 4.472 93.3899 4.472ZM98.5973 8.856C98.5973 8.12 98.7039 7.48 98.9173 6.936C99.1306 6.38133 99.4133 5.92267 99.7653 5.56C100.117 5.19733 100.523 4.92533 100.981 4.744C101.44 4.56267 101.909 4.472 102.389 4.472C103.509 4.472 104.368 4.824 104.965 5.528C105.563 6.22133 105.861 7.28267 105.861 8.712C105.861 8.776 105.861 8.86133 105.861 8.968C105.861 9.064 105.856 9.15467 105.845 9.24H100.149C100.213 10.104 100.464 10.76 100.901 11.208C101.339 11.656 102.021 11.88 102.949 11.88C103.472 11.88 103.909 11.8373 104.261 11.752C104.624 11.656 104.896 11.5653 105.077 11.48L105.285 12.728C105.104 12.824 104.784 12.9253 104.325 13.032C103.877 13.1387 103.365 13.192 102.789 13.192C102.064 13.192 101.435 13.0853 100.901 12.872C100.379 12.648 99.9466 12.344 99.6053 11.96C99.2639 11.576 99.0079 11.1227 98.8372 10.6C98.6773 10.0667 98.5973 9.48533 98.5973 8.856ZM104.309 8.04C104.32 7.368 104.149 6.81867 103.797 6.392C103.456 5.95467 102.981 5.736 102.373 5.736C102.032 5.736 101.728 5.80533 101.461 5.944C101.205 6.072 100.987 6.24267 100.805 6.456C100.624 6.66933 100.48 6.91467 100.373 7.192C100.277 7.46933 100.213 7.752 100.181 8.04H104.309ZM114.495 4.68C114.079 6.23733 113.588 7.73067 113.023 9.16C112.468 10.5893 111.929 11.8693 111.407 13H110.063C109.54 11.8693 108.996 10.5893 108.431 9.16C107.876 7.73067 107.391 6.23733 106.975 4.68H108.575C108.703 5.20267 108.852 5.76267 109.023 6.36C109.204 6.94667 109.391 7.53333 109.583 8.12C109.785 8.696 109.988 9.256 110.191 9.8C110.393 10.344 110.585 10.8293 110.767 11.256C110.948 10.8293 111.14 10.344 111.343 9.8C111.545 9.256 111.743 8.696 111.935 8.12C112.137 7.53333 112.324 6.94667 112.495 6.36C112.676 5.76267 112.831 5.20267 112.959 4.68H114.495Z" fill="black"/>
<a href="https://www.linkedin.com/in/angel-chernaev-598811ab/">
<rect fill="black" fill-opacity="0" y="-0.192" width="114.751" height="18.384"/>
</a>
</svg>
