<svg width="104" height="14" viewBox="0 0 104 14" fill="none" xmlns="http://www.w3.org/2000/svg">
<path d="M8.784 13C8.60267 12.52 8.432 12.0507 8.272 11.592C8.112 11.1227 7.94667 10.648 7.776 10.168H2.752L1.744 13H0.128C0.554667 11.8267 0.954667 10.744 1.328 9.752C1.70133 8.74933 2.064 7.8 2.416 6.904C2.77867 6.008 3.136 5.15467 3.488 4.344C3.84 3.52267 4.208 2.712 4.592 1.912H6.016C6.4 2.712 6.768 3.52267 7.12 4.344C7.472 5.15467 7.824 6.008 8.176 6.904C8.53867 7.8 8.90667 8.74933 9.28 9.752C9.65333 10.744 10.0533 11.8267 10.48 13H8.784ZM7.328 8.888C6.98667 7.96 6.64533 7.064 6.304 6.2C5.97333 5.32533 5.62667 4.488 5.264 3.688C4.89067 4.488 4.53333 5.32533 4.192 6.2C3.86133 7.064 3.53067 7.96 3.2 8.888H7.328ZM11.8894 4.92C12.2307 4.83467 12.684 4.744 13.2494 4.648C13.8147 4.552 14.4654 4.504 15.2014 4.504C15.8627 4.504 16.412 4.6 16.8494 4.792C17.2867 4.97333 17.6334 5.23467 17.8894 5.576C18.156 5.90667 18.3427 6.30667 18.4494 6.776C18.556 7.24533 18.6094 7.76267 18.6094 8.328V13H17.1214V8.648C17.1214 8.136 17.084 7.69867 17.0094 7.336C16.9454 6.97333 16.8334 6.68 16.6734 6.456C16.5134 6.232 16.3 6.072 16.0334 5.976C15.7667 5.86933 15.436 5.816 15.0414 5.816C14.8814 5.816 14.716 5.82133 14.5454 5.832C14.3747 5.84267 14.2094 5.85867 14.0494 5.88C13.9 5.89067 13.7614 5.90667 13.6334 5.928C13.516 5.94933 13.4307 5.96533 13.3774 5.976V13H11.8894V4.92ZM22.4689 4.68H25.6209V5.928H22.4689V9.768C22.4689 10.184 22.5009 10.5307 22.5649 10.808C22.6289 11.0747 22.7249 11.288 22.8529 11.448C22.9809 11.5973 23.1409 11.704 23.3329 11.768C23.5249 11.832 23.7489 11.864 24.0049 11.864C24.4529 11.864 24.8102 11.816 25.0769 11.72C25.3542 11.6133 25.5462 11.5387 25.6529 11.496L25.9409 12.728C25.7915 12.8027 25.5302 12.8933 25.1569 13C24.7835 13.1173 24.3569 13.176 23.8769 13.176C23.3115 13.176 22.8422 13.1067 22.4689 12.968C22.1062 12.8187 21.8129 12.6 21.5889 12.312C21.3649 12.024 21.2049 11.672 21.1089 11.256C21.0235 10.8293 20.9809 10.3387 20.9809 9.784V2.36L22.4689 2.104V4.68ZM34.6396 8.84C34.6396 9.50133 34.5436 10.0987 34.3516 10.632C34.1596 11.1653 33.8876 11.624 33.5356 12.008C33.1943 12.392 32.7836 12.6907 32.3036 12.904C31.8236 13.1067 31.301 13.208 30.7356 13.208C30.1703 13.208 29.6476 13.1067 29.1676 12.904C28.6876 12.6907 28.2716 12.392 27.9196 12.008C27.5783 11.624 27.3116 11.1653 27.1196 10.632C26.9276 10.0987 26.8316 9.50133 26.8316 8.84C26.8316 8.18933 26.9276 7.59733 27.1196 7.064C27.3116 6.52 27.5783 6.056 27.9196 5.672C28.2716 5.288 28.6876 4.99467 29.1676 4.792C29.6476 4.57867 30.1703 4.472 30.7356 4.472C31.301 4.472 31.8236 4.57867 32.3036 4.792C32.7836 4.99467 33.1943 5.288 33.5356 5.672C33.8876 6.056 34.1596 6.52 34.3516 7.064C34.5436 7.59733 34.6396 8.18933 34.6396 8.84ZM33.0876 8.84C33.0876 7.90133 32.8743 7.16 32.4476 6.616C32.0316 6.06133 31.461 5.784 30.7356 5.784C30.0103 5.784 29.4343 6.06133 29.0076 6.616C28.5916 7.16 28.3836 7.90133 28.3836 8.84C28.3836 9.77867 28.5916 10.5253 29.0076 11.08C29.4343 11.624 30.0103 11.896 30.7356 11.896C31.461 11.896 32.0316 11.624 32.4476 11.08C32.8743 10.5253 33.0876 9.77867 33.0876 8.84ZM36.7331 4.92C37.0745 4.83467 37.5278 4.744 38.0931 4.648C38.6585 4.552 39.3091 4.504 40.0451 4.504C40.7065 4.504 41.2558 4.6 41.6931 4.792C42.1305 4.97333 42.4771 5.23467 42.7331 5.576C42.9998 5.90667 43.1865 6.30667 43.2931 6.776C43.3998 7.24533 43.4531 7.76267 43.4531 8.328V13H41.9651V8.648C41.9651 8.136 41.9278 7.69867 41.8531 7.336C41.7891 6.97333 41.6771 6.68 41.5171 6.456C41.3571 6.232 41.1438 6.072 40.8771 5.976C40.6105 5.86933 40.2798 5.816 39.8851 5.816C39.7251 5.816 39.5598 5.82133 39.3891 5.832C39.2185 5.84267 39.0531 5.85867 38.8931 5.88C38.7438 5.89067 38.6051 5.90667 38.4771 5.928C38.3598 5.94933 38.2745 5.96533 38.2211 5.976V13H36.7331V4.92ZM47.4086 13H45.9206V4.68H47.4086V13ZM46.6566 3.176C46.39 3.176 46.1606 3.09067 45.9686 2.92C45.7873 2.73867 45.6966 2.49867 45.6966 2.2C45.6966 1.90133 45.7873 1.66667 45.9686 1.496C46.1606 1.31467 46.39 1.224 46.6566 1.224C46.9233 1.224 47.1473 1.31467 47.3286 1.496C47.5206 1.66667 47.6166 1.90133 47.6166 2.2C47.6166 2.49867 47.5206 2.73867 47.3286 2.92C47.1473 3.09067 46.9233 3.176 46.6566 3.176ZM57.3115 8.84C57.3115 9.50133 57.2155 10.0987 57.0235 10.632C56.8315 11.1653 56.5595 11.624 56.2075 12.008C55.8662 12.392 55.4555 12.6907 54.9755 12.904C54.4955 13.1067 53.9728 13.208 53.4075 13.208C52.8422 13.208 52.3195 13.1067 51.8395 12.904C51.3595 12.6907 50.9435 12.392 50.5915 12.008C50.2502 11.624 49.9835 11.1653 49.7915 10.632C49.5995 10.0987 49.5035 9.50133 49.5035 8.84C49.5035 8.18933 49.5995 7.59733 49.7915 7.064C49.9835 6.52 50.2502 6.056 50.5915 5.672C50.9435 5.288 51.3595 4.99467 51.8395 4.792C52.3195 4.57867 52.8422 4.472 53.4075 4.472C53.9728 4.472 54.4955 4.57867 54.9755 4.792C55.4555 4.99467 55.8662 5.288 56.2075 5.672C56.5595 6.056 56.8315 6.52 57.0235 7.064C57.2155 7.59733 57.3115 8.18933 57.3115 8.84ZM55.7595 8.84C55.7595 7.90133 55.5462 7.16 55.1195 6.616C54.7035 6.06133 54.1328 5.784 53.4075 5.784C52.6822 5.784 52.1062 6.06133 51.6795 6.616C51.2635 7.16 51.0555 7.90133 51.0555 8.84C51.0555 9.77867 51.2635 10.5253 51.6795 11.08C52.1062 11.624 52.6822 11.896 53.4075 11.896C54.1328 11.896 54.7035 11.624 55.1195 11.08C55.5462 10.5253 55.7595 9.77867 55.7595 8.84ZM70.6121 1.912V3.256H67.1241V13H65.5721V3.256H62.0841V1.912H70.6121ZM74.2523 11.928C74.6043 11.928 74.9136 11.9227 75.1803 11.912C75.4576 11.8907 75.6869 11.8587 75.8683 11.816V9.336C75.7616 9.28267 75.5856 9.24 75.3403 9.208C75.1056 9.16533 74.8176 9.144 74.4763 9.144C74.2523 9.144 74.0123 9.16 73.7563 9.192C73.5109 9.224 73.2816 9.29333 73.0683 9.4C72.8656 9.496 72.6949 9.63467 72.5563 9.816C72.4176 9.98667 72.3483 10.216 72.3483 10.504C72.3483 11.0373 72.5189 11.4107 72.8603 11.624C73.2016 11.8267 73.6656 11.928 74.2523 11.928ZM74.1243 4.472C74.7216 4.472 75.2229 4.552 75.6283 4.712C76.0443 4.86133 76.3749 5.08 76.6203 5.368C76.8763 5.64533 77.0576 5.98133 77.1643 6.376C77.2709 6.76 77.3243 7.18667 77.3243 7.656V12.856C77.1963 12.8773 77.0149 12.9093 76.7803 12.952C76.5563 12.984 76.3003 13.016 76.0123 13.048C75.7243 13.08 75.4096 13.1067 75.0683 13.128C74.7376 13.16 74.4069 13.176 74.0763 13.176C73.6069 13.176 73.1749 13.128 72.7803 13.032C72.3856 12.936 72.0443 12.7867 71.7563 12.584C71.4683 12.3707 71.2443 12.0933 71.0843 11.752C70.9243 11.4107 70.8443 11 70.8443 10.52C70.8443 10.0613 70.9349 9.66667 71.1163 9.336C71.3083 9.00533 71.5643 8.73867 71.8843 8.536C72.2043 8.33333 72.5776 8.184 73.0043 8.088C73.4309 7.992 73.8789 7.944 74.3483 7.944C74.4976 7.944 74.6523 7.95467 74.8123 7.976C74.9723 7.98667 75.1216 8.008 75.2603 8.04C75.4096 8.06133 75.5376 8.08267 75.6443 8.104C75.7509 8.12533 75.8256 8.14133 75.8683 8.152V7.736C75.8683 7.49067 75.8416 7.25067 75.7883 7.016C75.7349 6.77067 75.6389 6.55733 75.5003 6.376C75.3616 6.184 75.1696 6.03467 74.9243 5.928C74.6896 5.81067 74.3803 5.752 73.9963 5.752C73.5056 5.752 73.0736 5.78933 72.7003 5.864C72.3376 5.928 72.0656 5.99733 71.8843 6.072L71.7083 4.84C71.9003 4.75467 72.2203 4.67467 72.6683 4.6C73.1163 4.51467 73.6016 4.472 74.1243 4.472ZM82.8036 8.424C83.1236 8.66933 83.4596 8.97333 83.8116 9.336C84.1743 9.69867 84.5263 10.0933 84.8676 10.52C85.2196 10.936 85.5503 11.3627 85.8596 11.8C86.169 12.2267 86.4303 12.6267 86.6436 13H84.8996C84.6756 12.6267 84.4143 12.248 84.1156 11.864C83.8276 11.4693 83.5236 11.096 83.2036 10.744C82.8836 10.3813 82.5583 10.0507 82.2276 9.752C81.897 9.45333 81.5823 9.20267 81.2836 9V13H79.7956V0.839999L81.2836 0.584V8.168C81.5396 7.912 81.8223 7.62933 82.1316 7.32C82.441 7.01067 82.745 6.696 83.0436 6.376C83.3423 6.056 83.625 5.752 83.8916 5.464C84.1583 5.16533 84.3876 4.904 84.5796 4.68H86.3236C86.0783 4.94667 85.8116 5.24 85.5236 5.56C85.2356 5.88 84.937 6.20533 84.6276 6.536C84.3183 6.856 84.0036 7.18133 83.6836 7.512C83.3743 7.832 83.081 8.136 82.8036 8.424ZM87.2691 8.856C87.2691 8.12 87.3758 7.48 87.5891 6.936C87.8025 6.38133 88.0851 5.92267 88.4371 5.56C88.7891 5.19733 89.1945 4.92533 89.6531 4.744C90.1118 4.56267 90.5811 4.472 91.0611 4.472C92.1811 4.472 93.0398 4.824 93.6371 5.528C94.2345 6.22133 94.5331 7.28267 94.5331 8.712C94.5331 8.776 94.5331 8.86133 94.5331 8.968C94.5331 9.064 94.5278 9.15467 94.5171 9.24H88.8211C88.8851 10.104 89.1358 10.76 89.5731 11.208C90.0105 11.656 90.6931 11.88 91.6211 11.88C92.1438 11.88 92.5811 11.8373 92.9331 11.752C93.2958 11.656 93.5678 11.5653 93.7491 11.48L93.9571 12.728C93.7758 12.824 93.4558 12.9253 92.9971 13.032C92.5491 13.1387 92.0371 13.192 91.4611 13.192C90.7358 13.192 90.1065 13.0853 89.5731 12.872C89.0505 12.648 88.6185 12.344 88.2771 11.96C87.9358 11.576 87.6798 11.1227 87.5091 10.6C87.3491 10.0667 87.2691 9.48533 87.2691 8.856ZM92.9811 8.04C92.9918 7.368 92.8211 6.81867 92.4691 6.392C92.1278 5.95467 91.6531 5.736 91.0451 5.736C90.7038 5.736 90.3998 5.80533 90.1331 5.944C89.8771 6.072 89.6585 6.24267 89.4771 6.456C89.2958 6.66933 89.1518 6.91467 89.0451 7.192C88.9491 7.46933 88.8851 7.752 88.8531 8.04H92.9811ZM103.167 4.68C102.751 6.23733 102.26 7.73067 101.695 9.16C101.14 10.5893 100.601 11.8693 100.079 13H98.7346C98.212 11.8693 97.668 10.5893 97.1026 9.16C96.548 7.73067 96.0626 6.23733 95.6466 4.68H97.2466C97.3746 5.20267 97.524 5.76267 97.6946 6.36C97.876 6.94667 98.0626 7.53333 98.2546 8.12C98.4573 8.696 98.66 9.256 98.8626 9.8C99.0653 10.344 99.2573 10.8293 99.4386 11.256C99.62 10.8293 99.812 10.344 100.015 9.8C100.217 9.256 100.415 8.696 100.607 8.12C100.809 7.53333 100.996 6.94667 101.167 6.36C101.348 5.76267 101.503 5.20267 101.631 4.68H103.167Z" fill="black"/>
<a href="https://www.linkedin.com/in/antonio-takev-459229167/">
<rect fill="black" fill-opacity="0" y="-0.192" width="103.423" height="18.384"/>
</a>
</svg>
