<svg width="133" height="17" viewBox="0 0 133 17" fill="none" xmlns="http://www.w3.org/2000/svg">
<path d="M10.86 16C10.6733 15.4533 10.48 14.9133 10.28 14.38C10.08 13.8467 9.88667 13.3 9.7 12.74H3.86C3.67333 13.3 3.48 13.8533 3.28 14.4C3.09333 14.9333 2.90667 15.4667 2.72 16H0.1C0.62 14.52 1.11333 13.1533 1.58 11.9C2.04667 10.6467 2.5 9.46 2.94 8.34C3.39333 7.22 3.84 6.15333 4.28 5.14C4.72 4.12667 5.17333 3.12667 5.64 2.14H8.02C8.48667 3.12667 8.94 4.12667 9.38 5.14C9.82 6.15333 10.26 7.22 10.7 8.34C11.1533 9.46 11.6133 10.6467 12.08 11.9C12.56 13.1533 13.06 14.52 13.58 16H10.86ZM6.78 4.82C6.47333 5.52667 6.12 6.38667 5.72 7.4C5.33333 8.41333 4.92667 9.51333 4.5 10.7H9.06C8.63333 9.51333 8.22 8.40667 7.82 7.38C7.42 6.35333 7.07333 5.5 6.78 4.82ZM15.2119 5.88C15.6785 5.74667 16.2852 5.62 17.0319 5.5C17.7785 5.38 18.6052 5.32 19.5119 5.32C20.3652 5.32 21.0785 5.44 21.6519 5.68C22.2252 5.90667 22.6785 6.23333 23.0119 6.66C23.3585 7.07333 23.5985 7.58 23.7319 8.18C23.8785 8.76667 23.9519 9.41333 23.9519 10.12V16H21.5319V10.5C21.5319 9.94 21.4919 9.46667 21.4119 9.08C21.3452 8.68 21.2252 8.36 21.0519 8.12C20.8919 7.86667 20.6652 7.68667 20.3719 7.58C20.0919 7.46 19.7452 7.4 19.3319 7.4C19.0252 7.4 18.7052 7.42 18.3719 7.46C18.0385 7.5 17.7919 7.53333 17.6319 7.56V16H15.2119V5.88ZM26.7911 2.78L29.2111 2.38V5.54H32.9311V7.56H29.2111V11.82C29.2111 12.66 29.3444 13.26 29.6111 13.62C29.8778 13.98 30.3311 14.16 30.9711 14.16C31.4111 14.16 31.7978 14.1133 32.1311 14.02C32.4778 13.9267 32.7511 13.84 32.9511 13.76L33.3511 15.68C33.0711 15.8 32.7044 15.92 32.2511 16.04C31.7978 16.1733 31.2644 16.24 30.6511 16.24C29.9044 16.24 29.2778 16.14 28.7711 15.94C28.2778 15.74 27.8844 15.4533 27.5911 15.08C27.2978 14.6933 27.0911 14.2333 26.9711 13.7C26.8511 13.1533 26.7911 12.5333 26.7911 11.84V2.78ZM44.4961 10.76C44.4961 11.5867 44.3761 12.34 44.1361 13.02C43.8961 13.7 43.5561 14.28 43.1161 14.76C42.6761 15.24 42.1428 15.6133 41.5161 15.88C40.9028 16.1467 40.2228 16.28 39.4761 16.28C38.7294 16.28 38.0494 16.1467 37.4361 15.88C36.8228 15.6133 36.2961 15.24 35.8561 14.76C35.4161 14.28 35.0694 13.7 34.8161 13.02C34.5761 12.34 34.4561 11.5867 34.4561 10.76C34.4561 9.93333 34.5761 9.18667 34.8161 8.52C35.0694 7.84 35.4161 7.26 35.8561 6.78C36.3094 6.3 36.8428 5.93333 37.4561 5.68C38.0694 5.41333 38.7428 5.28 39.4761 5.28C40.2094 5.28 40.8828 5.41333 41.4961 5.68C42.1228 5.93333 42.6561 6.3 43.0961 6.78C43.5361 7.26 43.8761 7.84 44.1161 8.52C44.3694 9.18667 44.4961 9.93333 44.4961 10.76ZM42.0161 10.76C42.0161 9.72 41.7894 8.9 41.3361 8.3C40.8961 7.68667 40.2761 7.38 39.4761 7.38C38.6761 7.38 38.0494 7.68667 37.5961 8.3C37.1561 8.9 36.9361 9.72 36.9361 10.76C36.9361 11.8133 37.1561 12.6467 37.5961 13.26C38.0494 13.8733 38.6761 14.18 39.4761 14.18C40.2761 14.18 40.8961 13.8733 41.3361 13.26C41.7894 12.6467 42.0161 11.8133 42.0161 10.76ZM46.9892 5.88C47.4559 5.74667 48.0626 5.62 48.8092 5.5C49.5559 5.38 50.3826 5.32 51.2892 5.32C52.1426 5.32 52.8559 5.44 53.4292 5.68C54.0026 5.90667 54.4559 6.23333 54.7892 6.66C55.1359 7.07333 55.3759 7.58 55.5092 8.18C55.6559 8.76667 55.7292 9.41333 55.7292 10.12V16H53.3092V10.5C53.3092 9.94 53.2692 9.46667 53.1892 9.08C53.1226 8.68 53.0026 8.36 52.8292 8.12C52.6692 7.86667 52.4426 7.68667 52.1492 7.58C51.8692 7.46 51.5226 7.4 51.1092 7.4C50.8026 7.4 50.4826 7.42 50.1492 7.46C49.8159 7.5 49.5692 7.53333 49.4092 7.56V16H46.9892V5.88ZM61.1284 16H58.7084V5.54H61.1284V16ZM61.3884 2.48C61.3884 2.93333 61.2418 3.29333 60.9484 3.56C60.6551 3.82667 60.3084 3.96 59.9084 3.96C59.4951 3.96 59.1418 3.82667 58.8484 3.56C58.5551 3.29333 58.4084 2.93333 58.4084 2.48C58.4084 2.01333 58.5551 1.64667 58.8484 1.38C59.1418 1.11333 59.4951 0.979999 59.9084 0.979999C60.3084 0.979999 60.6551 1.11333 60.9484 1.38C61.2418 1.64667 61.3884 2.01333 61.3884 2.48ZM73.6758 10.76C73.6758 11.5867 73.5558 12.34 73.3158 13.02C73.0758 13.7 72.7358 14.28 72.2958 14.76C71.8558 15.24 71.3224 15.6133 70.6958 15.88C70.0824 16.1467 69.4024 16.28 68.6558 16.28C67.9091 16.28 67.2291 16.1467 66.6158 15.88C66.0024 15.6133 65.4758 15.24 65.0358 14.76C64.5958 14.28 64.2491 13.7 63.9958 13.02C63.7558 12.34 63.6358 11.5867 63.6358 10.76C63.6358 9.93333 63.7558 9.18667 63.9958 8.52C64.2491 7.84 64.5958 7.26 65.0358 6.78C65.4891 6.3 66.0224 5.93333 66.6358 5.68C67.2491 5.41333 67.9224 5.28 68.6558 5.28C69.3891 5.28 70.0624 5.41333 70.6758 5.68C71.3024 5.93333 71.8358 6.3 72.2758 6.78C72.7158 7.26 73.0558 7.84 73.2958 8.52C73.5491 9.18667 73.6758 9.93333 73.6758 10.76ZM71.1958 10.76C71.1958 9.72 70.9691 8.9 70.5158 8.3C70.0758 7.68667 69.4558 7.38 68.6558 7.38C67.8558 7.38 67.2291 7.68667 66.7758 8.3C66.3358 8.9 66.1158 9.72 66.1158 10.76C66.1158 11.8133 66.3358 12.6467 66.7758 13.26C67.2291 13.8733 67.8558 14.18 68.6558 14.18C69.4558 14.18 70.0758 13.8733 70.5158 13.26C70.9691 12.6467 71.1958 11.8133 71.1958 10.76ZM90.6169 2.14V4.32H86.3569V16H83.8169V4.32H79.5569V2.14H90.6169ZM95.2981 14.3C96.0448 14.3 96.6115 14.26 96.9981 14.18V11.5C96.8648 11.46 96.6715 11.42 96.4181 11.38C96.1648 11.34 95.8848 11.32 95.5781 11.32C95.3115 11.32 95.0381 11.34 94.7581 11.38C94.4915 11.42 94.2448 11.4933 94.0181 11.6C93.8048 11.7067 93.6315 11.86 93.4981 12.06C93.3648 12.2467 93.2981 12.4867 93.2981 12.78C93.2981 13.3533 93.4781 13.7533 93.8381 13.98C94.1981 14.1933 94.6848 14.3 95.2981 14.3ZM95.0981 5.28C95.8981 5.28 96.5715 5.38 97.1181 5.58C97.6648 5.78 98.0981 6.06 98.4181 6.42C98.7515 6.78 98.9848 7.22 99.1181 7.74C99.2648 8.24667 99.3381 8.80667 99.3381 9.42V15.76C98.9648 15.84 98.3981 15.9333 97.6381 16.04C96.8915 16.16 96.0448 16.22 95.0981 16.22C94.4715 16.22 93.8981 16.16 93.3781 16.04C92.8581 15.92 92.4115 15.7267 92.0381 15.46C91.6781 15.1933 91.3915 14.8467 91.1781 14.42C90.9781 13.9933 90.8781 13.4667 90.8781 12.84C90.8781 12.24 90.9915 11.7333 91.2181 11.32C91.4581 10.9067 91.7781 10.5733 92.1781 10.32C92.5781 10.0533 93.0381 9.86667 93.5581 9.76C94.0915 9.64 94.6448 9.58 95.2181 9.58C95.4848 9.58 95.7648 9.6 96.0581 9.64C96.3515 9.66667 96.6648 9.72 96.9981 9.8V9.4C96.9981 9.12 96.9648 8.85333 96.8981 8.6C96.8315 8.34667 96.7115 8.12667 96.5381 7.94C96.3781 7.74 96.1581 7.58667 95.8781 7.48C95.6115 7.37333 95.2715 7.32 94.8581 7.32C94.2981 7.32 93.7848 7.36 93.3181 7.44C92.8515 7.52 92.4715 7.61333 92.1781 7.72L91.8781 5.76C92.1848 5.65333 92.6315 5.54667 93.2181 5.44C93.8048 5.33333 94.4315 5.28 95.0981 5.28ZM104.722 9.62C105.028 9.3 105.355 8.96 105.702 8.6C106.048 8.22667 106.388 7.86 106.722 7.5C107.055 7.12667 107.368 6.77333 107.662 6.44C107.968 6.09333 108.228 5.79333 108.442 5.54H111.302C110.635 6.28667 109.928 7.06 109.182 7.86C108.448 8.66 107.708 9.44 106.962 10.2C107.362 10.5333 107.782 10.94 108.222 11.42C108.662 11.8867 109.088 12.3867 109.502 12.92C109.915 13.4533 110.302 13.9867 110.662 14.52C111.022 15.0533 111.322 15.5467 111.562 16H108.762C108.522 15.5867 108.242 15.1533 107.922 14.7C107.615 14.2467 107.282 13.8067 106.922 13.38C106.562 12.9533 106.195 12.5533 105.822 12.18C105.448 11.7933 105.082 11.4667 104.722 11.2V16H102.302V0.879999L104.722 0.48V9.62ZM112.269 10.82C112.269 9.9 112.402 9.09333 112.669 8.4C112.949 7.70667 113.315 7.13333 113.769 6.68C114.222 6.21333 114.742 5.86667 115.329 5.64C115.915 5.4 116.515 5.28 117.129 5.28C118.569 5.28 119.689 5.72667 120.489 6.62C121.302 7.51333 121.709 8.84667 121.709 10.62C121.709 10.7533 121.702 10.9067 121.689 11.08C121.689 11.24 121.682 11.3867 121.669 11.52H114.769C114.835 12.36 115.129 13.0133 115.649 13.48C116.182 13.9333 116.949 14.16 117.949 14.16C118.535 14.16 119.069 14.1067 119.549 14C120.042 13.8933 120.429 13.78 120.709 13.66L121.029 15.64C120.895 15.7067 120.709 15.78 120.469 15.86C120.242 15.9267 119.975 15.9867 119.669 16.04C119.375 16.1067 119.055 16.16 118.709 16.2C118.362 16.24 118.009 16.26 117.649 16.26C116.729 16.26 115.929 16.1267 115.249 15.86C114.569 15.58 114.009 15.2 113.569 14.72C113.129 14.2267 112.802 13.6533 112.589 13C112.375 12.3333 112.269 11.6067 112.269 10.82ZM119.289 9.74C119.289 9.40667 119.242 9.09333 119.149 8.8C119.055 8.49333 118.915 8.23333 118.729 8.02C118.555 7.79333 118.335 7.62 118.069 7.5C117.815 7.36667 117.509 7.3 117.149 7.3C116.775 7.3 116.449 7.37333 116.169 7.52C115.889 7.65333 115.649 7.83333 115.449 8.06C115.262 8.28667 115.115 8.54667 115.009 8.84C114.902 9.13333 114.829 9.43333 114.789 9.74H119.289ZM126.954 16C126.288 14.6267 125.601 13.0533 124.894 11.28C124.201 9.49333 123.568 7.58 122.994 5.54H125.574C125.721 6.12667 125.888 6.76 126.074 7.44C126.274 8.10667 126.481 8.78 126.694 9.46C126.921 10.1267 127.148 10.78 127.374 11.42C127.614 12.0467 127.834 12.6133 128.034 13.12C128.234 12.6133 128.448 12.0467 128.674 11.42C128.901 10.78 129.121 10.1267 129.334 9.46C129.561 8.78 129.774 8.10667 129.974 7.44C130.174 6.76 130.348 6.12667 130.494 5.54H132.994C132.421 7.58 131.781 9.49333 131.074 11.28C130.381 13.0533 129.701 14.6267 129.034 16H126.954Z" fill="black"/>
</svg>
