<svg width="195" height="16" viewBox="0 0 195 16" fill="none" xmlns="http://www.w3.org/2000/svg">
<path d="M4.896 13.192C4.224 13.192 3.632 13.0853 3.12 12.872C2.61867 12.6587 2.192 12.36 1.84 11.976C1.49867 11.592 1.24267 11.1387 1.072 10.616C0.901333 10.0827 0.816 9.496 0.816 8.856C0.816 8.216 0.906667 7.62933 1.088 7.096C1.28 6.56267 1.54667 6.104 1.888 5.72C2.22933 5.32533 2.64533 5.02133 3.136 4.808C3.63733 4.584 4.192 4.472 4.8 4.472C5.17333 4.472 5.54667 4.504 5.92 4.568C6.29333 4.632 6.65067 4.73333 6.992 4.872L6.656 6.136C6.432 6.02933 6.17067 5.944 5.872 5.88C5.584 5.816 5.27467 5.784 4.944 5.784C4.112 5.784 3.472 6.04533 3.024 6.568C2.58667 7.09067 2.368 7.85333 2.368 8.856C2.368 9.304 2.416 9.71467 2.512 10.088C2.61867 10.4613 2.77867 10.7813 2.992 11.048C3.216 11.3147 3.49867 11.5227 3.84 11.672C4.18133 11.8107 4.59733 11.88 5.088 11.88C5.48267 11.88 5.84 11.8427 6.16 11.768C6.48 11.6933 6.73067 11.6133 6.912 11.528L7.12 12.776C7.03467 12.8293 6.912 12.8827 6.752 12.936C6.592 12.9787 6.41067 13.016 6.208 13.048C6.00533 13.0907 5.78667 13.1227 5.552 13.144C5.328 13.176 5.10933 13.192 4.896 13.192ZM8.7175 13V0.839999L10.2055 0.584V4.84C10.4828 4.73333 10.7762 4.65333 11.0855 4.6C11.4055 4.536 11.7202 4.504 12.0295 4.504C12.6908 4.504 13.2402 4.6 13.6775 4.792C14.1148 4.97333 14.4615 5.23467 14.7175 5.576C14.9842 5.90667 15.1708 6.30667 15.2775 6.776C15.3842 7.24533 15.4375 7.76267 15.4375 8.328V13H13.9495V8.648C13.9495 8.136 13.9122 7.69867 13.8375 7.336C13.7735 6.97333 13.6615 6.68 13.5015 6.456C13.3415 6.232 13.1282 6.072 12.8615 5.976C12.5948 5.86933 12.2642 5.816 11.8695 5.816C11.7095 5.816 11.5442 5.82667 11.3735 5.848C11.2028 5.86933 11.0375 5.896 10.8775 5.928C10.7282 5.94933 10.5895 5.976 10.4615 6.008C10.3442 6.04 10.2588 6.06667 10.2055 6.088V13H8.7175ZM17.3941 8.856C17.3941 8.12 17.5008 7.48 17.7141 6.936C17.9275 6.38133 18.2101 5.92267 18.5621 5.56C18.9141 5.19733 19.3195 4.92533 19.7781 4.744C20.2368 4.56267 20.7061 4.472 21.1861 4.472C22.3061 4.472 23.1648 4.824 23.7621 5.528C24.3595 6.22133 24.6581 7.28267 24.6581 8.712C24.6581 8.776 24.6581 8.86133 24.6581 8.968C24.6581 9.064 24.6528 9.15467 24.6421 9.24H18.9461C19.0101 10.104 19.2608 10.76 19.6981 11.208C20.1355 11.656 20.8181 11.88 21.7461 11.88C22.2688 11.88 22.7061 11.8373 23.0581 11.752C23.4208 11.656 23.6928 11.5653 23.8741 11.48L24.0821 12.728C23.9008 12.824 23.5808 12.9253 23.1221 13.032C22.6741 13.1387 22.1621 13.192 21.5861 13.192C20.8608 13.192 20.2315 13.0853 19.6981 12.872C19.1755 12.648 18.7435 12.344 18.4021 11.96C18.0608 11.576 17.8048 11.1227 17.6341 10.6C17.4741 10.0667 17.3941 9.48533 17.3941 8.856ZM23.1061 8.04C23.1168 7.368 22.9461 6.81867 22.5941 6.392C22.2528 5.95467 21.7781 5.736 21.1701 5.736C20.8288 5.736 20.5248 5.80533 20.2581 5.944C20.0021 6.072 19.7835 6.24267 19.6021 6.456C19.4208 6.66933 19.2768 6.91467 19.1701 7.192C19.0741 7.46933 19.0101 7.752 18.9781 8.04H23.1061ZM29.8676 4.504C29.9956 4.504 30.1396 4.51467 30.2996 4.536C30.4703 4.54667 30.6356 4.568 30.7956 4.6C30.9556 4.62133 31.0996 4.648 31.2276 4.68C31.3663 4.70133 31.4676 4.72267 31.5316 4.744L31.2756 6.04C31.1583 5.99733 30.961 5.94933 30.6836 5.896C30.417 5.832 30.0703 5.8 29.6436 5.8C29.3663 5.8 29.089 5.832 28.8116 5.896C28.545 5.94933 28.369 5.98667 28.2836 6.008V13H26.7956V5.032C27.1476 4.904 27.585 4.78667 28.1076 4.68C28.6303 4.56267 29.217 4.504 29.8676 4.504ZM32.9675 4.92C33.3088 4.83467 33.7622 4.744 34.3275 4.648C34.8928 4.552 35.5435 4.504 36.2795 4.504C36.9408 4.504 37.4902 4.6 37.9275 4.792C38.3648 4.97333 38.7115 5.23467 38.9675 5.576C39.2342 5.90667 39.4208 6.30667 39.5275 6.776C39.6342 7.24533 39.6875 7.76267 39.6875 8.328V13H38.1995V8.648C38.1995 8.136 38.1622 7.69867 38.0875 7.336C38.0235 6.97333 37.9115 6.68 37.7515 6.456C37.5915 6.232 37.3782 6.072 37.1115 5.976C36.8448 5.86933 36.5142 5.816 36.1195 5.816C35.9595 5.816 35.7942 5.82133 35.6235 5.832C35.4528 5.84267 35.2875 5.85867 35.1275 5.88C34.9782 5.89067 34.8395 5.90667 34.7115 5.928C34.5942 5.94933 34.5088 5.96533 34.4555 5.976V13H32.9675V4.92ZM44.971 11.928C45.323 11.928 45.6323 11.9227 45.899 11.912C46.1763 11.8907 46.4057 11.8587 46.587 11.816V9.336C46.4803 9.28267 46.3043 9.24 46.059 9.208C45.8243 9.16533 45.5363 9.144 45.195 9.144C44.971 9.144 44.731 9.16 44.475 9.192C44.2297 9.224 44.0003 9.29333 43.787 9.4C43.5843 9.496 43.4137 9.63467 43.275 9.816C43.1363 9.98667 43.067 10.216 43.067 10.504C43.067 11.0373 43.2377 11.4107 43.579 11.624C43.9203 11.8267 44.3843 11.928 44.971 11.928ZM44.843 4.472C45.4403 4.472 45.9417 4.552 46.347 4.712C46.763 4.86133 47.0937 5.08 47.339 5.368C47.595 5.64533 47.7763 5.98133 47.883 6.376C47.9897 6.76 48.043 7.18667 48.043 7.656V12.856C47.915 12.8773 47.7337 12.9093 47.499 12.952C47.275 12.984 47.019 13.016 46.731 13.048C46.443 13.08 46.1283 13.1067 45.787 13.128C45.4563 13.16 45.1257 13.176 44.795 13.176C44.3257 13.176 43.8937 13.128 43.499 13.032C43.1043 12.936 42.763 12.7867 42.475 12.584C42.187 12.3707 41.963 12.0933 41.803 11.752C41.643 11.4107 41.563 11 41.563 10.52C41.563 10.0613 41.6537 9.66667 41.835 9.336C42.027 9.00533 42.283 8.73867 42.603 8.536C42.923 8.33333 43.2963 8.184 43.723 8.088C44.1497 7.992 44.5977 7.944 45.067 7.944C45.2163 7.944 45.371 7.95467 45.531 7.976C45.691 7.98667 45.8403 8.008 45.979 8.04C46.1283 8.06133 46.2563 8.08267 46.363 8.104C46.4697 8.12533 46.5443 8.14133 46.587 8.152V7.736C46.587 7.49067 46.5603 7.25067 46.507 7.016C46.4537 6.77067 46.3577 6.55733 46.219 6.376C46.0803 6.184 45.8883 6.03467 45.643 5.928C45.4083 5.81067 45.099 5.752 44.715 5.752C44.2243 5.752 43.7923 5.78933 43.419 5.864C43.0563 5.928 42.7843 5.99733 42.603 6.072L42.427 4.84C42.619 4.75467 42.939 4.67467 43.387 4.6C43.835 4.51467 44.3203 4.472 44.843 4.472ZM50.0504 8.856C50.0504 8.12 50.157 7.48 50.3704 6.936C50.5837 6.38133 50.8664 5.92267 51.2184 5.56C51.5704 5.19733 51.9757 4.92533 52.4344 4.744C52.893 4.56267 53.3624 4.472 53.8424 4.472C54.9624 4.472 55.821 4.824 56.4184 5.528C57.0157 6.22133 57.3144 7.28267 57.3144 8.712C57.3144 8.776 57.3144 8.86133 57.3144 8.968C57.3144 9.064 57.309 9.15467 57.2984 9.24H51.6024C51.6664 10.104 51.917 10.76 52.3544 11.208C52.7917 11.656 53.4744 11.88 54.4024 11.88C54.925 11.88 55.3624 11.8373 55.7144 11.752C56.077 11.656 56.349 11.5653 56.5304 11.48L56.7384 12.728C56.557 12.824 56.237 12.9253 55.7784 13.032C55.3304 13.1387 54.8184 13.192 54.2424 13.192C53.517 13.192 52.8877 13.0853 52.3544 12.872C51.8317 12.648 51.3997 12.344 51.0584 11.96C50.717 11.576 50.461 11.1227 50.2904 10.6C50.1304 10.0667 50.0504 9.48533 50.0504 8.856ZM55.7624 8.04C55.773 7.368 55.6024 6.81867 55.2504 6.392C54.909 5.95467 54.4344 5.736 53.8264 5.736C53.485 5.736 53.181 5.80533 52.9144 5.944C52.6584 6.072 52.4397 6.24267 52.2584 6.456C52.077 6.66933 51.933 6.91467 51.8264 7.192C51.7304 7.46933 51.6664 7.752 51.6344 8.04H55.7624ZM65.9479 4.68C65.5319 6.23733 65.0412 7.73067 64.4759 9.16C63.9212 10.5893 63.3825 11.8693 62.8599 13H61.5159C60.9932 11.8693 60.4492 10.5893 59.8839 9.16C59.3292 7.73067 58.8439 6.23733 58.4279 4.68H60.0279C60.1559 5.20267 60.3052 5.76267 60.4759 6.36C60.6572 6.94667 60.8439 7.53333 61.0359 8.12C61.2385 8.696 61.4412 9.256 61.6439 9.8C61.8465 10.344 62.0385 10.8293 62.2199 11.256C62.4012 10.8293 62.5932 10.344 62.7959 9.8C62.9985 9.256 63.1959 8.696 63.3879 8.12C63.5905 7.53333 63.7772 6.94667 63.9479 6.36C64.1292 5.76267 64.2839 5.20267 64.4119 4.68H65.9479ZM70.2991 11.928C70.6511 11.928 70.9605 11.9227 71.2271 11.912C71.5045 11.8907 71.7338 11.8587 71.9151 11.816V9.336C71.8085 9.28267 71.6325 9.24 71.3871 9.208C71.1525 9.16533 70.8645 9.144 70.5231 9.144C70.2991 9.144 70.0591 9.16 69.8031 9.192C69.5578 9.224 69.3285 9.29333 69.1151 9.4C68.9125 9.496 68.7418 9.63467 68.6031 9.816C68.4645 9.98667 68.3951 10.216 68.3951 10.504C68.3951 11.0373 68.5658 11.4107 68.9071 11.624C69.2485 11.8267 69.7125 11.928 70.2991 11.928ZM70.1711 4.472C70.7685 4.472 71.2698 4.552 71.6751 4.712C72.0911 4.86133 72.4218 5.08 72.6671 5.368C72.9231 5.64533 73.1045 5.98133 73.2111 6.376C73.3178 6.76 73.3711 7.18667 73.3711 7.656V12.856C73.2431 12.8773 73.0618 12.9093 72.8271 12.952C72.6031 12.984 72.3471 13.016 72.0591 13.048C71.7711 13.08 71.4565 13.1067 71.1151 13.128C70.7845 13.16 70.4538 13.176 70.1231 13.176C69.6538 13.176 69.2218 13.128 68.8271 13.032C68.4325 12.936 68.0911 12.7867 67.8031 12.584C67.5151 12.3707 67.2911 12.0933 67.1311 11.752C66.9711 11.4107 66.8911 11 66.8911 10.52C66.8911 10.0613 66.9818 9.66667 67.1631 9.336C67.3551 9.00533 67.6111 8.73867 67.9311 8.536C68.2511 8.33333 68.6245 8.184 69.0511 8.088C69.4778 7.992 69.9258 7.944 70.3951 7.944C70.5445 7.944 70.6991 7.95467 70.8591 7.976C71.0191 7.98667 71.1685 8.008 71.3071 8.04C71.4565 8.06133 71.5845 8.08267 71.6911 8.104C71.7978 8.12533 71.8725 8.14133 71.9151 8.152V7.736C71.9151 7.49067 71.8885 7.25067 71.8351 7.016C71.7818 6.77067 71.6858 6.55733 71.5471 6.376C71.4085 6.184 71.2165 6.03467 70.9711 5.928C70.7365 5.81067 70.4271 5.752 70.0431 5.752C69.5525 5.752 69.1205 5.78933 68.7471 5.864C68.3845 5.928 68.1125 5.99733 67.9311 6.072L67.7551 4.84C67.9471 4.75467 68.2671 4.67467 68.7151 4.6C69.1631 4.51467 69.6485 4.472 70.1711 4.472ZM75.8425 4.92C76.1838 4.83467 76.6372 4.744 77.2025 4.648C77.7678 4.552 78.4185 4.504 79.1545 4.504C79.8158 4.504 80.3652 4.6 80.8025 4.792C81.2398 4.97333 81.5865 5.23467 81.8425 5.576C82.1092 5.90667 82.2958 6.30667 82.4025 6.776C82.5092 7.24533 82.5625 7.76267 82.5625 8.328V13H81.0745V8.648C81.0745 8.136 81.0372 7.69867 80.9625 7.336C80.8985 6.97333 80.7865 6.68 80.6265 6.456C80.4665 6.232 80.2532 6.072 79.9865 5.976C79.7198 5.86933 79.3892 5.816 78.9945 5.816C78.8345 5.816 78.6692 5.82133 78.4985 5.832C78.3278 5.84267 78.1625 5.85867 78.0025 5.88C77.8532 5.89067 77.7145 5.90667 77.5865 5.928C77.4692 5.94933 77.3838 5.96533 77.3305 5.976V13H75.8425V4.92ZM90.246 12.168C90.118 12.2533 89.8673 12.3653 89.494 12.504C89.1313 12.632 88.7047 12.696 88.214 12.696C87.7127 12.696 87.238 12.616 86.79 12.456C86.3527 12.296 85.9687 12.0507 85.638 11.72C85.3073 11.3787 85.046 10.9573 84.854 10.456C84.662 9.95467 84.566 9.35733 84.566 8.664C84.566 8.056 84.6567 7.50133 84.838 7C85.0193 6.488 85.2807 6.05067 85.622 5.688C85.974 5.31467 86.4007 5.02667 86.902 4.824C87.4033 4.61067 87.9687 4.504 88.598 4.504C89.2913 4.504 89.894 4.55733 90.406 4.664C90.9287 4.76 91.366 4.85067 91.718 4.936V12.36C91.718 13.64 91.3873 14.568 90.726 15.144C90.0647 15.72 89.062 16.008 87.718 16.008C87.1953 16.008 86.6993 15.9653 86.23 15.88C85.7713 15.7947 85.3713 15.6933 85.03 15.576L85.302 14.28C85.6007 14.3973 85.9633 14.4987 86.39 14.584C86.8273 14.68 87.2807 14.728 87.75 14.728C88.6353 14.728 89.27 14.552 89.654 14.2C90.0487 13.848 90.246 13.288 90.246 12.52V12.168ZM90.23 5.992C90.0807 5.94933 89.878 5.912 89.622 5.88C89.3767 5.83733 89.0407 5.816 88.614 5.816C87.814 5.816 87.1953 6.07733 86.758 6.6C86.3313 7.12267 86.118 7.816 86.118 8.68C86.118 9.16 86.1767 9.57067 86.294 9.912C86.422 10.2533 86.5873 10.536 86.79 10.76C87.0033 10.984 87.2433 11.1493 87.51 11.256C87.7873 11.3627 88.07 11.416 88.358 11.416C88.7527 11.416 89.1153 11.3627 89.446 11.256C89.7767 11.1387 90.038 11.0053 90.23 10.856V5.992ZM93.816 8.856C93.816 8.12 93.9227 7.48 94.136 6.936C94.3493 6.38133 94.632 5.92267 94.984 5.56C95.336 5.19733 95.7413 4.92533 96.2 4.744C96.6587 4.56267 97.128 4.472 97.608 4.472C98.728 4.472 99.5867 4.824 100.184 5.528C100.781 6.22133 101.08 7.28267 101.08 8.712C101.08 8.776 101.08 8.86133 101.08 8.968C101.08 9.064 101.075 9.15467 101.064 9.24H95.368C95.432 10.104 95.6827 10.76 96.12 11.208C96.5573 11.656 97.24 11.88 98.168 11.88C98.6907 11.88 99.128 11.8373 99.48 11.752C99.8427 11.656 100.115 11.5653 100.296 11.48L100.504 12.728C100.323 12.824 100.003 12.9253 99.544 13.032C99.096 13.1387 98.584 13.192 98.008 13.192C97.2827 13.192 96.6533 13.0853 96.12 12.872C95.5973 12.648 95.1653 12.344 94.824 11.96C94.4827 11.576 94.2267 11.1227 94.056 10.6C93.896 10.0667 93.816 9.48533 93.816 8.856ZM99.528 8.04C99.5387 7.368 99.368 6.81867 99.016 6.392C98.6747 5.95467 98.2 5.736 97.592 5.736C97.2507 5.736 96.9467 5.80533 96.68 5.944C96.424 6.072 96.2053 6.24267 96.024 6.456C95.8427 6.66933 95.6987 6.91467 95.592 7.192C95.496 7.46933 95.432 7.752 95.4 8.04H99.528ZM105.714 13.16C104.796 13.1387 104.146 12.9413 103.762 12.568C103.378 12.1947 103.186 11.6133 103.186 10.824V0.839999L104.674 0.584V10.584C104.674 10.8293 104.695 11.032 104.738 11.192C104.78 11.352 104.85 11.48 104.946 11.576C105.042 11.672 105.17 11.7467 105.33 11.8C105.49 11.8427 105.687 11.88 105.922 11.912L105.714 13.16ZM117.353 12.312C117.011 12.312 116.729 12.264 116.505 12.168C116.281 12.072 116.094 11.944 115.945 11.784C115.71 11.912 115.427 12.024 115.097 12.12C114.766 12.2053 114.435 12.248 114.105 12.248C113.593 12.248 113.123 12.168 112.697 12.008C112.281 11.848 111.918 11.6133 111.609 11.304C111.299 10.984 111.059 10.5947 110.889 10.136C110.718 9.67733 110.633 9.144 110.633 8.536C110.633 8.024 110.713 7.544 110.873 7.096C111.033 6.63733 111.267 6.24267 111.577 5.912C111.897 5.57067 112.281 5.304 112.729 5.112C113.187 4.92 113.705 4.824 114.281 4.824C114.825 4.824 115.321 4.86667 115.769 4.952C116.227 5.03733 116.579 5.12267 116.825 5.208V10.104C116.825 10.4453 116.883 10.6853 117.001 10.824C117.118 10.9627 117.273 11.032 117.465 11.032C117.742 11.032 117.982 10.936 118.185 10.744C118.398 10.552 118.569 10.3013 118.697 9.992C118.835 9.68267 118.937 9.336 119.001 8.952C119.065 8.55733 119.097 8.15733 119.097 7.752C119.097 7.08 118.979 6.45067 118.745 5.864C118.51 5.26667 118.174 4.744 117.737 4.296C117.299 3.848 116.766 3.496 116.137 3.24C115.518 2.984 114.819 2.856 114.041 2.856C113.262 2.856 112.547 2.98933 111.897 3.256C111.246 3.512 110.686 3.88533 110.217 4.376C109.747 4.856 109.379 5.448 109.113 6.152C108.857 6.856 108.729 7.656 108.729 8.552C108.729 9.49067 108.867 10.3173 109.145 11.032C109.422 11.736 109.806 12.328 110.297 12.808C110.798 13.2773 111.385 13.6293 112.057 13.864C112.739 14.1093 113.486 14.232 114.297 14.232C114.926 14.232 115.443 14.1947 115.849 14.12C116.265 14.0453 116.531 13.9867 116.649 13.944L116.809 15.128C116.627 15.192 116.297 15.2613 115.817 15.336C115.347 15.4107 114.841 15.448 114.297 15.448C113.347 15.448 112.451 15.3093 111.609 15.032C110.766 14.7653 110.03 14.3493 109.401 13.784C108.771 13.2293 108.27 12.52 107.897 11.656C107.534 10.7813 107.353 9.74667 107.353 8.552C107.353 7.4 107.534 6.392 107.897 5.528C108.259 4.664 108.745 3.94933 109.353 3.384C109.971 2.808 110.681 2.376 111.481 2.088C112.291 1.8 113.145 1.656 114.041 1.656C114.915 1.656 115.742 1.8 116.521 2.088C117.299 2.36533 117.982 2.776 118.569 3.32C119.155 3.85333 119.619 4.504 119.961 5.272C120.302 6.02933 120.473 6.888 120.473 7.848C120.473 8.57333 120.387 9.21333 120.217 9.768C120.057 10.3227 119.838 10.792 119.561 11.176C119.283 11.5493 118.953 11.832 118.569 12.024C118.185 12.216 117.779 12.312 117.353 12.312ZM114.153 11.016C114.377 11.016 114.601 10.9947 114.825 10.952C115.059 10.8987 115.267 10.824 115.449 10.728C115.417 10.5893 115.395 10.4507 115.385 10.312C115.374 10.1733 115.369 10.04 115.369 9.912V6.152C115.305 6.13067 115.182 6.10933 115.001 6.088C114.819 6.06667 114.617 6.056 114.392 6.056C113.635 6.056 113.07 6.29067 112.697 6.76C112.323 7.22933 112.137 7.82133 112.137 8.536C112.137 9.29333 112.318 9.896 112.681 10.344C113.043 10.792 113.534 11.016 114.153 11.016ZM128.012 12.168C127.884 12.2533 127.633 12.3653 127.26 12.504C126.897 12.632 126.47 12.696 125.98 12.696C125.478 12.696 125.004 12.616 124.556 12.456C124.118 12.296 123.734 12.0507 123.404 11.72C123.073 11.3787 122.812 10.9573 122.62 10.456C122.428 9.95467 122.332 9.35733 122.332 8.664C122.332 8.056 122.422 7.50133 122.604 7C122.785 6.488 123.046 6.05067 123.388 5.688C123.74 5.31467 124.166 5.02667 124.668 4.824C125.169 4.61067 125.734 4.504 126.364 4.504C127.057 4.504 127.66 4.55733 128.172 4.664C128.694 4.76 129.132 4.85067 129.484 4.936V12.36C129.484 13.64 129.153 14.568 128.492 15.144C127.83 15.72 126.828 16.008 125.484 16.008C124.961 16.008 124.465 15.9653 123.996 15.88C123.537 15.7947 123.137 15.6933 122.796 15.576L123.068 14.28C123.366 14.3973 123.729 14.4987 124.156 14.584C124.593 14.68 125.046 14.728 125.516 14.728C126.401 14.728 127.036 14.552 127.42 14.2C127.814 13.848 128.012 13.288 128.012 12.52V12.168ZM127.996 5.992C127.846 5.94933 127.644 5.912 127.388 5.88C127.142 5.83733 126.806 5.816 126.38 5.816C125.58 5.816 124.961 6.07733 124.524 6.6C124.097 7.12267 123.884 7.816 123.884 8.68C123.884 9.16 123.942 9.57067 124.06 9.912C124.188 10.2533 124.353 10.536 124.556 10.76C124.769 10.984 125.009 11.1493 125.276 11.256C125.553 11.3627 125.836 11.416 126.124 11.416C126.518 11.416 126.881 11.3627 127.212 11.256C127.542 11.1387 127.804 11.0053 127.996 10.856V5.992ZM132.046 4.92C132.387 4.83467 132.835 4.744 133.39 4.648C133.955 4.552 134.606 4.504 135.342 4.504C135.875 4.504 136.323 4.57867 136.686 4.728C137.048 4.86667 137.352 5.07467 137.598 5.352C137.672 5.29867 137.79 5.224 137.95 5.128C138.11 5.032 138.307 4.94133 138.542 4.856C138.776 4.76 139.038 4.68 139.326 4.616C139.614 4.54133 139.923 4.504 140.254 4.504C140.894 4.504 141.416 4.6 141.822 4.792C142.227 4.97333 142.542 5.23467 142.766 5.576C143 5.91733 143.155 6.32267 143.23 6.792C143.315 7.26133 143.358 7.77333 143.358 8.328V13H141.87V8.648C141.87 8.15733 141.843 7.736 141.79 7.384C141.747 7.032 141.656 6.73867 141.518 6.504C141.39 6.26933 141.208 6.09867 140.974 5.992C140.75 5.87467 140.456 5.816 140.094 5.816C139.592 5.816 139.176 5.88533 138.846 6.024C138.526 6.152 138.307 6.26933 138.19 6.376C138.275 6.65333 138.339 6.95733 138.382 7.288C138.424 7.61867 138.446 7.96533 138.446 8.328V13H136.958V8.648C136.958 8.15733 136.931 7.736 136.878 7.384C136.824 7.032 136.728 6.73867 136.59 6.504C136.462 6.26933 136.28 6.09867 136.046 5.992C135.822 5.87467 135.534 5.816 135.182 5.816C135.032 5.816 134.872 5.82133 134.702 5.832C134.531 5.84267 134.366 5.85867 134.206 5.88C134.056 5.89067 133.918 5.90667 133.79 5.928C133.662 5.94933 133.576 5.96533 133.534 5.976V13H132.046V4.92ZM148.643 11.928C148.995 11.928 149.304 11.9227 149.571 11.912C149.848 11.8907 150.078 11.8587 150.259 11.816V9.336C150.152 9.28267 149.976 9.24 149.731 9.208C149.496 9.16533 149.208 9.144 148.867 9.144C148.643 9.144 148.403 9.16 148.147 9.192C147.902 9.224 147.672 9.29333 147.459 9.4C147.256 9.496 147.086 9.63467 146.947 9.816C146.808 9.98667 146.739 10.216 146.739 10.504C146.739 11.0373 146.91 11.4107 147.251 11.624C147.592 11.8267 148.056 11.928 148.643 11.928ZM148.515 4.472C149.112 4.472 149.614 4.552 150.019 4.712C150.435 4.86133 150.766 5.08 151.011 5.368C151.267 5.64533 151.448 5.98133 151.555 6.376C151.662 6.76 151.715 7.18667 151.715 7.656V12.856C151.587 12.8773 151.406 12.9093 151.171 12.952C150.947 12.984 150.691 13.016 150.403 13.048C150.115 13.08 149.8 13.1067 149.459 13.128C149.128 13.16 148.798 13.176 148.467 13.176C147.998 13.176 147.566 13.128 147.171 13.032C146.776 12.936 146.435 12.7867 146.147 12.584C145.859 12.3707 145.635 12.0933 145.475 11.752C145.315 11.4107 145.235 11 145.235 10.52C145.235 10.0613 145.326 9.66667 145.507 9.336C145.699 9.00533 145.955 8.73867 146.275 8.536C146.595 8.33333 146.968 8.184 147.395 8.088C147.822 7.992 148.27 7.944 148.739 7.944C148.888 7.944 149.043 7.95467 149.203 7.976C149.363 7.98667 149.512 8.008 149.651 8.04C149.8 8.06133 149.928 8.08267 150.035 8.104C150.142 8.12533 150.216 8.14133 150.259 8.152V7.736C150.259 7.49067 150.232 7.25067 150.179 7.016C150.126 6.77067 150.03 6.55733 149.891 6.376C149.752 6.184 149.56 6.03467 149.315 5.928C149.08 5.81067 148.771 5.752 148.387 5.752C147.896 5.752 147.464 5.78933 147.091 5.864C146.728 5.928 146.456 5.99733 146.275 6.072L146.099 4.84C146.291 4.75467 146.611 4.67467 147.059 4.6C147.507 4.51467 147.992 4.472 148.515 4.472ZM155.674 13H154.186V4.68H155.674V13ZM154.922 3.176C154.656 3.176 154.426 3.09067 154.234 2.92C154.053 2.73867 153.962 2.49867 153.962 2.2C153.962 1.90133 154.053 1.66667 154.234 1.496C154.426 1.31467 154.656 1.224 154.922 1.224C155.189 1.224 155.413 1.31467 155.594 1.496C155.786 1.66667 155.882 1.90133 155.882 2.2C155.882 2.49867 155.786 2.73867 155.594 2.92C155.413 3.09067 155.189 3.176 154.922 3.176ZM160.729 13.16C159.812 13.1387 159.161 12.9413 158.777 12.568C158.393 12.1947 158.201 11.6133 158.201 10.824V0.839999L159.689 0.584V10.584C159.689 10.8293 159.71 11.032 159.753 11.192C159.796 11.352 159.865 11.48 159.961 11.576C160.057 11.672 160.185 11.7467 160.345 11.8C160.505 11.8427 160.702 11.88 160.937 11.912L160.729 13.16ZM164.368 12.136C164.368 12.424 164.272 12.6747 164.08 12.888C163.888 13.1013 163.627 13.208 163.296 13.208C162.965 13.208 162.704 13.1013 162.512 12.888C162.32 12.6747 162.224 12.424 162.224 12.136C162.224 11.848 162.32 11.5973 162.512 11.384C162.704 11.1707 162.965 11.064 163.296 11.064C163.627 11.064 163.888 11.1707 164.08 11.384C164.272 11.5973 164.368 11.848 164.368 12.136ZM170.162 13.192C169.49 13.192 168.898 13.0853 168.386 12.872C167.884 12.6587 167.458 12.36 167.106 11.976C166.764 11.592 166.508 11.1387 166.338 10.616C166.167 10.0827 166.082 9.496 166.082 8.856C166.082 8.216 166.172 7.62933 166.354 7.096C166.546 6.56267 166.812 6.104 167.154 5.72C167.495 5.32533 167.911 5.02133 168.402 4.808C168.903 4.584 169.458 4.472 170.066 4.472C170.439 4.472 170.812 4.504 171.186 4.568C171.559 4.632 171.916 4.73333 172.258 4.872L171.922 6.136C171.698 6.02933 171.436 5.944 171.138 5.88C170.85 5.816 170.54 5.784 170.21 5.784C169.378 5.784 168.738 6.04533 168.29 6.568C167.852 7.09067 167.634 7.85333 167.634 8.856C167.634 9.304 167.682 9.71467 167.778 10.088C167.884 10.4613 168.044 10.7813 168.258 11.048C168.482 11.3147 168.764 11.5227 169.106 11.672C169.447 11.8107 169.863 11.88 170.354 11.88C170.748 11.88 171.106 11.8427 171.426 11.768C171.746 11.6933 171.996 11.6133 172.178 11.528L172.386 12.776C172.3 12.8293 172.178 12.8827 172.018 12.936C171.858 12.9787 171.676 13.016 171.474 13.048C171.271 13.0907 171.052 13.1227 170.818 13.144C170.594 13.176 170.375 13.192 170.162 13.192ZM181.124 8.84C181.124 9.50133 181.028 10.0987 180.836 10.632C180.644 11.1653 180.372 11.624 180.02 12.008C179.679 12.392 179.268 12.6907 178.788 12.904C178.308 13.1067 177.785 13.208 177.22 13.208C176.655 13.208 176.132 13.1067 175.652 12.904C175.172 12.6907 174.756 12.392 174.404 12.008C174.063 11.624 173.796 11.1653 173.604 10.632C173.412 10.0987 173.316 9.50133 173.316 8.84C173.316 8.18933 173.412 7.59733 173.604 7.064C173.796 6.52 174.063 6.056 174.404 5.672C174.756 5.288 175.172 4.99467 175.652 4.792C176.132 4.57867 176.655 4.472 177.22 4.472C177.785 4.472 178.308 4.57867 178.788 4.792C179.268 4.99467 179.679 5.288 180.02 5.672C180.372 6.056 180.644 6.52 180.836 7.064C181.028 7.59733 181.124 8.18933 181.124 8.84ZM179.572 8.84C179.572 7.90133 179.359 7.16 178.932 6.616C178.516 6.06133 177.945 5.784 177.22 5.784C176.495 5.784 175.919 6.06133 175.492 6.616C175.076 7.16 174.868 7.90133 174.868 8.84C174.868 9.77867 175.076 10.5253 175.492 11.08C175.919 11.624 176.495 11.896 177.22 11.896C177.945 11.896 178.516 11.624 178.932 11.08C179.359 10.5253 179.572 9.77867 179.572 8.84ZM183.218 4.92C183.559 4.83467 184.007 4.744 184.562 4.648C185.127 4.552 185.778 4.504 186.514 4.504C187.047 4.504 187.495 4.57867 187.858 4.728C188.22 4.86667 188.524 5.07467 188.77 5.352C188.844 5.29867 188.962 5.224 189.122 5.128C189.282 5.032 189.479 4.94133 189.714 4.856C189.948 4.76 190.21 4.68 190.498 4.616C190.786 4.54133 191.095 4.504 191.426 4.504C192.066 4.504 192.588 4.6 192.994 4.792C193.399 4.97333 193.714 5.23467 193.938 5.576C194.172 5.91733 194.327 6.32267 194.402 6.792C194.487 7.26133 194.53 7.77333 194.53 8.328V13H193.042V8.648C193.042 8.15733 193.015 7.736 192.962 7.384C192.919 7.032 192.828 6.73867 192.69 6.504C192.562 6.26933 192.38 6.09867 192.146 5.992C191.922 5.87467 191.628 5.816 191.266 5.816C190.764 5.816 190.348 5.88533 190.017 6.024C189.698 6.152 189.479 6.26933 189.362 6.376C189.447 6.65333 189.511 6.95733 189.554 7.288C189.596 7.61867 189.618 7.96533 189.618 8.328V13H188.13V8.648C188.13 8.15733 188.103 7.736 188.05 7.384C187.996 7.032 187.9 6.73867 187.762 6.504C187.634 6.26933 187.452 6.09867 187.218 5.992C186.994 5.87467 186.706 5.816 186.354 5.816C186.204 5.816 186.044 5.82133 185.874 5.832C185.703 5.84267 185.538 5.85867 185.378 5.88C185.228 5.89067 185.09 5.90667 184.962 5.928C184.834 5.94933 184.748 5.96533 184.706 5.976V13H183.218V4.92Z" fill="black"/>
<a href="mailto:chernaevangel@gmail.com">
<rect fill="black" fill-opacity="0" y="-0.192" width="195.714" height="18.384"/>
</a>
</svg>
