<svg width="202" height="36" viewBox="0 0 202 36" fill="none" xmlns="http://www.w3.org/2000/svg">
<path d="M0.784 18.344C0.784 15.496 1.2 12.984 2.032 10.808C2.896 8.632 4.048 6.824 5.488 5.384C6.96 3.912 8.656 2.808 10.576 2.072C12.528 1.336 14.592 0.967998 16.768 0.967998C18.912 0.967998 20.928 1.336 22.816 2.072C24.736 2.808 26.416 3.912 27.856 5.384C29.296 6.824 30.432 8.632 31.264 10.808C32.128 12.984 32.56 15.496 32.56 18.344C32.56 21.192 32.128 23.704 31.264 25.88C30.432 28.056 29.296 29.88 27.856 31.352C26.416 32.792 24.736 33.88 22.816 34.616C20.928 35.352 18.912 35.72 16.768 35.72C14.592 35.72 12.528 35.352 10.576 34.616C8.656 33.88 6.96 32.792 5.488 31.352C4.048 29.88 2.896 28.056 2.032 25.88C1.2 23.704 0.784 21.192 0.784 18.344ZM5.68 18.344C5.68 20.36 5.936 22.2 6.448 23.864C6.96 25.496 7.68 26.888 8.608 28.04C9.568 29.192 10.72 30.088 12.064 30.728C13.44 31.336 14.976 31.64 16.672 31.64C18.368 31.64 19.888 31.336 21.232 30.728C22.576 30.088 23.712 29.192 24.64 28.04C25.6 26.888 26.336 25.496 26.848 23.864C27.36 22.2 27.616 20.36 27.616 18.344C27.616 16.328 27.36 14.504 26.848 12.872C26.336 11.208 25.6 9.8 24.64 8.648C23.712 7.496 22.576 6.616 21.232 6.008C19.888 5.368 18.368 5.048 16.672 5.048C14.976 5.048 13.44 5.368 12.064 6.008C10.72 6.616 9.568 7.496 8.608 8.648C7.68 9.8 6.96 11.208 6.448 12.872C5.936 14.504 5.68 16.328 5.68 18.344ZM59.0714 34.28C58.0474 34.536 56.6874 34.808 54.9914 35.096C53.3274 35.384 51.3914 35.528 49.1834 35.528C47.2634 35.528 45.6474 35.256 44.3354 34.712C43.0234 34.136 41.9674 33.336 41.1674 32.312C40.3674 31.288 39.7914 30.088 39.4394 28.712C39.0874 27.304 38.9114 25.752 38.9114 24.056V10.04H43.3754V23.096C43.3754 26.136 43.8554 28.312 44.8154 29.624C45.7754 30.936 47.3914 31.592 49.6634 31.592C50.1434 31.592 50.6394 31.576 51.1514 31.544C51.6634 31.512 52.1434 31.48 52.5914 31.448C53.0394 31.384 53.4394 31.336 53.7914 31.304C54.1754 31.24 54.4474 31.176 54.6074 31.112V10.04H59.0714V34.28ZM75.9779 9.512C76.3619 9.512 76.7939 9.544 77.2739 9.608C77.7859 9.64 78.2819 9.704 78.7619 9.8C79.2419 9.864 79.6739 9.944 80.0579 10.04C80.4739 10.104 80.7779 10.168 80.9699 10.232L80.2019 14.12C79.8499 13.992 79.2579 13.848 78.4259 13.688C77.6259 13.496 76.5859 13.4 75.3059 13.4C74.4739 13.4 73.6419 13.496 72.8099 13.688C72.0099 13.848 71.4819 13.96 71.2259 14.024V35H66.7619V11.096C67.8179 10.712 69.1299 10.36 70.6979 10.04C72.2659 9.688 74.0259 9.512 75.9779 9.512ZM100.563 10.04H110.019V13.784H100.563V25.304C100.563 26.552 100.659 27.592 100.851 28.424C101.043 29.224 101.331 29.864 101.715 30.344C102.099 30.792 102.579 31.112 103.155 31.304C103.731 31.496 104.403 31.592 105.171 31.592C106.515 31.592 107.587 31.448 108.387 31.16C109.219 30.84 109.795 30.616 110.115 30.488L110.979 34.184C110.531 34.408 109.747 34.68 108.627 35C107.507 35.352 106.227 35.528 104.787 35.528C103.091 35.528 101.683 35.32 100.563 34.904C99.4749 34.456 98.5949 33.8 97.9229 32.936C97.2509 32.072 96.7709 31.016 96.4829 29.768C96.2269 28.488 96.0989 27.016 96.0989 25.352V3.08L100.563 2.312V10.04ZM113.839 22.568C113.839 20.36 114.159 18.44 114.799 16.808C115.439 15.144 116.287 13.768 117.343 12.68C118.399 11.592 119.615 10.776 120.991 10.232C122.367 9.688 123.775 9.416 125.215 9.416C128.575 9.416 131.151 10.472 132.943 12.584C134.735 14.664 135.631 17.848 135.631 22.136C135.631 22.328 135.631 22.584 135.631 22.904C135.631 23.192 135.615 23.464 135.583 23.72H118.495C118.687 26.312 119.439 28.28 120.751 29.624C122.063 30.968 124.111 31.64 126.895 31.64C128.463 31.64 129.775 31.512 130.831 31.256C131.919 30.968 132.735 30.696 133.279 30.44L133.903 34.184C133.359 34.472 132.399 34.776 131.023 35.096C129.679 35.416 128.143 35.576 126.415 35.576C124.239 35.576 122.351 35.256 120.751 34.616C119.183 33.944 117.887 33.032 116.863 31.88C115.839 30.728 115.071 29.368 114.559 27.8C114.079 26.2 113.839 24.456 113.839 22.568ZM130.975 20.12C131.007 18.104 130.495 16.456 129.439 15.176C128.415 13.864 126.991 13.208 125.167 13.208C124.143 13.208 123.231 13.416 122.431 13.832C121.663 14.216 121.007 14.728 120.463 15.368C119.919 16.008 119.487 16.744 119.167 17.576C118.879 18.408 118.687 19.256 118.591 20.12H130.975ZM150.491 31.784C151.547 31.784 152.475 31.768 153.275 31.736C154.107 31.672 154.795 31.576 155.339 31.448V24.008C155.019 23.848 154.491 23.72 153.755 23.624C153.051 23.496 152.187 23.432 151.163 23.432C150.491 23.432 149.771 23.48 149.003 23.576C148.267 23.672 147.579 23.88 146.939 24.2C146.331 24.488 145.819 24.904 145.403 25.448C144.987 25.96 144.779 26.648 144.779 27.512C144.779 29.112 145.291 30.232 146.315 30.872C147.339 31.48 148.731 31.784 150.491 31.784ZM150.107 9.416C151.899 9.416 153.403 9.656 154.619 10.136C155.867 10.584 156.859 11.24 157.595 12.104C158.363 12.936 158.907 13.944 159.227 15.128C159.547 16.28 159.707 17.56 159.707 18.968V34.568C159.323 34.632 158.779 34.728 158.075 34.856C157.403 34.952 156.635 35.048 155.771 35.144C154.907 35.24 153.963 35.32 152.939 35.384C151.947 35.48 150.955 35.528 149.963 35.528C148.555 35.528 147.259 35.384 146.075 35.096C144.891 34.808 143.867 34.36 143.003 33.752C142.139 33.112 141.467 32.28 140.987 31.256C140.507 30.232 140.267 29 140.267 27.56C140.267 26.184 140.539 25 141.083 24.008C141.659 23.016 142.427 22.216 143.387 21.608C144.347 21 145.467 20.552 146.747 20.264C148.027 19.976 149.371 19.832 150.779 19.832C151.227 19.832 151.691 19.864 152.171 19.928C152.651 19.96 153.099 20.024 153.515 20.12C153.963 20.184 154.347 20.248 154.667 20.312C154.987 20.376 155.211 20.424 155.339 20.456V19.208C155.339 18.472 155.259 17.752 155.099 17.048C154.939 16.312 154.651 15.672 154.235 15.128C153.819 14.552 153.243 14.104 152.507 13.784C151.803 13.432 150.875 13.256 149.723 13.256C148.251 13.256 146.955 13.368 145.835 13.592C144.747 13.784 143.931 13.992 143.387 14.216L142.859 10.52C143.435 10.264 144.395 10.024 145.739 9.8C147.083 9.544 148.539 9.416 150.107 9.416ZM167.121 10.76C168.145 10.504 169.489 10.232 171.153 9.944C172.849 9.656 174.801 9.512 177.009 9.512C178.609 9.512 179.953 9.736 181.041 10.184C182.129 10.6 183.041 11.224 183.777 12.056C184.001 11.896 184.353 11.672 184.833 11.384C185.313 11.096 185.905 10.824 186.609 10.568C187.313 10.28 188.097 10.04 188.961 9.848C189.825 9.624 190.753 9.512 191.745 9.512C193.665 9.512 195.233 9.8 196.449 10.376C197.665 10.92 198.609 11.704 199.281 12.728C199.985 13.752 200.449 14.968 200.673 16.376C200.929 17.784 201.057 19.32 201.057 20.984V35H196.593V21.944C196.593 20.472 196.513 19.208 196.353 18.152C196.225 17.096 195.953 16.216 195.537 15.512C195.153 14.808 194.609 14.296 193.905 13.976C193.233 13.624 192.353 13.448 191.265 13.448C189.761 13.448 188.513 13.656 187.521 14.072C186.561 14.456 185.905 14.808 185.553 15.128C185.809 15.96 186.001 16.872 186.129 17.864C186.257 18.856 186.321 19.896 186.321 20.984V35H181.857V21.944C181.857 20.472 181.777 19.208 181.617 18.152C181.457 17.096 181.169 16.216 180.753 15.512C180.369 14.808 179.825 14.296 179.121 13.976C178.449 13.624 177.585 13.448 176.529 13.448C176.081 13.448 175.601 13.464 175.089 13.496C174.577 13.528 174.081 13.576 173.601 13.64C173.153 13.672 172.737 13.72 172.353 13.784C171.969 13.848 171.713 13.896 171.585 13.928V35H167.121V10.76Z" fill="black"/>
</svg>
