<svg width="156" height="16" viewBox="0 0 156 16" fill="none" xmlns="http://www.w3.org/2000/svg">
<path d="M1.672 4.68H4.824V5.928H1.672V9.768C1.672 10.184 1.704 10.5307 1.768 10.808C1.832 11.0747 1.928 11.288 2.056 11.448C2.184 11.5973 2.344 11.704 2.536 11.768C2.728 11.832 2.952 11.864 3.208 11.864C3.656 11.864 4.01333 11.816 4.28 11.72C4.55733 11.6133 4.74933 11.5387 4.856 11.496L5.144 12.728C4.99467 12.8027 4.73333 12.8933 4.36 13C3.98667 13.1173 3.56 13.176 3.08 13.176C2.51467 13.176 2.04533 13.1067 1.672 12.968C1.30933 12.8187 1.016 12.6 0.792 12.312C0.568 12.024 0.408 11.672 0.312 11.256C0.226667 10.8293 0.184 10.3387 0.184 9.784V2.36L1.672 2.104V4.68ZM13.8428 8.84C13.8428 9.50133 13.7468 10.0987 13.5548 10.632C13.3628 11.1653 13.0908 11.624 12.7388 12.008C12.3974 12.392 11.9868 12.6907 11.5068 12.904C11.0268 13.1067 10.5041 13.208 9.93875 13.208C9.37342 13.208 8.85075 13.1067 8.37075 12.904C7.89075 12.6907 7.47475 12.392 7.12275 12.008C6.78142 11.624 6.51475 11.1653 6.32275 10.632C6.13075 10.0987 6.03475 9.50133 6.03475 8.84C6.03475 8.18933 6.13075 7.59733 6.32275 7.064C6.51475 6.52 6.78142 6.056 7.12275 5.672C7.47475 5.288 7.89075 4.99467 8.37075 4.792C8.85075 4.57867 9.37342 4.472 9.93875 4.472C10.5041 4.472 11.0268 4.57867 11.5068 4.792C11.9868 4.99467 12.3974 5.288 12.7388 5.672C13.0908 6.056 13.3628 6.52 13.5548 7.064C13.7468 7.59733 13.8428 8.18933 13.8428 8.84ZM12.2908 8.84C12.2908 7.90133 12.0774 7.16 11.6508 6.616C11.2348 6.06133 10.6641 5.784 9.93875 5.784C9.21342 5.784 8.63742 6.06133 8.21075 6.616C7.79475 7.16 7.58675 7.90133 7.58675 8.84C7.58675 9.77867 7.79475 10.5253 8.21075 11.08C8.63742 11.624 9.21342 11.896 9.93875 11.896C10.6641 11.896 11.2348 11.624 11.6508 11.08C12.0774 10.5253 12.2908 9.77867 12.2908 8.84ZM15.9363 4.92C16.2776 4.83467 16.7309 4.744 17.2963 4.648C17.8616 4.552 18.5123 4.504 19.2483 4.504C19.9096 4.504 20.4589 4.6 20.8963 4.792C21.3336 4.97333 21.6803 5.23467 21.9363 5.576C22.2029 5.90667 22.3896 6.30667 22.4963 6.776C22.6029 7.24533 22.6562 7.76267 22.6562 8.328V13H21.1683V8.648C21.1683 8.136 21.1309 7.69867 21.0563 7.336C20.9923 6.97333 20.8803 6.68 20.7203 6.456C20.5603 6.232 20.3469 6.072 20.0803 5.976C19.8136 5.86933 19.4829 5.816 19.0883 5.816C18.9283 5.816 18.7629 5.82133 18.5923 5.832C18.4216 5.84267 18.2563 5.85867 18.0963 5.88C17.9469 5.89067 17.8083 5.90667 17.6803 5.928C17.5629 5.94933 17.4776 5.96533 17.4243 5.976V13H15.9363V4.92ZM26.6118 13H25.1238V4.68H26.6118V13ZM25.8598 3.176C25.5931 3.176 25.3638 3.09067 25.1718 2.92C24.9904 2.73867 24.8997 2.49867 24.8997 2.2C24.8997 1.90133 24.9904 1.66667 25.1718 1.496C25.3638 1.31467 25.5931 1.224 25.8598 1.224C26.1264 1.224 26.3504 1.31467 26.5318 1.496C26.7238 1.66667 26.8198 1.90133 26.8198 2.2C26.8198 2.49867 26.7238 2.73867 26.5318 2.92C26.3504 3.09067 26.1264 3.176 25.8598 3.176ZM30.5626 4.68H33.7146V5.928H30.5626V9.768C30.5626 10.184 30.5946 10.5307 30.6586 10.808C30.7226 11.0747 30.8186 11.288 30.9466 11.448C31.0746 11.5973 31.2346 11.704 31.4266 11.768C31.6186 11.832 31.8426 11.864 32.0986 11.864C32.5466 11.864 32.904 11.816 33.1706 11.72C33.448 11.6133 33.64 11.5387 33.7466 11.496L34.0346 12.728C33.8853 12.8027 33.624 12.8933 33.2506 13C32.8773 13.1173 32.4506 13.176 31.9706 13.176C31.4053 13.176 30.936 13.1067 30.5626 12.968C30.2 12.8187 29.9066 12.6 29.6826 12.312C29.4586 12.024 29.2986 11.672 29.2026 11.256C29.1173 10.8293 29.0746 10.3387 29.0746 9.784V2.36L30.5626 2.104V4.68ZM38.4241 11.928C38.7761 11.928 39.0855 11.9227 39.3521 11.912C39.6295 11.8907 39.8588 11.8587 40.0401 11.816V9.336C39.9335 9.28267 39.7575 9.24 39.5121 9.208C39.2775 9.16533 38.9895 9.144 38.6481 9.144C38.4241 9.144 38.1841 9.16 37.9281 9.192C37.6828 9.224 37.4535 9.29333 37.2401 9.4C37.0375 9.496 36.8668 9.63467 36.7281 9.816C36.5895 9.98667 36.5201 10.216 36.5201 10.504C36.5201 11.0373 36.6908 11.4107 37.0321 11.624C37.3735 11.8267 37.8375 11.928 38.4241 11.928ZM38.2961 4.472C38.8935 4.472 39.3948 4.552 39.8001 4.712C40.2161 4.86133 40.5468 5.08 40.7921 5.368C41.0481 5.64533 41.2295 5.98133 41.3361 6.376C41.4428 6.76 41.4961 7.18667 41.4961 7.656V12.856C41.3681 12.8773 41.1868 12.9093 40.9521 12.952C40.7281 12.984 40.4721 13.016 40.1841 13.048C39.8961 13.08 39.5815 13.1067 39.2401 13.128C38.9095 13.16 38.5788 13.176 38.2481 13.176C37.7788 13.176 37.3468 13.128 36.9521 13.032C36.5575 12.936 36.2161 12.7867 35.9281 12.584C35.6401 12.3707 35.4161 12.0933 35.2561 11.752C35.0961 11.4107 35.0161 11 35.0161 10.52C35.0161 10.0613 35.1068 9.66667 35.2881 9.336C35.4801 9.00533 35.7361 8.73867 36.0561 8.536C36.3761 8.33333 36.7495 8.184 37.1761 8.088C37.6028 7.992 38.0508 7.944 38.5201 7.944C38.6695 7.944 38.8241 7.95467 38.9841 7.976C39.1441 7.98667 39.2935 8.008 39.4321 8.04C39.5815 8.06133 39.7095 8.08267 39.8161 8.104C39.9228 8.12533 39.9975 8.14133 40.0401 8.152V7.736C40.0401 7.49067 40.0135 7.25067 39.9601 7.016C39.9068 6.77067 39.8108 6.55733 39.6721 6.376C39.5335 6.184 39.3415 6.03467 39.0961 5.928C38.8615 5.81067 38.5521 5.752 38.1681 5.752C37.6775 5.752 37.2455 5.78933 36.8721 5.864C36.5095 5.928 36.2375 5.99733 36.0561 6.072L35.8801 4.84C36.0721 4.75467 36.3921 4.67467 36.8401 4.6C37.2881 4.51467 37.7735 4.472 38.2961 4.472ZM46.9755 8.424C47.2955 8.66933 47.6315 8.97333 47.9835 9.336C48.3462 9.69867 48.6982 10.0933 49.0395 10.52C49.3915 10.936 49.7222 11.3627 50.0315 11.8C50.3408 12.2267 50.6022 12.6267 50.8155 13H49.0715C48.8475 12.6267 48.5862 12.248 48.2875 11.864C47.9995 11.4693 47.6955 11.096 47.3755 10.744C47.0555 10.3813 46.7302 10.0507 46.3995 9.752C46.0688 9.45333 45.7542 9.20267 45.4555 9V13H43.9675V0.839999L45.4555 0.584V8.168C45.7115 7.912 45.9942 7.62933 46.3035 7.32C46.6128 7.01067 46.9168 6.696 47.2155 6.376C47.5142 6.056 47.7968 5.752 48.0635 5.464C48.3302 5.16533 48.5595 4.904 48.7515 4.68H50.4955C50.2502 4.94667 49.9835 5.24 49.6955 5.56C49.4075 5.88 49.1088 6.20533 48.7995 6.536C48.4902 6.856 48.1755 7.18133 47.8555 7.512C47.5462 7.832 47.2528 8.136 46.9755 8.424ZM51.441 8.856C51.441 8.12 51.5477 7.48 51.761 6.936C51.9743 6.38133 52.257 5.92267 52.609 5.56C52.961 5.19733 53.3663 4.92533 53.825 4.744C54.2837 4.56267 54.753 4.472 55.233 4.472C56.353 4.472 57.2117 4.824 57.809 5.528C58.4063 6.22133 58.705 7.28267 58.705 8.712C58.705 8.776 58.705 8.86133 58.705 8.968C58.705 9.064 58.6997 9.15467 58.689 9.24H52.993C53.057 10.104 53.3077 10.76 53.745 11.208C54.1823 11.656 54.865 11.88 55.793 11.88C56.3157 11.88 56.753 11.8373 57.105 11.752C57.4677 11.656 57.7397 11.5653 57.921 11.48L58.129 12.728C57.9477 12.824 57.6277 12.9253 57.169 13.032C56.721 13.1387 56.209 13.192 55.633 13.192C54.9077 13.192 54.2783 13.0853 53.745 12.872C53.2223 12.648 52.7903 12.344 52.449 11.96C52.1077 11.576 51.8517 11.1227 51.681 10.6C51.521 10.0667 51.441 9.48533 51.441 8.856ZM57.153 8.04C57.1637 7.368 56.993 6.81867 56.641 6.392C56.2997 5.95467 55.825 5.736 55.217 5.736C54.8757 5.736 54.5717 5.80533 54.305 5.944C54.049 6.072 53.8303 6.24267 53.649 6.456C53.4677 6.66933 53.3237 6.91467 53.217 7.192C53.121 7.46933 53.057 7.752 53.025 8.04H57.153ZM67.3385 4.68C66.9225 6.23733 66.4318 7.73067 65.8665 9.16C65.3118 10.5893 64.7732 11.8693 64.2505 13H62.9065C62.3838 11.8693 61.8398 10.5893 61.2745 9.16C60.7198 7.73067 60.2345 6.23733 59.8185 4.68H61.4185C61.5465 5.20267 61.6958 5.76267 61.8665 6.36C62.0478 6.94667 62.2345 7.53333 62.4265 8.12C62.6292 8.696 62.8318 9.256 63.0345 9.8C63.2372 10.344 63.4292 10.8293 63.6105 11.256C63.7918 10.8293 63.9838 10.344 64.1865 9.8C64.3892 9.256 64.5865 8.696 64.7785 8.12C64.9812 7.53333 65.1678 6.94667 65.3385 6.36C65.5198 5.76267 65.6745 5.20267 65.8025 4.68H67.3385ZM78.6338 12.312C78.2924 12.312 78.0098 12.264 77.7858 12.168C77.5618 12.072 77.3751 11.944 77.2258 11.784C76.9911 11.912 76.7084 12.024 76.3778 12.12C76.0471 12.2053 75.7164 12.248 75.3858 12.248C74.8738 12.248 74.4044 12.168 73.9778 12.008C73.5618 11.848 73.1991 11.6133 72.8898 11.304C72.5804 10.984 72.3404 10.5947 72.1698 10.136C71.9991 9.67733 71.9138 9.144 71.9138 8.536C71.9138 8.024 71.9938 7.544 72.1538 7.096C72.3138 6.63733 72.5484 6.24267 72.8578 5.912C73.1778 5.57067 73.5618 5.304 74.0098 5.112C74.4684 4.92 74.9858 4.824 75.5618 4.824C76.1058 4.824 76.6018 4.86667 77.0498 4.952C77.5084 5.03733 77.8604 5.12267 78.1058 5.208V10.104C78.1058 10.4453 78.1644 10.6853 78.2818 10.824C78.3991 10.9627 78.5538 11.032 78.7458 11.032C79.0231 11.032 79.2631 10.936 79.4658 10.744C79.6791 10.552 79.8498 10.3013 79.9778 9.992C80.1164 9.68267 80.2178 9.336 80.2818 8.952C80.3458 8.55733 80.3778 8.15733 80.3778 7.752C80.3778 7.08 80.2604 6.45067 80.0258 5.864C79.7911 5.26667 79.4551 4.744 79.0178 4.296C78.5804 3.848 78.0471 3.496 77.4178 3.24C76.7991 2.984 76.1004 2.856 75.3218 2.856C74.5431 2.856 73.8284 2.98933 73.1778 3.256C72.5271 3.512 71.9671 3.88533 71.4978 4.376C71.0284 4.856 70.6604 5.448 70.3938 6.152C70.1378 6.856 70.0098 7.656 70.0098 8.552C70.0098 9.49067 70.1484 10.3173 70.4258 11.032C70.7031 11.736 71.0871 12.328 71.5778 12.808C72.0791 13.2773 72.6658 13.6293 73.3378 13.864C74.0204 14.1093 74.7671 14.232 75.5778 14.232C76.2071 14.232 76.7244 14.1947 77.1298 14.12C77.5458 14.0453 77.8124 13.9867 77.9298 13.944L78.0898 15.128C77.9084 15.192 77.5778 15.2613 77.0978 15.336C76.6284 15.4107 76.1218 15.448 75.5778 15.448C74.6284 15.448 73.7324 15.3093 72.8898 15.032C72.0471 14.7653 71.3111 14.3493 70.6818 13.784C70.0524 13.2293 69.5511 12.52 69.1778 11.656C68.8151 10.7813 68.6338 9.74667 68.6338 8.552C68.6338 7.4 68.8151 6.392 69.1778 5.528C69.5404 4.664 70.0258 3.94933 70.6338 3.384C71.2524 2.808 71.9618 2.376 72.7618 2.088C73.5724 1.8 74.4258 1.656 75.3218 1.656C76.1964 1.656 77.0231 1.8 77.8018 2.088C78.5804 2.36533 79.2631 2.776 79.8498 3.32C80.4364 3.85333 80.9004 4.504 81.2418 5.272C81.5831 6.02933 81.7538 6.888 81.7538 7.848C81.7538 8.57333 81.6684 9.21333 81.4978 9.768C81.3378 10.3227 81.1191 10.792 80.8418 11.176C80.5644 11.5493 80.2338 11.832 79.8498 12.024C79.4658 12.216 79.0604 12.312 78.6338 12.312ZM75.4338 11.016C75.6578 11.016 75.8818 10.9947 76.1058 10.952C76.3404 10.8987 76.5484 10.824 76.7298 10.728C76.6978 10.5893 76.6764 10.4507 76.6658 10.312C76.6551 10.1733 76.6498 10.04 76.6498 9.912V6.152C76.5858 6.13067 76.4631 6.10933 76.2818 6.088C76.1004 6.06667 75.8978 6.056 75.6737 6.056C74.9164 6.056 74.3511 6.29067 73.9778 6.76C73.6044 7.22933 73.4178 7.82133 73.4178 8.536C73.4178 9.29333 73.5991 9.896 73.9618 10.344C74.3244 10.792 74.8151 11.016 75.4338 11.016ZM89.2929 12.168C89.1649 12.2533 88.9142 12.3653 88.5409 12.504C88.1782 12.632 87.7515 12.696 87.2609 12.696C86.7595 12.696 86.2849 12.616 85.8369 12.456C85.3995 12.296 85.0155 12.0507 84.6849 11.72C84.3542 11.3787 84.0929 10.9573 83.9009 10.456C83.7089 9.95467 83.6129 9.35733 83.6129 8.664C83.6129 8.056 83.7035 7.50133 83.8849 7C84.0662 6.488 84.3275 6.05067 84.6689 5.688C85.0209 5.31467 85.4475 5.02667 85.9489 4.824C86.4502 4.61067 87.0155 4.504 87.6449 4.504C88.3382 4.504 88.9409 4.55733 89.4529 4.664C89.9755 4.76 90.4129 4.85067 90.7649 4.936V12.36C90.7649 13.64 90.4342 14.568 89.7729 15.144C89.1115 15.72 88.1089 16.008 86.7649 16.008C86.2422 16.008 85.7462 15.9653 85.2769 15.88C84.8182 15.7947 84.4182 15.6933 84.0769 15.576L84.3489 14.28C84.6475 14.3973 85.0102 14.4987 85.4369 14.584C85.8742 14.68 86.3275 14.728 86.7969 14.728C87.6822 14.728 88.3169 14.552 88.7009 14.2C89.0955 13.848 89.2929 13.288 89.2929 12.52V12.168ZM89.2769 5.992C89.1275 5.94933 88.9249 5.912 88.6689 5.88C88.4235 5.83733 88.0875 5.816 87.6609 5.816C86.8609 5.816 86.2422 6.07733 85.8049 6.6C85.3782 7.12267 85.1649 7.816 85.1649 8.68C85.1649 9.16 85.2235 9.57067 85.3409 9.912C85.4689 10.2533 85.6342 10.536 85.8369 10.76C86.0502 10.984 86.2902 11.1493 86.5569 11.256C86.8342 11.3627 87.1169 11.416 87.4049 11.416C87.7995 11.416 88.1622 11.3627 88.4929 11.256C88.8235 11.1387 89.0849 11.0053 89.2769 10.856V5.992ZM93.3269 4.92C93.6682 4.83467 94.1162 4.744 94.6709 4.648C95.2362 4.552 95.8869 4.504 96.6229 4.504C97.1562 4.504 97.6042 4.57867 97.9669 4.728C98.3295 4.86667 98.6335 5.07467 98.8789 5.352C98.9535 5.29867 99.0709 5.224 99.2309 5.128C99.3909 5.032 99.5882 4.94133 99.8229 4.856C100.058 4.76 100.319 4.68 100.607 4.616C100.895 4.54133 101.204 4.504 101.535 4.504C102.175 4.504 102.698 4.6 103.103 4.792C103.508 4.97333 103.823 5.23467 104.047 5.576C104.282 5.91733 104.436 6.32267 104.511 6.792C104.596 7.26133 104.639 7.77333 104.639 8.328V13H103.151V8.648C103.151 8.15733 103.124 7.736 103.071 7.384C103.028 7.032 102.938 6.73867 102.799 6.504C102.671 6.26933 102.49 6.09867 102.255 5.992C102.031 5.87467 101.738 5.816 101.375 5.816C100.874 5.816 100.458 5.88533 100.127 6.024C99.8069 6.152 99.5882 6.26933 99.4709 6.376C99.5562 6.65333 99.6202 6.95733 99.6629 7.288C99.7055 7.61867 99.7269 7.96533 99.7269 8.328V13H98.2389V8.648C98.2389 8.15733 98.2122 7.736 98.1589 7.384C98.1055 7.032 98.0095 6.73867 97.8709 6.504C97.7429 6.26933 97.5615 6.09867 97.3269 5.992C97.1029 5.87467 96.8149 5.816 96.4629 5.816C96.3135 5.816 96.1535 5.82133 95.9829 5.832C95.8122 5.84267 95.6469 5.85867 95.4869 5.88C95.3375 5.89067 95.1989 5.90667 95.0709 5.928C94.9429 5.94933 94.8575 5.96533 94.8149 5.976V13H93.3269V4.92ZM109.924 11.928C110.276 11.928 110.585 11.9227 110.852 11.912C111.129 11.8907 111.359 11.8587 111.54 11.816V9.336C111.433 9.28267 111.257 9.24 111.012 9.208C110.777 9.16533 110.489 9.144 110.148 9.144C109.924 9.144 109.684 9.16 109.428 9.192C109.183 9.224 108.953 9.29333 108.74 9.4C108.537 9.496 108.367 9.63467 108.228 9.816C108.089 9.98667 108.02 10.216 108.02 10.504C108.02 11.0373 108.191 11.4107 108.532 11.624C108.873 11.8267 109.337 11.928 109.924 11.928ZM109.796 4.472C110.393 4.472 110.895 4.552 111.3 4.712C111.716 4.86133 112.047 5.08 112.292 5.368C112.548 5.64533 112.729 5.98133 112.836 6.376C112.943 6.76 112.996 7.18667 112.996 7.656V12.856C112.868 12.8773 112.687 12.9093 112.452 12.952C112.228 12.984 111.972 13.016 111.684 13.048C111.396 13.08 111.081 13.1067 110.74 13.128C110.409 13.16 110.079 13.176 109.748 13.176C109.279 13.176 108.847 13.128 108.452 13.032C108.057 12.936 107.716 12.7867 107.428 12.584C107.14 12.3707 106.916 12.0933 106.756 11.752C106.596 11.4107 106.516 11 106.516 10.52C106.516 10.0613 106.607 9.66667 106.788 9.336C106.98 9.00533 107.236 8.73867 107.556 8.536C107.876 8.33333 108.249 8.184 108.676 8.088C109.103 7.992 109.551 7.944 110.02 7.944C110.169 7.944 110.324 7.95467 110.484 7.976C110.644 7.98667 110.793 8.008 110.932 8.04C111.081 8.06133 111.209 8.08267 111.316 8.104C111.423 8.12533 111.497 8.14133 111.54 8.152V7.736C111.54 7.49067 111.513 7.25067 111.46 7.016C111.407 6.77067 111.311 6.55733 111.172 6.376C111.033 6.184 110.841 6.03467 110.596 5.928C110.361 5.81067 110.052 5.752 109.668 5.752C109.177 5.752 108.745 5.78933 108.372 5.864C108.009 5.928 107.737 5.99733 107.556 6.072L107.38 4.84C107.572 4.75467 107.892 4.67467 108.34 4.6C108.788 4.51467 109.273 4.472 109.796 4.472ZM116.956 13H115.468V4.68H116.956V13ZM116.204 3.176C115.937 3.176 115.708 3.09067 115.516 2.92C115.334 2.73867 115.243 2.49867 115.243 2.2C115.243 1.90133 115.334 1.66667 115.516 1.496C115.708 1.31467 115.937 1.224 116.204 1.224C116.47 1.224 116.694 1.31467 116.876 1.496C117.068 1.66667 117.164 1.90133 117.164 2.2C117.164 2.49867 117.068 2.73867 116.876 2.92C116.694 3.09067 116.47 3.176 116.204 3.176ZM122.01 13.16C121.093 13.1387 120.442 12.9413 120.058 12.568C119.674 12.1947 119.482 11.6133 119.482 10.824V0.839999L120.97 0.584V10.584C120.97 10.8293 120.992 11.032 121.034 11.192C121.077 11.352 121.146 11.48 121.242 11.576C121.338 11.672 121.466 11.7467 121.626 11.8C121.786 11.8427 121.984 11.88 122.218 11.912L122.01 13.16ZM125.649 12.136C125.649 12.424 125.553 12.6747 125.361 12.888C125.169 13.1013 124.908 13.208 124.577 13.208C124.247 13.208 123.985 13.1013 123.793 12.888C123.601 12.6747 123.505 12.424 123.505 12.136C123.505 11.848 123.601 11.5973 123.793 11.384C123.985 11.1707 124.247 11.064 124.577 11.064C124.908 11.064 125.169 11.1707 125.361 11.384C125.553 11.5973 125.649 11.848 125.649 12.136ZM131.443 13.192C130.771 13.192 130.179 13.0853 129.667 12.872C129.166 12.6587 128.739 12.36 128.387 11.976C128.046 11.592 127.79 11.1387 127.619 10.616C127.448 10.0827 127.363 9.496 127.363 8.856C127.363 8.216 127.454 7.62933 127.635 7.096C127.827 6.56267 128.094 6.104 128.435 5.72C128.776 5.32533 129.192 5.02133 129.683 4.808C130.184 4.584 130.739 4.472 131.347 4.472C131.72 4.472 132.094 4.504 132.467 4.568C132.84 4.632 133.198 4.73333 133.539 4.872L133.203 6.136C132.979 6.02933 132.718 5.944 132.419 5.88C132.131 5.816 131.822 5.784 131.491 5.784C130.659 5.784 130.019 6.04533 129.571 6.568C129.134 7.09067 128.915 7.85333 128.915 8.856C128.915 9.304 128.963 9.71467 129.059 10.088C129.166 10.4613 129.326 10.7813 129.539 11.048C129.763 11.3147 130.046 11.5227 130.387 11.672C130.728 11.8107 131.144 11.88 131.635 11.88C132.03 11.88 132.387 11.8427 132.707 11.768C133.027 11.6933 133.278 11.6133 133.459 11.528L133.667 12.776C133.582 12.8293 133.459 12.8827 133.299 12.936C133.139 12.9787 132.958 13.016 132.755 13.048C132.552 13.0907 132.334 13.1227 132.099 13.144C131.875 13.176 131.656 13.192 131.443 13.192ZM142.405 8.84C142.405 9.50133 142.309 10.0987 142.117 10.632C141.925 11.1653 141.653 11.624 141.301 12.008C140.96 12.392 140.549 12.6907 140.069 12.904C139.589 13.1067 139.067 13.208 138.501 13.208C137.936 13.208 137.413 13.1067 136.933 12.904C136.453 12.6907 136.037 12.392 135.685 12.008C135.344 11.624 135.077 11.1653 134.885 10.632C134.693 10.0987 134.597 9.50133 134.597 8.84C134.597 8.18933 134.693 7.59733 134.885 7.064C135.077 6.52 135.344 6.056 135.685 5.672C136.037 5.288 136.453 4.99467 136.933 4.792C137.413 4.57867 137.936 4.472 138.501 4.472C139.067 4.472 139.589 4.57867 140.069 4.792C140.549 4.99467 140.96 5.288 141.301 5.672C141.653 6.056 141.925 6.52 142.117 7.064C142.309 7.59733 142.405 8.18933 142.405 8.84ZM140.853 8.84C140.853 7.90133 140.64 7.16 140.213 6.616C139.797 6.06133 139.227 5.784 138.501 5.784C137.776 5.784 137.2 6.06133 136.773 6.616C136.357 7.16 136.149 7.90133 136.149 8.84C136.149 9.77867 136.357 10.5253 136.773 11.08C137.2 11.624 137.776 11.896 138.501 11.896C139.227 11.896 139.797 11.624 140.213 11.08C140.64 10.5253 140.853 9.77867 140.853 8.84ZM144.499 4.92C144.84 4.83467 145.288 4.744 145.843 4.648C146.408 4.552 147.059 4.504 147.795 4.504C148.328 4.504 148.776 4.57867 149.139 4.728C149.501 4.86667 149.805 5.07467 150.051 5.352C150.125 5.29867 150.243 5.224 150.403 5.128C150.563 5.032 150.76 4.94133 150.995 4.856C151.229 4.76 151.491 4.68 151.779 4.616C152.067 4.54133 152.376 4.504 152.707 4.504C153.347 4.504 153.869 4.6 154.275 4.792C154.68 4.97333 154.995 5.23467 155.219 5.576C155.453 5.91733 155.608 6.32267 155.683 6.792C155.768 7.26133 155.811 7.77333 155.811 8.328V13H154.323V8.648C154.323 8.15733 154.296 7.736 154.243 7.384C154.2 7.032 154.109 6.73867 153.971 6.504C153.843 6.26933 153.661 6.09867 153.427 5.992C153.203 5.87467 152.909 5.816 152.547 5.816C152.045 5.816 151.629 5.88533 151.299 6.024C150.979 6.152 150.76 6.26933 150.643 6.376C150.728 6.65333 150.792 6.95733 150.835 7.288C150.877 7.61867 150.899 7.96533 150.899 8.328V13H149.411V8.648C149.411 8.15733 149.384 7.736 149.331 7.384C149.277 7.032 149.181 6.73867 149.043 6.504C148.915 6.26933 148.733 6.09867 148.499 5.992C148.275 5.87467 147.987 5.816 147.635 5.816C147.485 5.816 147.325 5.82133 147.155 5.832C146.984 5.84267 146.819 5.85867 146.659 5.88C146.509 5.89067 146.371 5.90667 146.243 5.928C146.115 5.94933 146.029 5.96533 145.987 5.976V13H144.499V4.92Z" fill="black"/>
</svg>
