<svg width="119" height="13" viewBox="0 0 119 13" fill="none" xmlns="http://www.w3.org/2000/svg">
<path d="M0.848 6.576H3.872V3.28H5.152V6.576H8.176V7.84H5.152V11.152H3.872V7.84H0.848V6.576ZM12.6473 10.912C13.5966 10.912 14.2739 10.7253 14.6793 10.352C15.0953 9.97867 15.3033 9.47733 15.3033 8.848C15.3033 8.44267 15.2179 8.10133 15.0473 7.824C14.8766 7.54667 14.6526 7.328 14.3753 7.168C14.0979 6.99733 13.7726 6.88 13.3993 6.816C13.0366 6.74133 12.6633 6.704 12.2793 6.704H11.8953V5.488H12.4233C12.6899 5.488 12.9619 5.46133 13.2393 5.408C13.5273 5.35467 13.7886 5.25867 14.0233 5.12C14.2579 4.98133 14.4499 4.79467 14.5993 4.56C14.7486 4.31467 14.8233 4.01067 14.8233 3.648C14.8233 3.34933 14.7699 3.09333 14.6633 2.88C14.5566 2.66667 14.4126 2.49067 14.2313 2.352C14.0606 2.21333 13.8579 2.11733 13.6233 2.064C13.3993 2 13.1593 1.968 12.9033 1.968C12.3913 1.968 11.9539 2.04267 11.5913 2.192C11.2393 2.34133 10.9406 2.496 10.6953 2.656L10.1193 1.52C10.2473 1.43467 10.4073 1.344 10.5993 1.248C10.8019 1.14133 11.0259 1.04533 11.2713 0.959999C11.5166 0.874666 11.7779 0.805333 12.0553 0.752C12.3433 0.687999 12.6419 0.655999 12.9513 0.655999C13.5379 0.655999 14.0446 0.730666 14.4713 0.879999C14.8979 1.01867 15.2499 1.22133 15.5273 1.488C15.8046 1.744 16.0126 2.05333 16.1513 2.416C16.2899 2.768 16.3593 3.152 16.3593 3.568C16.3593 4.144 16.1939 4.64 15.8633 5.056C15.5326 5.46133 15.1326 5.77067 14.6633 5.984C14.9513 6.06933 15.2286 6.192 15.4953 6.352C15.7619 6.512 15.9913 6.71467 16.1833 6.96C16.3859 7.20533 16.5459 7.488 16.6633 7.808C16.7913 8.128 16.8553 8.48533 16.8553 8.88C16.8553 9.36 16.7699 9.808 16.5993 10.224C16.4393 10.6293 16.1833 10.9813 15.8313 11.28C15.4899 11.5787 15.0579 11.8133 14.5353 11.984C14.0126 12.1547 13.3939 12.24 12.6793 12.24C12.4019 12.24 12.1139 12.2187 11.8153 12.176C11.5273 12.1333 11.2553 12.08 10.9993 12.016C10.7433 11.952 10.5193 11.888 10.3273 11.824C10.1353 11.76 9.99658 11.7067 9.91125 11.664L10.1993 10.368C10.3806 10.4533 10.6793 10.5653 11.0953 10.704C11.5219 10.8427 12.0393 10.912 12.6473 10.912ZM19.5505 3.2C20.1585 2.96533 20.7505 2.66667 21.3265 2.304C21.9025 1.93067 22.4305 1.46667 22.9105 0.912H23.9665V12H22.4785V2.976C22.3505 3.09333 22.1905 3.216 21.9985 3.344C21.8172 3.472 21.6145 3.59467 21.3905 3.712C21.1772 3.82933 20.9478 3.94133 20.7025 4.048C20.4678 4.15467 20.2385 4.24533 20.0145 4.32L19.5505 3.2ZM31.8049 7.552C31.8049 6.47467 31.9542 5.52533 32.2529 4.704C32.5515 3.872 32.9729 3.17333 33.5169 2.608C34.0715 2.04267 34.7382 1.616 35.5169 1.328C36.3062 1.02933 37.1915 0.874666 38.1729 0.863999L38.2849 2.112C37.6555 2.12267 37.0795 2.192 36.5569 2.32C36.0449 2.448 35.5862 2.65067 35.1809 2.928C34.7755 3.20533 34.4342 3.568 34.1569 4.016C33.8795 4.45333 33.6715 4.99733 33.5329 5.648C33.8102 5.52 34.1195 5.41333 34.4609 5.328C34.8129 5.24267 35.1755 5.2 35.5489 5.2C36.1782 5.2 36.7115 5.296 37.1489 5.488C37.5862 5.68 37.9435 5.936 38.2209 6.256C38.4982 6.56533 38.6955 6.928 38.8129 7.344C38.9409 7.74933 39.0049 8.176 39.0049 8.624C39.0049 9.02933 38.9355 9.44533 38.7969 9.872C38.6582 10.2987 38.4449 10.688 38.1569 11.04C37.8795 11.392 37.5222 11.68 37.0849 11.904C36.6475 12.128 36.1302 12.24 35.5329 12.24C34.3169 12.24 33.3889 11.824 32.7489 10.992C32.1195 10.16 31.8049 9.01333 31.8049 7.552ZM35.3889 6.416C35.0155 6.416 34.6689 6.45333 34.3489 6.528C34.0289 6.592 33.7089 6.69333 33.3889 6.832C33.3782 6.94933 33.3675 7.072 33.3569 7.2C33.3569 7.31733 33.3569 7.43467 33.3569 7.552C33.3569 8.02133 33.3889 8.464 33.4529 8.88C33.5169 9.296 33.6289 9.664 33.7889 9.984C33.9595 10.2933 34.1835 10.544 34.4609 10.736C34.7382 10.9173 35.0902 11.008 35.5169 11.008C35.8689 11.008 36.1675 10.9333 36.4129 10.784C36.6582 10.6347 36.8609 10.4427 37.0209 10.208C37.1809 9.97333 37.2929 9.72267 37.3569 9.456C37.4315 9.17867 37.4689 8.912 37.4689 8.656C37.4689 7.93067 37.2929 7.376 36.9409 6.992C36.5995 6.608 36.0822 6.416 35.3889 6.416ZM47.3001 3.744C47.3001 4.128 47.2201 4.50133 47.0601 4.864C46.9108 5.216 46.7081 5.568 46.4521 5.92C46.1961 6.26133 45.9081 6.60267 45.5881 6.944C45.2681 7.27467 44.9481 7.6 44.6281 7.92C44.4468 8.10133 44.2335 8.31467 43.9881 8.56C43.7535 8.80533 43.5295 9.06133 43.3161 9.328C43.1028 9.59467 42.9215 9.85067 42.7721 10.096C42.6335 10.3413 42.5641 10.5547 42.5641 10.736H47.6681V12H40.9481C40.9375 11.936 40.9321 11.872 40.9321 11.808C40.9321 11.744 40.9321 11.6853 40.9321 11.632C40.9321 11.1307 41.0121 10.6667 41.1721 10.24C41.3428 9.80267 41.5615 9.392 41.8281 9.008C42.0948 8.624 42.3935 8.26133 42.7241 7.92C43.0548 7.57867 43.3801 7.248 43.7001 6.928C43.9668 6.672 44.2175 6.42133 44.4521 6.176C44.6975 5.92 44.9108 5.66933 45.0921 5.424C45.2841 5.168 45.4335 4.90667 45.5401 4.64C45.6575 4.37333 45.7161 4.09067 45.7161 3.792C45.7161 3.472 45.6628 3.2 45.5561 2.976C45.4601 2.752 45.3268 2.56533 45.1561 2.416C44.9855 2.26667 44.7828 2.16 44.5481 2.096C44.3241 2.02133 44.0841 1.984 43.8281 1.984C43.5188 1.984 43.2361 2.02667 42.9801 2.112C42.7241 2.19733 42.4948 2.29867 42.2921 2.416C42.0895 2.52267 41.9188 2.64 41.7801 2.768C41.6415 2.88533 41.5348 2.976 41.4601 3.04L40.7241 1.984C40.8201 1.87733 40.9641 1.74933 41.1561 1.6C41.3481 1.44 41.5775 1.29067 41.8441 1.152C42.1108 1.01333 42.4095 0.895999 42.7401 0.799999C43.0708 0.703999 43.4281 0.655999 43.8121 0.655999C44.9748 0.655999 45.8441 0.927999 46.4201 1.472C47.0068 2.00533 47.3001 2.76267 47.3001 3.744ZM49.6594 6.448C49.6594 4.592 49.9847 3.16267 50.6354 2.16C51.2967 1.15733 52.2087 0.655999 53.3714 0.655999C54.534 0.655999 55.4407 1.15733 56.0914 2.16C56.7527 3.16267 57.0834 4.592 57.0834 6.448C57.0834 8.304 56.7527 9.73333 56.0914 10.736C55.4407 11.7387 54.534 12.24 53.3714 12.24C52.2087 12.24 51.2967 11.7387 50.6354 10.736C49.9847 9.73333 49.6594 8.304 49.6594 6.448ZM55.5154 6.448C55.5154 5.84 55.478 5.264 55.4034 4.72C55.3394 4.176 55.222 3.70133 55.0514 3.296C54.8914 2.89067 54.6727 2.57067 54.3954 2.336C54.118 2.09067 53.7767 1.968 53.3714 1.968C52.966 1.968 52.6247 2.09067 52.3474 2.336C52.07 2.57067 51.846 2.89067 51.6754 3.296C51.5154 3.70133 51.398 4.176 51.3234 4.72C51.2594 5.264 51.2274 5.84 51.2274 6.448C51.2274 7.056 51.2594 7.632 51.3234 8.176C51.398 8.72 51.5154 9.19467 51.6754 9.6C51.846 10.0053 52.07 10.3307 52.3474 10.576C52.6247 10.8107 52.966 10.928 53.3714 10.928C53.7767 10.928 54.118 10.8107 54.3954 10.576C54.6727 10.3307 54.8914 10.0053 55.0514 9.6C55.222 9.19467 55.3394 8.72 55.4034 8.176C55.478 7.632 55.5154 7.056 55.5154 6.448ZM62.6018 7.552C62.6018 6.47467 62.7511 5.52533 63.0498 4.704C63.3484 3.872 63.7698 3.17333 64.3138 2.608C64.8684 2.04267 65.5351 1.616 66.3138 1.328C67.1031 1.02933 67.9884 0.874666 68.9698 0.863999L69.0818 2.112C68.4524 2.12267 67.8764 2.192 67.3538 2.32C66.8418 2.448 66.3831 2.65067 65.9778 2.928C65.5724 3.20533 65.2311 3.568 64.9538 4.016C64.6764 4.45333 64.4684 4.99733 64.3298 5.648C64.6071 5.52 64.9164 5.41333 65.2578 5.328C65.6098 5.24267 65.9724 5.2 66.3458 5.2C66.9751 5.2 67.5084 5.296 67.9458 5.488C68.3831 5.68 68.7404 5.936 69.0178 6.256C69.2951 6.56533 69.4924 6.928 69.6098 7.344C69.7378 7.74933 69.8018 8.176 69.8018 8.624C69.8018 9.02933 69.7324 9.44533 69.5938 9.872C69.4551 10.2987 69.2418 10.688 68.9538 11.04C68.6764 11.392 68.3191 11.68 67.8818 11.904C67.4444 12.128 66.9271 12.24 66.3298 12.24C65.1138 12.24 64.1858 11.824 63.5458 10.992C62.9164 10.16 62.6018 9.01333 62.6018 7.552ZM66.1858 6.416C65.8124 6.416 65.4658 6.45333 65.1458 6.528C64.8258 6.592 64.5058 6.69333 64.1858 6.832C64.1751 6.94933 64.1644 7.072 64.1538 7.2C64.1538 7.31733 64.1538 7.43467 64.1538 7.552C64.1538 8.02133 64.1858 8.464 64.2498 8.88C64.3138 9.296 64.4258 9.664 64.5858 9.984C64.7564 10.2933 64.9804 10.544 65.2578 10.736C65.5351 10.9173 65.8871 11.008 66.3138 11.008C66.6658 11.008 66.9644 10.9333 67.2098 10.784C67.4551 10.6347 67.6578 10.4427 67.8178 10.208C67.9778 9.97333 68.0898 9.72267 68.1538 9.456C68.2284 9.17867 68.2658 8.912 68.2658 8.656C68.2658 7.93067 68.0898 7.376 67.7378 6.992C67.3964 6.608 66.8791 6.416 66.1858 6.416ZM78.769 9.12C78.769 9.568 78.689 9.984 78.529 10.368C78.3797 10.7413 78.1503 11.072 77.841 11.36C77.5423 11.6373 77.1637 11.8507 76.705 12C76.2463 12.16 75.7183 12.24 75.121 12.24C74.4277 12.24 73.8463 12.144 73.377 11.952C72.9183 11.7493 72.5503 11.4987 72.273 11.2C71.9957 10.9013 71.7983 10.576 71.681 10.224C71.5637 9.86133 71.505 9.52 71.505 9.2C71.505 8.89067 71.553 8.59733 71.649 8.32C71.7557 8.032 71.889 7.76533 72.049 7.52C72.2197 7.27467 72.4117 7.056 72.625 6.864C72.849 6.66133 73.0837 6.48533 73.329 6.336C72.2837 5.73867 71.761 4.85867 71.761 3.696C71.761 3.29067 71.841 2.90667 72.001 2.544C72.161 2.17067 72.385 1.84533 72.673 1.568C72.9717 1.29067 73.329 1.072 73.745 0.912C74.161 0.741333 74.625 0.655999 75.137 0.655999C75.7343 0.655999 76.2463 0.746666 76.673 0.927999C77.0997 1.10933 77.4463 1.344 77.713 1.632C77.9903 1.90933 78.1877 2.21867 78.305 2.56C78.433 2.90133 78.497 3.232 78.497 3.552C78.497 3.86133 78.449 4.15467 78.353 4.432C78.2677 4.69867 78.145 4.94933 77.985 5.184C77.8357 5.41867 77.6597 5.62667 77.457 5.808C77.265 5.98933 77.0623 6.14933 76.849 6.288C78.1077 6.88533 78.7477 7.82933 78.769 9.12ZM73.009 9.216C73.009 9.408 73.041 9.61067 73.105 9.824C73.1797 10.0267 73.3023 10.2187 73.473 10.4C73.6437 10.5707 73.8623 10.7147 74.129 10.832C74.3957 10.9493 74.7317 11.008 75.137 11.008C75.4997 11.008 75.8143 10.9547 76.081 10.848C76.3583 10.7413 76.5823 10.608 76.753 10.448C76.9237 10.2773 77.0517 10.0853 77.137 9.872C77.2223 9.65867 77.265 9.44 77.265 9.216C77.265 8.87467 77.201 8.576 77.073 8.32C76.945 8.064 76.7583 7.84 76.513 7.648C76.2783 7.456 75.9903 7.296 75.649 7.168C75.3183 7.02933 74.9397 6.912 74.513 6.816C74.033 7.08267 73.6597 7.41333 73.393 7.808C73.137 8.20267 73.009 8.672 73.009 9.216ZM77.009 3.536C77.009 3.376 76.9717 3.2 76.897 3.008C76.833 2.816 76.7263 2.64 76.577 2.48C76.4277 2.30933 76.2357 2.17067 76.001 2.064C75.7663 1.94667 75.4783 1.888 75.137 1.888C74.7957 1.888 74.5023 1.94133 74.257 2.048C74.0223 2.15467 73.8303 2.29333 73.681 2.464C73.5317 2.624 73.4197 2.80533 73.345 3.008C73.281 3.2 73.249 3.392 73.249 3.584C73.249 3.81867 73.2917 4.05333 73.377 4.288C73.4623 4.52267 73.5957 4.74133 73.777 4.944C73.9583 5.14667 74.193 5.328 74.481 5.488C74.7797 5.648 75.1317 5.776 75.537 5.872C75.985 5.60533 76.3423 5.296 76.609 4.944C76.8757 4.58133 77.009 4.112 77.009 3.536ZM80.2963 8.16C80.4989 7.69067 80.7763 7.14667 81.1283 6.528C81.4803 5.89867 81.8749 5.25333 82.3123 4.592C82.7603 3.93067 83.2349 3.28 83.7363 2.64C84.2483 2 84.7603 1.424 85.2723 0.912H86.6963V7.952H88.0083V9.168H86.6963V12H85.2563V9.168H80.2963V8.16ZM85.2563 2.672C84.9363 3.01333 84.6109 3.39733 84.2803 3.824C83.9603 4.24 83.6456 4.67733 83.3363 5.136C83.0269 5.59467 82.7336 6.064 82.4563 6.544C82.1896 7.024 81.9496 7.49333 81.7363 7.952H85.2563V2.672ZM93.1906 6.448C93.1906 4.592 93.516 3.16267 94.1666 2.16C94.828 1.15733 95.74 0.655999 96.9026 0.655999C98.0653 0.655999 98.972 1.15733 99.6226 2.16C100.284 3.16267 100.615 4.592 100.615 6.448C100.615 8.304 100.284 9.73333 99.6226 10.736C98.972 11.7387 98.0653 12.24 96.9026 12.24C95.74 12.24 94.828 11.7387 94.1666 10.736C93.516 9.73333 93.1906 8.304 93.1906 6.448ZM99.0466 6.448C99.0466 5.84 99.0093 5.264 98.9346 4.72C98.8706 4.176 98.7533 3.70133 98.5826 3.296C98.4226 2.89067 98.204 2.57067 97.9266 2.336C97.6493 2.09067 97.308 1.968 96.9026 1.968C96.4973 1.968 96.156 2.09067 95.8786 2.336C95.6013 2.57067 95.3773 2.89067 95.2066 3.296C95.0466 3.70133 94.9293 4.176 94.8546 4.72C94.7906 5.264 94.7586 5.84 94.7586 6.448C94.7586 7.056 94.7906 7.632 94.8546 8.176C94.9293 8.72 95.0466 9.19467 95.2066 9.6C95.3773 10.0053 95.6013 10.3307 95.8786 10.576C96.156 10.8107 96.4973 10.928 96.9026 10.928C97.308 10.928 97.6493 10.8107 97.9266 10.576C98.204 10.3307 98.4226 10.0053 98.5826 9.6C98.7533 9.19467 98.8706 8.72 98.9346 8.176C99.0093 7.632 99.0466 7.056 99.0466 6.448ZM108.894 3.744C108.894 4.128 108.814 4.50133 108.654 4.864C108.505 5.216 108.302 5.568 108.046 5.92C107.79 6.26133 107.502 6.60267 107.182 6.944C106.862 7.27467 106.542 7.6 106.222 7.92C106.041 8.10133 105.827 8.31467 105.582 8.56C105.347 8.80533 105.123 9.06133 104.91 9.328C104.697 9.59467 104.515 9.85067 104.366 10.096C104.227 10.3413 104.158 10.5547 104.158 10.736H109.262V12H102.542C102.531 11.936 102.526 11.872 102.526 11.808C102.526 11.744 102.526 11.6853 102.526 11.632C102.526 11.1307 102.606 10.6667 102.766 10.24C102.937 9.80267 103.155 9.392 103.422 9.008C103.689 8.624 103.987 8.26133 104.318 7.92C104.649 7.57867 104.974 7.248 105.294 6.928C105.561 6.672 105.811 6.42133 106.046 6.176C106.291 5.92 106.505 5.66933 106.686 5.424C106.878 5.168 107.027 4.90667 107.134 4.64C107.251 4.37333 107.31 4.09067 107.31 3.792C107.31 3.472 107.257 3.2 107.15 2.976C107.054 2.752 106.921 2.56533 106.75 2.416C106.579 2.26667 106.377 2.16 106.142 2.096C105.918 2.02133 105.678 1.984 105.422 1.984C105.113 1.984 104.83 2.02667 104.574 2.112C104.318 2.19733 104.089 2.29867 103.886 2.416C103.683 2.52267 103.513 2.64 103.374 2.768C103.235 2.88533 103.129 2.976 103.054 3.04L102.318 1.984C102.414 1.87733 102.558 1.74933 102.75 1.6C102.942 1.44 103.171 1.29067 103.438 1.152C103.705 1.01333 104.003 0.895999 104.334 0.799999C104.665 0.703999 105.022 0.655999 105.406 0.655999C106.569 0.655999 107.438 0.927999 108.014 1.472C108.601 2.00533 108.894 2.76267 108.894 3.744ZM117.925 3.744C117.925 4.128 117.845 4.50133 117.685 4.864C117.536 5.216 117.333 5.568 117.077 5.92C116.821 6.26133 116.533 6.60267 116.213 6.944C115.893 7.27467 115.573 7.6 115.253 7.92C115.072 8.10133 114.858 8.31467 114.613 8.56C114.378 8.80533 114.154 9.06133 113.941 9.328C113.728 9.59467 113.546 9.85067 113.397 10.096C113.258 10.3413 113.189 10.5547 113.189 10.736H118.293V12H111.573C111.562 11.936 111.557 11.872 111.557 11.808C111.557 11.744 111.557 11.6853 111.557 11.632C111.557 11.1307 111.637 10.6667 111.797 10.24C111.968 9.80267 112.186 9.392 112.453 9.008C112.72 8.624 113.018 8.26133 113.349 7.92C113.68 7.57867 114.005 7.248 114.325 6.928C114.592 6.672 114.842 6.42133 115.077 6.176C115.322 5.92 115.536 5.66933 115.717 5.424C115.909 5.168 116.058 4.90667 116.165 4.64C116.282 4.37333 116.341 4.09067 116.341 3.792C116.341 3.472 116.288 3.2 116.181 2.976C116.085 2.752 115.952 2.56533 115.781 2.416C115.61 2.26667 115.408 2.16 115.173 2.096C114.949 2.02133 114.709 1.984 114.453 1.984C114.144 1.984 113.861 2.02667 113.605 2.112C113.349 2.19733 113.12 2.29867 112.917 2.416C112.714 2.52267 112.544 2.64 112.405 2.768C112.266 2.88533 112.16 2.976 112.085 3.04L111.349 1.984C111.445 1.87733 111.589 1.74933 111.781 1.6C111.973 1.44 112.202 1.29067 112.469 1.152C112.736 1.01333 113.034 0.895999 113.365 0.799999C113.696 0.703999 114.053 0.655999 114.437 0.655999C115.6 0.655999 116.469 0.927999 117.045 1.472C117.632 2.00533 117.925 2.76267 117.925 3.744Z" fill="black"/>
</svg>
