<svg width="132" height="16" viewBox="0 0 132 16" fill="none" xmlns="http://www.w3.org/2000/svg">
<path d="M5.192 13.24C4.49867 13.24 3.88533 13.1387 3.352 12.936C2.82933 12.7333 2.392 12.4453 2.04 12.072C1.688 11.6987 1.42133 11.2507 1.24 10.728C1.06933 10.1947 0.984 9.59733 0.984 8.936C0.984 7.976 1.13333 7.05867 1.432 6.184C1.74133 5.30933 2.17333 4.536 2.728 3.864C3.29333 3.192 3.97067 2.65867 4.76 2.264C5.54933 1.85867 6.42933 1.656 7.4 1.656C8.232 1.656 8.89333 1.74133 9.384 1.912C9.88533 2.08267 10.2427 2.24267 10.456 2.392L9.816 3.672C9.57067 3.512 9.23467 3.36267 8.808 3.224C8.392 3.07467 7.896 3 7.32 3C6.584 3 5.92267 3.176 5.336 3.528C4.74933 3.86933 4.25333 4.31733 3.848 4.872C3.44267 5.416 3.13333 6.03467 2.92 6.728C2.70667 7.41067 2.6 8.088 2.6 8.76C2.6 10.84 3.50133 11.88 5.304 11.88C5.688 11.88 6.02933 11.8533 6.328 11.8C6.63733 11.7467 6.90933 11.688 7.144 11.624C7.37867 11.5493 7.58667 11.4693 7.768 11.384C7.94933 11.2987 8.10933 11.224 8.248 11.16L8.44 12.504C8.312 12.5787 8.14133 12.6587 7.928 12.744C7.72533 12.8293 7.48533 12.9093 7.208 12.984C6.93067 13.0587 6.62133 13.1173 6.28 13.16C5.93867 13.2133 5.576 13.24 5.192 13.24ZM21.1218 4.296C20.9511 4.53067 20.7378 4.83467 20.4818 5.208C20.2258 5.58133 19.9484 5.992 19.6498 6.44C19.3511 6.888 19.0418 7.35733 18.7218 7.848C18.4018 8.328 18.0924 8.79733 17.7938 9.256C17.4951 9.704 17.2178 10.1253 16.9618 10.52C16.7058 10.904 16.4978 11.2187 16.3378 11.464H15.0898C15.0471 11.208 14.9884 10.888 14.9138 10.504C14.8498 10.1093 14.7751 9.688 14.6898 9.24C14.6044 8.78133 14.5138 8.312 14.4178 7.832C14.3324 7.34133 14.2418 6.872 14.1458 6.424C14.0604 5.976 13.9804 5.57067 13.9058 5.208C13.8311 4.83467 13.7671 4.53067 13.7138 4.296C13.2658 5.672 12.8284 7.09067 12.4018 8.552C11.9751 10.0133 11.5591 11.496 11.1538 13H9.61775C9.87375 12.04 10.1404 11.0747 10.4178 10.104C10.7058 9.12267 10.9938 8.16267 11.2818 7.224C11.5804 6.27467 11.8738 5.352 12.1618 4.456C12.4604 3.56 12.7484 2.712 13.0258 1.912H14.5458C14.6738 2.38133 14.8071 2.936 14.9458 3.576C15.0951 4.216 15.2391 4.888 15.3778 5.592C15.5271 6.28533 15.6604 6.97867 15.7778 7.672C15.9058 8.36533 16.0124 8.99467 16.0978 9.56C16.4818 8.984 16.9031 8.34933 17.3618 7.656C17.8311 6.96267 18.3004 6.26933 18.7698 5.576C19.2391 4.872 19.6924 4.20533 20.1298 3.576C20.5778 2.936 20.9778 2.38133 21.3298 1.912H22.8178C22.6364 3.71467 22.3911 5.54933 22.0818 7.416C21.7831 9.272 21.4524 11.1333 21.0898 13H19.5378C19.8578 11.464 20.1511 9.976 20.4178 8.536C20.6844 7.08533 20.9191 5.672 21.1218 4.296ZM30.5406 1.656C31.1273 1.656 31.666 1.74667 32.1566 1.928C32.658 2.09867 33.0846 2.36 33.4366 2.712C33.7993 3.064 34.0766 3.50667 34.2686 4.04C34.4713 4.56267 34.5726 5.176 34.5726 5.88C34.5726 6.76533 34.434 7.64533 34.1566 8.52C33.89 9.39467 33.49 10.184 32.9566 10.888C32.4233 11.5813 31.7566 12.1467 30.9566 12.584C30.1566 13.0213 29.2233 13.24 28.1566 13.24C27.5593 13.24 27.0153 13.1547 26.5246 12.984C26.034 12.8027 25.6073 12.536 25.2446 12.184C24.8926 11.832 24.6153 11.3947 24.4126 10.872C24.2206 10.3387 24.1246 9.72 24.1246 9.016C24.1246 8.14133 24.258 7.26667 24.5246 6.392C24.7913 5.50667 25.1913 4.71733 25.7246 4.024C26.2686 3.32 26.9406 2.74933 27.7406 2.312C28.5406 1.87467 29.474 1.656 30.5406 1.656ZM28.3166 11.896C29.0313 11.896 29.6766 11.7253 30.2526 11.384C30.8286 11.032 31.314 10.5787 31.7086 10.024C32.114 9.46933 32.4233 8.84533 32.6366 8.152C32.85 7.45867 32.9566 6.76533 32.9566 6.072C32.9566 5.12267 32.7486 4.376 32.3326 3.832C31.9273 3.27733 31.2766 3 30.3806 3C29.6553 3 29.0046 3.176 28.4286 3.528C27.8633 3.86933 27.378 4.31733 26.9726 4.872C26.578 5.42667 26.274 6.05067 26.0606 6.744C25.8473 7.43733 25.7406 8.13067 25.7406 8.824C25.7406 9.77333 25.9433 10.5253 26.3486 11.08C26.7646 11.624 27.4206 11.896 28.3166 11.896ZM38.9199 10.648C38.9199 10.168 38.9945 9.736 39.1439 9.352C39.3039 8.968 39.5172 8.62667 39.7839 8.328C40.0612 8.01867 40.3865 7.74667 40.7599 7.512C41.1332 7.26667 41.5385 7.048 41.9759 6.856C41.7945 6.55733 41.6399 6.24267 41.5119 5.912C41.3839 5.58133 41.3199 5.20267 41.3199 4.776C41.3199 4.296 41.3999 3.864 41.5599 3.48C41.7199 3.096 41.9439 2.77067 42.2319 2.504C42.5305 2.22667 42.8879 2.01867 43.3039 1.88C43.7305 1.73067 44.1999 1.656 44.7119 1.656C45.0105 1.656 45.2985 1.704 45.5759 1.8C45.8532 1.88533 46.0932 2.01867 46.2959 2.2C46.4985 2.38133 46.6585 2.60533 46.7759 2.872C46.9039 3.128 46.9679 3.432 46.9679 3.784C46.9679 4.2 46.8932 4.57867 46.7439 4.92C46.5945 5.25067 46.3812 5.55467 46.1039 5.832C45.8372 6.10933 45.5172 6.36533 45.1439 6.6C44.7705 6.83467 44.3599 7.05333 43.9119 7.256L45.7679 9.832C46.2799 9.18133 46.6905 8.42933 46.9999 7.576L48.2959 7.736C48.1465 8.184 47.9225 8.68533 47.6239 9.24C47.3359 9.784 46.9679 10.3173 46.5199 10.84C46.7865 11.2133 47.0319 11.5813 47.2559 11.944C47.4905 12.3067 47.6719 12.6587 47.7999 13H46.2639C46.1785 12.808 46.0719 12.616 45.9439 12.424C45.8265 12.2213 45.6932 12.0133 45.5439 11.8C45.0639 12.1947 44.5252 12.52 43.9279 12.776C43.3412 13.0213 42.6639 13.144 41.8959 13.144C41.3625 13.144 40.9092 13.0853 40.5359 12.968C40.1625 12.84 39.8532 12.664 39.6079 12.44C39.3732 12.216 39.1972 11.9547 39.0799 11.656C38.9732 11.3467 38.9199 11.0107 38.9199 10.648ZM41.9919 11.912C42.5039 11.912 43.0052 11.8213 43.4959 11.64C43.9865 11.448 44.4292 11.1707 44.8239 10.808L42.6159 7.768C42.3385 7.88533 42.0665 8.02933 41.7999 8.2C41.5332 8.36 41.2932 8.54667 41.0799 8.76C40.8772 8.97333 40.7065 9.21867 40.5679 9.496C40.4399 9.76267 40.3759 10.0613 40.3759 10.392C40.3759 10.84 40.4932 11.208 40.7279 11.496C40.9732 11.7733 41.3945 11.912 41.9919 11.912ZM42.7119 4.68C42.7119 4.968 42.7652 5.25067 42.8719 5.528C42.9892 5.80533 43.1332 6.08267 43.3039 6.36C43.5812 6.25333 43.8585 6.12533 44.1359 5.976C44.4132 5.816 44.6585 5.63467 44.8719 5.432C45.0959 5.22933 45.2719 5.00533 45.3999 4.76C45.5385 4.51467 45.6079 4.248 45.6079 3.96C45.6079 3.59733 45.5065 3.32 45.3039 3.128C45.1119 2.936 44.8452 2.84 44.5039 2.84C44.0239 2.84 43.6025 2.99467 43.2399 3.304C42.8879 3.60267 42.7119 4.06133 42.7119 4.68ZM59.6734 11.704L59.3694 13H52.9054L55.5614 1.912H57.1134L54.7614 11.704H59.6734ZM62.3109 8.632C62.9295 8.61067 63.4949 8.57333 64.0069 8.52C64.5189 8.456 64.9615 8.35467 65.3349 8.216C65.7082 8.06667 65.9962 7.86933 66.1989 7.624C66.4122 7.37867 66.5189 7.05867 66.5189 6.664C66.5189 6.568 66.4975 6.46667 66.4549 6.36C66.4229 6.25333 66.3589 6.15733 66.2629 6.072C66.1775 5.976 66.0549 5.90133 65.8949 5.848C65.7349 5.784 65.5375 5.752 65.3029 5.752C64.9295 5.752 64.5775 5.832 64.2469 5.992C63.9269 6.152 63.6389 6.36533 63.3829 6.632C63.1269 6.888 62.9082 7.192 62.7269 7.544C62.5455 7.88533 62.4069 8.248 62.3109 8.632ZM63.8309 13.208C63.2869 13.208 62.8175 13.1333 62.4229 12.984C62.0282 12.824 61.6975 12.6107 61.4309 12.344C61.1642 12.0667 60.9669 11.7467 60.8389 11.384C60.7109 11.0213 60.6469 10.6373 60.6469 10.232C60.6469 9.48533 60.7589 8.76533 60.9829 8.072C61.2069 7.37867 61.5269 6.76533 61.9429 6.232C62.3589 5.69867 62.8655 5.27733 63.4629 4.968C64.0602 4.648 64.7375 4.488 65.4949 4.488C65.9322 4.488 66.3055 4.54667 66.6149 4.664C66.9349 4.77067 67.1909 4.92 67.3829 5.112C67.5855 5.304 67.7349 5.528 67.8309 5.784C67.9269 6.02933 67.9749 6.28533 67.9749 6.552C67.9749 7.05333 67.8842 7.48 67.7029 7.832C67.5215 8.17333 67.2815 8.46133 66.9829 8.696C66.6842 8.93067 66.3322 9.112 65.9269 9.24C65.5322 9.368 65.1162 9.46933 64.6789 9.544C64.2522 9.61867 63.8149 9.672 63.3669 9.704C62.9295 9.72533 62.5135 9.74667 62.1189 9.768C62.1082 9.85333 62.1029 9.92267 62.1029 9.976C62.1029 10.0293 62.1029 10.072 62.1029 10.104C62.1029 10.3493 62.1295 10.584 62.1829 10.808C62.2469 11.0213 62.3589 11.2133 62.5189 11.384C62.6789 11.544 62.8975 11.672 63.1749 11.768C63.4629 11.864 63.8362 11.912 64.2949 11.912C64.4975 11.912 64.7055 11.896 64.9189 11.864C65.1429 11.8213 65.3509 11.7733 65.5429 11.72C65.7455 11.656 65.9215 11.5973 66.0709 11.544C66.2309 11.48 66.3429 11.4213 66.4069 11.368L66.5349 12.632C66.3215 12.7493 65.9749 12.872 65.4949 13C65.0255 13.1387 64.4709 13.208 63.8309 13.208ZM74.2401 13.096C74.1868 12.9787 74.1335 12.8507 74.0801 12.712C74.0268 12.5627 73.9841 12.408 73.9521 12.248C73.7175 12.4613 73.4028 12.6747 73.0081 12.888C72.6135 13.1013 72.1281 13.208 71.5521 13.208C71.0828 13.208 70.6775 13.1333 70.3361 12.984C70.0055 12.8347 69.7335 12.6267 69.5201 12.36C69.3068 12.0933 69.1468 11.7787 69.0401 11.416C68.9441 11.0533 68.8961 10.6533 68.8961 10.216C68.8961 9.50133 69.0135 8.80267 69.2481 8.12C69.4935 7.43733 69.8561 6.82933 70.3361 6.296C70.8161 5.76267 71.4188 5.33067 72.1441 5C72.8695 4.66933 73.7175 4.504 74.6881 4.504C74.9761 4.504 75.3121 4.536 75.6961 4.6C76.0801 4.664 76.4108 4.77067 76.6881 4.92L75.4561 9.944C75.4028 10.1893 75.3548 10.424 75.3121 10.648C75.2801 10.872 75.2641 11.1067 75.2641 11.352C75.2641 11.5973 75.2855 11.848 75.3281 12.104C75.3708 12.3493 75.4455 12.616 75.5521 12.904L74.2401 13.096ZM71.8561 11.944C72.3041 11.944 72.6881 11.848 73.0081 11.656C73.3281 11.464 73.6055 11.24 73.8401 10.984C73.8508 10.8027 73.8668 10.616 73.8881 10.424C73.9201 10.2213 73.9575 10.0187 74.0001 9.816L74.9601 5.848C74.9068 5.82667 74.8161 5.81067 74.6881 5.8C74.5708 5.78933 74.4641 5.784 74.3681 5.784C73.7601 5.784 73.2108 5.90133 72.7201 6.136C72.2295 6.37067 71.8081 6.68533 71.4561 7.08C71.1148 7.464 70.8481 7.91733 70.6561 8.44C70.4748 8.952 70.3841 9.49067 70.3841 10.056C70.3841 10.28 70.4055 10.5093 70.4481 10.744C70.4908 10.968 70.5655 11.1707 70.6721 11.352C70.7895 11.5227 70.9388 11.6667 71.1201 11.784C71.3121 11.8907 71.5575 11.944 71.8561 11.944ZM84.0153 11.352C84.0153 11.5973 84.0366 11.848 84.0793 12.104C84.1219 12.3493 84.1966 12.616 84.3033 12.904L82.9913 13.096C82.8739 12.8613 82.7833 12.5787 82.7193 12.248C82.4846 12.4613 82.1699 12.6747 81.7753 12.888C81.3806 13.1013 80.8953 13.208 80.3193 13.208C79.8499 13.208 79.4446 13.1387 79.1033 13C78.7619 12.8507 78.4793 12.6427 78.2553 12.376C78.0313 12.1093 77.8659 11.7947 77.7593 11.432C77.6526 11.0587 77.5993 10.6533 77.5993 10.216C77.5993 9.50133 77.7166 8.80267 77.9513 8.12C78.1966 7.43733 78.5539 6.82933 79.0233 6.296C79.5033 5.76267 80.1006 5.336 80.8153 5.016C81.5299 4.68533 82.3619 4.52 83.3113 4.52C83.4286 4.52 83.5459 4.52533 83.6633 4.536C83.7806 4.54667 83.9033 4.56267 84.0312 4.584L84.9273 0.839999L86.4793 0.584L84.2233 9.944C84.1699 10.1893 84.1219 10.424 84.0793 10.648C84.0366 10.872 84.0153 11.1067 84.0153 11.352ZM80.6233 11.944C81.0713 11.944 81.4499 11.8533 81.7593 11.672C82.0793 11.48 82.3566 11.2613 82.5913 11.016C82.6019 10.8453 82.6179 10.664 82.6393 10.472C82.6713 10.2693 82.7139 10.0507 82.7673 9.816L83.7273 5.816C83.6313 5.79467 83.5246 5.784 83.4073 5.784C83.2899 5.77333 83.1779 5.768 83.0713 5.768C82.4633 5.768 81.9139 5.88533 81.4233 6.12C80.9326 6.35467 80.5113 6.66933 80.1593 7.064C79.8179 7.45867 79.5513 7.91733 79.3593 8.44C79.1779 8.952 79.0873 9.49067 79.0873 10.056C79.0873 10.3013 79.1139 10.536 79.1673 10.76C79.2206 10.984 79.3059 11.1867 79.4233 11.368C79.5406 11.5387 79.6953 11.6773 79.8873 11.784C80.0899 11.8907 80.3353 11.944 80.6233 11.944ZM93.8284 13.24C93.2737 13.24 92.7937 13.16 92.3884 13C91.983 12.8293 91.647 12.6053 91.3804 12.328C91.1137 12.04 90.9164 11.704 90.7884 11.32C90.6604 10.9253 90.5964 10.504 90.5964 10.056C90.5964 9.82133 90.6177 9.56 90.6604 9.272C90.703 8.984 90.751 8.71733 90.8044 8.472L92.3724 1.912H93.9244L92.3244 8.568C92.271 8.77067 92.2284 8.99467 92.1964 9.24C92.1644 9.48533 92.1484 9.71467 92.1484 9.928C92.1484 10.2053 92.1804 10.4613 92.2444 10.696C92.3084 10.9307 92.415 11.1387 92.5644 11.32C92.7244 11.4907 92.927 11.6293 93.1724 11.736C93.4177 11.832 93.7164 11.88 94.0684 11.88C94.975 11.88 95.679 11.6293 96.1804 11.128C96.6817 10.616 97.0604 9.80533 97.3164 8.696L98.9484 1.912H100.5L98.8364 8.872C98.687 9.48 98.511 10.0507 98.3084 10.584C98.1164 11.1173 97.839 11.5813 97.4764 11.976C97.1137 12.36 96.639 12.6693 96.0524 12.904C95.4764 13.128 94.735 13.24 93.8284 13.24ZM106.885 13C106.639 12.2533 106.367 11.496 106.069 10.728C105.781 9.94933 105.455 9.16 105.093 8.36L101.173 13H99.3486L104.453 7.08L102.197 1.912H103.909L105.589 5.992C106.165 5.32 106.73 4.64267 107.285 3.96C107.839 3.27733 108.357 2.59467 108.837 1.912H110.613C109.973 2.78667 109.269 3.67733 108.501 4.584C107.733 5.48 106.975 6.344 106.229 7.176C106.634 8.136 107.034 9.112 107.429 10.104C107.834 11.096 108.191 12.0613 108.501 13H106.885ZM109.448 15.96H107.96L116.904 0.471999H118.392L109.448 15.96ZM120.563 13.24C120.008 13.24 119.528 13.16 119.123 13C118.717 12.8293 118.381 12.6053 118.115 12.328C117.848 12.04 117.651 11.704 117.523 11.32C117.395 10.9253 117.331 10.504 117.331 10.056C117.331 9.82133 117.352 9.56 117.395 9.272C117.437 8.984 117.485 8.71733 117.539 8.472L119.107 1.912H120.659L119.059 8.568C119.005 8.77067 118.963 8.99467 118.931 9.24C118.899 9.48533 118.883 9.71467 118.883 9.928C118.883 10.2053 118.915 10.4613 118.979 10.696C119.043 10.9307 119.149 11.1387 119.299 11.32C119.459 11.4907 119.661 11.6293 119.907 11.736C120.152 11.832 120.451 11.88 120.803 11.88C121.709 11.88 122.413 11.6293 122.915 11.128C123.416 10.616 123.795 9.80533 124.051 8.696L125.683 1.912H127.235L125.571 8.872C125.421 9.48 125.245 10.0507 125.043 10.584C124.851 11.1173 124.573 11.5813 124.211 11.976C123.848 12.36 123.373 12.6693 122.787 12.904C122.211 13.128 121.469 13.24 120.563 13.24ZM129.827 1.912H131.379L128.723 13H127.171L129.827 1.912Z" fill="#065A82"/>
</svg>
