<svg width="113" height="13" viewBox="0 0 113 13" fill="none" xmlns="http://www.w3.org/2000/svg">
<path d="M0.848 6.576H3.872V3.28H5.152V6.576H8.176V7.84H5.152V11.152H3.872V7.84H0.848V6.576ZM12.6473 10.912C13.5966 10.912 14.2739 10.7253 14.6793 10.352C15.0953 9.97867 15.3033 9.47733 15.3033 8.848C15.3033 8.44267 15.2179 8.10133 15.0473 7.824C14.8766 7.54667 14.6526 7.328 14.3753 7.168C14.0979 6.99733 13.7726 6.88 13.3993 6.816C13.0366 6.74133 12.6633 6.704 12.2793 6.704H11.8953V5.488H12.4233C12.6899 5.488 12.9619 5.46133 13.2393 5.408C13.5273 5.35467 13.7886 5.25867 14.0233 5.12C14.2579 4.98133 14.4499 4.79467 14.5993 4.56C14.7486 4.31467 14.8233 4.01067 14.8233 3.648C14.8233 3.34933 14.7699 3.09333 14.6633 2.88C14.5566 2.66667 14.4126 2.49067 14.2313 2.352C14.0606 2.21333 13.8579 2.11733 13.6233 2.064C13.3993 2 13.1593 1.968 12.9033 1.968C12.3913 1.968 11.9539 2.04267 11.5913 2.192C11.2393 2.34133 10.9406 2.496 10.6953 2.656L10.1193 1.52C10.2473 1.43467 10.4073 1.344 10.5993 1.248C10.8019 1.14133 11.0259 1.04533 11.2713 0.959999C11.5166 0.874666 11.7779 0.805333 12.0553 0.752C12.3433 0.687999 12.6419 0.655999 12.9513 0.655999C13.5379 0.655999 14.0446 0.730666 14.4713 0.879999C14.8979 1.01867 15.2499 1.22133 15.5273 1.488C15.8046 1.744 16.0126 2.05333 16.1513 2.416C16.2899 2.768 16.3593 3.152 16.3593 3.568C16.3593 4.144 16.1939 4.64 15.8633 5.056C15.5326 5.46133 15.1326 5.77067 14.6633 5.984C14.9513 6.06933 15.2286 6.192 15.4953 6.352C15.7619 6.512 15.9913 6.71467 16.1833 6.96C16.3859 7.20533 16.5459 7.488 16.6633 7.808C16.7913 8.128 16.8553 8.48533 16.8553 8.88C16.8553 9.36 16.7699 9.808 16.5993 10.224C16.4393 10.6293 16.1833 10.9813 15.8313 11.28C15.4899 11.5787 15.0579 11.8133 14.5353 11.984C14.0126 12.1547 13.3939 12.24 12.6793 12.24C12.4019 12.24 12.1139 12.2187 11.8153 12.176C11.5273 12.1333 11.2553 12.08 10.9993 12.016C10.7433 11.952 10.5193 11.888 10.3273 11.824C10.1353 11.76 9.99658 11.7067 9.91125 11.664L10.1993 10.368C10.3806 10.4533 10.6793 10.5653 11.0953 10.704C11.5219 10.8427 12.0393 10.912 12.6473 10.912ZM21.2465 5.184C22.8572 5.248 24.0358 5.6 24.7825 6.24C25.5398 6.88 25.9185 7.74933 25.9185 8.848C25.9185 9.33867 25.8332 9.792 25.6625 10.208C25.5025 10.624 25.2518 10.9813 24.9105 11.28C24.5798 11.5787 24.1585 11.8133 23.6465 11.984C23.1345 12.1547 22.5265 12.24 21.8225 12.24C21.5452 12.24 21.2625 12.2187 20.9745 12.176C20.6865 12.1333 20.4198 12.08 20.1745 12.016C19.9292 11.952 19.7105 11.888 19.5185 11.824C19.3265 11.76 19.1878 11.7067 19.1025 11.664L19.3905 10.368C19.5718 10.4533 19.8652 10.5653 20.2705 10.704C20.6865 10.8427 21.1932 10.912 21.7905 10.912C22.2705 10.912 22.6705 10.8587 22.9905 10.752C23.3212 10.6453 23.5878 10.5013 23.7905 10.32C23.9932 10.1387 24.1372 9.93067 24.2225 9.696C24.3185 9.45067 24.3665 9.19467 24.3665 8.928C24.3665 8.52267 24.2972 8.16533 24.1585 7.856C24.0198 7.536 23.7745 7.26933 23.4225 7.056C23.0705 6.84267 22.6012 6.68267 22.0145 6.576C21.4278 6.45867 20.6865 6.4 19.7905 6.4C19.8545 5.87733 19.9025 5.38667 19.9345 4.928C19.9772 4.46933 20.0145 4.02133 20.0465 3.584C20.0785 3.14667 20.1052 2.71467 20.1265 2.288C20.1478 1.85067 20.1692 1.392 20.1905 0.912H25.5345V2.176H21.4865C21.4758 2.336 21.4598 2.55467 21.4385 2.832C21.4172 3.09867 21.3958 3.38133 21.3745 3.68C21.3532 3.968 21.3318 4.25067 21.3105 4.528C21.2892 4.80533 21.2678 5.024 21.2465 5.184ZM35.1098 5.344C35.1098 7.54133 34.5604 9.20533 33.4618 10.336C32.3738 11.456 30.7524 12.0213 28.5978 12.032L28.5498 10.784C29.2218 10.784 29.8244 10.72 30.3578 10.592C30.9018 10.464 31.3764 10.2613 31.7818 9.984C32.1871 9.696 32.5231 9.328 32.7898 8.88C33.0671 8.432 33.2698 7.88267 33.3978 7.232C33.1204 7.36 32.8058 7.46667 32.4538 7.552C32.1018 7.62667 31.7391 7.664 31.3658 7.664C30.7364 7.664 30.2031 7.57333 29.7658 7.392C29.3284 7.2 28.9711 6.94933 28.6938 6.64C28.4164 6.32 28.2138 5.95733 28.0858 5.552C27.9684 5.136 27.9098 4.704 27.9098 4.256C27.9098 3.86133 27.9791 3.45067 28.1178 3.024C28.2564 2.59733 28.4644 2.208 28.7418 1.856C29.0298 1.504 29.3924 1.216 29.8298 0.992C30.2671 0.767999 30.7844 0.655999 31.3818 0.655999C31.9898 0.655999 32.5231 0.762666 32.9818 0.976C33.4511 1.18933 33.8404 1.49867 34.1498 1.904C34.4698 2.30933 34.7098 2.80533 34.8698 3.392C35.0298 3.968 35.1098 4.61867 35.1098 5.344ZM31.5258 6.448C31.8991 6.448 32.2511 6.416 32.5818 6.352C32.9124 6.27733 33.2324 6.17067 33.5418 6.032C33.5524 5.91467 33.5578 5.80267 33.5578 5.696C33.5578 5.57867 33.5578 5.46133 33.5578 5.344C33.5578 4.88533 33.5258 4.448 33.4618 4.032C33.3978 3.60533 33.2804 3.23733 33.1098 2.928C32.9498 2.608 32.7311 2.35733 32.4538 2.176C32.1764 1.984 31.8244 1.888 31.3978 1.888C31.0458 1.888 30.7471 1.96267 30.5018 2.112C30.2564 2.26133 30.0538 2.45333 29.8938 2.688C29.7338 2.912 29.6164 3.16267 29.5418 3.44C29.4778 3.70667 29.4457 3.968 29.4457 4.224C29.4457 4.94933 29.6164 5.504 29.9578 5.888C30.3098 6.26133 30.8324 6.448 31.5258 6.448ZM47.9721 9.12C47.9721 9.568 47.8921 9.984 47.7321 10.368C47.5828 10.7413 47.3535 11.072 47.0441 11.36C46.7455 11.6373 46.3668 11.8507 45.9081 12C45.4495 12.16 44.9215 12.24 44.3241 12.24C43.6308 12.24 43.0495 12.144 42.5801 11.952C42.1215 11.7493 41.7535 11.4987 41.4761 11.2C41.1988 10.9013 41.0015 10.576 40.8841 10.224C40.7668 9.86133 40.7081 9.52 40.7081 9.2C40.7081 8.89067 40.7561 8.59733 40.8521 8.32C40.9588 8.032 41.0921 7.76533 41.2521 7.52C41.4228 7.27467 41.6148 7.056 41.8281 6.864C42.0521 6.66133 42.2868 6.48533 42.5321 6.336C41.4868 5.73867 40.9641 4.85867 40.9641 3.696C40.9641 3.29067 41.0441 2.90667 41.2041 2.544C41.3641 2.17067 41.5881 1.84533 41.8761 1.568C42.1748 1.29067 42.5321 1.072 42.9481 0.912C43.3641 0.741333 43.8281 0.655999 44.3401 0.655999C44.9375 0.655999 45.4495 0.746666 45.8761 0.927999C46.3028 1.10933 46.6495 1.344 46.9161 1.632C47.1935 1.90933 47.3908 2.21867 47.5081 2.56C47.6361 2.90133 47.7001 3.232 47.7001 3.552C47.7001 3.86133 47.6521 4.15467 47.5561 4.432C47.4708 4.69867 47.3481 4.94933 47.1881 5.184C47.0388 5.41867 46.8628 5.62667 46.6601 5.808C46.4681 5.98933 46.2655 6.14933 46.0521 6.288C47.3108 6.88533 47.9508 7.82933 47.9721 9.12ZM42.2121 9.216C42.2121 9.408 42.2441 9.61067 42.3081 9.824C42.3828 10.0267 42.5055 10.2187 42.6761 10.4C42.8468 10.5707 43.0655 10.7147 43.3321 10.832C43.5988 10.9493 43.9348 11.008 44.3401 11.008C44.7028 11.008 45.0175 10.9547 45.2841 10.848C45.5615 10.7413 45.7855 10.608 45.9561 10.448C46.1268 10.2773 46.2548 10.0853 46.3401 9.872C46.4255 9.65867 46.4681 9.44 46.4681 9.216C46.4681 8.87467 46.4041 8.576 46.2761 8.32C46.1481 8.064 45.9615 7.84 45.7161 7.648C45.4815 7.456 45.1935 7.296 44.8521 7.168C44.5215 7.02933 44.1428 6.912 43.7161 6.816C43.2361 7.08267 42.8628 7.41333 42.5961 7.808C42.3401 8.20267 42.2121 8.672 42.2121 9.216ZM46.2121 3.536C46.2121 3.376 46.1748 3.2 46.1001 3.008C46.0361 2.816 45.9295 2.64 45.7801 2.48C45.6308 2.30933 45.4388 2.17067 45.2041 2.064C44.9695 1.94667 44.6815 1.888 44.3401 1.888C43.9988 1.888 43.7055 1.94133 43.4601 2.048C43.2255 2.15467 43.0335 2.29333 42.8841 2.464C42.7348 2.624 42.6228 2.80533 42.5481 3.008C42.4841 3.2 42.4521 3.392 42.4521 3.584C42.4521 3.81867 42.4948 4.05333 42.5801 4.288C42.6655 4.52267 42.7988 4.74133 42.9801 4.944C43.1615 5.14667 43.3961 5.328 43.6841 5.488C43.9828 5.648 44.3348 5.776 44.7401 5.872C45.1881 5.60533 45.5455 5.296 45.8121 4.944C46.0788 4.58133 46.2121 4.112 46.2121 3.536ZM51.4674 12C51.5314 11.1467 51.6807 10.2507 51.9154 9.312C52.1607 8.36267 52.4594 7.44533 52.8114 6.56C53.1634 5.664 53.5474 4.83733 53.9634 4.08C54.39 3.312 54.806 2.688 55.2114 2.208H49.8194V0.912H56.8754V2.144C56.5234 2.54933 56.134 3.10933 55.7074 3.824C55.2807 4.528 54.8754 5.32267 54.4914 6.208C54.118 7.08267 53.7927 8.02133 53.5154 9.024C53.2487 10.016 53.0834 11.008 53.0194 12H51.4674ZM58.8986 7.552C58.8986 6.47467 59.048 5.52533 59.3466 4.704C59.6453 3.872 60.0666 3.17333 60.6106 2.608C61.1653 2.04267 61.832 1.616 62.6106 1.328C63.4 1.02933 64.2853 0.874666 65.2666 0.863999L65.3786 2.112C64.7493 2.12267 64.1733 2.192 63.6506 2.32C63.1386 2.448 62.68 2.65067 62.2746 2.928C61.8693 3.20533 61.528 3.568 61.2506 4.016C60.9733 4.45333 60.7653 4.99733 60.6266 5.648C60.904 5.52 61.2133 5.41333 61.5546 5.328C61.9066 5.24267 62.2693 5.2 62.6426 5.2C63.272 5.2 63.8053 5.296 64.2426 5.488C64.68 5.68 65.0373 5.936 65.3146 6.256C65.592 6.56533 65.7893 6.928 65.9066 7.344C66.0346 7.74933 66.0986 8.176 66.0986 8.624C66.0986 9.02933 66.0293 9.44533 65.8906 9.872C65.752 10.2987 65.5386 10.688 65.2506 11.04C64.9733 11.392 64.616 11.68 64.1786 11.904C63.7413 12.128 63.224 12.24 62.6266 12.24C61.4106 12.24 60.4826 11.824 59.8426 10.992C59.2133 10.16 58.8986 9.01333 58.8986 7.552ZM62.4826 6.416C62.1093 6.416 61.7626 6.45333 61.4426 6.528C61.1226 6.592 60.8026 6.69333 60.4826 6.832C60.472 6.94933 60.4613 7.072 60.4506 7.2C60.4506 7.31733 60.4506 7.43467 60.4506 7.552C60.4506 8.02133 60.4826 8.464 60.5466 8.88C60.6106 9.296 60.7226 9.664 60.8826 9.984C61.0533 10.2933 61.2773 10.544 61.5546 10.736C61.832 10.9173 62.184 11.008 62.6106 11.008C62.9626 11.008 63.2613 10.9333 63.5066 10.784C63.752 10.6347 63.9546 10.4427 64.1146 10.208C64.2746 9.97333 64.3866 9.72267 64.4506 9.456C64.5253 9.17867 64.5626 8.912 64.5626 8.656C64.5626 7.93067 64.3866 7.376 64.0346 6.992C63.6933 6.608 63.176 6.416 62.4826 6.416ZM69.5299 12C69.5939 11.1467 69.7432 10.2507 69.9779 9.312C70.2232 8.36267 70.5219 7.44533 70.8739 6.56C71.2259 5.664 71.6099 4.83733 72.0259 4.08C72.4525 3.312 72.8685 2.688 73.2739 2.208H67.8819V0.912H74.9379V2.144C74.5859 2.54933 74.1965 3.10933 73.7699 3.824C73.3432 4.528 72.9379 5.32267 72.5539 6.208C72.1805 7.08267 71.8552 8.02133 71.5779 9.024C71.3112 10.016 71.1459 11.008 71.0819 12H69.5299ZM80.2963 8.16C80.4989 7.69067 80.7763 7.14667 81.1283 6.528C81.4803 5.89867 81.8749 5.25333 82.3123 4.592C82.7603 3.93067 83.2349 3.28 83.7363 2.64C84.2483 2 84.7603 1.424 85.2723 0.912H86.6963V7.952H88.0083V9.168H86.6963V12H85.2563V9.168H80.2963V8.16ZM85.2563 2.672C84.9363 3.01333 84.6109 3.39733 84.2803 3.824C83.9603 4.24 83.6456 4.67733 83.3363 5.136C83.0269 5.59467 82.7336 6.064 82.4563 6.544C82.1896 7.024 81.9496 7.49333 81.7363 7.952H85.2563V2.672ZM91.8715 5.184C93.4822 5.248 94.6608 5.6 95.4075 6.24C96.1648 6.88 96.5435 7.74933 96.5435 8.848C96.5435 9.33867 96.4582 9.792 96.2875 10.208C96.1275 10.624 95.8768 10.9813 95.5355 11.28C95.2048 11.5787 94.7835 11.8133 94.2715 11.984C93.7595 12.1547 93.1515 12.24 92.4475 12.24C92.1702 12.24 91.8875 12.2187 91.5995 12.176C91.3115 12.1333 91.0448 12.08 90.7995 12.016C90.5542 11.952 90.3355 11.888 90.1435 11.824C89.9515 11.76 89.8128 11.7067 89.7275 11.664L90.0155 10.368C90.1968 10.4533 90.4902 10.5653 90.8955 10.704C91.3115 10.8427 91.8182 10.912 92.4155 10.912C92.8955 10.912 93.2955 10.8587 93.6155 10.752C93.9462 10.6453 94.2128 10.5013 94.4155 10.32C94.6182 10.1387 94.7622 9.93067 94.8475 9.696C94.9435 9.45067 94.9915 9.19467 94.9915 8.928C94.9915 8.52267 94.9222 8.16533 94.7835 7.856C94.6448 7.536 94.3995 7.26933 94.0475 7.056C93.6955 6.84267 93.2262 6.68267 92.6395 6.576C92.0528 6.45867 91.3115 6.4 90.4155 6.4C90.4795 5.87733 90.5275 5.38667 90.5595 4.928C90.6022 4.46933 90.6395 4.02133 90.6715 3.584C90.7035 3.14667 90.7302 2.71467 90.7515 2.288C90.7728 1.85067 90.7942 1.392 90.8155 0.912H96.1595V2.176H92.1115C92.1008 2.336 92.0848 2.55467 92.0635 2.832C92.0422 3.09867 92.0208 3.38133 91.9995 3.68C91.9782 3.968 91.9568 4.25067 91.9355 4.528C91.9142 4.80533 91.8928 5.024 91.8715 5.184ZM99.2068 3.2C99.8148 2.96533 100.407 2.66667 100.983 2.304C101.559 1.93067 102.087 1.46667 102.567 0.912H103.623V12H102.135V2.976C102.007 3.09333 101.847 3.216 101.655 3.344C101.473 3.472 101.271 3.59467 101.047 3.712C100.833 3.82933 100.604 3.94133 100.359 4.048C100.124 4.15467 99.8948 4.24533 99.6708 4.32L99.2068 3.2ZM108.238 3.2C108.846 2.96533 109.438 2.66667 110.014 2.304C110.59 1.93067 111.118 1.46667 111.598 0.912H112.654V12H111.166V2.976C111.038 3.09333 110.878 3.216 110.686 3.344C110.505 3.472 110.302 3.59467 110.078 3.712C109.865 3.82933 109.635 3.94133 109.39 4.048C109.155 4.15467 108.926 4.24533 108.702 4.32L108.238 3.2Z" fill="black"/>
</svg>
