<svg width="112" height="14" viewBox="0 0 112 14" fill="none" xmlns="http://www.w3.org/2000/svg">
<path d="M4.016 13V8.552C3.28 7.41067 2.58667 6.28533 1.936 5.176C1.28533 4.06667 0.672 2.97867 0.096 1.912H1.92C2.32533 2.78667 2.77867 3.67733 3.28 4.584C3.78133 5.48 4.29867 6.344 4.832 7.176C5.35467 6.344 5.86667 5.48 6.368 4.584C6.86933 3.67733 7.328 2.78667 7.744 1.912H9.472C8.896 2.97867 8.28267 4.06667 7.632 5.176C6.98133 6.27467 6.29333 7.38933 5.568 8.52V13H4.016ZM17.4053 8.84C17.4053 9.50133 17.3093 10.0987 17.1173 10.632C16.9253 11.1653 16.6533 11.624 16.3013 12.008C15.9599 12.392 15.5493 12.6907 15.0693 12.904C14.5893 13.1067 14.0666 13.208 13.5013 13.208C12.9359 13.208 12.4133 13.1067 11.9333 12.904C11.4533 12.6907 11.0373 12.392 10.6853 12.008C10.3439 11.624 10.0773 11.1653 9.88525 10.632C9.69325 10.0987 9.59725 9.50133 9.59725 8.84C9.59725 8.18933 9.69325 7.59733 9.88525 7.064C10.0773 6.52 10.3439 6.056 10.6853 5.672C11.0373 5.288 11.4533 4.99467 11.9333 4.792C12.4133 4.57867 12.9359 4.472 13.5013 4.472C14.0666 4.472 14.5893 4.57867 15.0693 4.792C15.5493 4.99467 15.9599 5.288 16.3013 5.672C16.6533 6.056 16.9253 6.52 17.1173 7.064C17.3093 7.59733 17.4053 8.18933 17.4053 8.84ZM15.8533 8.84C15.8533 7.90133 15.6399 7.16 15.2133 6.616C14.7973 6.06133 14.2266 5.784 13.5013 5.784C12.7759 5.784 12.1999 6.06133 11.7733 6.616C11.3573 7.16 11.1493 7.90133 11.1493 8.84C11.1493 9.77867 11.3573 10.5253 11.7733 11.08C12.1999 11.624 12.7759 11.896 13.5013 11.896C14.2266 11.896 14.7973 11.624 15.2133 11.08C15.6399 10.5253 15.8533 9.77867 15.8533 8.84ZM22.3148 11.928C22.6668 11.928 22.9761 11.9227 23.2428 11.912C23.5201 11.8907 23.7494 11.8587 23.9308 11.816V9.336C23.8241 9.28267 23.6481 9.24 23.4028 9.208C23.1681 9.16533 22.8801 9.144 22.5388 9.144C22.3148 9.144 22.0748 9.16 21.8188 9.192C21.5734 9.224 21.3441 9.29333 21.1308 9.4C20.9281 9.496 20.7574 9.63467 20.6188 9.816C20.4801 9.98667 20.4108 10.216 20.4108 10.504C20.4108 11.0373 20.5814 11.4107 20.9228 11.624C21.2641 11.8267 21.7281 11.928 22.3148 11.928ZM22.1868 4.472C22.7841 4.472 23.2854 4.552 23.6908 4.712C24.1068 4.86133 24.4374 5.08 24.6828 5.368C24.9388 5.64533 25.1201 5.98133 25.2268 6.376C25.3334 6.76 25.3868 7.18667 25.3868 7.656V12.856C25.2588 12.8773 25.0774 12.9093 24.8428 12.952C24.6188 12.984 24.3628 13.016 24.0748 13.048C23.7868 13.08 23.4721 13.1067 23.1308 13.128C22.8001 13.16 22.4694 13.176 22.1388 13.176C21.6694 13.176 21.2374 13.128 20.8428 13.032C20.4481 12.936 20.1068 12.7867 19.8188 12.584C19.5308 12.3707 19.3068 12.0933 19.1468 11.752C18.9868 11.4107 18.9068 11 18.9068 10.52C18.9068 10.0613 18.9974 9.66667 19.1788 9.336C19.3708 9.00533 19.6268 8.73867 19.9468 8.536C20.2668 8.33333 20.6401 8.184 21.0668 8.088C21.4934 7.992 21.9414 7.944 22.4108 7.944C22.5601 7.944 22.7148 7.95467 22.8748 7.976C23.0348 7.98667 23.1841 8.008 23.3228 8.04C23.4721 8.06133 23.6001 8.08267 23.7068 8.104C23.8134 8.12533 23.8881 8.14133 23.9308 8.152V7.736C23.9308 7.49067 23.9041 7.25067 23.8508 7.016C23.7974 6.77067 23.7014 6.55733 23.5628 6.376C23.4241 6.184 23.2321 6.03467 22.9868 5.928C22.7521 5.81067 22.4428 5.752 22.0588 5.752C21.5681 5.752 21.1361 5.78933 20.7628 5.864C20.4001 5.928 20.1281 5.99733 19.9468 6.072L19.7708 4.84C19.9628 4.75467 20.2828 4.67467 20.7308 4.6C21.1788 4.51467 21.6641 4.472 22.1868 4.472ZM27.8581 4.92C28.1995 4.83467 28.6528 4.744 29.2181 4.648C29.7835 4.552 30.4341 4.504 31.1701 4.504C31.8315 4.504 32.3808 4.6 32.8181 4.792C33.2555 4.97333 33.6021 5.23467 33.8581 5.576C34.1248 5.90667 34.3115 6.30667 34.4181 6.776C34.5248 7.24533 34.5781 7.76267 34.5781 8.328V13H33.0901V8.648C33.0901 8.136 33.0528 7.69867 32.9781 7.336C32.9141 6.97333 32.8021 6.68 32.6421 6.456C32.4821 6.232 32.2688 6.072 32.0021 5.976C31.7355 5.86933 31.4048 5.816 31.0101 5.816C30.8501 5.816 30.6848 5.82133 30.5141 5.832C30.3435 5.84267 30.1781 5.85867 30.0181 5.88C29.8688 5.89067 29.7301 5.90667 29.6021 5.928C29.4848 5.94933 29.3995 5.96533 29.3461 5.976V13H27.8581V4.92ZM39.8616 11.928C40.2136 11.928 40.523 11.9227 40.7896 11.912C41.067 11.8907 41.2963 11.8587 41.4776 11.816V9.336C41.371 9.28267 41.195 9.24 40.9496 9.208C40.715 9.16533 40.427 9.144 40.0856 9.144C39.8616 9.144 39.6216 9.16 39.3656 9.192C39.1203 9.224 38.891 9.29333 38.6776 9.4C38.475 9.496 38.3043 9.63467 38.1656 9.816C38.027 9.98667 37.9576 10.216 37.9576 10.504C37.9576 11.0373 38.1283 11.4107 38.4696 11.624C38.811 11.8267 39.275 11.928 39.8616 11.928ZM39.7336 4.472C40.331 4.472 40.8323 4.552 41.2376 4.712C41.6536 4.86133 41.9843 5.08 42.2296 5.368C42.4856 5.64533 42.667 5.98133 42.7736 6.376C42.8803 6.76 42.9336 7.18667 42.9336 7.656V12.856C42.8056 12.8773 42.6243 12.9093 42.3896 12.952C42.1656 12.984 41.9096 13.016 41.6216 13.048C41.3336 13.08 41.019 13.1067 40.6776 13.128C40.347 13.16 40.0163 13.176 39.6856 13.176C39.2163 13.176 38.7843 13.128 38.3896 13.032C37.995 12.936 37.6536 12.7867 37.3656 12.584C37.0776 12.3707 36.8536 12.0933 36.6936 11.752C36.5336 11.4107 36.4536 11 36.4536 10.52C36.4536 10.0613 36.5443 9.66667 36.7256 9.336C36.9176 9.00533 37.1736 8.73867 37.4936 8.536C37.8136 8.33333 38.187 8.184 38.6136 8.088C39.0403 7.992 39.4883 7.944 39.9576 7.944C40.107 7.944 40.2616 7.95467 40.4216 7.976C40.5816 7.98667 40.731 8.008 40.8696 8.04C41.019 8.06133 41.147 8.08267 41.2536 8.104C41.3603 8.12533 41.435 8.14133 41.4776 8.152V7.736C41.4776 7.49067 41.451 7.25067 41.3976 7.016C41.3443 6.77067 41.2483 6.55733 41.1096 6.376C40.971 6.184 40.779 6.03467 40.5336 5.928C40.299 5.81067 39.9896 5.752 39.6056 5.752C39.115 5.752 38.683 5.78933 38.3096 5.864C37.947 5.928 37.675 5.99733 37.4936 6.072L37.3176 4.84C37.5096 4.75467 37.8296 4.67467 38.2776 4.6C38.7256 4.51467 39.211 4.472 39.7336 4.472ZM53.9721 13.24C53.1935 13.24 52.4841 13.112 51.8441 12.856C51.2041 12.6 50.6548 12.2267 50.1961 11.736C49.7375 11.2453 49.3801 10.6427 49.1241 9.928C48.8788 9.20267 48.7561 8.376 48.7561 7.448C48.7561 6.52 48.8948 5.69867 49.1721 4.984C49.4601 4.25867 49.8441 3.65067 50.3241 3.16C50.8041 2.66933 51.3641 2.296 52.0041 2.04C52.6441 1.784 53.3268 1.656 54.0521 1.656C54.5108 1.656 54.9215 1.688 55.2841 1.752C55.6575 1.816 55.9775 1.89067 56.2441 1.976C56.5215 2.06133 56.7455 2.14667 56.9161 2.232C57.0868 2.31733 57.2041 2.38133 57.2681 2.424L56.8201 3.704C56.7241 3.64 56.5855 3.57067 56.4041 3.496C56.2228 3.42133 56.0148 3.34667 55.7801 3.272C55.5561 3.19733 55.3055 3.13867 55.0281 3.096C54.7615 3.04267 54.4895 3.016 54.2121 3.016C53.6255 3.016 53.0975 3.11733 52.6281 3.32C52.1588 3.52267 51.7588 3.816 51.4281 4.2C51.0975 4.584 50.8415 5.05333 50.6601 5.608C50.4895 6.152 50.4041 6.76533 50.4041 7.448C50.4041 8.10933 50.4788 8.712 50.6281 9.256C50.7881 9.8 51.0228 10.2693 51.3321 10.664C51.6415 11.048 52.0255 11.3467 52.4841 11.56C52.9535 11.7733 53.4975 11.88 54.1161 11.88C54.8308 11.88 55.4228 11.8053 55.8921 11.656C56.3615 11.5067 56.7135 11.3733 56.9481 11.256L57.3481 12.536C57.2735 12.5893 57.1401 12.6587 56.9481 12.744C56.7561 12.8187 56.5161 12.8933 56.2281 12.968C55.9401 13.0427 55.6041 13.1067 55.2201 13.16C54.8361 13.2133 54.4201 13.24 53.9721 13.24ZM59.03 13V0.839999L60.518 0.584V4.84C60.7953 4.73333 61.0887 4.65333 61.398 4.6C61.718 4.536 62.0327 4.504 62.342 4.504C63.0033 4.504 63.5527 4.6 63.99 4.792C64.4273 4.97333 64.774 5.23467 65.03 5.576C65.2967 5.90667 65.4833 6.30667 65.59 6.776C65.6967 7.24533 65.75 7.76267 65.75 8.328V13H64.262V8.648C64.262 8.136 64.2247 7.69867 64.15 7.336C64.086 6.97333 63.974 6.68 63.814 6.456C63.654 6.232 63.4407 6.072 63.174 5.976C62.9073 5.86933 62.5767 5.816 62.182 5.816C62.022 5.816 61.8567 5.82667 61.686 5.848C61.5153 5.86933 61.35 5.896 61.19 5.928C61.0407 5.94933 60.902 5.976 60.774 6.008C60.6567 6.04 60.5713 6.06667 60.518 6.088V13H59.03ZM74.7946 12.76C74.4533 12.8453 74 12.936 73.4346 13.032C72.88 13.128 72.2346 13.176 71.4986 13.176C70.8586 13.176 70.32 13.0853 69.8826 12.904C69.4453 12.712 69.0933 12.4453 68.8266 12.104C68.56 11.7627 68.368 11.3627 68.2506 10.904C68.1333 10.4347 68.0746 9.91733 68.0746 9.352V4.68H69.5626V9.032C69.5626 10.0453 69.7226 10.7707 70.0426 11.208C70.3626 11.6453 70.9013 11.864 71.6586 11.864C71.8186 11.864 71.984 11.8587 72.1546 11.848C72.3253 11.8373 72.4853 11.8267 72.6346 11.816C72.784 11.7947 72.9173 11.7787 73.0346 11.768C73.1626 11.7467 73.2533 11.7253 73.3066 11.704V4.68H74.7946V12.76ZM80.4301 4.504C80.5581 4.504 80.7021 4.51467 80.8621 4.536C81.0328 4.54667 81.1981 4.568 81.3581 4.6C81.5181 4.62133 81.6621 4.648 81.7901 4.68C81.9288 4.70133 82.0301 4.72267 82.0941 4.744L81.8381 6.04C81.7208 5.99733 81.5235 5.94933 81.2461 5.896C80.9795 5.832 80.6328 5.8 80.2061 5.8C79.9288 5.8 79.6515 5.832 79.3741 5.896C79.1075 5.94933 78.9315 5.98667 78.8461 6.008V13H77.3581V5.032C77.7101 4.904 78.1475 4.78667 78.6701 4.68C79.1928 4.56267 79.7795 4.504 80.4301 4.504ZM86.538 8.424C86.858 8.66933 87.194 8.97333 87.546 9.336C87.9087 9.69867 88.2607 10.0933 88.602 10.52C88.954 10.936 89.2847 11.3627 89.594 11.8C89.9033 12.2267 90.1647 12.6267 90.378 13H88.634C88.41 12.6267 88.1487 12.248 87.85 11.864C87.562 11.4693 87.258 11.096 86.938 10.744C86.618 10.3813 86.2927 10.0507 85.962 9.752C85.6313 9.45333 85.3167 9.20267 85.018 9V13H83.53V0.839999L85.018 0.584V8.168C85.274 7.912 85.5567 7.62933 85.866 7.32C86.1753 7.01067 86.4793 6.696 86.778 6.376C87.0767 6.056 87.3593 5.752 87.626 5.464C87.8927 5.16533 88.122 4.904 88.314 4.68H90.058C89.8127 4.94667 89.546 5.24 89.258 5.56C88.97 5.88 88.6713 6.20533 88.362 6.536C88.0527 6.856 87.738 7.18133 87.418 7.512C87.1087 7.832 86.8153 8.136 86.538 8.424ZM93.3774 13H91.8894V4.68H93.3774V13ZM92.6254 3.176C92.3587 3.176 92.1294 3.09067 91.9374 2.92C91.756 2.73867 91.6654 2.49867 91.6654 2.2C91.6654 1.90133 91.756 1.66667 91.9374 1.496C92.1294 1.31467 92.3587 1.224 92.6254 1.224C92.892 1.224 93.116 1.31467 93.2974 1.496C93.4894 1.66667 93.5854 1.90133 93.5854 2.2C93.5854 2.49867 93.4894 2.73867 93.2974 2.92C93.116 3.09067 92.892 3.176 92.6254 3.176ZM95.9363 4.92C96.2776 4.83467 96.7309 4.744 97.2963 4.648C97.8616 4.552 98.5123 4.504 99.2483 4.504C99.9096 4.504 100.459 4.6 100.896 4.792C101.334 4.97333 101.68 5.23467 101.936 5.576C102.203 5.90667 102.39 6.30667 102.496 6.776C102.603 7.24533 102.656 7.76267 102.656 8.328V13H101.168V8.648C101.168 8.136 101.131 7.69867 101.056 7.336C100.992 6.97333 100.88 6.68 100.72 6.456C100.56 6.232 100.347 6.072 100.08 5.976C99.8136 5.86933 99.4829 5.816 99.0883 5.816C98.9283 5.816 98.7629 5.82133 98.5923 5.832C98.4216 5.84267 98.2563 5.85867 98.0963 5.88C97.9469 5.89067 97.8083 5.90667 97.6803 5.928C97.5629 5.94933 97.4776 5.96533 97.4243 5.976V13H95.9363V4.92ZM107.94 11.928C108.292 11.928 108.601 11.9227 108.868 11.912C109.145 11.8907 109.374 11.8587 109.556 11.816V9.336C109.449 9.28267 109.273 9.24 109.028 9.208C108.793 9.16533 108.505 9.144 108.164 9.144C107.94 9.144 107.7 9.16 107.444 9.192C107.198 9.224 106.969 9.29333 106.756 9.4C106.553 9.496 106.382 9.63467 106.244 9.816C106.105 9.98667 106.036 10.216 106.036 10.504C106.036 11.0373 106.206 11.4107 106.548 11.624C106.889 11.8267 107.353 11.928 107.94 11.928ZM107.812 4.472C108.409 4.472 108.91 4.552 109.316 4.712C109.732 4.86133 110.062 5.08 110.308 5.368C110.564 5.64533 110.745 5.98133 110.852 6.376C110.958 6.76 111.012 7.18667 111.012 7.656V12.856C110.884 12.8773 110.702 12.9093 110.468 12.952C110.244 12.984 109.988 13.016 109.7 13.048C109.412 13.08 109.097 13.1067 108.756 13.128C108.425 13.16 108.094 13.176 107.764 13.176C107.294 13.176 106.862 13.128 106.468 13.032C106.073 12.936 105.732 12.7867 105.444 12.584C105.156 12.3707 104.932 12.0933 104.772 11.752C104.612 11.4107 104.532 11 104.532 10.52C104.532 10.0613 104.622 9.66667 104.804 9.336C104.996 9.00533 105.252 8.73867 105.572 8.536C105.892 8.33333 106.265 8.184 106.692 8.088C107.118 7.992 107.566 7.944 108.036 7.944C108.185 7.944 108.34 7.95467 108.5 7.976C108.66 7.98667 108.809 8.008 108.948 8.04C109.097 8.06133 109.225 8.08267 109.332 8.104C109.438 8.12533 109.513 8.14133 109.556 8.152V7.736C109.556 7.49067 109.529 7.25067 109.476 7.016C109.422 6.77067 109.326 6.55733 109.188 6.376C109.049 6.184 108.857 6.03467 108.612 5.928C108.377 5.81067 108.068 5.752 107.684 5.752C107.193 5.752 106.761 5.78933 106.388 5.864C106.025 5.928 105.753 5.99733 105.572 6.072L105.396 4.84C105.588 4.75467 105.908 4.67467 106.356 4.6C106.804 4.51467 107.289 4.472 107.812 4.472Z" fill="black"/>
<a href="https://www.linkedin.com/in/yoana-churkina-9408a1234/">
<rect fill="black" fill-opacity="0" y="-0.192" width="112.196" height="18.384"/>
</a>
</svg>
