<svg width="143" height="17" viewBox="0 0 143 17" fill="none" xmlns="http://www.w3.org/2000/svg">
<path d="M6.32 8.28C6.92 7.28 7.50667 6.26667 8.08 5.24C8.65333 4.21333 9.17333 3.18 9.64 2.14H12.44C11.6933 3.55333 10.9133 4.96 10.1 6.36C9.3 7.74667 8.44 9.14667 7.52 10.56V16H5V10.6C4.08 9.17333 3.21333 7.76 2.4 6.36C1.58667 4.96 0.806667 3.55333 0.06 2.14H3.02C3.48667 3.18 4 4.21333 4.56 5.24C5.12 6.26667 5.70667 7.28 6.32 8.28ZM22.4844 10.76C22.4844 11.5867 22.3644 12.34 22.1244 13.02C21.8844 13.7 21.5444 14.28 21.1044 14.76C20.6644 15.24 20.131 15.6133 19.5044 15.88C18.891 16.1467 18.211 16.28 17.4644 16.28C16.7177 16.28 16.0377 16.1467 15.4244 15.88C14.811 15.6133 14.2844 15.24 13.8444 14.76C13.4044 14.28 13.0577 13.7 12.8044 13.02C12.5644 12.34 12.4444 11.5867 12.4444 10.76C12.4444 9.93333 12.5644 9.18667 12.8044 8.52C13.0577 7.84 13.4044 7.26 13.8444 6.78C14.2977 6.3 14.831 5.93333 15.4444 5.68C16.0577 5.41333 16.731 5.28 17.4644 5.28C18.1977 5.28 18.871 5.41333 19.4844 5.68C20.111 5.93333 20.6444 6.3 21.0844 6.78C21.5244 7.26 21.8644 7.84 22.1044 8.52C22.3577 9.18667 22.4844 9.93333 22.4844 10.76ZM20.0044 10.76C20.0044 9.72 19.7777 8.9 19.3244 8.3C18.8844 7.68667 18.2644 7.38 17.4644 7.38C16.6644 7.38 16.0377 7.68667 15.5844 8.3C15.1444 8.9 14.9244 9.72 14.9244 10.76C14.9244 11.8133 15.1444 12.6467 15.5844 13.26C16.0377 13.8733 16.6644 14.18 17.4644 14.18C18.2644 14.18 18.8844 13.8733 19.3244 13.26C19.7777 12.6467 20.0044 11.8133 20.0044 10.76ZM28.6575 14.3C29.4042 14.3 29.9708 14.26 30.3575 14.18V11.5C30.2242 11.46 30.0308 11.42 29.7775 11.38C29.5242 11.34 29.2442 11.32 28.9375 11.32C28.6708 11.32 28.3975 11.34 28.1175 11.38C27.8508 11.42 27.6042 11.4933 27.3775 11.6C27.1642 11.7067 26.9908 11.86 26.8575 12.06C26.7242 12.2467 26.6575 12.4867 26.6575 12.78C26.6575 13.3533 26.8375 13.7533 27.1975 13.98C27.5575 14.1933 28.0442 14.3 28.6575 14.3ZM28.4575 5.28C29.2575 5.28 29.9308 5.38 30.4775 5.58C31.0242 5.78 31.4575 6.06 31.7775 6.42C32.1108 6.78 32.3442 7.22 32.4775 7.74C32.6242 8.24667 32.6975 8.80667 32.6975 9.42V15.76C32.3242 15.84 31.7575 15.9333 30.9975 16.04C30.2508 16.16 29.4042 16.22 28.4575 16.22C27.8308 16.22 27.2575 16.16 26.7375 16.04C26.2175 15.92 25.7708 15.7267 25.3975 15.46C25.0375 15.1933 24.7508 14.8467 24.5375 14.42C24.3375 13.9933 24.2375 13.4667 24.2375 12.84C24.2375 12.24 24.3508 11.7333 24.5775 11.32C24.8175 10.9067 25.1375 10.5733 25.5375 10.32C25.9375 10.0533 26.3975 9.86667 26.9175 9.76C27.4508 9.64 28.0042 9.58 28.5775 9.58C28.8442 9.58 29.1242 9.6 29.4175 9.64C29.7108 9.66667 30.0242 9.72 30.3575 9.8V9.4C30.3575 9.12 30.3242 8.85333 30.2575 8.6C30.1908 8.34667 30.0708 8.12667 29.8975 7.94C29.7375 7.74 29.5175 7.58667 29.2375 7.48C28.9708 7.37333 28.6308 7.32 28.2175 7.32C27.6575 7.32 27.1442 7.36 26.6775 7.44C26.2108 7.52 25.8308 7.61333 25.5375 7.72L25.2375 5.76C25.5442 5.65333 25.9908 5.54667 26.5775 5.44C27.1642 5.33333 27.7908 5.28 28.4575 5.28ZM35.6611 5.88C36.1278 5.74667 36.7344 5.62 37.4811 5.5C38.2278 5.38 39.0544 5.32 39.9611 5.32C40.8144 5.32 41.5278 5.44 42.1011 5.68C42.6744 5.90667 43.1278 6.23333 43.4611 6.66C43.8078 7.07333 44.0478 7.58 44.1811 8.18C44.3278 8.76667 44.4011 9.41333 44.4011 10.12V16H41.9811V10.5C41.9811 9.94 41.9411 9.46667 41.8611 9.08C41.7944 8.68 41.6744 8.36 41.5011 8.12C41.3411 7.86667 41.1144 7.68667 40.8211 7.58C40.5411 7.46 40.1944 7.4 39.7811 7.4C39.4744 7.4 39.1544 7.42 38.8211 7.46C38.4878 7.5 38.2411 7.53333 38.0811 7.56V16H35.6611V5.88ZM51.0403 14.3C51.787 14.3 52.3536 14.26 52.7403 14.18V11.5C52.607 11.46 52.4136 11.42 52.1603 11.38C51.907 11.34 51.627 11.32 51.3203 11.32C51.0536 11.32 50.7803 11.34 50.5003 11.38C50.2336 11.42 49.987 11.4933 49.7603 11.6C49.547 11.7067 49.3736 11.86 49.2403 12.06C49.107 12.2467 49.0403 12.4867 49.0403 12.78C49.0403 13.3533 49.2203 13.7533 49.5803 13.98C49.9403 14.1933 50.427 14.3 51.0403 14.3ZM50.8403 5.28C51.6403 5.28 52.3136 5.38 52.8603 5.58C53.407 5.78 53.8403 6.06 54.1603 6.42C54.4936 6.78 54.727 7.22 54.8603 7.74C55.007 8.24667 55.0803 8.80667 55.0803 9.42V15.76C54.707 15.84 54.1403 15.9333 53.3803 16.04C52.6336 16.16 51.787 16.22 50.8403 16.22C50.2136 16.22 49.6403 16.16 49.1203 16.04C48.6003 15.92 48.1536 15.7267 47.7803 15.46C47.4203 15.1933 47.1336 14.8467 46.9203 14.42C46.7203 13.9933 46.6203 13.4667 46.6203 12.84C46.6203 12.24 46.7336 11.7333 46.9603 11.32C47.2003 10.9067 47.5203 10.5733 47.9203 10.32C48.3203 10.0533 48.7803 9.86667 49.3003 9.76C49.8336 9.64 50.387 9.58 50.9603 9.58C51.227 9.58 51.507 9.6 51.8003 9.64C52.0936 9.66667 52.407 9.72 52.7403 9.8V9.4C52.7403 9.12 52.707 8.85333 52.6403 8.6C52.5736 8.34667 52.4536 8.12667 52.2803 7.94C52.1203 7.74 51.9003 7.58667 51.6203 7.48C51.3536 7.37333 51.0136 7.32 50.6003 7.32C50.0403 7.32 49.527 7.36 49.0603 7.44C48.5936 7.52 48.2136 7.61333 47.9203 7.72L47.6203 5.76C47.927 5.65333 48.3736 5.54667 48.9603 5.44C49.547 5.33333 50.1736 5.28 50.8403 5.28ZM68.9919 16.3C67.9519 16.3 67.0185 16.14 66.1919 15.82C65.3652 15.5 64.6652 15.0333 64.0919 14.42C63.5185 13.7933 63.0785 13.0333 62.7719 12.14C62.4652 11.2467 62.3119 10.22 62.3119 9.06C62.3119 7.9 62.4852 6.87333 62.8319 5.98C63.1919 5.08667 63.6785 4.33333 64.2919 3.72C64.9052 3.09333 65.6252 2.62 66.4519 2.3C67.2785 1.98 68.1652 1.82 69.1119 1.82C69.6852 1.82 70.2052 1.86667 70.6719 1.96C71.1385 2.04 71.5452 2.13333 71.8919 2.24C72.2385 2.34667 72.5252 2.46 72.7519 2.58C72.9785 2.7 73.1385 2.78667 73.2319 2.84L72.4919 4.9C72.1719 4.7 71.7119 4.51333 71.1119 4.34C70.5252 4.15333 69.8852 4.06 69.1919 4.06C68.5919 4.06 68.0319 4.16667 67.5119 4.38C66.9919 4.58 66.5385 4.88667 66.1519 5.3C65.7785 5.71333 65.4852 6.23333 65.2719 6.86C65.0585 7.48667 64.9519 8.21333 64.9519 9.04C64.9519 9.77333 65.0319 10.4467 65.1919 11.06C65.3652 11.6733 65.6252 12.2067 65.9719 12.66C66.3185 13.1 66.7585 13.4467 67.2919 13.7C67.8252 13.94 68.4652 14.06 69.2119 14.06C70.1052 14.06 70.8319 13.9733 71.3919 13.8C71.9519 13.6133 72.3852 13.44 72.6919 13.28L73.3719 15.34C73.2119 15.4467 72.9919 15.5533 72.7119 15.66C72.4452 15.7667 72.1252 15.8733 71.7519 15.98C71.3785 16.0733 70.9585 16.1467 70.4919 16.2C70.0252 16.2667 69.5252 16.3 68.9919 16.3ZM75.4658 16V0.879999L77.8858 0.48V5.66C78.1524 5.56667 78.4591 5.48667 78.8058 5.42C79.1658 5.35333 79.5191 5.32 79.8658 5.32C80.7058 5.32 81.3991 5.44 81.9458 5.68C82.5058 5.90667 82.9524 6.23333 83.2858 6.66C83.6191 7.07333 83.8524 7.57333 83.9858 8.16C84.1324 8.74667 84.2058 9.4 84.2058 10.12V16H81.7858V10.5C81.7858 9.94 81.7458 9.46667 81.6658 9.08C81.5991 8.68 81.4791 8.36 81.3058 8.12C81.1458 7.86667 80.9258 7.68667 80.6458 7.58C80.3658 7.46 80.0191 7.4 79.6058 7.4C79.2858 7.4 78.9591 7.43333 78.6258 7.5C78.2924 7.56667 78.0458 7.62667 77.8858 7.68V16H75.4658ZM95.6864 15.68C95.2197 15.8 94.6131 15.92 93.8664 16.04C93.1197 16.1733 92.2997 16.24 91.4064 16.24C90.5664 16.24 89.8597 16.12 89.2864 15.88C88.7264 15.64 88.2731 15.3067 87.9264 14.88C87.5931 14.4533 87.3531 13.9467 87.2064 13.36C87.0597 12.76 86.9864 12.1067 86.9864 11.4V5.54H89.4064V11.02C89.4064 12.14 89.5664 12.94 89.8864 13.42C90.2197 13.9 90.7931 14.14 91.6064 14.14C91.8997 14.14 92.2064 14.1267 92.5264 14.1C92.8597 14.0733 93.1064 14.04 93.2664 14V5.54H95.6864V15.68ZM104.727 7.72C104.527 7.65333 104.247 7.58667 103.887 7.52C103.54 7.44 103.133 7.4 102.667 7.4C102.4 7.4 102.113 7.42667 101.807 7.48C101.513 7.53333 101.307 7.58 101.187 7.62V16H98.7666V6.04C99.2332 5.86667 99.8132 5.70667 100.507 5.56C101.213 5.4 101.993 5.32 102.847 5.32C103.007 5.32 103.193 5.33333 103.407 5.36C103.62 5.37333 103.833 5.4 104.047 5.44C104.26 5.46667 104.467 5.50667 104.667 5.56C104.867 5.6 105.027 5.64 105.147 5.68L104.727 7.72ZM109.253 9.62C109.56 9.3 109.886 8.96 110.233 8.6C110.58 8.22667 110.92 7.86 111.253 7.5C111.586 7.12667 111.9 6.77333 112.193 6.44C112.5 6.09333 112.76 5.79333 112.973 5.54H115.833C115.166 6.28667 114.46 7.06 113.713 7.86C112.98 8.66 112.24 9.44 111.493 10.2C111.893 10.5333 112.313 10.94 112.753 11.42C113.193 11.8867 113.62 12.3867 114.033 12.92C114.446 13.4533 114.833 13.9867 115.193 14.52C115.553 15.0533 115.853 15.5467 116.093 16H113.293C113.053 15.5867 112.773 15.1533 112.453 14.7C112.146 14.2467 111.813 13.8067 111.453 13.38C111.093 12.9533 110.726 12.5533 110.353 12.18C109.98 11.7933 109.613 11.4667 109.253 11.2V16H106.833V0.879999L109.253 0.48V9.62ZM120.289 16H117.869V5.54H120.289V16ZM120.549 2.48C120.549 2.93333 120.402 3.29333 120.109 3.56C119.815 3.82667 119.469 3.96 119.069 3.96C118.655 3.96 118.302 3.82667 118.009 3.56C117.715 3.29333 117.569 2.93333 117.569 2.48C117.569 2.01333 117.715 1.64667 118.009 1.38C118.302 1.11333 118.655 0.979999 119.069 0.979999C119.469 0.979999 119.815 1.11333 120.109 1.38C120.402 1.64667 120.549 2.01333 120.549 2.48ZM123.376 5.88C123.843 5.74667 124.449 5.62 125.196 5.5C125.943 5.38 126.769 5.32 127.676 5.32C128.529 5.32 129.243 5.44 129.816 5.68C130.389 5.90667 130.843 6.23333 131.176 6.66C131.523 7.07333 131.763 7.58 131.896 8.18C132.043 8.76667 132.116 9.41333 132.116 10.12V16H129.696V10.5C129.696 9.94 129.656 9.46667 129.576 9.08C129.509 8.68 129.389 8.36 129.216 8.12C129.056 7.86667 128.829 7.68667 128.536 7.58C128.256 7.46 127.909 7.4 127.496 7.4C127.189 7.4 126.869 7.42 126.536 7.46C126.203 7.5 125.956 7.53333 125.796 7.56V16H123.376V5.88ZM138.755 14.3C139.502 14.3 140.068 14.26 140.455 14.18V11.5C140.322 11.46 140.128 11.42 139.875 11.38C139.622 11.34 139.342 11.32 139.035 11.32C138.768 11.32 138.495 11.34 138.215 11.38C137.948 11.42 137.702 11.4933 137.475 11.6C137.262 11.7067 137.088 11.86 136.955 12.06C136.822 12.2467 136.755 12.4867 136.755 12.78C136.755 13.3533 136.935 13.7533 137.295 13.98C137.655 14.1933 138.142 14.3 138.755 14.3ZM138.555 5.28C139.355 5.28 140.028 5.38 140.575 5.58C141.122 5.78 141.555 6.06 141.875 6.42C142.208 6.78 142.442 7.22 142.575 7.74C142.722 8.24667 142.795 8.80667 142.795 9.42V15.76C142.422 15.84 141.855 15.9333 141.095 16.04C140.348 16.16 139.502 16.22 138.555 16.22C137.928 16.22 137.355 16.16 136.835 16.04C136.315 15.92 135.868 15.7267 135.495 15.46C135.135 15.1933 134.848 14.8467 134.635 14.42C134.435 13.9933 134.335 13.4667 134.335 12.84C134.335 12.24 134.448 11.7333 134.675 11.32C134.915 10.9067 135.235 10.5733 135.635 10.32C136.035 10.0533 136.495 9.86667 137.015 9.76C137.548 9.64 138.102 9.58 138.675 9.58C138.942 9.58 139.222 9.6 139.515 9.64C139.808 9.66667 140.122 9.72 140.455 9.8V9.4C140.455 9.12 140.422 8.85333 140.355 8.6C140.288 8.34667 140.168 8.12667 139.995 7.94C139.835 7.74 139.615 7.58667 139.335 7.48C139.068 7.37333 138.728 7.32 138.315 7.32C137.755 7.32 137.242 7.36 136.775 7.44C136.308 7.52 135.928 7.61333 135.635 7.72L135.335 5.76C135.642 5.65333 136.088 5.54667 136.675 5.44C137.262 5.33333 137.888 5.28 138.555 5.28Z" fill="black"/>
</svg>
