<svg width="181" height="16" viewBox="0 0 181 16" fill="none" xmlns="http://www.w3.org/2000/svg">
<path d="M0.304 14.552C0.421333 14.6053 0.570667 14.6533 0.752 14.696C0.944 14.7493 1.13067 14.776 1.312 14.776C1.89867 14.776 2.35733 14.6427 2.688 14.376C3.01867 14.12 3.31733 13.6987 3.584 13.112C2.912 11.832 2.28267 10.4773 1.696 9.048C1.12 7.608 0.64 6.152 0.256 4.68H1.856C1.97333 5.16 2.112 5.67733 2.272 6.232C2.44267 6.78667 2.62933 7.35733 2.832 7.944C3.03467 8.53067 3.25333 9.11733 3.488 9.704C3.72267 10.2907 3.968 10.856 4.224 11.4C4.62933 10.28 4.98133 9.17067 5.28 8.072C5.57867 6.97333 5.86133 5.84267 6.128 4.68H7.664C7.28 6.248 6.85333 7.75733 6.384 9.208C5.91467 10.648 5.408 11.9973 4.864 13.256C4.65067 13.736 4.42667 14.1467 4.192 14.488C3.968 14.84 3.71733 15.128 3.44 15.352C3.16267 15.576 2.848 15.7413 2.496 15.848C2.15467 15.9547 1.76533 16.008 1.328 16.008C1.21067 16.008 1.088 15.9973 0.96 15.976C0.832 15.9653 0.704 15.944 0.576 15.912C0.458667 15.8907 0.346667 15.864 0.24 15.832C0.144 15.8 0.0746667 15.7733 0.032 15.752L0.304 14.552ZM16.5771 8.84C16.5771 9.50133 16.4811 10.0987 16.2891 10.632C16.0971 11.1653 15.8251 11.624 15.4731 12.008C15.1318 12.392 14.7211 12.6907 14.2411 12.904C13.7611 13.1067 13.2385 13.208 12.6731 13.208C12.1078 13.208 11.5851 13.1067 11.1051 12.904C10.6251 12.6907 10.2091 12.392 9.85713 12.008C9.51579 11.624 9.24913 11.1653 9.05713 10.632C8.86513 10.0987 8.76913 9.50133 8.76913 8.84C8.76913 8.18933 8.86513 7.59733 9.05713 7.064C9.24913 6.52 9.51579 6.056 9.85713 5.672C10.2091 5.288 10.6251 4.99467 11.1051 4.792C11.5851 4.57867 12.1078 4.472 12.6731 4.472C13.2385 4.472 13.7611 4.57867 14.2411 4.792C14.7211 4.99467 15.1318 5.288 15.4731 5.672C15.8251 6.056 16.0971 6.52 16.2891 7.064C16.4811 7.59733 16.5771 8.18933 16.5771 8.84ZM15.0251 8.84C15.0251 7.90133 14.8118 7.16 14.3851 6.616C13.9691 6.06133 13.3985 5.784 12.6731 5.784C11.9478 5.784 11.3718 6.06133 10.9451 6.616C10.5291 7.16 10.3211 7.90133 10.3211 8.84C10.3211 9.77867 10.5291 10.5253 10.9451 11.08C11.3718 11.624 11.9478 11.896 12.6731 11.896C13.3985 11.896 13.9691 11.624 14.3851 11.08C14.8118 10.5253 15.0251 9.77867 15.0251 8.84ZM18.6706 4.92C19.012 4.83467 19.4653 4.744 20.0306 4.648C20.596 4.552 21.2466 4.504 21.9826 4.504C22.644 4.504 23.1933 4.6 23.6306 4.792C24.068 4.97333 24.4146 5.23467 24.6706 5.576C24.9373 5.90667 25.124 6.30667 25.2306 6.776C25.3373 7.24533 25.3906 7.76267 25.3906 8.328V13H23.9026V8.648C23.9026 8.136 23.8653 7.69867 23.7906 7.336C23.7266 6.97333 23.6146 6.68 23.4546 6.456C23.2946 6.232 23.0813 6.072 22.8146 5.976C22.548 5.86933 22.2173 5.816 21.8226 5.816C21.6626 5.816 21.4973 5.82133 21.3266 5.832C21.156 5.84267 20.9906 5.85867 20.8306 5.88C20.6813 5.89067 20.5426 5.90667 20.4146 5.928C20.2973 5.94933 20.212 5.96533 20.1586 5.976V13H18.6706V4.92ZM29.3461 13H27.8581V4.68H29.3461V13ZM28.5941 3.176C28.3275 3.176 28.0981 3.09067 27.9061 2.92C27.7248 2.73867 27.6341 2.49867 27.6341 2.2C27.6341 1.90133 27.7248 1.66667 27.9061 1.496C28.0981 1.31467 28.3275 1.224 28.5941 1.224C28.8608 1.224 29.0848 1.31467 29.2661 1.496C29.4581 1.66667 29.5541 1.90133 29.5541 2.2C29.5541 2.49867 29.4581 2.73867 29.2661 2.92C29.0848 3.09067 28.8608 3.176 28.5941 3.176ZM35.521 13.192C34.849 13.192 34.257 13.0853 33.745 12.872C33.2437 12.6587 32.817 12.36 32.465 11.976C32.1237 11.592 31.8677 11.1387 31.697 10.616C31.5263 10.0827 31.441 9.496 31.441 8.856C31.441 8.216 31.5317 7.62933 31.713 7.096C31.905 6.56267 32.1717 6.104 32.513 5.72C32.8543 5.32533 33.2703 5.02133 33.761 4.808C34.2623 4.584 34.817 4.472 35.425 4.472C35.7983 4.472 36.1717 4.504 36.545 4.568C36.9183 4.632 37.2757 4.73333 37.617 4.872L37.281 6.136C37.057 6.02933 36.7957 5.944 36.497 5.88C36.209 5.816 35.8997 5.784 35.569 5.784C34.737 5.784 34.097 6.04533 33.649 6.568C33.2117 7.09067 32.993 7.85333 32.993 8.856C32.993 9.304 33.041 9.71467 33.137 10.088C33.2437 10.4613 33.4037 10.7813 33.617 11.048C33.841 11.3147 34.1237 11.5227 34.465 11.672C34.8063 11.8107 35.2223 11.88 35.713 11.88C36.1077 11.88 36.465 11.8427 36.785 11.768C37.105 11.6933 37.3557 11.6133 37.537 11.528L37.745 12.776C37.6597 12.8293 37.537 12.8827 37.377 12.936C37.217 12.9787 37.0357 13.016 36.833 13.048C36.6303 13.0907 36.4117 13.1227 36.177 13.144C35.953 13.176 35.7343 13.192 35.521 13.192ZM39.3425 13V0.839999L40.8305 0.584V4.84C41.1078 4.73333 41.4012 4.65333 41.7105 4.6C42.0305 4.536 42.3452 4.504 42.6545 4.504C43.3158 4.504 43.8652 4.6 44.3025 4.792C44.7398 4.97333 45.0865 5.23467 45.3425 5.576C45.6092 5.90667 45.7958 6.30667 45.9025 6.776C46.0092 7.24533 46.0625 7.76267 46.0625 8.328V13H44.5745V8.648C44.5745 8.136 44.5372 7.69867 44.4625 7.336C44.3985 6.97333 44.2865 6.68 44.1265 6.456C43.9665 6.232 43.7532 6.072 43.4865 5.976C43.2198 5.86933 42.8892 5.816 42.4945 5.816C42.3345 5.816 42.1692 5.82667 41.9985 5.848C41.8278 5.86933 41.6625 5.896 41.5025 5.928C41.3532 5.94933 41.2145 5.976 41.0865 6.008C40.9692 6.04 40.8838 6.06667 40.8305 6.088V13H39.3425ZM55.1071 12.76C54.7658 12.8453 54.3125 12.936 53.7471 13.032C53.1925 13.128 52.5471 13.176 51.8111 13.176C51.1711 13.176 50.6325 13.0853 50.1951 12.904C49.7578 12.712 49.4058 12.4453 49.1391 12.104C48.8725 11.7627 48.6805 11.3627 48.5631 10.904C48.4458 10.4347 48.3871 9.91733 48.3871 9.352V4.68H49.8751V9.032C49.8751 10.0453 50.0351 10.7707 50.3551 11.208C50.6751 11.6453 51.2138 11.864 51.9711 11.864C52.1311 11.864 52.2965 11.8587 52.4671 11.848C52.6378 11.8373 52.7978 11.8267 52.9471 11.816C53.0965 11.7947 53.2298 11.7787 53.3471 11.768C53.4751 11.7467 53.5658 11.7253 53.6191 11.704V4.68H55.1071V12.76ZM60.7426 4.504C60.8706 4.504 61.0146 4.51467 61.1746 4.536C61.3453 4.54667 61.5106 4.568 61.6706 4.6C61.8306 4.62133 61.9746 4.648 62.1026 4.68C62.2413 4.70133 62.3426 4.72267 62.4066 4.744L62.1506 6.04C62.0333 5.99733 61.836 5.94933 61.5586 5.896C61.292 5.832 60.9453 5.8 60.5186 5.8C60.2413 5.8 59.964 5.832 59.6866 5.896C59.42 5.94933 59.244 5.98667 59.1586 6.008V13H57.6706V5.032C58.0226 4.904 58.46 4.78667 58.9826 4.68C59.5053 4.56267 60.092 4.504 60.7426 4.504ZM66.8505 8.424C67.1705 8.66933 67.5065 8.97333 67.8585 9.336C68.2212 9.69867 68.5732 10.0933 68.9145 10.52C69.2665 10.936 69.5972 11.3627 69.9065 11.8C70.2158 12.2267 70.4772 12.6267 70.6905 13H68.9465C68.7225 12.6267 68.4612 12.248 68.1625 11.864C67.8745 11.4693 67.5705 11.096 67.2505 10.744C66.9305 10.3813 66.6052 10.0507 66.2745 9.752C65.9438 9.45333 65.6292 9.20267 65.3305 9V13H63.8425V0.839999L65.3305 0.584V8.168C65.5865 7.912 65.8692 7.62933 66.1785 7.32C66.4878 7.01067 66.7918 6.696 67.0905 6.376C67.3892 6.056 67.6718 5.752 67.9385 5.464C68.2052 5.16533 68.4345 4.904 68.6265 4.68H70.3705C70.1252 4.94667 69.8585 5.24 69.5705 5.56C69.2825 5.88 68.9838 6.20533 68.6745 6.536C68.3652 6.856 68.0505 7.18133 67.7305 7.512C67.4212 7.832 67.1278 8.136 66.8505 8.424ZM73.6899 13H72.2019V4.68H73.6899V13ZM72.9379 3.176C72.6712 3.176 72.4419 3.09067 72.2499 2.92C72.0685 2.73867 71.9779 2.49867 71.9779 2.2C71.9779 1.90133 72.0685 1.66667 72.2499 1.496C72.4419 1.31467 72.6712 1.224 72.9379 1.224C73.2045 1.224 73.4285 1.31467 73.6099 1.496C73.8019 1.66667 73.8979 1.90133 73.8979 2.2C73.8979 2.49867 73.8019 2.73867 73.6099 2.92C73.4285 3.09067 73.2045 3.176 72.9379 3.176ZM76.2488 4.92C76.5901 4.83467 77.0434 4.744 77.6088 4.648C78.1741 4.552 78.8248 4.504 79.5608 4.504C80.2221 4.504 80.7714 4.6 81.2088 4.792C81.6461 4.97333 81.9928 5.23467 82.2488 5.576C82.5154 5.90667 82.7021 6.30667 82.8088 6.776C82.9154 7.24533 82.9688 7.76267 82.9688 8.328V13H81.4808V8.648C81.4808 8.136 81.4434 7.69867 81.3688 7.336C81.3048 6.97333 81.1928 6.68 81.0328 6.456C80.8728 6.232 80.6594 6.072 80.3928 5.976C80.1261 5.86933 79.7954 5.816 79.4008 5.816C79.2408 5.816 79.0754 5.82133 78.9048 5.832C78.7341 5.84267 78.5688 5.85867 78.4088 5.88C78.2594 5.89067 78.1208 5.90667 77.9928 5.928C77.8754 5.94933 77.7901 5.96533 77.7368 5.976V13H76.2488V4.92ZM88.2523 11.928C88.6043 11.928 88.9136 11.9227 89.1803 11.912C89.4576 11.8907 89.6869 11.8587 89.8683 11.816V9.336C89.7616 9.28267 89.5856 9.24 89.3403 9.208C89.1056 9.16533 88.8176 9.144 88.4763 9.144C88.2523 9.144 88.0123 9.16 87.7563 9.192C87.5109 9.224 87.2816 9.29333 87.0683 9.4C86.8656 9.496 86.6949 9.63467 86.5563 9.816C86.4176 9.98667 86.3483 10.216 86.3483 10.504C86.3483 11.0373 86.5189 11.4107 86.8603 11.624C87.2016 11.8267 87.6656 11.928 88.2523 11.928ZM88.1243 4.472C88.7216 4.472 89.2229 4.552 89.6283 4.712C90.0443 4.86133 90.3749 5.08 90.6203 5.368C90.8763 5.64533 91.0576 5.98133 91.1643 6.376C91.2709 6.76 91.3243 7.18667 91.3243 7.656V12.856C91.1963 12.8773 91.0149 12.9093 90.7803 12.952C90.5563 12.984 90.3003 13.016 90.0123 13.048C89.7243 13.08 89.4096 13.1067 89.0683 13.128C88.7376 13.16 88.4069 13.176 88.0763 13.176C87.6069 13.176 87.1749 13.128 86.7803 13.032C86.3856 12.936 86.0443 12.7867 85.7563 12.584C85.4683 12.3707 85.2443 12.0933 85.0843 11.752C84.9243 11.4107 84.8443 11 84.8443 10.52C84.8443 10.0613 84.9349 9.66667 85.1163 9.336C85.3083 9.00533 85.5643 8.73867 85.8843 8.536C86.2043 8.33333 86.5776 8.184 87.0043 8.088C87.4309 7.992 87.8789 7.944 88.3483 7.944C88.4976 7.944 88.6523 7.95467 88.8123 7.976C88.9723 7.98667 89.1216 8.008 89.2603 8.04C89.4096 8.06133 89.5376 8.08267 89.6443 8.104C89.7509 8.12533 89.8256 8.14133 89.8683 8.152V7.736C89.8683 7.49067 89.8416 7.25067 89.7883 7.016C89.7349 6.77067 89.6389 6.55733 89.5003 6.376C89.3616 6.184 89.1696 6.03467 88.9243 5.928C88.6896 5.81067 88.3803 5.752 87.9963 5.752C87.5056 5.752 87.0736 5.78933 86.7003 5.864C86.3376 5.928 86.0656 5.99733 85.8843 6.072L85.7083 4.84C85.9003 4.75467 86.2203 4.67467 86.6683 4.6C87.1163 4.51467 87.6016 4.472 88.1243 4.472ZM103.556 12.312C103.214 12.312 102.932 12.264 102.708 12.168C102.484 12.072 102.297 11.944 102.148 11.784C101.913 11.912 101.63 12.024 101.3 12.12C100.969 12.2053 100.638 12.248 100.308 12.248C99.7956 12.248 99.3263 12.168 98.8996 12.008C98.4836 11.848 98.121 11.6133 97.8116 11.304C97.5023 10.984 97.2623 10.5947 97.0916 10.136C96.921 9.67733 96.8356 9.144 96.8356 8.536C96.8356 8.024 96.9156 7.544 97.0756 7.096C97.2356 6.63733 97.4703 6.24267 97.7796 5.912C98.0996 5.57067 98.4836 5.304 98.9316 5.112C99.3903 4.92 99.9076 4.824 100.484 4.824C101.028 4.824 101.524 4.86667 101.972 4.952C102.43 5.03733 102.782 5.12267 103.028 5.208V10.104C103.028 10.4453 103.086 10.6853 103.204 10.824C103.321 10.9627 103.476 11.032 103.668 11.032C103.945 11.032 104.185 10.936 104.388 10.744C104.601 10.552 104.772 10.3013 104.9 9.992C105.038 9.68267 105.14 9.336 105.204 8.952C105.268 8.55733 105.3 8.15733 105.3 7.752C105.3 7.08 105.182 6.45067 104.948 5.864C104.713 5.26667 104.377 4.744 103.94 4.296C103.502 3.848 102.969 3.496 102.34 3.24C101.721 2.984 101.022 2.856 100.244 2.856C99.465 2.856 98.7503 2.98933 98.0996 3.256C97.449 3.512 96.889 3.88533 96.4196 4.376C95.9503 4.856 95.5823 5.448 95.3156 6.152C95.0596 6.856 94.9316 7.656 94.9316 8.552C94.9316 9.49067 95.0703 10.3173 95.3476 11.032C95.625 11.736 96.009 12.328 96.4996 12.808C97.001 13.2773 97.5876 13.6293 98.2596 13.864C98.9423 14.1093 99.689 14.232 100.5 14.232C101.129 14.232 101.646 14.1947 102.052 14.12C102.468 14.0453 102.734 13.9867 102.852 13.944L103.012 15.128C102.83 15.192 102.5 15.2613 102.02 15.336C101.55 15.4107 101.044 15.448 100.5 15.448C99.5503 15.448 98.6543 15.3093 97.8116 15.032C96.969 14.7653 96.233 14.3493 95.6036 13.784C94.9743 13.2293 94.473 12.52 94.0996 11.656C93.737 10.7813 93.5556 9.74667 93.5556 8.552C93.5556 7.4 93.737 6.392 94.0996 5.528C94.4623 4.664 94.9476 3.94933 95.5556 3.384C96.1743 2.808 96.8836 2.376 97.6836 2.088C98.4943 1.8 99.3476 1.656 100.244 1.656C101.118 1.656 101.945 1.8 102.724 2.088C103.502 2.36533 104.185 2.776 104.772 3.32C105.358 3.85333 105.822 4.504 106.164 5.272C106.505 6.02933 106.676 6.888 106.676 7.848C106.676 8.57333 106.59 9.21333 106.42 9.768C106.26 10.3227 106.041 10.792 105.764 11.176C105.486 11.5493 105.156 11.832 104.772 12.024C104.388 12.216 103.982 12.312 103.556 12.312ZM100.356 11.016C100.58 11.016 100.804 10.9947 101.028 10.952C101.262 10.8987 101.47 10.824 101.652 10.728C101.62 10.5893 101.598 10.4507 101.588 10.312C101.577 10.1733 101.572 10.04 101.572 9.912V6.152C101.508 6.13067 101.385 6.10933 101.204 6.088C101.022 6.06667 100.82 6.056 100.596 6.056C99.8383 6.056 99.273 6.29067 98.8996 6.76C98.5263 7.22933 98.3396 7.82133 98.3396 8.536C98.3396 9.29333 98.521 9.896 98.8836 10.344C99.2463 10.792 99.737 11.016 100.356 11.016ZM114.215 12.168C114.087 12.2533 113.836 12.3653 113.463 12.504C113.1 12.632 112.673 12.696 112.183 12.696C111.681 12.696 111.207 12.616 110.759 12.456C110.321 12.296 109.937 12.0507 109.607 11.72C109.276 11.3787 109.015 10.9573 108.823 10.456C108.631 9.95467 108.535 9.35733 108.535 8.664C108.535 8.056 108.625 7.50133 108.807 7C108.988 6.488 109.249 6.05067 109.591 5.688C109.943 5.31467 110.369 5.02667 110.871 4.824C111.372 4.61067 111.937 4.504 112.567 4.504C113.26 4.504 113.863 4.55733 114.375 4.664C114.897 4.76 115.335 4.85067 115.687 4.936V12.36C115.687 13.64 115.356 14.568 114.695 15.144C114.033 15.72 113.031 16.008 111.687 16.008C111.164 16.008 110.668 15.9653 110.199 15.88C109.74 15.7947 109.34 15.6933 108.999 15.576L109.271 14.28C109.569 14.3973 109.932 14.4987 110.359 14.584C110.796 14.68 111.249 14.728 111.719 14.728C112.604 14.728 113.239 14.552 113.623 14.2C114.017 13.848 114.215 13.288 114.215 12.52V12.168ZM114.199 5.992C114.049 5.94933 113.847 5.912 113.591 5.88C113.345 5.83733 113.009 5.816 112.583 5.816C111.783 5.816 111.164 6.07733 110.727 6.6C110.3 7.12267 110.087 7.816 110.087 8.68C110.087 9.16 110.145 9.57067 110.263 9.912C110.391 10.2533 110.556 10.536 110.759 10.76C110.972 10.984 111.212 11.1493 111.479 11.256C111.756 11.3627 112.039 11.416 112.327 11.416C112.721 11.416 113.084 11.3627 113.415 11.256C113.745 11.1387 114.007 11.0053 114.199 10.856V5.992ZM118.249 4.92C118.59 4.83467 119.038 4.744 119.593 4.648C120.158 4.552 120.809 4.504 121.545 4.504C122.078 4.504 122.526 4.57867 122.889 4.728C123.251 4.86667 123.555 5.07467 123.801 5.352C123.875 5.29867 123.993 5.224 124.153 5.128C124.313 5.032 124.51 4.94133 124.745 4.856C124.979 4.76 125.241 4.68 125.529 4.616C125.817 4.54133 126.126 4.504 126.457 4.504C127.097 4.504 127.619 4.6 128.025 4.792C128.43 4.97333 128.745 5.23467 128.969 5.576C129.203 5.91733 129.358 6.32267 129.433 6.792C129.518 7.26133 129.561 7.77333 129.561 8.328V13H128.073V8.648C128.073 8.15733 128.046 7.736 127.993 7.384C127.95 7.032 127.859 6.73867 127.721 6.504C127.593 6.26933 127.411 6.09867 127.177 5.992C126.953 5.87467 126.659 5.816 126.297 5.816C125.795 5.816 125.379 5.88533 125.049 6.024C124.729 6.152 124.51 6.26933 124.393 6.376C124.478 6.65333 124.542 6.95733 124.585 7.288C124.627 7.61867 124.649 7.96533 124.649 8.328V13H123.161V8.648C123.161 8.15733 123.134 7.736 123.081 7.384C123.027 7.032 122.931 6.73867 122.793 6.504C122.665 6.26933 122.483 6.09867 122.249 5.992C122.025 5.87467 121.737 5.816 121.385 5.816C121.235 5.816 121.075 5.82133 120.905 5.832C120.734 5.84267 120.569 5.85867 120.409 5.88C120.259 5.89067 120.121 5.90667 119.993 5.928C119.865 5.94933 119.779 5.96533 119.737 5.976V13H118.249V4.92ZM134.846 11.928C135.198 11.928 135.507 11.9227 135.774 11.912C136.051 11.8907 136.281 11.8587 136.462 11.816V9.336C136.355 9.28267 136.179 9.24 135.934 9.208C135.699 9.16533 135.411 9.144 135.07 9.144C134.846 9.144 134.606 9.16 134.35 9.192C134.105 9.224 133.875 9.29333 133.662 9.4C133.459 9.496 133.289 9.63467 133.15 9.816C133.011 9.98667 132.942 10.216 132.942 10.504C132.942 11.0373 133.113 11.4107 133.454 11.624C133.795 11.8267 134.259 11.928 134.846 11.928ZM134.718 4.472C135.315 4.472 135.817 4.552 136.222 4.712C136.638 4.86133 136.969 5.08 137.214 5.368C137.47 5.64533 137.651 5.98133 137.758 6.376C137.865 6.76 137.918 7.18667 137.918 7.656V12.856C137.79 12.8773 137.609 12.9093 137.374 12.952C137.15 12.984 136.894 13.016 136.606 13.048C136.318 13.08 136.003 13.1067 135.662 13.128C135.331 13.16 135.001 13.176 134.67 13.176C134.201 13.176 133.769 13.128 133.374 13.032C132.979 12.936 132.638 12.7867 132.35 12.584C132.062 12.3707 131.838 12.0933 131.678 11.752C131.518 11.4107 131.438 11 131.438 10.52C131.438 10.0613 131.529 9.66667 131.71 9.336C131.902 9.00533 132.158 8.73867 132.478 8.536C132.798 8.33333 133.171 8.184 133.598 8.088C134.025 7.992 134.473 7.944 134.942 7.944C135.091 7.944 135.246 7.95467 135.406 7.976C135.566 7.98667 135.715 8.008 135.854 8.04C136.003 8.06133 136.131 8.08267 136.238 8.104C136.345 8.12533 136.419 8.14133 136.462 8.152V7.736C136.462 7.49067 136.435 7.25067 136.382 7.016C136.329 6.77067 136.233 6.55733 136.094 6.376C135.955 6.184 135.763 6.03467 135.518 5.928C135.283 5.81067 134.974 5.752 134.59 5.752C134.099 5.752 133.667 5.78933 133.294 5.864C132.931 5.928 132.659 5.99733 132.478 6.072L132.302 4.84C132.494 4.75467 132.814 4.67467 133.262 4.6C133.71 4.51467 134.195 4.472 134.718 4.472ZM141.877 13H140.389V4.68H141.877V13ZM141.125 3.176C140.859 3.176 140.629 3.09067 140.437 2.92C140.256 2.73867 140.165 2.49867 140.165 2.2C140.165 1.90133 140.256 1.66667 140.437 1.496C140.629 1.31467 140.859 1.224 141.125 1.224C141.392 1.224 141.616 1.31467 141.797 1.496C141.989 1.66667 142.085 1.90133 142.085 2.2C142.085 2.49867 141.989 2.73867 141.797 2.92C141.616 3.09067 141.392 3.176 141.125 3.176ZM146.932 13.16C146.015 13.1387 145.364 12.9413 144.98 12.568C144.596 12.1947 144.404 11.6133 144.404 10.824V0.839999L145.892 0.584V10.584C145.892 10.8293 145.914 11.032 145.956 11.192C145.999 11.352 146.068 11.48 146.164 11.576C146.26 11.672 146.388 11.7467 146.548 11.8C146.708 11.8427 146.906 11.88 147.14 11.912L146.932 13.16ZM150.571 12.136C150.571 12.424 150.475 12.6747 150.283 12.888C150.091 13.1013 149.83 13.208 149.499 13.208C149.169 13.208 148.907 13.1013 148.715 12.888C148.523 12.6747 148.427 12.424 148.427 12.136C148.427 11.848 148.523 11.5973 148.715 11.384C148.907 11.1707 149.169 11.064 149.499 11.064C149.83 11.064 150.091 11.1707 150.283 11.384C150.475 11.5973 150.571 11.848 150.571 12.136ZM156.365 13.192C155.693 13.192 155.101 13.0853 154.589 12.872C154.087 12.6587 153.661 12.36 153.309 11.976C152.967 11.592 152.711 11.1387 152.541 10.616C152.37 10.0827 152.285 9.496 152.285 8.856C152.285 8.216 152.375 7.62933 152.557 7.096C152.749 6.56267 153.015 6.104 153.357 5.72C153.698 5.32533 154.114 5.02133 154.605 4.808C155.106 4.584 155.661 4.472 156.269 4.472C156.642 4.472 157.015 4.504 157.389 4.568C157.762 4.632 158.119 4.73333 158.461 4.872L158.125 6.136C157.901 6.02933 157.639 5.944 157.341 5.88C157.053 5.816 156.743 5.784 156.413 5.784C155.581 5.784 154.941 6.04533 154.493 6.568C154.055 7.09067 153.837 7.85333 153.837 8.856C153.837 9.304 153.885 9.71467 153.981 10.088C154.087 10.4613 154.247 10.7813 154.461 11.048C154.685 11.3147 154.967 11.5227 155.309 11.672C155.65 11.8107 156.066 11.88 156.557 11.88C156.951 11.88 157.309 11.8427 157.629 11.768C157.949 11.6933 158.199 11.6133 158.381 11.528L158.589 12.776C158.503 12.8293 158.381 12.8827 158.221 12.936C158.061 12.9787 157.879 13.016 157.677 13.048C157.474 13.0907 157.255 13.1227 157.021 13.144C156.797 13.176 156.578 13.192 156.365 13.192ZM167.327 8.84C167.327 9.50133 167.231 10.0987 167.039 10.632C166.847 11.1653 166.575 11.624 166.223 12.008C165.882 12.392 165.471 12.6907 164.991 12.904C164.511 13.1067 163.988 13.208 163.423 13.208C162.858 13.208 162.335 13.1067 161.855 12.904C161.375 12.6907 160.959 12.392 160.607 12.008C160.266 11.624 159.999 11.1653 159.807 10.632C159.615 10.0987 159.519 9.50133 159.519 8.84C159.519 8.18933 159.615 7.59733 159.807 7.064C159.999 6.52 160.266 6.056 160.607 5.672C160.959 5.288 161.375 4.99467 161.855 4.792C162.335 4.57867 162.858 4.472 163.423 4.472C163.988 4.472 164.511 4.57867 164.991 4.792C165.471 4.99467 165.882 5.288 166.223 5.672C166.575 6.056 166.847 6.52 167.039 7.064C167.231 7.59733 167.327 8.18933 167.327 8.84ZM165.775 8.84C165.775 7.90133 165.562 7.16 165.135 6.616C164.719 6.06133 164.148 5.784 163.423 5.784C162.698 5.784 162.122 6.06133 161.695 6.616C161.279 7.16 161.071 7.90133 161.071 8.84C161.071 9.77867 161.279 10.5253 161.695 11.08C162.122 11.624 162.698 11.896 163.423 11.896C164.148 11.896 164.719 11.624 165.135 11.08C165.562 10.5253 165.775 9.77867 165.775 8.84ZM169.421 4.92C169.762 4.83467 170.21 4.744 170.765 4.648C171.33 4.552 171.981 4.504 172.717 4.504C173.25 4.504 173.698 4.57867 174.061 4.728C174.423 4.86667 174.727 5.07467 174.973 5.352C175.047 5.29867 175.165 5.224 175.325 5.128C175.485 5.032 175.682 4.94133 175.917 4.856C176.151 4.76 176.413 4.68 176.701 4.616C176.989 4.54133 177.298 4.504 177.629 4.504C178.269 4.504 178.791 4.6 179.197 4.792C179.602 4.97333 179.917 5.23467 180.141 5.576C180.375 5.91733 180.53 6.32267 180.605 6.792C180.69 7.26133 180.733 7.77333 180.733 8.328V13H179.245V8.648C179.245 8.15733 179.218 7.736 179.165 7.384C179.122 7.032 179.031 6.73867 178.893 6.504C178.765 6.26933 178.583 6.09867 178.349 5.992C178.125 5.87467 177.831 5.816 177.469 5.816C176.967 5.816 176.551 5.88533 176.221 6.024C175.901 6.152 175.682 6.26933 175.565 6.376C175.65 6.65333 175.714 6.95733 175.757 7.288C175.799 7.61867 175.821 7.96533 175.821 8.328V13H174.333V8.648C174.333 8.15733 174.306 7.736 174.253 7.384C174.199 7.032 174.103 6.73867 173.965 6.504C173.837 6.26933 173.655 6.09867 173.421 5.992C173.197 5.87467 172.909 5.816 172.557 5.816C172.407 5.816 172.247 5.82133 172.077 5.832C171.906 5.84267 171.741 5.85867 171.581 5.88C171.431 5.89067 171.293 5.90667 171.165 5.928C171.037 5.94933 170.951 5.96533 170.909 5.976V13H169.421V4.92Z" fill="black"/>
</svg>
