<svg width="287" height="37" viewBox="0 0 287 37" fill="none" xmlns="http://www.w3.org/2000/svg">
<path d="M31.6818 18.5455C31.6818 22.2273 31.017 25.4091 29.6875 28.0909C28.358 30.7727 26.5341 32.8409 24.2159 34.2955C21.8977 35.75 19.25 36.4773 16.2727 36.4773C13.2955 36.4773 10.6477 35.75 8.32955 34.2955C6.01136 32.8409 4.1875 30.7727 2.85795 28.0909C1.52841 25.4091 0.863636 22.2273 0.863636 18.5455C0.863636 14.8636 1.52841 11.6818 2.85795 9C4.1875 6.31818 6.01136 4.25 8.32955 2.79545C10.6477 1.34091 13.2955 0.613635 16.2727 0.613635C19.25 0.613635 21.8977 1.34091 24.2159 2.79545C26.5341 4.25 28.358 6.31818 29.6875 9C31.017 11.6818 31.6818 14.8636 31.6818 18.5455ZM27.5909 18.5455C27.5909 15.5227 27.0852 12.9716 26.0739 10.892C25.0739 8.8125 23.7159 7.23864 22 6.17045C20.2955 5.10227 18.3864 4.56818 16.2727 4.56818C14.1591 4.56818 12.2443 5.10227 10.5284 6.17045C8.82386 7.23864 7.46591 8.8125 6.45455 10.892C5.45455 12.9716 4.95455 15.5227 4.95455 18.5455C4.95455 21.5682 5.45455 24.1193 6.45455 26.1989C7.46591 28.2784 8.82386 29.8523 10.5284 30.9205C12.2443 31.9886 14.1591 32.5227 16.2727 32.5227C18.3864 32.5227 20.2955 31.9886 22 30.9205C23.7159 29.8523 25.0739 28.2784 26.0739 26.1989C27.0852 24.1193 27.5909 21.5682 27.5909 18.5455ZM54.7443 25.2955V9.81818H58.767V36H54.7443V31.5682H54.4716C53.858 32.8977 52.9034 34.0284 51.608 34.9602C50.3125 35.8807 48.6761 36.3409 46.6989 36.3409C45.0625 36.3409 43.608 35.983 42.3352 35.267C41.0625 34.5398 40.0625 33.4489 39.3352 31.9943C38.608 30.5284 38.2443 28.6818 38.2443 26.4545V9.81818H42.267V26.1818C42.267 28.0909 42.8011 29.6136 43.8693 30.75C44.9489 31.8864 46.3239 32.4545 47.9943 32.4545C48.9943 32.4545 50.0114 32.1989 51.0455 31.6875C52.0909 31.1761 52.9659 30.392 53.6705 29.3352C54.3864 28.2784 54.7443 26.9318 54.7443 25.2955ZM66.1349 36V9.81818H70.0213V13.7727H70.294C70.7713 12.4773 71.6349 11.4261 72.8849 10.6193C74.1349 9.8125 75.544 9.40909 77.1122 9.40909C77.4077 9.40909 77.777 9.41477 78.2202 9.42614C78.6634 9.4375 78.9986 9.45455 79.2259 9.47727V13.5682C79.0895 13.5341 78.777 13.483 78.2884 13.4148C77.8111 13.3352 77.3054 13.2955 76.7713 13.2955C75.4986 13.2955 74.3622 13.5625 73.3622 14.0966C72.3736 14.6193 71.5895 15.3466 71.0099 16.2784C70.4418 17.1989 70.1577 18.25 70.1577 19.4318V36H66.1349ZM117.131 9.81818C116.926 8.09091 116.097 6.75 114.642 5.79545C113.188 4.84091 111.403 4.36364 109.29 4.36364C107.744 4.36364 106.392 4.61364 105.233 5.11364C104.085 5.61364 103.188 6.30114 102.54 7.17614C101.903 8.05114 101.585 9.04545 101.585 10.1591C101.585 11.0909 101.807 11.892 102.25 12.5625C102.705 13.2216 103.284 13.7727 103.989 14.2159C104.693 14.6477 105.432 15.0057 106.205 15.2898C106.977 15.5625 107.688 15.7841 108.335 15.9545L111.881 16.9091C112.79 17.1477 113.801 17.4773 114.915 17.8977C116.04 18.3182 117.114 18.892 118.136 19.6193C119.17 20.3352 120.023 21.2557 120.693 22.3807C121.364 23.5057 121.699 24.8864 121.699 26.5227C121.699 28.4091 121.205 30.1136 120.216 31.6364C119.239 33.1591 117.807 34.3693 115.92 35.267C114.045 36.1648 111.767 36.6136 109.085 36.6136C106.585 36.6136 104.42 36.2102 102.591 35.4034C100.773 34.5966 99.3409 33.4716 98.2955 32.0284C97.2614 30.5852 96.6761 28.9091 96.5398 27H100.903C101.017 28.3182 101.46 29.4091 102.233 30.2727C103.017 31.125 104.006 31.7614 105.199 32.1818C106.403 32.5909 107.699 32.7955 109.085 32.7955C110.699 32.7955 112.148 32.5341 113.432 32.0114C114.716 31.4773 115.733 30.7386 116.483 29.7955C117.233 28.8409 117.608 27.7273 117.608 26.4545C117.608 25.2955 117.284 24.3523 116.636 23.625C115.989 22.8977 115.136 22.3068 114.08 21.8523C113.023 21.3977 111.881 21 110.653 20.6591L106.358 19.4318C103.631 18.6477 101.472 17.5284 99.8807 16.0739C98.2898 14.6193 97.4943 12.7159 97.4943 10.3636C97.4943 8.40909 98.0227 6.70454 99.0795 5.25C100.148 3.78409 101.58 2.64773 103.375 1.84091C105.182 1.02273 107.199 0.613635 109.426 0.613635C111.676 0.613635 113.676 1.01704 115.426 1.82386C117.176 2.61932 118.563 3.71023 119.585 5.09659C120.619 6.48295 121.165 8.05682 121.222 9.81818H117.131ZM139.081 36.5455C136.558 36.5455 134.382 35.9886 132.553 34.875C130.734 33.75 129.331 32.1818 128.342 30.1705C127.365 28.1477 126.876 25.7955 126.876 23.1136C126.876 20.4318 127.365 18.0682 128.342 16.0227C129.331 13.9659 130.706 12.3636 132.467 11.2159C134.24 10.0568 136.308 9.47727 138.672 9.47727C140.036 9.47727 141.382 9.70455 142.712 10.1591C144.041 10.6136 145.251 11.3523 146.342 12.375C147.433 13.3864 148.303 14.7273 148.95 16.3977C149.598 18.0682 149.922 20.125 149.922 22.5682V24.2727H129.74V20.7955H145.831C145.831 19.3182 145.536 18 144.945 16.8409C144.365 15.6818 143.536 14.767 142.456 14.0966C141.388 13.4261 140.126 13.0909 138.672 13.0909C137.07 13.0909 135.683 13.4886 134.513 14.2841C133.354 15.0682 132.462 16.0909 131.837 17.3523C131.212 18.6136 130.899 19.9659 130.899 21.4091V23.7273C130.899 25.7045 131.24 27.3807 131.922 28.7557C132.615 30.1193 133.575 31.1591 134.803 31.875C136.03 32.5795 137.456 32.9318 139.081 32.9318C140.138 32.9318 141.092 32.7841 141.945 32.4886C142.808 32.1818 143.553 31.7273 144.178 31.125C144.803 30.5114 145.286 29.75 145.626 28.8409L149.513 29.9318C149.104 31.25 148.416 32.4091 147.45 33.4091C146.484 34.3977 145.291 35.1705 143.871 35.7273C142.45 36.2727 140.854 36.5455 139.081 36.5455ZM156.041 36V9.81818H159.928V13.7727H160.2C160.678 12.4773 161.541 11.4261 162.791 10.6193C164.041 9.8125 165.45 9.40909 167.018 9.40909C167.314 9.40909 167.683 9.41477 168.126 9.42614C168.57 9.4375 168.905 9.45455 169.132 9.47727V13.5682C168.996 13.5341 168.683 13.483 168.195 13.4148C167.717 13.3352 167.212 13.2955 166.678 13.2955C165.405 13.2955 164.268 13.5625 163.268 14.0966C162.28 14.6193 161.496 15.3466 160.916 16.2784C160.348 17.1989 160.064 18.25 160.064 19.4318V36H156.041ZM196.107 9.81818L186.425 36H182.334L172.652 9.81818H177.016L184.243 30.6818H184.516L191.743 9.81818H196.107ZM201.416 36V9.81818H205.439V36H201.416ZM203.462 5.45455C202.678 5.45455 202.001 5.1875 201.433 4.65341C200.876 4.11932 200.598 3.47727 200.598 2.72727C200.598 1.97727 200.876 1.33523 201.433 0.801135C202.001 0.267045 202.678 0 203.462 0C204.246 0 204.916 0.267045 205.473 0.801135C206.041 1.33523 206.325 1.97727 206.325 2.72727C206.325 3.47727 206.041 4.11932 205.473 4.65341C204.916 5.1875 204.246 5.45455 203.462 5.45455ZM223.443 36.5455C220.989 36.5455 218.875 35.9659 217.102 34.8068C215.33 33.6477 213.966 32.0511 213.011 30.017C212.057 27.983 211.58 25.6591 211.58 23.0455C211.58 20.3864 212.068 18.0398 213.045 16.0057C214.034 13.9602 215.409 12.3636 217.17 11.2159C218.943 10.0568 221.011 9.47727 223.375 9.47727C225.216 9.47727 226.875 9.81818 228.352 10.5C229.83 11.1818 231.04 12.1364 231.983 13.3636C232.926 14.5909 233.511 16.0227 233.739 17.6591H229.716C229.409 16.4659 228.727 15.4091 227.67 14.4886C226.625 13.5568 225.216 13.0909 223.443 13.0909C221.875 13.0909 220.5 13.5 219.318 14.3182C218.148 15.125 217.233 16.267 216.574 17.7443C215.926 19.2102 215.602 20.9318 215.602 22.9091C215.602 24.9318 215.92 26.6932 216.557 28.1932C217.205 29.6932 218.114 30.858 219.284 31.6875C220.466 32.517 221.852 32.9318 223.443 32.9318C224.489 32.9318 225.438 32.75 226.29 32.3864C227.142 32.0227 227.864 31.5 228.455 30.8182C229.045 30.1364 229.466 29.3182 229.716 28.3636H233.739C233.511 29.9091 232.949 31.3011 232.051 32.5398C231.165 33.767 229.989 34.7443 228.523 35.4716C227.068 36.1875 225.375 36.5455 223.443 36.5455ZM250.597 36.5455C248.074 36.5455 245.898 35.9886 244.068 34.875C242.25 33.75 240.847 32.1818 239.858 30.1705C238.881 28.1477 238.392 25.7955 238.392 23.1136C238.392 20.4318 238.881 18.0682 239.858 16.0227C240.847 13.9659 242.222 12.3636 243.983 11.2159C245.756 10.0568 247.824 9.47727 250.188 9.47727C251.551 9.47727 252.898 9.70455 254.227 10.1591C255.557 10.6136 256.767 11.3523 257.858 12.375C258.949 13.3864 259.818 14.7273 260.466 16.3977C261.114 18.0682 261.438 20.125 261.438 22.5682V24.2727H241.256V20.7955H257.347C257.347 19.3182 257.051 18 256.46 16.8409C255.881 15.6818 255.051 14.767 253.972 14.0966C252.903 13.4261 251.642 13.0909 250.188 13.0909C248.585 13.0909 247.199 13.4886 246.028 14.2841C244.869 15.0682 243.977 16.0909 243.352 17.3523C242.727 18.6136 242.415 19.9659 242.415 21.4091V23.7273C242.415 25.7045 242.756 27.3807 243.438 28.7557C244.131 30.1193 245.091 31.1591 246.318 31.875C247.545 32.5795 248.972 32.9318 250.597 32.9318C251.653 32.9318 252.608 32.7841 253.46 32.4886C254.324 32.1818 255.068 31.7273 255.693 31.125C256.318 30.5114 256.801 29.75 257.142 28.8409L261.028 29.9318C260.619 31.25 259.932 32.4091 258.966 33.4091C258 34.3977 256.807 35.1705 255.386 35.7273C253.966 36.2727 252.369 36.5455 250.597 36.5455ZM286.102 15.6818L282.489 16.7045C282.261 16.1023 281.926 15.517 281.483 14.9489C281.051 14.3693 280.46 13.892 279.71 13.517C278.96 13.142 278 12.9545 276.83 12.9545C275.227 12.9545 273.892 13.3239 272.824 14.0625C271.767 14.7898 271.239 15.7159 271.239 16.8409C271.239 17.8409 271.602 18.6307 272.33 19.2102C273.057 19.7898 274.193 20.2727 275.739 20.6591L279.625 21.6136C281.966 22.1818 283.71 23.0511 284.858 24.2216C286.006 25.3807 286.58 26.875 286.58 28.7045C286.58 30.2045 286.148 31.5455 285.284 32.7273C284.432 33.9091 283.239 34.8409 281.705 35.5227C280.17 36.2045 278.386 36.5455 276.352 36.5455C273.682 36.5455 271.472 35.9659 269.722 34.8068C267.972 33.6477 266.864 31.9545 266.398 29.7273L270.216 28.7727C270.58 30.1818 271.267 31.2386 272.278 31.9432C273.301 32.6477 274.636 33 276.284 33C278.159 33 279.648 32.6023 280.75 31.8068C281.864 31 282.42 30.0341 282.42 28.9091C282.42 28 282.102 27.2386 281.466 26.625C280.83 26 279.852 25.5341 278.534 25.2273L274.17 24.2045C271.773 23.6364 270.011 22.7557 268.886 21.5625C267.773 20.358 267.216 18.8523 267.216 17.0455C267.216 15.5682 267.631 14.2614 268.46 13.125C269.301 11.9886 270.443 11.0966 271.886 10.4489C273.341 9.80114 274.989 9.47727 276.83 9.47727C279.42 9.47727 281.455 10.0455 282.932 11.1818C284.42 12.3182 285.477 13.8182 286.102 15.6818Z" fill="#F5F5F5"/>
</svg>
