<svg width="148" height="47" viewBox="0 0 148 47" fill="none" xmlns="http://www.w3.org/2000/svg">
<path d="M0.227273 36V1.09091H12.0227C14.7614 1.09091 17 1.58523 18.7386 2.57386C20.4886 3.55114 21.7841 4.875 22.625 6.54545C23.4659 8.21591 23.8864 10.0795 23.8864 12.1364C23.8864 14.1932 23.4659 16.0625 22.625 17.7443C21.7955 19.4261 20.5114 20.767 18.7727 21.767C17.0341 22.7557 14.8068 23.25 12.0909 23.25H3.63636V19.5H11.9545C13.8295 19.5 15.3352 19.1761 16.4716 18.5284C17.608 17.8807 18.4318 17.0057 18.9432 15.9034C19.4659 14.7898 19.7273 13.5341 19.7273 12.1364C19.7273 10.7386 19.4659 9.48864 18.9432 8.38636C18.4318 7.28409 17.6023 6.42045 16.4545 5.79545C15.3068 5.15909 13.7841 4.84091 11.8864 4.84091H4.45455V36H0.227273ZM30.1506 36V9.81818H34.0369V13.7727H34.3097C34.7869 12.4773 35.6506 11.4261 36.9006 10.6193C38.1506 9.8125 39.5597 9.40909 41.1278 9.40909C41.4233 9.40909 41.7926 9.41477 42.2358 9.42614C42.679 9.4375 43.0142 9.45455 43.2415 9.47727V13.5682C43.1051 13.5341 42.7926 13.483 42.304 13.4148C41.8267 13.3352 41.321 13.2955 40.7869 13.2955C39.5142 13.2955 38.3778 13.5625 37.3778 14.0966C36.3892 14.6193 35.6051 15.3466 35.0256 16.2784C34.4574 17.1989 34.1733 18.25 34.1733 19.4318V36H30.1506ZM48.0099 36V9.81818H52.0327V36H48.0099ZM50.0554 5.45455C49.2713 5.45455 48.5952 5.1875 48.027 4.65341C47.4702 4.11932 47.1918 3.47727 47.1918 2.72727C47.1918 1.97727 47.4702 1.33523 48.027 0.801135C48.5952 0.267045 49.2713 0 50.0554 0C50.8395 0 51.5099 0.267045 52.0668 0.801135C52.6349 1.33523 52.919 1.97727 52.919 2.72727C52.919 3.47727 52.6349 4.11932 52.0668 4.65341C51.5099 5.1875 50.8395 5.45455 50.0554 5.45455ZM70.0369 36.5455C67.5824 36.5455 65.4688 35.9659 63.696 34.8068C61.9233 33.6477 60.5597 32.0511 59.6051 30.017C58.6506 27.983 58.1733 25.6591 58.1733 23.0455C58.1733 20.3864 58.6619 18.0398 59.6392 16.0057C60.6278 13.9602 62.0028 12.3636 63.7642 11.2159C65.5369 10.0568 67.6051 9.47727 69.9688 9.47727C71.8097 9.47727 73.4688 9.81818 74.946 10.5C76.4233 11.1818 77.6335 12.1364 78.5767 13.3636C79.5199 14.5909 80.1051 16.0227 80.3324 17.6591H76.3097C76.0028 16.4659 75.321 15.4091 74.2642 14.4886C73.2188 13.5568 71.8097 13.0909 70.0369 13.0909C68.4688 13.0909 67.0938 13.5 65.9119 14.3182C64.7415 15.125 63.8267 16.267 63.1676 17.7443C62.5199 19.2102 62.196 20.9318 62.196 22.9091C62.196 24.9318 62.5142 26.6932 63.1506 28.1932C63.7983 29.6932 64.7074 30.858 65.8778 31.6875C67.0597 32.517 68.446 32.9318 70.0369 32.9318C71.0824 32.9318 72.0312 32.75 72.8835 32.3864C73.7358 32.0227 74.4574 31.5 75.0483 30.8182C75.6392 30.1364 76.0597 29.3182 76.3097 28.3636H80.3324C80.1051 29.9091 79.5426 31.3011 78.6449 32.5398C77.7585 33.767 76.5824 34.7443 75.1165 35.4716C73.6619 36.1875 71.9688 36.5455 70.0369 36.5455ZM86.2131 36V9.81818H90.2358V36H86.2131ZM88.2585 5.45455C87.4744 5.45455 86.7983 5.1875 86.2301 4.65341C85.6733 4.11932 85.3949 3.47727 85.3949 2.72727C85.3949 1.97727 85.6733 1.33523 86.2301 0.801135C86.7983 0.267045 87.4744 0 88.2585 0C89.0426 0 89.7131 0.267045 90.2699 0.801135C90.8381 1.33523 91.1222 1.97727 91.1222 2.72727C91.1222 3.47727 90.8381 4.11932 90.2699 4.65341C89.7131 5.1875 89.0426 5.45455 88.2585 5.45455ZM101.626 20.25V36H97.6037V9.81818H101.49V13.9091H101.831C102.445 12.5795 103.376 11.5114 104.626 10.7045C105.876 9.88636 107.49 9.47727 109.467 9.47727C111.24 9.47727 112.791 9.84091 114.121 10.5682C115.45 11.2841 116.484 12.375 117.223 13.8409C117.962 15.2955 118.331 17.1364 118.331 19.3636V36H114.308V19.6364C114.308 17.5795 113.774 15.9773 112.706 14.8295C111.638 13.6705 110.172 13.0909 108.308 13.0909C107.024 13.0909 105.876 13.3693 104.865 13.9261C103.865 14.483 103.075 15.2955 102.496 16.3636C101.916 17.4318 101.626 18.7273 101.626 20.25ZM136.25 46.3636C134.307 46.3636 132.636 46.1136 131.239 45.6136C129.841 45.125 128.676 44.4773 127.744 43.6705C126.824 42.875 126.091 42.0227 125.545 41.1136L128.75 38.8636C129.114 39.3409 129.574 39.8864 130.131 40.5C130.688 41.125 131.449 41.6648 132.415 42.1193C133.392 42.5852 134.67 42.8182 136.25 42.8182C138.364 42.8182 140.108 42.3068 141.483 41.2841C142.858 40.2614 143.545 38.6591 143.545 36.4773V31.1591H143.205C142.909 31.6364 142.489 32.2273 141.943 32.9318C141.409 33.625 140.636 34.2443 139.625 34.7898C138.625 35.3239 137.273 35.5909 135.568 35.5909C133.455 35.5909 131.557 35.0909 129.875 34.0909C128.205 33.0909 126.881 31.6364 125.903 29.7273C124.938 27.8182 124.455 25.5 124.455 22.7727C124.455 20.0909 124.926 17.7557 125.869 15.767C126.813 13.767 128.125 12.2216 129.807 11.1307C131.489 10.0284 133.432 9.47727 135.636 9.47727C137.341 9.47727 138.693 9.76136 139.693 10.3295C140.705 10.8864 141.477 11.5227 142.011 12.2386C142.557 12.9432 142.977 13.5227 143.273 13.9773H143.682V9.81818H147.568V36.75C147.568 39 147.057 40.8295 146.034 42.2386C145.023 43.6591 143.659 44.6989 141.943 45.358C140.239 46.0284 138.341 46.3636 136.25 46.3636ZM136.114 31.9773C137.727 31.9773 139.091 31.608 140.205 30.8693C141.318 30.1307 142.165 29.0682 142.744 27.6818C143.324 26.2955 143.614 24.6364 143.614 22.7045C143.614 20.8182 143.33 19.1534 142.761 17.7102C142.193 16.267 141.352 15.1364 140.239 14.3182C139.125 13.5 137.75 13.0909 136.114 13.0909C134.409 13.0909 132.989 13.5227 131.852 14.3864C130.727 15.25 129.881 16.4091 129.312 17.8636C128.756 19.3182 128.477 20.9318 128.477 22.7045C128.477 24.5227 128.761 26.1307 129.33 27.5284C129.909 28.9148 130.761 30.0057 131.886 30.8011C133.023 31.5852 134.432 31.9773 136.114 31.9773Z" fill="black"/>
</svg>
