<svg width="40" height="40" viewBox="0 0 40 40" fill="none" xmlns="http://www.w3.org/2000/svg">
<path d="M9.70678 6.05337L20.0001 16.3467L30.2401 6.10671C30.4663 5.86595 30.7388 5.67336 31.0412 5.54047C31.3436 5.40759 31.6698 5.33715 32.0001 5.33337C32.7074 5.33337 33.3856 5.61433 33.8857 6.11442C34.3858 6.61452 34.6668 7.2928 34.6668 8.00004C34.673 8.32698 34.6123 8.65174 34.4885 8.95439C34.3647 9.25704 34.1804 9.5312 33.9468 9.76004L23.5734 20L33.9468 30.3734C34.3863 30.8034 34.644 31.3856 34.6668 32C34.6668 32.7073 34.3858 33.3856 33.8857 33.8857C33.3856 34.3858 32.7074 34.6667 32.0001 34.6667C31.6603 34.6808 31.3212 34.6241 31.0044 34.5001C30.6877 34.3762 30.4001 34.1877 30.1601 33.9467L20.0001 23.6534L9.73344 33.92C9.50812 34.1528 9.23895 34.3386 8.94145 34.4667C8.64395 34.5949 8.32401 34.6628 8.00011 34.6667C7.29286 34.6667 6.61459 34.3858 6.11449 33.8857C5.61439 33.3856 5.33344 32.7073 5.33344 32C5.32722 31.6731 5.38788 31.3483 5.51169 31.0457C5.63551 30.743 5.81986 30.4689 6.05344 30.24L16.4268 20L6.05344 9.62671C5.61393 9.19673 5.35621 8.61447 5.33344 8.00004C5.33344 7.2928 5.61439 6.61452 6.11449 6.11442C6.61459 5.61433 7.29286 5.33337 8.00011 5.33337C8.64011 5.34137 9.25344 5.60004 9.70678 6.05337Z" fill="black"/>
</svg>
